<svg width="201" height="61" viewBox="0 0 201 61" fill="none" xmlns="http://www.w3.org/2000/svg">
<path d="M39.9894 15L43.1334 6.06H44.8854L48.0294 15H46.5174L45.8334 12.996H42.1974L41.5014 15H39.9894ZM42.6054 11.736H45.4014L43.8174 7.056H44.2134L42.6054 11.736ZM49.09 15V6.06H54.91V7.32H50.506V10.008H54.43V11.268H50.506V15H49.09ZM56.0978 15V6.06H61.9178V7.32H57.5138V10.008H61.4378V11.268H57.5138V15H56.0978ZM63.1056 15V6.06H64.5216V15H63.1056ZM66.3752 15V6.06H67.7912V13.74H71.6552V15H66.3752ZM72.8439 15V6.06H74.2599V15H72.8439ZM75.3215 15L78.4655 6.06H80.2175L83.3615 15H81.8495L81.1655 12.996H77.5295L76.8335 15H75.3215ZM77.9375 11.736H80.7335L79.1495 7.056H79.5455L77.9375 11.736ZM85.4084 15V7.32H83.0324V6.06H89.1524V7.32H86.8124V15H85.4084ZM90.2111 15V6.06H96.1031V7.32H91.6271V9.888H95.8631V11.148H91.6271V13.74H96.1031V15H90.2111ZM99.5158 15V6.06H103.284C103.844 6.06 104.328 6.16 104.736 6.36C105.144 6.552 105.456 6.832 105.672 7.2C105.888 7.56 105.996 7.988 105.996 8.484C105.996 8.916 105.884 9.312 105.66 9.672C105.444 10.024 105.104 10.304 104.64 10.512V9.912C105.048 10.072 105.38 10.276 105.636 10.524C105.892 10.764 106.076 11.036 106.188 11.34C106.308 11.644 106.368 11.964 106.368 12.3C106.368 13.14 106.092 13.8 105.54 14.28C104.996 14.76 104.248 15 103.296 15H99.5158ZM100.932 13.74H103.404C103.876 13.74 104.252 13.612 104.532 13.356C104.812 13.092 104.952 12.744 104.952 12.312C104.952 11.872 104.812 11.524 104.532 11.268C104.252 11.004 103.876 10.872 103.404 10.872H100.932V13.74ZM100.932 9.624H103.32C103.704 9.624 104.012 9.516 104.244 9.3C104.476 9.076 104.592 8.784 104.592 8.424C104.592 8.064 104.476 7.784 104.244 7.584C104.012 7.384 103.704 7.284 103.32 7.284H100.932V9.624ZM107.824 15V6.06H111.076C111.676 6.06 112.204 6.172 112.66 6.396C113.116 6.612 113.472 6.932 113.728 7.356C113.992 7.772 114.124 8.272 114.124 8.856C114.124 9.472 113.968 10 113.656 10.44C113.352 10.88 112.94 11.2 112.42 11.4L114.484 15H112.876L110.68 11.1L111.604 11.64H109.24V15H107.824ZM109.24 10.38H111.1C111.428 10.38 111.712 10.316 111.952 10.188C112.192 10.06 112.376 9.884 112.504 9.66C112.64 9.428 112.708 9.156 112.708 8.844C112.708 8.532 112.64 8.264 112.504 8.04C112.376 7.808 112.192 7.632 111.952 7.512C111.712 7.384 111.428 7.32 111.1 7.32H109.24V10.38ZM114.884 15L118.028 6.06H119.78L122.924 15H121.412L120.728 12.996H117.092L116.396 15H114.884ZM117.5 11.736H120.296L118.712 7.056H119.108L117.5 11.736ZM123.985 15V6.06H125.125L130.141 12.984L129.601 13.068V6.06H131.005V15H129.865L124.885 8.028L125.401 7.932V15H123.985ZM132.856 15V6.06H135.784C136.712 6.06 137.516 6.248 138.196 6.624C138.884 6.992 139.416 7.512 139.792 8.184C140.168 8.856 140.356 9.636 140.356 10.524C140.356 11.404 140.168 12.184 139.792 12.864C139.416 13.536 138.884 14.06 138.196 14.436C137.516 14.812 136.712 15 135.784 15H132.856ZM134.272 13.74H135.808C136.44 13.74 136.988 13.608 137.452 13.344C137.924 13.08 138.288 12.708 138.544 12.228C138.8 11.748 138.928 11.18 138.928 10.524C138.928 9.868 138.796 9.304 138.532 8.832C138.276 8.352 137.916 7.98 137.452 7.716C136.988 7.452 136.44 7.32 135.808 7.32H134.272V13.74ZM148.192 15.144C147.544 15.144 146.94 15.028 146.38 14.796C145.828 14.564 145.34 14.24 144.916 13.824C144.5 13.408 144.172 12.92 143.932 12.36C143.7 11.8 143.584 11.188 143.584 10.524C143.584 9.86 143.7 9.248 143.932 8.688C144.172 8.12 144.5 7.632 144.916 7.224C145.332 6.808 145.82 6.488 146.38 6.264C146.94 6.032 147.544 5.916 148.192 5.916C148.848 5.916 149.452 6.032 150.004 6.264C150.564 6.488 151.052 6.808 151.468 7.224C151.892 7.64 152.22 8.128 152.452 8.688C152.684 9.248 152.8 9.86 152.8 10.524C152.8 11.188 152.68 11.8 152.44 12.36C152.208 12.92 151.884 13.408 151.468 13.824C151.052 14.24 150.564 14.564 150.004 14.796C149.444 15.028 148.84 15.144 148.192 15.144ZM148.192 13.848C148.656 13.848 149.08 13.764 149.464 13.596C149.856 13.428 150.196 13.196 150.484 12.9C150.772 12.596 150.996 12.244 151.156 11.844C151.316 11.436 151.396 10.996 151.396 10.524C151.396 10.052 151.316 9.616 151.156 9.216C150.996 8.816 150.772 8.464 150.484 8.16C150.196 7.856 149.856 7.62 149.464 7.452C149.08 7.284 148.656 7.2 148.192 7.2C147.728 7.2 147.3 7.284 146.908 7.452C146.524 7.62 146.188 7.856 145.9 8.16C145.612 8.464 145.388 8.816 145.228 9.216C145.076 9.616 145 10.052 145 10.524C145 10.996 145.076 11.436 145.228 11.844C145.388 12.244 145.612 12.596 145.9 12.9C146.188 13.196 146.528 13.428 146.92 13.596C147.312 13.764 147.736 13.848 148.192 13.848ZM154.383 15V6.06H160.203V7.32H155.799V10.008H159.723V11.268H155.799V15H154.383ZM74.8439 33V25.32H72.4679V24.06H78.5879V25.32H76.2479V33H74.8439ZM79.6467 33V24.06H81.0627V27.996H85.2027V24.06H86.6067V33H85.2027V29.256H81.0627V33H79.6467ZM88.4592 33V24.06H94.3512V25.32H89.8752V27.888H94.1112V29.148H89.8752V31.74H94.3512V33H88.4592ZM100.032 33V28.968L96.9718 24.06H98.5678L101.016 28.032H100.452L102.888 24.06H104.484L101.436 28.968V33H100.032ZM105.545 33V24.06H111.437V25.32H106.961V27.888H111.197V29.148H106.961V31.74H111.437V33H105.545ZM111.96 33L115.104 24.06H116.856L120 33H118.488L117.804 30.996H114.168L113.472 33H111.96ZM114.576 29.736H117.372L115.788 25.056H116.184L114.576 29.736ZM121.061 33V24.06H124.313C124.913 24.06 125.441 24.172 125.897 24.396C126.353 24.612 126.709 24.932 126.965 25.356C127.229 25.772 127.361 26.272 127.361 26.856C127.361 27.472 127.205 28 126.893 28.44C126.589 28.88 126.177 29.2 125.657 29.4L127.721 33H126.113L123.917 29.1L124.841 29.64H122.477V33H121.061ZM122.477 28.38H124.337C124.665 28.38 124.949 28.316 125.189 28.188C125.429 28.06 125.613 27.884 125.741 27.66C125.877 27.428 125.945 27.156 125.945 26.844C125.945 26.532 125.877 26.264 125.741 26.04C125.613 25.808 125.429 25.632 125.189 25.512C124.949 25.384 124.665 25.32 124.337 25.32H122.477V28.38Z" fill="#0D0D4B"/>
<path d="M40.9383 51V45.04H42.8903C43.5089 45.04 44.0449 45.1653 44.4983 45.416C44.9569 45.6613 45.3116 46.008 45.5623 46.456C45.8129 46.904 45.9383 47.424 45.9383 48.016C45.9383 48.6027 45.8129 49.1227 45.5623 49.576C45.3116 50.024 44.9569 50.3733 44.4983 50.624C44.0449 50.8747 43.5089 51 42.8903 51H40.9383ZM41.8823 50.16H42.9063C43.3276 50.16 43.6929 50.072 44.0023 49.896C44.3169 49.72 44.5596 49.472 44.7303 49.152C44.9009 48.832 44.9863 48.4533 44.9863 48.016C44.9863 47.5787 44.8983 47.2027 44.7223 46.888C44.5516 46.568 44.3116 46.32 44.0023 46.144C43.6929 45.968 43.3276 45.88 42.9063 45.88H41.8823V50.16ZM49.1 51.096C48.6573 51.096 48.2626 51.0027 47.916 50.816C47.5746 50.6293 47.3053 50.3733 47.108 50.048C46.916 49.7227 46.82 49.352 46.82 48.936V45.04H47.764V48.896C47.764 49.1573 47.82 49.3893 47.932 49.592C48.0493 49.7947 48.2066 49.952 48.404 50.064C48.6066 50.176 48.8386 50.232 49.1 50.232C49.3666 50.232 49.5986 50.176 49.796 50.064C49.9986 49.952 50.156 49.7947 50.268 49.592C50.3853 49.3893 50.444 49.1573 50.444 48.896V45.04H51.38V48.936C51.38 49.352 51.284 49.7227 51.092 50.048C50.9 50.3733 50.6306 50.6293 50.284 50.816C49.9426 51.0027 49.548 51.096 49.1 51.096ZM52.5633 51V45.04H55.0753C55.4486 45.04 55.7713 45.1067 56.0433 45.24C56.3153 45.368 56.5233 45.5547 56.6673 45.8C56.8113 46.04 56.8833 46.3253 56.8833 46.656C56.8833 46.944 56.8086 47.208 56.6593 47.448C56.5153 47.6827 56.2886 47.8693 55.9793 48.008V47.608C56.2513 47.7147 56.4726 47.8507 56.6433 48.016C56.8139 48.176 56.9366 48.3573 57.0113 48.56C57.0913 48.7627 57.1313 48.976 57.1313 49.2C57.1313 49.76 56.9473 50.2 56.5793 50.52C56.2166 50.84 55.7179 51 55.0833 51H52.5633ZM53.5073 50.16H55.1553C55.4699 50.16 55.7206 50.0747 55.9073 49.904C56.0939 49.728 56.1873 49.496 56.1873 49.208C56.1873 48.9147 56.0939 48.6827 55.9073 48.512C55.7206 48.336 55.4699 48.248 55.1553 48.248H53.5073V50.16ZM53.5073 47.416H55.0993C55.3553 47.416 55.5606 47.344 55.7153 47.2C55.8699 47.0507 55.9473 46.856 55.9473 46.616C55.9473 46.376 55.8699 46.1893 55.7153 46.056C55.5606 45.9227 55.3553 45.856 55.0993 45.856H53.5073V47.416ZM57.5743 51L59.6703 45.04H60.8383L62.9343 51H61.9263L61.4703 49.664H59.0463L58.5823 51H57.5743ZM59.3183 48.824H61.1823L60.1263 45.704H60.3903L59.3183 48.824ZM63.6414 51V45.04H64.5854V51H63.6414ZM66.6915 51L68.7875 45.04H69.9555L72.0515 51H71.0435L70.5875 49.664H68.1635L67.6995 51H66.6915ZM68.4355 48.824H70.2995L69.2435 45.704H69.5075L68.4355 48.824ZM72.7586 51V45.04H76.6386V45.88H73.7026V47.672H76.3186V48.512H73.7026V51H72.7586ZM77.4305 51V45.04H81.3105V45.88H78.3745V47.672H80.9905V48.512H78.3745V51H77.4305ZM82.1023 51V45.04H83.0463V51H82.1023ZM84.282 51V45.04H85.226V50.16H87.802V51H84.282ZM88.5945 51V45.04H89.5385V51H88.5945ZM90.2462 51L92.3422 45.04H93.5102L95.6062 51H94.5982L94.1422 49.664H91.7182L91.2542 51H90.2462ZM91.9902 48.824H93.8542L92.7982 45.704H93.0622L91.9902 48.824ZM96.9708 51V45.88H95.3868V45.04H99.4668V45.88H97.9068V51H96.9708ZM100.173 51V45.04H104.101V45.88H101.117V47.592H103.941V48.432H101.117V50.16H104.101V51H100.173ZM108.464 51.096C108.09 51.096 107.744 51.0267 107.424 50.888C107.104 50.744 106.832 50.5493 106.608 50.304C106.384 50.0587 106.218 49.776 106.112 49.456L106.912 49.12C107.056 49.488 107.266 49.7707 107.544 49.968C107.821 50.1653 108.141 50.264 108.504 50.264C108.717 50.264 108.904 50.232 109.064 50.168C109.224 50.0987 109.346 50.0027 109.432 49.88C109.522 49.7573 109.568 49.616 109.568 49.456C109.568 49.2373 109.506 49.064 109.384 48.936C109.261 48.808 109.08 48.7067 108.84 48.632L107.72 48.28C107.272 48.1413 106.93 47.9307 106.696 47.648C106.461 47.36 106.344 47.024 106.344 46.64C106.344 46.304 106.426 46.0107 106.592 45.76C106.757 45.504 106.984 45.304 107.272 45.16C107.565 45.016 107.898 44.944 108.272 44.944C108.629 44.944 108.954 45.008 109.248 45.136C109.541 45.2587 109.792 45.4293 110 45.648C110.213 45.8667 110.368 46.12 110.464 46.408L109.68 46.752C109.562 46.4373 109.378 46.1947 109.128 46.024C108.882 45.8533 108.597 45.768 108.272 45.768C108.074 45.768 107.901 45.8027 107.752 45.872C107.602 45.936 107.485 46.032 107.4 46.16C107.32 46.2827 107.28 46.4267 107.28 46.592C107.28 46.784 107.341 46.9547 107.464 47.104C107.586 47.2533 107.773 47.3653 108.024 47.44L109.064 47.768C109.538 47.912 109.896 48.12 110.136 48.392C110.376 48.6587 110.496 48.992 110.496 49.392C110.496 49.7227 110.408 50.016 110.232 50.272C110.061 50.528 109.824 50.7307 109.52 50.88C109.216 51.024 108.864 51.096 108.464 51.096ZM113.787 51.096C113.345 51.096 112.95 51.0027 112.603 50.816C112.262 50.6293 111.993 50.3733 111.795 50.048C111.603 49.7227 111.507 49.352 111.507 48.936V45.04H112.451V48.896C112.451 49.1573 112.507 49.3893 112.619 49.592C112.737 49.7947 112.894 49.952 113.091 50.064C113.294 50.176 113.526 50.232 113.787 50.232C114.054 50.232 114.286 50.176 114.483 50.064C114.686 49.952 114.843 49.7947 114.955 49.592C115.073 49.3893 115.131 49.1573 115.131 48.896V45.04H116.067V48.936C116.067 49.352 115.971 49.7227 115.779 50.048C115.587 50.3733 115.318 50.6293 114.971 50.816C114.63 51.0027 114.235 51.096 113.787 51.096ZM117.251 51V45.04H118.131L120.371 48.144H119.931L122.131 45.04H123.011V51H122.075V46.152L122.427 46.248L120.179 49.32H120.083L117.883 46.248L118.195 46.152V51H117.251ZM124.243 51V45.04H125.123L127.363 48.144H126.923L129.123 45.04H130.003V51H129.067V46.152L129.419 46.248L127.171 49.32H127.075L124.875 46.248L125.187 46.152V51H124.243ZM131.235 51V45.04H132.179V51H131.235ZM134.471 51V45.88H132.887V45.04H136.967V45.88H135.407V51H134.471ZM138.855 51V50.32L140.487 48.576C140.807 48.2347 141.058 47.96 141.239 47.752C141.426 47.5387 141.559 47.352 141.639 47.192C141.724 47.032 141.767 46.864 141.767 46.688C141.767 46.4 141.679 46.1787 141.503 46.024C141.327 45.864 141.1 45.784 140.823 45.784C140.535 45.784 140.287 45.8667 140.079 46.032C139.871 46.192 139.727 46.4267 139.647 46.736L138.815 46.496C138.879 46.1813 139.007 45.9093 139.199 45.68C139.391 45.4453 139.626 45.264 139.903 45.136C140.186 45.008 140.49 44.944 140.815 44.944C141.194 44.944 141.524 45.016 141.807 45.16C142.09 45.2987 142.308 45.4933 142.463 45.744C142.623 45.9947 142.703 46.2853 142.703 46.616C142.703 46.8347 142.66 47.048 142.575 47.256C142.495 47.4587 142.37 47.6747 142.199 47.904C142.028 48.128 141.81 48.3813 141.543 48.664L140.103 50.2H142.815V51H138.855ZM146.108 51.096C145.634 51.096 145.218 50.968 144.86 50.712C144.503 50.4507 144.223 50.0907 144.02 49.632C143.823 49.168 143.724 48.6293 143.724 48.016C143.724 47.3973 143.823 46.8587 144.02 46.4C144.223 45.9413 144.5 45.584 144.852 45.328C145.21 45.072 145.626 44.944 146.1 44.944C146.575 44.944 146.988 45.072 147.34 45.328C147.698 45.584 147.975 45.944 148.172 46.408C148.375 46.8667 148.476 47.4027 148.476 48.016C148.476 48.6293 148.378 49.168 148.18 49.632C147.983 50.0907 147.706 50.4507 147.348 50.712C146.996 50.968 146.583 51.096 146.108 51.096ZM146.108 50.232C146.402 50.232 146.655 50.1413 146.868 49.96C147.082 49.7787 147.247 49.5227 147.364 49.192C147.482 48.8613 147.54 48.4693 147.54 48.016C147.54 47.5627 147.482 47.1707 147.364 46.84C147.247 46.5093 147.082 46.2533 146.868 46.072C146.655 45.8907 146.399 45.8 146.1 45.8C145.807 45.8 145.554 45.8907 145.34 46.072C145.127 46.2533 144.962 46.5093 144.844 46.84C144.727 47.1707 144.668 47.5627 144.668 48.016C144.668 48.464 144.727 48.856 144.844 49.192C144.962 49.5227 145.127 49.7787 145.34 49.96C145.559 50.1413 145.815 50.232 146.108 50.232ZM149.363 51V50.32L150.995 48.576C151.315 48.2347 151.566 47.96 151.747 47.752C151.934 47.5387 152.067 47.352 152.147 47.192C152.232 47.032 152.275 46.864 152.275 46.688C152.275 46.4 152.187 46.1787 152.011 46.024C151.835 45.864 151.608 45.784 151.331 45.784C151.043 45.784 150.795 45.8667 150.587 46.032C150.379 46.192 150.235 46.4267 150.155 46.736L149.323 46.496C149.387 46.1813 149.515 45.9093 149.707 45.68C149.899 45.4453 150.134 45.264 150.411 45.136C150.694 45.008 150.998 44.944 151.323 44.944C151.702 44.944 152.032 45.016 152.315 45.16C152.598 45.2987 152.816 45.4933 152.971 45.744C153.131 45.9947 153.211 46.2853 153.211 46.616C153.211 46.8347 153.168 47.048 153.083 47.256C153.003 47.4587 152.878 47.6747 152.707 47.904C152.536 48.128 152.318 48.3813 152.051 48.664L150.611 50.2H153.323V51H149.363ZM156.136 51.096C155.821 51.096 155.525 51.04 155.248 50.928C154.971 50.8107 154.731 50.648 154.528 50.44C154.325 50.232 154.181 49.9813 154.096 49.688L154.888 49.384C154.989 49.6667 155.155 49.8827 155.384 50.032C155.613 50.1813 155.864 50.256 156.136 50.256C156.36 50.256 156.557 50.2053 156.728 50.104C156.899 50.0027 157.032 49.864 157.128 49.688C157.229 49.512 157.28 49.312 157.28 49.088C157.28 48.8587 157.229 48.6587 157.128 48.488C157.032 48.312 156.899 48.176 156.728 48.08C156.557 47.9787 156.36 47.928 156.136 47.928C155.912 47.928 155.707 47.9787 155.52 48.08C155.333 48.1813 155.197 48.3173 155.112 48.488L154.352 48.32L154.816 45.04H157.992V45.84H155.184L155.544 45.448L155.2 47.96L154.904 47.76C155.064 47.536 155.259 47.3733 155.488 47.272C155.717 47.1707 155.979 47.12 156.272 47.12C156.661 47.12 157 47.208 157.288 47.384C157.581 47.5547 157.808 47.7893 157.968 48.088C158.133 48.3813 158.216 48.7147 158.216 49.088C158.216 49.4667 158.125 49.808 157.944 50.112C157.763 50.416 157.515 50.656 157.2 50.832C156.891 51.008 156.536 51.096 156.136 51.096Z" fill="#0047BB"/>
<g clip-path="url(#clip0_8215_2644)">
<path d="M4.4833 32.3503C7.40747 34.6016 7.47599 37.19 7.24842 38.5492C7.68154 39.2536 8.86345 39.9801 9.53882 40.353C8.19296 37.6154 7.19214 34.6237 6.53634 31.3917C5.85118 30.9663 4.75981 29.8779 4.04773 29.1293C3.57301 29.0878 2.58197 28.9027 1.19941 26.9359C-0.745968 24.1652 0.262203 19.5215 0.262203 19.5215L0.790756 19.7978C1.84297 20.3447 2.79486 21.1182 3.56078 22.0989C5.74106 24.9 5.26879 27.2591 4.78428 28.4276C5.0143 29.1293 5.83405 30.0188 6.37484 30.5519C5.79 27.342 5.53796 23.9027 5.62605 20.2425C5.11463 19.6956 4.40744 18.5906 3.94495 17.8309C3.54364 17.6928 2.7239 17.3171 1.87233 15.3226C0.673298 12.5188 2.33727 8.74528 2.33727 8.74528L2.74592 9.09611C3.55588 9.795 4.24349 10.6679 4.73289 11.679C6.12769 14.563 5.31772 16.4856 4.70108 17.3862C4.77449 18.0105 5.28102 18.9 5.65297 19.4801C5.76308 16.4386 6.09833 13.248 6.66848 9.91931C6.4874 9.64031 5.80468 8.96075 6.19621 6.016C6.67337 2.40826 10.4858 -0.00610352 10.4858 -0.00610352L10.6742 0.637543C11.0511 1.91931 11.2052 3.2729 11.0878 4.61821C10.7012 9.05467 8.06817 9.87788 7.07468 10.0326C7.00861 10.4884 6.91318 11.0712 6.85445 11.7398C6.74923 12.9359 6.53144 14.69 6.38218 16.8309C6.53879 16.69 6.73699 16.5105 6.93275 16.3309C6.78593 15.9442 6.58773 15.0933 7.31938 13.0657C8.39362 10.0961 12.0935 8.9276 12.0935 8.9276L12.1375 9.52152C12.2232 10.7038 12.1057 11.9 11.7583 13.0188C10.733 16.3282 8.70439 16.7453 7.65952 16.7259C7.25087 16.9331 6.73944 17.2259 6.33324 17.5851C6.16195 20.4801 6.14237 23.9939 6.66603 27.7619C6.82264 27.516 7.01595 27.2121 7.19948 26.9221C6.94744 26.469 6.6538 25.5491 6.86669 23.469C7.23129 19.911 10.9018 17.3972 10.9018 17.3972L11.1074 18.0243C11.5136 19.2674 11.7069 20.5933 11.631 21.9165C11.3839 26.2453 8.87323 27.1762 7.87975 27.3751C7.52248 27.7149 7.11139 28.1569 6.79572 28.6265C7.28023 31.6514 8.12689 34.8199 9.53637 37.9442C9.60978 37.7094 9.69543 37.4414 9.77863 37.179C9.42626 36.8337 8.9026 36.0519 8.59183 33.9387C8.07306 30.4027 10.9899 26.8475 10.9899 26.8475L11.3398 27.3862C12.0348 28.4552 12.5413 29.6679 12.7933 30.9635C13.6058 35.1735 11.4499 36.8558 10.5348 37.3668C10.3072 37.7563 10.0649 38.2232 9.88874 38.6983C11.3202 41.6707 13.2754 44.5906 15.928 47.295C15.9206 46.9939 15.9108 46.5795 15.901 46.1707C15.4239 45.9884 14.6041 45.4469 13.525 43.3862C11.7583 40.0132 13.4858 35.0878 13.4858 35.0878L14.0315 35.4801C15.1131 36.2591 16.0577 37.2701 16.7648 38.4801C19.0503 42.3779 17.4843 45.0436 16.7257 45.9939C16.6156 46.5768 16.525 47.2757 16.5446 47.911C18.6099 49.911 21.0716 51.7867 24.0055 53.4663C23.9615 53.1817 23.8905 52.7149 23.8171 52.2508C23.3644 52.1983 22.4395 51.9414 20.9468 49.8641C18.7592 46.8226 19.8261 41.6624 19.8261 41.6624L20.4158 41.9608C21.5879 42.5519 22.6523 43.3945 23.5112 44.4746C26.0464 47.6596 25.2511 50.3558 24.6173 51.6072C24.5684 52.2619 24.5512 53.1099 24.6736 53.8447C27.8278 55.5795 31.5081 57.0933 35.7952 58.3088C36.1623 58.4138 36.4633 58.6928 36.6003 59.0574C36.708 59.3475 36.7838 59.7812 36.1868 60.2177C36.0448 60.3226 35.8564 60.3724 35.6142 60.3724C34.535 60.3724 32.7242 59.3806 30.4289 58.1293C29.1271 57.4166 27.6491 56.6099 26.0733 55.8641L25.9925 55.8254C24.9672 56.1817 23.3816 56.4663 22.2413 56.6403C21.9305 56.9967 21.1841 58.1624 18.167 58.0961C14.45 58.0132 11.445 53.4608 11.445 53.4608L12.069 53.121C13.3072 52.4469 14.6555 52.0464 16.0307 51.9967C19.5667 51.8724 21.1792 53.7094 21.8889 55.0878C21.9525 55.1044 22.0161 55.1265 22.0773 55.1541C22.7355 55.4442 23.8563 55.3779 24.7861 55.248C22.8212 54.284 19.8799 52.6873 16.8872 50.0271C15.9989 50.1182 14.4573 49.9387 13.4173 49.7895C12.9622 50.1016 11.9516 50.6624 9.5584 49.8889C6.18886 48.8005 4.42457 43.8337 4.42457 43.8337L5.06568 43.6956C6.33813 43.4193 7.65217 43.4193 8.91483 43.7508C12.5168 44.6956 13.4491 47.19 13.6841 48.6099C14.2469 49.0381 15.3505 49.248 16.1457 49.3475C14.6873 47.9663 13.2338 46.3254 11.8928 44.3751C11.1832 43.342 10.5348 42.2619 9.94502 41.1375C9.17422 40.9829 7.64239 40.1016 6.65869 39.4994C6.15461 39.5989 5.08281 39.7066 3.18393 38.0823C0.511799 35.795 0.460407 30.6735 0.460407 30.6735L1.07461 30.8005C2.29567 31.0519 3.46779 31.5657 4.49308 32.3558L4.4833 32.3503Z" fill="#0047BB"/>
</g>
<g clip-path="url(#clip1_8215_2644)">
<path d="M195.845 32.3503C192.921 34.6016 192.853 37.19 193.08 38.5492C192.647 39.2536 191.465 39.9801 190.79 40.353C192.136 37.6154 193.136 34.6237 193.792 31.3917C194.477 30.9663 195.569 29.8779 196.281 29.1293C196.756 29.0878 197.747 28.9027 199.129 26.9359C201.075 24.1652 200.066 19.5215 200.066 19.5215L199.538 19.7978C198.486 20.3447 197.534 21.1182 196.768 22.0989C194.588 24.9 195.06 27.2591 195.544 28.4276C195.314 29.1293 194.495 30.0188 193.954 30.5519C194.539 27.342 194.791 23.9027 194.703 20.2425C195.214 19.6956 195.921 18.5906 196.384 17.8309C196.785 17.6928 197.605 17.3171 198.456 15.3226C199.655 12.5188 197.991 8.74528 197.991 8.74528L197.583 9.09611C196.773 9.795 196.085 10.6679 195.596 11.679C194.201 14.563 195.011 16.4856 195.628 17.3862C195.554 18.0105 195.048 18.9 194.676 19.4801C194.566 16.4386 194.23 13.248 193.66 9.91931C193.841 9.64031 194.524 8.96075 194.132 6.016C193.655 2.40826 189.843 -0.00610352 189.843 -0.00610352L189.654 0.637543C189.278 1.91931 189.123 3.2729 189.241 4.61821C189.627 9.05467 192.26 9.87788 193.254 10.0326C193.32 10.4884 193.415 11.0712 193.474 11.7398C193.579 12.9359 193.797 14.69 193.946 16.8309C193.79 16.69 193.592 16.5105 193.396 16.3309C193.543 15.9442 193.741 15.0933 193.009 13.0657C191.935 10.0961 188.235 8.9276 188.235 8.9276L188.191 9.52152C188.105 10.7038 188.223 11.9 188.57 13.0188C189.596 16.3282 191.624 16.7453 192.669 16.7259C193.078 16.9331 193.589 17.2259 193.995 17.5851C194.167 20.4801 194.186 23.9939 193.663 27.7619C193.506 27.516 193.313 27.2121 193.129 26.9221C193.381 26.469 193.675 25.5491 193.462 23.469C193.097 19.911 189.427 17.3972 189.427 17.3972L189.221 18.0243C188.815 19.2674 188.622 20.5933 188.698 21.9165C188.945 26.2453 191.455 27.1762 192.449 27.3751C192.806 27.7149 193.217 28.1569 193.533 28.6265C193.048 31.6514 192.202 34.8199 190.792 37.9442C190.719 37.7094 190.633 37.4414 190.55 37.179C190.902 36.8337 191.426 36.0519 191.737 33.9387C192.256 30.4027 189.339 26.8475 189.339 26.8475L188.989 27.3862C188.294 28.4552 187.787 29.6679 187.535 30.9635C186.723 35.1735 188.879 36.8558 189.794 37.3668C190.021 37.7563 190.264 38.2232 190.44 38.6983C189.008 41.6707 187.053 44.5906 184.401 47.295C184.408 46.9939 184.418 46.5795 184.428 46.1707C184.905 45.9884 185.724 45.4469 186.804 43.3862C188.57 40.0132 186.843 35.0878 186.843 35.0878L186.297 35.4801C185.216 36.2591 184.271 37.2701 183.564 38.4801C181.278 42.3779 182.844 45.0436 183.603 45.9939C183.713 46.5768 183.804 47.2757 183.784 47.911C181.719 49.911 179.257 51.7867 176.323 53.4663C176.367 53.1817 176.438 52.7149 176.511 52.2508C176.964 52.1983 177.889 51.9414 179.382 49.8641C181.569 46.8226 180.503 41.6624 180.503 41.6624L179.913 41.9608C178.741 42.5519 177.676 43.3945 176.817 44.4746C174.282 47.6596 175.078 50.3558 175.711 51.6072C175.76 52.2619 175.777 53.1099 175.655 53.8447C172.501 55.5795 168.821 57.0933 164.533 58.3088C164.166 58.4138 163.865 58.6928 163.728 59.0574C163.621 59.3475 163.545 59.7812 164.142 60.2177C164.284 60.3226 164.472 60.3724 164.714 60.3724C165.794 60.3724 167.604 59.3806 169.9 58.1293C171.201 57.4166 172.679 56.6099 174.255 55.8641L174.336 55.8254C175.361 56.1817 176.947 56.4663 178.087 56.6403C178.398 56.9967 179.144 58.1624 182.162 58.0961C185.879 58.0132 188.884 53.4608 188.884 53.4608L188.26 53.121C187.021 52.4469 185.673 52.0464 184.298 51.9967C180.762 51.8724 179.149 53.7094 178.44 55.0878C178.376 55.1044 178.312 55.1265 178.251 55.1541C177.593 55.4442 176.472 55.3779 175.542 55.248C177.507 54.284 180.449 52.6873 183.441 50.0271C184.33 50.1182 185.871 49.9387 186.911 49.7895C187.366 50.1016 188.377 50.6624 190.77 49.8889C194.14 48.8005 195.904 43.8337 195.904 43.8337L195.263 43.6956C193.99 43.4193 192.676 43.4193 191.414 43.7508C187.812 44.6956 186.879 47.19 186.645 48.6099C186.082 49.0381 184.978 49.248 184.183 49.3475C185.641 47.9663 187.095 46.3254 188.436 44.3751C189.145 43.342 189.794 42.2619 190.384 41.1375C191.154 40.9829 192.686 40.1016 193.67 39.4994C194.174 39.5989 195.246 39.7066 197.145 38.0823C199.817 35.795 199.868 30.6735 199.868 30.6735L199.254 30.8005C198.033 31.0519 196.861 31.5657 195.836 32.3558L195.845 32.3503Z" fill="#0047BB"/>
</g>
<defs>
<clipPath id="clip0_8215_2644">
<rect width="36.666" height="60.3702" fill="white" transform="matrix(-1 0 0 1 36.666 0)"/>
</clipPath>
<clipPath id="clip1_8215_2644">
<rect width="36.666" height="60.3702" fill="white" transform="translate(163.662)"/>
</clipPath>
</defs>
</svg>
