<svg width="201" height="61" viewBox="0 0 201 61" fill="none" xmlns="http://www.w3.org/2000/svg">
<path d="M50.0256 14V5.06H53.7936C54.3536 5.06 54.8376 5.16 55.2456 5.36C55.6536 5.552 55.9656 5.832 56.1816 6.2C56.3976 6.56 56.5056 6.988 56.5056 7.484C56.5056 7.916 56.3936 8.312 56.1696 8.672C55.9536 9.024 55.6136 9.304 55.1496 9.512V8.912C55.5576 9.072 55.8896 9.276 56.1456 9.524C56.4016 9.764 56.5856 10.036 56.6976 10.34C56.8176 10.644 56.8776 10.964 56.8776 11.3C56.8776 12.14 56.6016 12.8 56.0496 13.28C55.5056 13.76 54.7576 14 53.8056 14H50.0256ZM51.4416 12.74H53.9136C54.3856 12.74 54.7616 12.612 55.0416 12.356C55.3216 12.092 55.4616 11.744 55.4616 11.312C55.4616 10.872 55.3216 10.524 55.0416 10.268C54.7616 10.004 54.3856 9.872 53.9136 9.872H51.4416V12.74ZM51.4416 8.624H53.8296C54.2136 8.624 54.5216 8.516 54.7536 8.3C54.9856 8.076 55.1016 7.784 55.1016 7.424C55.1016 7.064 54.9856 6.784 54.7536 6.584C54.5216 6.384 54.2136 6.284 53.8296 6.284H51.4416V8.624ZM58.3342 14V5.06H64.2262V6.32H59.7502V8.888H63.9862V10.148H59.7502V12.74H64.2262V14H58.3342ZM68.6732 14.144C68.1132 14.144 67.5932 14.04 67.1132 13.832C66.6332 13.616 66.2252 13.324 65.8892 12.956C65.5532 12.588 65.3052 12.164 65.1452 11.684L66.3452 11.18C66.5612 11.732 66.8772 12.156 67.2932 12.452C67.7092 12.748 68.1892 12.896 68.7332 12.896C69.0532 12.896 69.3332 12.848 69.5732 12.752C69.8132 12.648 69.9972 12.504 70.1252 12.32C70.2612 12.136 70.3292 11.924 70.3292 11.684C70.3292 11.356 70.2372 11.096 70.0532 10.904C69.8692 10.712 69.5972 10.56 69.2372 10.448L67.5572 9.92C66.8852 9.712 66.3732 9.396 66.0212 8.972C65.6692 8.54 65.4932 8.036 65.4932 7.46C65.4932 6.956 65.6172 6.516 65.8652 6.14C66.1132 5.756 66.4532 5.456 66.8852 5.24C67.3252 5.024 67.8252 4.916 68.3852 4.916C68.9212 4.916 69.4092 5.012 69.8492 5.204C70.2892 5.388 70.6652 5.644 70.9772 5.972C71.2972 6.3 71.5292 6.68 71.6732 7.112L70.4972 7.628C70.3212 7.156 70.0452 6.792 69.6692 6.536C69.3012 6.28 68.8732 6.152 68.3852 6.152C68.0892 6.152 67.8292 6.204 67.6052 6.308C67.3812 6.404 67.2052 6.548 67.0772 6.74C66.9572 6.924 66.8972 7.14 66.8972 7.388C66.8972 7.676 66.9892 7.932 67.1732 8.156C67.3572 8.38 67.6372 8.548 68.0132 8.66L69.5732 9.152C70.2852 9.368 70.8212 9.68 71.1812 10.088C71.5412 10.488 71.7212 10.988 71.7212 11.588C71.7212 12.084 71.5892 12.524 71.3252 12.908C71.0692 13.292 70.7132 13.596 70.2572 13.82C69.8012 14.036 69.2732 14.144 68.6732 14.144ZM74.8947 14V6.32H72.5187V5.06H78.6387V6.32H76.2987V14H74.8947ZM81.7951 14V5.06H85.0471C85.6471 5.06 86.1751 5.172 86.6311 5.396C87.0871 5.612 87.4431 5.932 87.6991 6.356C87.9631 6.772 88.0951 7.272 88.0951 7.856C88.0951 8.472 87.9391 9 87.6271 9.44C87.3231 9.88 86.9111 10.2 86.3911 10.4L88.4551 14H86.8471L84.6511 10.1L85.5751 10.64H83.2111V14H81.7951ZM83.2111 9.38H85.0711C85.3991 9.38 85.6831 9.316 85.9231 9.188C86.1631 9.06 86.3471 8.884 86.4751 8.66C86.6111 8.428 86.6791 8.156 86.6791 7.844C86.6791 7.532 86.6111 7.264 86.4751 7.04C86.3471 6.808 86.1631 6.632 85.9231 6.512C85.6831 6.384 85.3991 6.32 85.0711 6.32H83.2111V9.38ZM89.6467 14V5.06H95.5387V6.32H91.0627V8.888H95.2987V10.148H91.0627V12.74H95.5387V14H89.6467ZM101.042 14.144C100.41 14.144 99.8217 14.028 99.2777 13.796C98.7417 13.564 98.2697 13.244 97.8617 12.836C97.4617 12.42 97.1497 11.932 96.9257 11.372C96.7017 10.812 96.5897 10.196 96.5897 9.524C96.5897 8.86 96.6977 8.248 96.9137 7.688C97.1377 7.12 97.4497 6.632 97.8497 6.224C98.2497 5.808 98.7177 5.488 99.2537 5.264C99.7897 5.032 100.378 4.916 101.018 4.916C101.65 4.916 102.214 5.024 102.71 5.24C103.214 5.456 103.638 5.74 103.982 6.092C104.326 6.436 104.574 6.812 104.726 7.22L103.466 7.832C103.282 7.344 102.978 6.952 102.554 6.656C102.13 6.352 101.618 6.2 101.018 6.2C100.426 6.2 99.9017 6.34 99.4457 6.62C98.9897 6.9 98.6337 7.288 98.3777 7.784C98.1297 8.28 98.0057 8.86 98.0057 9.524C98.0057 10.188 98.1337 10.772 98.3897 11.276C98.6537 11.772 99.0137 12.16 99.4697 12.44C99.9257 12.712 100.45 12.848 101.042 12.848C101.538 12.848 101.99 12.748 102.398 12.548C102.814 12.34 103.146 12.052 103.394 11.684C103.642 11.308 103.766 10.872 103.766 10.376V9.764L104.402 10.34H101.018V9.14H105.17V9.98C105.17 10.636 105.058 11.224 104.834 11.744C104.61 12.256 104.306 12.692 103.922 13.052C103.538 13.412 103.098 13.684 102.602 13.868C102.106 14.052 101.586 14.144 101.042 14.144ZM109.963 14.144C109.299 14.144 108.707 14.004 108.187 13.724C107.675 13.444 107.271 13.06 106.975 12.572C106.687 12.084 106.543 11.528 106.543 10.904V5.06H107.959V10.844C107.959 11.236 108.043 11.584 108.211 11.888C108.387 12.192 108.623 12.428 108.919 12.596C109.223 12.764 109.571 12.848 109.963 12.848C110.363 12.848 110.711 12.764 111.007 12.596C111.311 12.428 111.547 12.192 111.715 11.888C111.891 11.584 111.979 11.236 111.979 10.844V5.06H113.383V10.904C113.383 11.528 113.239 12.084 112.951 12.572C112.663 13.06 112.259 13.444 111.739 13.724C111.227 14.004 110.635 14.144 109.963 14.144ZM115.158 14V5.06H116.574V12.74H120.438V14H115.158ZM120.835 14L123.979 5.06H125.731L128.875 14H127.363L126.679 11.996H123.043L122.347 14H120.835ZM123.451 10.736H126.247L124.663 6.056H125.059L123.451 10.736ZM130.922 14V6.32H128.546V5.06H134.666V6.32H132.326V14H130.922ZM135.725 14V5.06H141.617V6.32H137.141V8.888H141.377V10.148H137.141V12.74H141.617V14H135.725ZM142.932 14V5.06H145.86C146.788 5.06 147.592 5.248 148.272 5.624C148.96 5.992 149.492 6.512 149.868 7.184C150.244 7.856 150.432 8.636 150.432 9.524C150.432 10.404 150.244 11.184 149.868 11.864C149.492 12.536 148.96 13.06 148.272 13.436C147.592 13.812 146.788 14 145.86 14H142.932ZM144.348 12.74H145.884C146.516 12.74 147.064 12.608 147.528 12.344C148 12.08 148.364 11.708 148.62 11.228C148.876 10.748 149.004 10.18 149.004 9.524C149.004 8.868 148.872 8.304 148.608 7.832C148.352 7.352 147.992 6.98 147.528 6.716C147.064 6.452 146.516 6.32 145.884 6.32H144.348V12.74ZM42.7443 32V24.32H40.3683V23.06H46.4883V24.32H44.1483V32H42.7443ZM47.547 32V23.06H50.799C51.399 23.06 51.927 23.172 52.383 23.396C52.839 23.612 53.195 23.932 53.451 24.356C53.715 24.772 53.847 25.272 53.847 25.856C53.847 26.472 53.691 27 53.379 27.44C53.075 27.88 52.663 28.2 52.143 28.4L54.207 32H52.599L50.403 28.1L51.327 28.64H48.963V32H47.547ZM48.963 27.38H50.823C51.151 27.38 51.435 27.316 51.675 27.188C51.915 27.06 52.099 26.884 52.227 26.66C52.363 26.428 52.431 26.156 52.431 25.844C52.431 25.532 52.363 25.264 52.227 25.04C52.099 24.808 51.915 24.632 51.675 24.512C51.435 24.384 51.151 24.32 50.823 24.32H48.963V27.38ZM54.6066 32L57.7506 23.06H59.5026L62.6466 32H61.1346L60.4506 29.996H56.8146L56.1186 32H54.6066ZM57.2226 28.736H60.0186L58.4346 24.056H58.8306L57.2226 28.736ZM63.7072 32V23.06H66.6352C67.5632 23.06 68.3672 23.248 69.0472 23.624C69.7352 23.992 70.2672 24.512 70.6432 25.184C71.0192 25.856 71.2072 26.636 71.2072 27.524C71.2072 28.404 71.0192 29.184 70.6432 29.864C70.2672 30.536 69.7352 31.06 69.0472 31.436C68.3672 31.812 67.5632 32 66.6352 32H63.7072ZM65.1232 30.74H66.6592C67.2912 30.74 67.8392 30.608 68.3032 30.344C68.7752 30.08 69.1392 29.708 69.3952 29.228C69.6512 28.748 69.7792 28.18 69.7792 27.524C69.7792 26.868 69.6472 26.304 69.3832 25.832C69.1272 25.352 68.7672 24.98 68.3032 24.716C67.8392 24.452 67.2912 24.32 66.6592 24.32H65.1232V30.74ZM72.6017 32V23.06H74.0177V32H72.6017ZM75.8713 32V23.06H77.0113L82.0273 29.984L81.4873 30.068V23.06H82.8913V32H81.7513L76.7713 25.028L77.2873 24.932V32H75.8713ZM88.9304 32.144C88.2984 32.144 87.7104 32.028 87.1664 31.796C86.6304 31.564 86.1584 31.244 85.7504 30.836C85.3504 30.42 85.0384 29.932 84.8144 29.372C84.5904 28.812 84.4784 28.196 84.4784 27.524C84.4784 26.86 84.5864 26.248 84.8024 25.688C85.0264 25.12 85.3384 24.632 85.7384 24.224C86.1384 23.808 86.6064 23.488 87.1424 23.264C87.6784 23.032 88.2664 22.916 88.9064 22.916C89.5384 22.916 90.1024 23.024 90.5984 23.24C91.1024 23.456 91.5264 23.74 91.8704 24.092C92.2144 24.436 92.4624 24.812 92.6144 25.22L91.3544 25.832C91.1704 25.344 90.8664 24.952 90.4424 24.656C90.0184 24.352 89.5064 24.2 88.9064 24.2C88.3144 24.2 87.7904 24.34 87.3344 24.62C86.8784 24.9 86.5224 25.288 86.2664 25.784C86.0184 26.28 85.8944 26.86 85.8944 27.524C85.8944 28.188 86.0224 28.772 86.2784 29.276C86.5424 29.772 86.9024 30.16 87.3584 30.44C87.8144 30.712 88.3384 30.848 88.9304 30.848C89.4264 30.848 89.8784 30.748 90.2864 30.548C90.7024 30.34 91.0344 30.052 91.2824 29.684C91.5304 29.308 91.6544 28.872 91.6544 28.376V27.764L92.2904 28.34H88.9064V27.14H93.0584V27.98C93.0584 28.636 92.9464 29.224 92.7224 29.744C92.4984 30.256 92.1944 30.692 91.8104 31.052C91.4264 31.412 90.9864 31.684 90.4904 31.868C89.9944 32.052 89.4744 32.144 88.9304 32.144ZM96.6017 32V23.06H99.8537C100.454 23.06 100.982 23.172 101.438 23.396C101.902 23.612 102.262 23.932 102.518 24.356C102.774 24.772 102.902 25.272 102.902 25.856C102.902 26.432 102.77 26.928 102.506 27.344C102.25 27.76 101.894 28.08 101.438 28.304C100.982 28.528 100.454 28.64 99.8537 28.64H98.0177V32H96.6017ZM98.0177 27.38H99.8897C100.21 27.38 100.49 27.316 100.73 27.188C100.97 27.06 101.158 26.884 101.294 26.66C101.43 26.428 101.498 26.156 101.498 25.844C101.498 25.532 101.43 25.264 101.294 25.04C101.158 24.808 100.97 24.632 100.73 24.512C100.49 24.384 100.21 24.32 99.8897 24.32H98.0177V27.38ZM104.36 32V23.06H105.776V30.74H109.64V32H104.36ZM110.036 32L113.18 23.06H114.932L118.076 32H116.564L115.88 29.996H112.244L111.548 32H110.036ZM112.652 28.736H115.448L113.864 24.056H114.26L112.652 28.736ZM120.123 32V24.32H117.747V23.06H123.867V24.32H121.527V32H120.123ZM124.926 32V23.06H130.746V24.32H126.342V27.008H130.266V28.268H126.342V32H124.926ZM136.161 32.144C135.513 32.144 134.909 32.028 134.349 31.796C133.797 31.564 133.309 31.24 132.885 30.824C132.469 30.408 132.141 29.92 131.901 29.36C131.669 28.8 131.553 28.188 131.553 27.524C131.553 26.86 131.669 26.248 131.901 25.688C132.141 25.12 132.469 24.632 132.885 24.224C133.301 23.808 133.789 23.488 134.349 23.264C134.909 23.032 135.513 22.916 136.161 22.916C136.817 22.916 137.421 23.032 137.973 23.264C138.533 23.488 139.021 23.808 139.437 24.224C139.861 24.64 140.189 25.128 140.421 25.688C140.653 26.248 140.769 26.86 140.769 27.524C140.769 28.188 140.649 28.8 140.409 29.36C140.177 29.92 139.853 30.408 139.437 30.824C139.021 31.24 138.533 31.564 137.973 31.796C137.413 32.028 136.809 32.144 136.161 32.144ZM136.161 30.848C136.625 30.848 137.049 30.764 137.433 30.596C137.825 30.428 138.165 30.196 138.453 29.9C138.741 29.596 138.965 29.244 139.125 28.844C139.285 28.436 139.365 27.996 139.365 27.524C139.365 27.052 139.285 26.616 139.125 26.216C138.965 25.816 138.741 25.464 138.453 25.16C138.165 24.856 137.825 24.62 137.433 24.452C137.049 24.284 136.625 24.2 136.161 24.2C135.697 24.2 135.269 24.284 134.877 24.452C134.493 24.62 134.157 24.856 133.869 25.16C133.581 25.464 133.357 25.816 133.197 26.216C133.045 26.616 132.969 27.052 132.969 27.524C132.969 27.996 133.045 28.436 133.197 28.844C133.357 29.244 133.581 29.596 133.869 29.9C134.157 30.196 134.497 30.428 134.889 30.596C135.281 30.764 135.705 30.848 136.161 30.848ZM142.352 32V23.06H145.604C146.204 23.06 146.732 23.172 147.188 23.396C147.644 23.612 148 23.932 148.256 24.356C148.52 24.772 148.652 25.272 148.652 25.856C148.652 26.472 148.496 27 148.184 27.44C147.88 27.88 147.468 28.2 146.948 28.4L149.012 32H147.404L145.208 28.1L146.132 28.64H143.768V32H142.352ZM143.768 27.38H145.628C145.956 27.38 146.24 27.316 146.48 27.188C146.72 27.06 146.904 26.884 147.032 26.66C147.168 26.428 147.236 26.156 147.236 25.844C147.236 25.532 147.168 25.264 147.032 25.04C146.904 24.808 146.72 24.632 146.48 24.512C146.24 24.384 145.956 24.32 145.628 24.32H143.768V27.38ZM150.203 32V23.06H151.523L154.883 27.716H154.223L157.523 23.06H158.843V32H157.439V24.728L157.967 24.872L154.595 29.48H154.451L151.151 24.872L151.619 24.728V32H150.203Z" fill="#0D0D4B"/>
<path d="M38.8354 50L37.1954 44.04H38.1954L39.5234 49.2H39.2754L40.6514 44.04H41.6354L43.0114 49.2H42.7554L44.0914 44.04H45.0834L43.4514 50H42.3874L41.0034 44.92H41.2834L39.8914 50H38.8354ZM45.7859 50V44.04H49.7139V44.88H46.7299V46.592H49.5539V47.432H46.7299V49.16H49.7139V50H45.7859ZM50.0626 50L52.1586 44.04H53.3266L55.4226 50H54.4146L53.9586 48.664H51.5346L51.0706 50H50.0626ZM51.8066 47.824H53.6706L52.6146 44.704H52.8786L51.8066 47.824ZM56.1297 50V44.04H57.0737V49.16H59.6497V50H56.1297ZM61.0216 50V44.88H59.4376V44.04H63.5176V44.88H61.9576V50H61.0216ZM64.2234 50V44.04H65.1674V46.664H67.9274V44.04H68.8634V50H67.9274V47.504H65.1674V50H64.2234ZM71.4969 50V44.04H75.4249V44.88H72.4409V46.592H75.2649V47.432H72.4409V49.16H75.4249V50H71.4969ZM75.7735 50L77.7175 46.984L75.8055 44.04H76.8775L78.4775 46.504H78.0215L79.6055 44.04H80.6775L78.7735 46.984L80.7175 50H79.6455L78.0215 47.472L78.4775 47.48L76.8375 50H75.7735ZM81.4187 50V44.04H83.5867C83.9867 44.04 84.3387 44.1147 84.6427 44.264C84.9521 44.408 85.1921 44.6213 85.3627 44.904C85.5334 45.1813 85.6187 45.5147 85.6187 45.904C85.6187 46.288 85.5307 46.6187 85.3547 46.896C85.1841 47.1733 84.9467 47.3867 84.6427 47.536C84.3387 47.6853 83.9867 47.76 83.5867 47.76H82.3627V50H81.4187ZM82.3627 46.92H83.6107C83.8241 46.92 84.0107 46.8773 84.1707 46.792C84.3307 46.7067 84.4561 46.5893 84.5467 46.44C84.6374 46.2853 84.6827 46.104 84.6827 45.896C84.6827 45.688 84.6374 45.5093 84.5467 45.36C84.4561 45.2053 84.3307 45.088 84.1707 45.008C84.0107 44.9227 83.8241 44.88 83.6107 44.88H82.3627V46.92ZM89.4866 50.096C89.0546 50.096 88.6519 50.0187 88.2786 49.864C87.9106 49.7093 87.5853 49.4933 87.3026 49.216C87.0253 48.9387 86.8066 48.6133 86.6466 48.24C86.4919 47.8667 86.4146 47.4587 86.4146 47.016C86.4146 46.5733 86.4919 46.1653 86.6466 45.792C86.8066 45.4133 87.0253 45.088 87.3026 44.816C87.5799 44.5387 87.9053 44.3253 88.2786 44.176C88.6519 44.0213 89.0546 43.944 89.4866 43.944C89.9239 43.944 90.3266 44.0213 90.6946 44.176C91.0679 44.3253 91.3933 44.5387 91.6706 44.816C91.9533 45.0933 92.1719 45.4187 92.3266 45.792C92.4813 46.1653 92.5586 46.5733 92.5586 47.016C92.5586 47.4587 92.4786 47.8667 92.3186 48.24C92.1639 48.6133 91.9479 48.9387 91.6706 49.216C91.3933 49.4933 91.0679 49.7093 90.6946 49.864C90.3213 50.0187 89.9186 50.096 89.4866 50.096ZM89.4866 49.232C89.7959 49.232 90.0786 49.176 90.3346 49.064C90.5959 48.952 90.8226 48.7973 91.0146 48.6C91.2066 48.3973 91.3559 48.1627 91.4626 47.896C91.5693 47.624 91.6226 47.3307 91.6226 47.016C91.6226 46.7013 91.5693 46.4107 91.4626 46.144C91.3559 45.8773 91.2066 45.6427 91.0146 45.44C90.8226 45.2373 90.5959 45.08 90.3346 44.968C90.0786 44.856 89.7959 44.8 89.4866 44.8C89.1773 44.8 88.8919 44.856 88.6306 44.968C88.3746 45.08 88.1506 45.2373 87.9586 45.44C87.7666 45.6427 87.6173 45.8773 87.5106 46.144C87.4093 46.4107 87.3586 46.7013 87.3586 47.016C87.3586 47.3307 87.4093 47.624 87.5106 47.896C87.6173 48.1627 87.7666 48.3973 87.9586 48.6C88.1506 48.7973 88.3773 48.952 88.6386 49.064C88.8999 49.176 89.1826 49.232 89.4866 49.232ZM94.4845 50L96.5805 44.04H97.7485L99.8445 50H98.8365L98.3805 48.664H95.9565L95.4925 50H94.4845ZM96.2285 47.824H98.0925L97.0365 44.704H97.3005L96.2285 47.824ZM100.552 50V44.04H102.72C103.12 44.04 103.472 44.1147 103.776 44.264C104.08 44.408 104.317 44.6213 104.488 44.904C104.664 45.1813 104.752 45.5147 104.752 45.904C104.752 46.3147 104.648 46.6667 104.44 46.96C104.237 47.2533 103.962 47.4667 103.616 47.6L104.992 50H103.92L102.456 47.4L103.072 47.76H101.496V50H100.552ZM101.496 46.92H102.736C102.954 46.92 103.144 46.8773 103.304 46.792C103.464 46.7067 103.586 46.5893 103.672 46.44C103.762 46.2853 103.808 46.104 103.808 45.896C103.808 45.688 103.762 45.5093 103.672 45.36C103.586 45.2053 103.464 45.088 103.304 45.008C103.144 44.9227 102.954 44.88 102.736 44.88H101.496V46.92ZM108.578 50.096C108.157 50.096 107.765 50.0187 107.402 49.864C107.045 49.7093 106.73 49.496 106.458 49.224C106.191 48.9467 105.983 48.6213 105.834 48.248C105.685 47.8747 105.61 47.464 105.61 47.016C105.61 46.5733 105.682 46.1653 105.826 45.792C105.975 45.4133 106.183 45.088 106.45 44.816C106.717 44.5387 107.029 44.3253 107.386 44.176C107.743 44.0213 108.135 43.944 108.562 43.944C108.983 43.944 109.359 44.016 109.69 44.16C110.026 44.304 110.309 44.4933 110.538 44.728C110.767 44.9573 110.933 45.208 111.034 45.48L110.194 45.888C110.071 45.5627 109.869 45.3013 109.586 45.104C109.303 44.9013 108.962 44.8 108.562 44.8C108.167 44.8 107.818 44.8933 107.514 45.08C107.21 45.2667 106.973 45.5253 106.802 45.856C106.637 46.1867 106.554 46.5733 106.554 47.016C106.554 47.4587 106.639 47.848 106.81 48.184C106.986 48.5147 107.226 48.7733 107.53 48.96C107.834 49.1413 108.183 49.232 108.578 49.232C108.909 49.232 109.21 49.1653 109.482 49.032C109.759 48.8933 109.981 48.7013 110.146 48.456C110.311 48.2053 110.394 47.9147 110.394 47.584V47.176L110.818 47.56H108.562V46.76H111.33V47.32C111.33 47.7573 111.255 48.1493 111.106 48.496C110.957 48.8373 110.754 49.128 110.498 49.368C110.242 49.608 109.949 49.7893 109.618 49.912C109.287 50.0347 108.941 50.096 108.578 50.096ZM112.294 50V44.04H116.222V44.88H113.238V46.592H116.062V47.432H113.238V49.16H116.222V50H112.294ZM117.098 50V44.04H117.858L121.202 48.656L120.842 48.712V44.04H121.778V50H121.018L117.698 45.352L118.042 45.288V50H117.098ZM124.068 50V44.88H122.484V44.04H126.564V44.88H125.004V50H124.068ZM127.27 50V44.04H128.214V50H127.27ZM129.45 50V44.04H130.21L133.554 48.656L133.194 48.712V44.04H134.13V50H133.37L130.05 45.352L130.394 45.288V50H129.45ZM134.836 50L136.932 44.04H138.1L140.196 50H139.188L138.732 48.664H136.308L135.844 50H134.836ZM136.58 47.824H138.444L137.388 44.704H137.652L136.58 47.824ZM142.086 50V49.32L143.718 47.576C144.038 47.2347 144.288 46.96 144.47 46.752C144.656 46.5387 144.79 46.352 144.87 46.192C144.955 46.032 144.998 45.864 144.998 45.688C144.998 45.4 144.91 45.1787 144.734 45.024C144.558 44.864 144.331 44.784 144.054 44.784C143.766 44.784 143.518 44.8667 143.31 45.032C143.102 45.192 142.958 45.4267 142.878 45.736L142.046 45.496C142.11 45.1813 142.238 44.9093 142.43 44.68C142.622 44.4453 142.856 44.264 143.134 44.136C143.416 44.008 143.72 43.944 144.046 43.944C144.424 43.944 144.755 44.016 145.038 44.16C145.32 44.2987 145.539 44.4933 145.694 44.744C145.854 44.9947 145.934 45.2853 145.934 45.616C145.934 45.8347 145.891 46.048 145.806 46.256C145.726 46.4587 145.6 46.6747 145.43 46.904C145.259 47.128 145.04 47.3813 144.774 47.664L143.334 49.2H146.046V50H142.086ZM149.339 50.096C148.864 50.096 148.448 49.968 148.091 49.712C147.733 49.4507 147.453 49.0907 147.251 48.632C147.053 48.168 146.955 47.6293 146.955 47.016C146.955 46.3973 147.053 45.8587 147.251 45.4C147.453 44.9413 147.731 44.584 148.083 44.328C148.44 44.072 148.856 43.944 149.331 43.944C149.805 43.944 150.219 44.072 150.571 44.328C150.928 44.584 151.205 44.944 151.403 45.408C151.605 45.8667 151.707 46.4027 151.707 47.016C151.707 47.6293 151.608 48.168 151.411 48.632C151.213 49.0907 150.936 49.4507 150.579 49.712C150.227 49.968 149.813 50.096 149.339 50.096ZM149.339 49.232C149.632 49.232 149.885 49.1413 150.099 48.96C150.312 48.7787 150.477 48.5227 150.595 48.192C150.712 47.8613 150.771 47.4693 150.771 47.016C150.771 46.5627 150.712 46.1707 150.595 45.84C150.477 45.5093 150.312 45.2533 150.099 45.072C149.885 44.8907 149.629 44.8 149.331 44.8C149.037 44.8 148.784 44.8907 148.571 45.072C148.357 45.2533 148.192 45.5093 148.075 45.84C147.957 46.1707 147.899 46.5627 147.899 47.016C147.899 47.464 147.957 47.856 148.075 48.192C148.192 48.5227 148.357 48.7787 148.571 48.96C148.789 49.1413 149.045 49.232 149.339 49.232ZM152.593 50V49.32L154.225 47.576C154.545 47.2347 154.796 46.96 154.977 46.752C155.164 46.5387 155.297 46.352 155.377 46.192C155.463 46.032 155.505 45.864 155.505 45.688C155.505 45.4 155.417 45.1787 155.241 45.024C155.065 44.864 154.839 44.784 154.561 44.784C154.273 44.784 154.025 44.8667 153.817 45.032C153.609 45.192 153.465 45.4267 153.385 45.736L152.553 45.496C152.617 45.1813 152.745 44.9093 152.937 44.68C153.129 44.4453 153.364 44.264 153.641 44.136C153.924 44.008 154.228 43.944 154.553 43.944C154.932 43.944 155.263 44.016 155.545 44.16C155.828 44.2987 156.047 44.4933 156.201 44.744C156.361 44.9947 156.441 45.2853 156.441 45.616C156.441 45.8347 156.399 46.048 156.313 46.256C156.233 46.4587 156.108 46.6747 155.937 46.904C155.767 47.128 155.548 47.3813 155.281 47.664L153.841 49.2H156.553V50H152.593ZM159.367 50.096C159.052 50.096 158.756 50.04 158.479 49.928C158.201 49.8107 157.961 49.648 157.759 49.44C157.556 49.232 157.412 48.9813 157.327 48.688L158.119 48.384C158.22 48.6667 158.385 48.8827 158.615 49.032C158.844 49.1813 159.095 49.256 159.367 49.256C159.591 49.256 159.788 49.2053 159.959 49.104C160.129 49.0027 160.263 48.864 160.359 48.688C160.46 48.512 160.511 48.312 160.511 48.088C160.511 47.8587 160.46 47.6587 160.359 47.488C160.263 47.312 160.129 47.176 159.959 47.08C159.788 46.9787 159.591 46.928 159.367 46.928C159.143 46.928 158.937 46.9787 158.751 47.08C158.564 47.1813 158.428 47.3173 158.343 47.488L157.583 47.32L158.047 44.04H161.223V44.84H158.415L158.775 44.448L158.431 46.96L158.135 46.76C158.295 46.536 158.489 46.3733 158.719 46.272C158.948 46.1707 159.209 46.12 159.503 46.12C159.892 46.12 160.231 46.208 160.519 46.384C160.812 46.5547 161.039 46.7893 161.199 47.088C161.364 47.3813 161.447 47.7147 161.447 48.088C161.447 48.4667 161.356 48.808 161.175 49.112C160.993 49.416 160.745 49.656 160.431 49.832C160.121 50.008 159.767 50.096 159.367 50.096Z" fill="#0047BB"/>
<g clip-path="url(#clip0_8215_2693)">
<path d="M4.4833 32.3503C7.40747 34.6016 7.47599 37.19 7.24842 38.5492C7.68154 39.2536 8.86345 39.9801 9.53882 40.353C8.19296 37.6154 7.19214 34.6237 6.53634 31.3917C5.85118 30.9663 4.75981 29.8779 4.04773 29.1293C3.57301 29.0878 2.58197 28.9027 1.19941 26.9359C-0.745968 24.1652 0.262203 19.5215 0.262203 19.5215L0.790756 19.7978C1.84297 20.3447 2.79486 21.1182 3.56078 22.0989C5.74106 24.9 5.26879 27.2591 4.78428 28.4276C5.0143 29.1293 5.83405 30.0188 6.37484 30.5519C5.79 27.342 5.53796 23.9027 5.62605 20.2425C5.11463 19.6956 4.40744 18.5906 3.94495 17.8309C3.54364 17.6928 2.7239 17.3171 1.87233 15.3226C0.673298 12.5188 2.33727 8.74528 2.33727 8.74528L2.74592 9.09611C3.55588 9.795 4.24349 10.6679 4.73289 11.679C6.12769 14.563 5.31772 16.4856 4.70108 17.3862C4.77449 18.0105 5.28102 18.9 5.65297 19.4801C5.76308 16.4386 6.09833 13.248 6.66848 9.91931C6.4874 9.64031 5.80468 8.96075 6.19621 6.016C6.67337 2.40826 10.4858 -0.00610352 10.4858 -0.00610352L10.6742 0.637543C11.0511 1.91931 11.2052 3.2729 11.0878 4.61821C10.7012 9.05467 8.06817 9.87788 7.07468 10.0326C7.00861 10.4884 6.91318 11.0712 6.85445 11.7398C6.74923 12.9359 6.53144 14.69 6.38218 16.8309C6.53879 16.69 6.73699 16.5105 6.93275 16.3309C6.78593 15.9442 6.58773 15.0933 7.31938 13.0657C8.39362 10.0961 12.0935 8.9276 12.0935 8.9276L12.1375 9.52152C12.2232 10.7038 12.1057 11.9 11.7583 13.0188C10.733 16.3282 8.70439 16.7453 7.65952 16.7259C7.25087 16.9331 6.73944 17.2259 6.33324 17.5851C6.16195 20.4801 6.14237 23.9939 6.66603 27.7619C6.82264 27.516 7.01595 27.2121 7.19948 26.9221C6.94744 26.469 6.6538 25.5491 6.86669 23.469C7.23129 19.911 10.9018 17.3972 10.9018 17.3972L11.1074 18.0243C11.5136 19.2674 11.7069 20.5933 11.631 21.9165C11.3839 26.2453 8.87323 27.1762 7.87975 27.3751C7.52248 27.7149 7.11139 28.1569 6.79572 28.6265C7.28023 31.6514 8.12689 34.8199 9.53637 37.9442C9.60978 37.7094 9.69543 37.4414 9.77863 37.179C9.42626 36.8337 8.9026 36.0519 8.59183 33.9387C8.07306 30.4027 10.9899 26.8475 10.9899 26.8475L11.3398 27.3862C12.0348 28.4552 12.5413 29.6679 12.7933 30.9635C13.6058 35.1735 11.4499 36.8558 10.5348 37.3668C10.3072 37.7563 10.0649 38.2232 9.88874 38.6983C11.3202 41.6707 13.2754 44.5906 15.928 47.295C15.9206 46.9939 15.9108 46.5795 15.901 46.1707C15.4239 45.9884 14.6041 45.4469 13.525 43.3862C11.7583 40.0132 13.4858 35.0878 13.4858 35.0878L14.0315 35.4801C15.1131 36.2591 16.0577 37.2701 16.7648 38.4801C19.0503 42.3779 17.4843 45.0436 16.7257 45.9939C16.6156 46.5768 16.525 47.2757 16.5446 47.911C18.6099 49.911 21.0716 51.7867 24.0055 53.4663C23.9615 53.1817 23.8905 52.7149 23.8171 52.2508C23.3644 52.1983 22.4395 51.9414 20.9468 49.8641C18.7592 46.8226 19.8261 41.6624 19.8261 41.6624L20.4158 41.9608C21.5879 42.5519 22.6523 43.3945 23.5112 44.4746C26.0464 47.6596 25.2511 50.3558 24.6173 51.6072C24.5684 52.2619 24.5512 53.1099 24.6736 53.8447C27.8278 55.5795 31.5081 57.0933 35.7952 58.3088C36.1623 58.4138 36.4633 58.6928 36.6003 59.0574C36.708 59.3475 36.7838 59.7812 36.1868 60.2177C36.0448 60.3226 35.8564 60.3724 35.6142 60.3724C34.535 60.3724 32.7242 59.3806 30.4289 58.1293C29.1271 57.4166 27.6491 56.6099 26.0733 55.8641L25.9925 55.8254C24.9672 56.1817 23.3816 56.4663 22.2413 56.6403C21.9305 56.9967 21.1841 58.1624 18.167 58.0961C14.45 58.0132 11.445 53.4608 11.445 53.4608L12.069 53.121C13.3072 52.4469 14.6555 52.0464 16.0307 51.9967C19.5667 51.8724 21.1792 53.7094 21.8889 55.0878C21.9525 55.1044 22.0161 55.1265 22.0773 55.1541C22.7355 55.4442 23.8563 55.3779 24.7861 55.248C22.8212 54.284 19.8799 52.6873 16.8872 50.0271C15.9989 50.1182 14.4573 49.9387 13.4173 49.7895C12.9622 50.1016 11.9516 50.6624 9.5584 49.8889C6.18886 48.8005 4.42457 43.8337 4.42457 43.8337L5.06568 43.6956C6.33813 43.4193 7.65217 43.4193 8.91483 43.7508C12.5168 44.6956 13.4491 47.19 13.6841 48.6099C14.2469 49.0381 15.3505 49.248 16.1457 49.3475C14.6873 47.9663 13.2338 46.3254 11.8928 44.3751C11.1832 43.342 10.5348 42.2619 9.94502 41.1375C9.17422 40.9829 7.64239 40.1016 6.65869 39.4994C6.15461 39.5989 5.08281 39.7066 3.18393 38.0823C0.511799 35.795 0.460407 30.6735 0.460407 30.6735L1.07461 30.8005C2.29567 31.0519 3.46779 31.5657 4.49308 32.3558L4.4833 32.3503Z" fill="#0047BB"/>
</g>
<g clip-path="url(#clip1_8215_2693)">
<path d="M195.849 32.3503C192.925 34.6016 192.857 37.19 193.084 38.5492C192.651 39.2536 191.469 39.9801 190.794 40.353C192.14 37.6154 193.14 34.6237 193.796 31.3917C194.481 30.9663 195.573 29.8779 196.285 29.1293C196.76 29.0878 197.751 28.9027 199.133 26.9359C201.078 24.1652 200.07 19.5215 200.07 19.5215L199.542 19.7978C198.49 20.3447 197.538 21.1182 196.772 22.0989C194.591 24.9 195.064 27.2591 195.548 28.4276C195.318 29.1293 194.498 30.0188 193.958 30.5519C194.543 27.342 194.795 23.9027 194.706 20.2425C195.218 19.6956 195.925 18.5906 196.388 17.8309C196.789 17.6928 197.609 17.3171 198.46 15.3226C199.659 12.5188 197.995 8.74528 197.995 8.74528L197.587 9.09611C196.777 9.795 196.089 10.6679 195.6 11.679C194.205 14.563 195.015 16.4856 195.631 17.3862C195.558 18.0105 195.051 18.9 194.68 19.4801C194.569 16.4386 194.234 13.248 193.664 9.91931C193.845 9.64031 194.528 8.96075 194.136 6.016C193.659 2.40826 189.847 -0.00610352 189.847 -0.00610352L189.658 0.637543C189.281 1.91931 189.127 3.2729 189.245 4.61821C189.631 9.05467 192.264 9.87788 193.258 10.0326C193.324 10.4884 193.419 11.0712 193.478 11.7398C193.583 12.9359 193.801 14.69 193.95 16.8309C193.794 16.69 193.596 16.5105 193.4 16.3309C193.547 15.9442 193.745 15.0933 193.013 13.0657C191.939 10.0961 188.239 8.9276 188.239 8.9276L188.195 9.52152C188.109 10.7038 188.227 11.9 188.574 13.0188C189.6 16.3282 191.628 16.7453 192.673 16.7259C193.082 16.9331 193.593 17.2259 193.999 17.5851C194.171 20.4801 194.19 23.9939 193.666 27.7619C193.51 27.516 193.317 27.2121 193.133 26.9221C193.385 26.469 193.679 25.5491 193.466 23.469C193.101 19.911 189.431 17.3972 189.431 17.3972L189.225 18.0243C188.819 19.2674 188.626 20.5933 188.702 21.9165C188.949 26.2453 191.459 27.1762 192.453 27.3751C192.81 27.7149 193.221 28.1569 193.537 28.6265C193.052 31.6514 192.206 34.8199 190.796 37.9442C190.723 37.7094 190.637 37.4414 190.554 37.179C190.906 36.8337 191.43 36.0519 191.741 33.9387C192.259 30.4027 189.343 26.8475 189.343 26.8475L188.993 27.3862C188.298 28.4552 187.791 29.6679 187.539 30.9635C186.727 35.1735 188.883 36.8558 189.798 37.3668C190.025 37.7563 190.268 38.2232 190.444 38.6983C189.012 41.6707 187.057 44.5906 184.405 47.295C184.412 46.9939 184.422 46.5795 184.431 46.1707C184.909 45.9884 185.728 45.4469 186.808 43.3862C188.574 40.0132 186.847 35.0878 186.847 35.0878L186.301 35.4801C185.219 36.2591 184.275 37.2701 183.568 38.4801C181.282 42.3779 182.848 45.0436 183.607 45.9939C183.717 46.5768 183.807 47.2757 183.788 47.911C181.723 49.911 179.261 51.7867 176.327 53.4663C176.371 53.1817 176.442 52.7149 176.515 52.2508C176.968 52.1983 177.893 51.9414 179.386 49.8641C181.573 46.8226 180.506 41.6624 180.506 41.6624L179.917 41.9608C178.745 42.5519 177.68 43.3945 176.821 44.4746C174.286 47.6596 175.081 50.3558 175.715 51.6072C175.764 52.2619 175.781 53.1099 175.659 53.8447C172.505 55.5795 168.824 57.0933 164.537 58.3088C164.17 58.4138 163.869 58.6928 163.732 59.0574C163.625 59.3475 163.549 59.7812 164.146 60.2177C164.288 60.3226 164.476 60.3724 164.718 60.3724C165.797 60.3724 167.608 59.3806 169.904 58.1293C171.205 57.4166 172.683 56.6099 174.259 55.8641L174.34 55.8254C175.365 56.1817 176.951 56.4663 178.091 56.6403C178.402 56.9967 179.148 58.1624 182.166 58.0961C185.883 58.0132 188.887 53.4608 188.887 53.4608L188.263 53.121C187.025 52.4469 185.677 52.0464 184.302 51.9967C180.766 51.8724 179.153 53.7094 178.444 55.0878C178.38 55.1044 178.316 55.1265 178.255 55.1541C177.597 55.4442 176.476 55.3779 175.546 55.248C177.511 54.284 180.453 52.6873 183.445 50.0271C184.334 50.1182 185.875 49.9387 186.915 49.7895C187.37 50.1016 188.381 50.6624 190.774 49.8889C194.144 48.8005 195.908 43.8337 195.908 43.8337L195.267 43.6956C193.994 43.4193 192.68 43.4193 191.418 43.7508C187.816 44.6956 186.883 47.19 186.648 48.6099C186.086 49.0381 184.982 49.248 184.187 49.3475C185.645 47.9663 187.099 46.3254 188.44 44.3751C189.149 43.342 189.798 42.2619 190.387 41.1375C191.158 40.9829 192.69 40.1016 193.674 39.4994C194.178 39.5989 195.25 39.7066 197.149 38.0823C199.821 35.795 199.872 30.6735 199.872 30.6735L199.258 30.8005C198.037 31.0519 196.865 31.5657 195.839 32.3558L195.849 32.3503Z" fill="#0047BB"/>
</g>
<defs>
<clipPath id="clip0_8215_2693">
<rect width="36.666" height="60.3702" fill="white" transform="matrix(-1 0 0 1 36.666 0)"/>
</clipPath>
<clipPath id="clip1_8215_2693">
<rect width="36.666" height="60.3702" fill="white" transform="translate(163.666)"/>
</clipPath>
</defs>
</svg>
