<svg width="201" height="61" viewBox="0 0 201 61" fill="none" xmlns="http://www.w3.org/2000/svg">
<path d="M39.7365 14V5.06H43.5045C44.0645 5.06 44.5485 5.16 44.9565 5.36C45.3645 5.552 45.6765 5.832 45.8925 6.2C46.1085 6.56 46.2165 6.988 46.2165 7.484C46.2165 7.916 46.1045 8.312 45.8805 8.672C45.6645 9.024 45.3245 9.304 44.8605 9.512V8.912C45.2685 9.072 45.6005 9.276 45.8565 9.524C46.1125 9.764 46.2965 10.036 46.4085 10.34C46.5285 10.644 46.5885 10.964 46.5885 11.3C46.5885 12.14 46.3125 12.8 45.7605 13.28C45.2165 13.76 44.4685 14 43.5165 14H39.7365ZM41.1525 12.74H43.6245C44.0965 12.74 44.4725 12.612 44.7525 12.356C45.0325 12.092 45.1725 11.744 45.1725 11.312C45.1725 10.872 45.0325 10.524 44.7525 10.268C44.4725 10.004 44.0965 9.872 43.6245 9.872H41.1525V12.74ZM41.1525 8.624H43.5405C43.9245 8.624 44.2325 8.516 44.4645 8.3C44.6965 8.076 44.8125 7.784 44.8125 7.424C44.8125 7.064 44.6965 6.784 44.4645 6.584C44.2325 6.384 43.9245 6.284 43.5405 6.284H41.1525V8.624ZM48.0451 14V5.06H53.9371V6.32H49.4611V8.888H53.6971V10.148H49.4611V12.74H53.9371V14H48.0451ZM58.3841 14.144C57.8241 14.144 57.3041 14.04 56.8241 13.832C56.3441 13.616 55.9361 13.324 55.6001 12.956C55.2641 12.588 55.0161 12.164 54.8561 11.684L56.0561 11.18C56.2721 11.732 56.5881 12.156 57.0041 12.452C57.4201 12.748 57.9001 12.896 58.4441 12.896C58.7641 12.896 59.0441 12.848 59.2841 12.752C59.5241 12.648 59.7081 12.504 59.8361 12.32C59.9721 12.136 60.0401 11.924 60.0401 11.684C60.0401 11.356 59.9481 11.096 59.7641 10.904C59.5801 10.712 59.3081 10.56 58.9481 10.448L57.2681 9.92C56.5961 9.712 56.0841 9.396 55.7321 8.972C55.3801 8.54 55.2041 8.036 55.2041 7.46C55.2041 6.956 55.3281 6.516 55.5761 6.14C55.8241 5.756 56.1641 5.456 56.5961 5.24C57.0361 5.024 57.5361 4.916 58.0961 4.916C58.6321 4.916 59.1201 5.012 59.5601 5.204C60.0001 5.388 60.3761 5.644 60.6881 5.972C61.0081 6.3 61.2401 6.68 61.3841 7.112L60.2081 7.628C60.0321 7.156 59.7561 6.792 59.3801 6.536C59.0121 6.28 58.5841 6.152 58.0961 6.152C57.8001 6.152 57.5401 6.204 57.3161 6.308C57.0921 6.404 56.9161 6.548 56.7881 6.74C56.6681 6.924 56.6081 7.14 56.6081 7.388C56.6081 7.676 56.7001 7.932 56.8841 8.156C57.0681 8.38 57.3481 8.548 57.7241 8.66L59.2841 9.152C59.9961 9.368 60.5321 9.68 60.8921 10.088C61.2521 10.488 61.4321 10.988 61.4321 11.588C61.4321 12.084 61.3001 12.524 61.0361 12.908C60.7801 13.292 60.4241 13.596 59.9681 13.82C59.5121 14.036 58.9841 14.144 58.3841 14.144ZM64.6057 14V6.32H62.2297V5.06H68.3497V6.32H66.0097V14H64.6057ZM75.67 14.144C75.038 14.144 74.45 14.028 73.906 13.796C73.37 13.564 72.902 13.244 72.502 12.836C72.11 12.42 71.802 11.932 71.578 11.372C71.354 10.812 71.242 10.196 71.242 9.524C71.242 8.86 71.35 8.248 71.566 7.688C71.79 7.12 72.102 6.632 72.502 6.224C72.902 5.808 73.37 5.488 73.906 5.264C74.442 5.032 75.03 4.916 75.67 4.916C76.302 4.916 76.866 5.024 77.362 5.24C77.866 5.456 78.29 5.74 78.634 6.092C78.978 6.436 79.226 6.812 79.378 7.22L78.106 7.82C77.914 7.34 77.606 6.952 77.182 6.656C76.766 6.352 76.262 6.2 75.67 6.2C75.078 6.2 74.554 6.34 74.098 6.62C73.642 6.9 73.286 7.288 73.03 7.784C72.782 8.28 72.658 8.86 72.658 9.524C72.658 10.188 72.782 10.772 73.03 11.276C73.286 11.772 73.642 12.16 74.098 12.44C74.554 12.712 75.078 12.848 75.67 12.848C76.262 12.848 76.766 12.7 77.182 12.404C77.606 12.108 77.914 11.72 78.106 11.24L79.378 11.84C79.226 12.24 78.978 12.616 78.634 12.968C78.29 13.32 77.866 13.604 77.362 13.82C76.866 14.036 76.302 14.144 75.67 14.144ZM85.1782 14.144C84.5302 14.144 83.9262 14.028 83.3662 13.796C82.8142 13.564 82.3262 13.24 81.9022 12.824C81.4862 12.408 81.1582 11.92 80.9182 11.36C80.6862 10.8 80.5702 10.188 80.5702 9.524C80.5702 8.86 80.6862 8.248 80.9182 7.688C81.1582 7.12 81.4862 6.632 81.9022 6.224C82.3182 5.808 82.8062 5.488 83.3662 5.264C83.9262 5.032 84.5302 4.916 85.1782 4.916C85.8342 4.916 86.4382 5.032 86.9902 5.264C87.5502 5.488 88.0382 5.808 88.4542 6.224C88.8782 6.64 89.2062 7.128 89.4382 7.688C89.6702 8.248 89.7862 8.86 89.7862 9.524C89.7862 10.188 89.6662 10.8 89.4262 11.36C89.1942 11.92 88.8702 12.408 88.4542 12.824C88.0382 13.24 87.5502 13.564 86.9902 13.796C86.4302 14.028 85.8262 14.144 85.1782 14.144ZM85.1782 12.848C85.6422 12.848 86.0662 12.764 86.4502 12.596C86.8422 12.428 87.1822 12.196 87.4702 11.9C87.7582 11.596 87.9822 11.244 88.1422 10.844C88.3022 10.436 88.3822 9.996 88.3822 9.524C88.3822 9.052 88.3022 8.616 88.1422 8.216C87.9822 7.816 87.7582 7.464 87.4702 7.16C87.1822 6.856 86.8422 6.62 86.4502 6.452C86.0662 6.284 85.6422 6.2 85.1782 6.2C84.7142 6.2 84.2862 6.284 83.8942 6.452C83.5102 6.62 83.1742 6.856 82.8862 7.16C82.5982 7.464 82.3742 7.816 82.2142 8.216C82.0622 8.616 81.9862 9.052 81.9862 9.524C81.9862 9.996 82.0622 10.436 82.2142 10.844C82.3742 11.244 82.5982 11.596 82.8862 11.9C83.1742 12.196 83.5142 12.428 83.9062 12.596C84.2982 12.764 84.7222 12.848 85.1782 12.848ZM91.3693 14V5.06H94.6213C95.2213 5.06 95.7493 5.172 96.2053 5.396C96.6693 5.612 97.0293 5.932 97.2853 6.356C97.5413 6.772 97.6693 7.272 97.6693 7.856C97.6693 8.432 97.5373 8.928 97.2733 9.344C97.0173 9.76 96.6613 10.08 96.2053 10.304C95.7493 10.528 95.2213 10.64 94.6213 10.64H92.7853V14H91.3693ZM92.7853 9.38H94.6573C94.9773 9.38 95.2573 9.316 95.4973 9.188C95.7373 9.06 95.9253 8.884 96.0613 8.66C96.1973 8.428 96.2653 8.156 96.2653 7.844C96.2653 7.532 96.1973 7.264 96.0613 7.04C95.9253 6.808 95.7373 6.632 95.4973 6.512C95.2573 6.384 94.9773 6.32 94.6573 6.32H92.7853V9.38ZM101.161 14V9.968L98.1008 5.06H99.6968L102.145 9.032H101.581L104.017 5.06H105.613L102.565 9.968V14H101.161ZM110.356 14V6.32H107.98V5.06H114.1V6.32H111.76V14H110.356ZM115.158 14V5.06H118.41C119.01 5.06 119.538 5.172 119.994 5.396C120.45 5.612 120.806 5.932 121.062 6.356C121.326 6.772 121.458 7.272 121.458 7.856C121.458 8.472 121.302 9 120.99 9.44C120.686 9.88 120.274 10.2 119.754 10.4L121.818 14H120.21L118.014 10.1L118.938 10.64H116.574V14H115.158ZM116.574 9.38H118.434C118.762 9.38 119.046 9.316 119.286 9.188C119.526 9.06 119.71 8.884 119.838 8.66C119.974 8.428 120.042 8.156 120.042 7.844C120.042 7.532 119.974 7.264 119.838 7.04C119.71 6.808 119.526 6.632 119.286 6.512C119.046 6.384 118.762 6.32 118.434 6.32H116.574V9.38ZM122.218 14L125.362 5.06H127.114L130.258 14H128.746L128.062 11.996H124.426L123.73 14H122.218ZM124.834 10.736H127.63L126.046 6.056H126.442L124.834 10.736ZM131.319 14V5.06H134.247C135.175 5.06 135.979 5.248 136.659 5.624C137.347 5.992 137.879 6.512 138.255 7.184C138.631 7.856 138.819 8.636 138.819 9.524C138.819 10.404 138.631 11.184 138.255 11.864C137.879 12.536 137.347 13.06 136.659 13.436C135.979 13.812 135.175 14 134.247 14H131.319ZM132.735 12.74H134.271C134.903 12.74 135.451 12.608 135.915 12.344C136.387 12.08 136.751 11.708 137.007 11.228C137.263 10.748 137.391 10.18 137.391 9.524C137.391 8.868 137.259 8.304 136.995 7.832C136.739 7.352 136.379 6.98 135.915 6.716C135.451 6.452 134.903 6.32 134.271 6.32H132.735V12.74ZM140.213 14V5.06H141.629V14H140.213ZM143.483 14V5.06H144.623L149.639 11.984L149.099 12.068V5.06H150.503V14H149.363L144.383 7.028L144.899 6.932V14H143.483ZM156.542 14.144C155.91 14.144 155.322 14.028 154.778 13.796C154.242 13.564 153.77 13.244 153.362 12.836C152.962 12.42 152.65 11.932 152.426 11.372C152.202 10.812 152.09 10.196 152.09 9.524C152.09 8.86 152.198 8.248 152.414 7.688C152.638 7.12 152.95 6.632 153.35 6.224C153.75 5.808 154.218 5.488 154.754 5.264C155.29 5.032 155.878 4.916 156.518 4.916C157.15 4.916 157.714 5.024 158.21 5.24C158.714 5.456 159.138 5.74 159.482 6.092C159.826 6.436 160.074 6.812 160.226 7.22L158.966 7.832C158.782 7.344 158.478 6.952 158.054 6.656C157.63 6.352 157.118 6.2 156.518 6.2C155.926 6.2 155.402 6.34 154.946 6.62C154.49 6.9 154.134 7.288 153.878 7.784C153.63 8.28 153.506 8.86 153.506 9.524C153.506 10.188 153.634 10.772 153.89 11.276C154.154 11.772 154.514 12.16 154.97 12.44C155.426 12.712 155.95 12.848 156.542 12.848C157.038 12.848 157.49 12.748 157.898 12.548C158.314 12.34 158.646 12.052 158.894 11.684C159.142 11.308 159.266 10.872 159.266 10.376V9.764L159.902 10.34H156.518V9.14H160.67V9.98C160.67 10.636 160.558 11.224 160.334 11.744C160.11 12.256 159.806 12.692 159.422 13.052C159.038 13.412 158.598 13.684 158.102 13.868C157.606 14.052 157.086 14.144 156.542 14.144ZM59.8166 32V23.06H63.5846C64.1446 23.06 64.6286 23.16 65.0366 23.36C65.4446 23.552 65.7566 23.832 65.9726 24.2C66.1886 24.56 66.2966 24.988 66.2966 25.484C66.2966 25.916 66.1846 26.312 65.9606 26.672C65.7446 27.024 65.4046 27.304 64.9406 27.512V26.912C65.3486 27.072 65.6806 27.276 65.9366 27.524C66.1926 27.764 66.3766 28.036 66.4886 28.34C66.6086 28.644 66.6686 28.964 66.6686 29.3C66.6686 30.14 66.3926 30.8 65.8406 31.28C65.2966 31.76 64.5486 32 63.5966 32H59.8166ZM61.2326 30.74H63.7046C64.1766 30.74 64.5526 30.612 64.8326 30.356C65.1126 30.092 65.2526 29.744 65.2526 29.312C65.2526 28.872 65.1126 28.524 64.8326 28.268C64.5526 28.004 64.1766 27.872 63.7046 27.872H61.2326V30.74ZM61.2326 26.624H63.6206C64.0046 26.624 64.3126 26.516 64.5446 26.3C64.7766 26.076 64.8926 25.784 64.8926 25.424C64.8926 25.064 64.7766 24.784 64.5446 24.584C64.3126 24.384 64.0046 24.284 63.6206 24.284H61.2326V26.624ZM68.1252 32V23.06H71.3772C71.9772 23.06 72.5052 23.172 72.9612 23.396C73.4172 23.612 73.7732 23.932 74.0292 24.356C74.2932 24.772 74.4252 25.272 74.4252 25.856C74.4252 26.472 74.2692 27 73.9572 27.44C73.6532 27.88 73.2412 28.2 72.7212 28.4L74.7852 32H73.1772L70.9812 28.1L71.9052 28.64H69.5412V32H68.1252ZM69.5412 27.38H71.4012C71.7292 27.38 72.0132 27.316 72.2532 27.188C72.4932 27.06 72.6772 26.884 72.8052 26.66C72.9412 26.428 73.0092 26.156 73.0092 25.844C73.0092 25.532 72.9412 25.264 72.8052 25.04C72.6772 24.808 72.4932 24.632 72.2532 24.512C72.0132 24.384 71.7292 24.32 71.4012 24.32H69.5412V27.38ZM80.3207 32.144C79.6727 32.144 79.0687 32.028 78.5087 31.796C77.9567 31.564 77.4687 31.24 77.0447 30.824C76.6287 30.408 76.3007 29.92 76.0607 29.36C75.8287 28.8 75.7127 28.188 75.7127 27.524C75.7127 26.86 75.8287 26.248 76.0607 25.688C76.3007 25.12 76.6287 24.632 77.0447 24.224C77.4607 23.808 77.9487 23.488 78.5087 23.264C79.0687 23.032 79.6727 22.916 80.3207 22.916C80.9767 22.916 81.5807 23.032 82.1327 23.264C82.6927 23.488 83.1807 23.808 83.5967 24.224C84.0207 24.64 84.3487 25.128 84.5807 25.688C84.8127 26.248 84.9287 26.86 84.9287 27.524C84.9287 28.188 84.8087 28.8 84.5687 29.36C84.3367 29.92 84.0127 30.408 83.5967 30.824C83.1807 31.24 82.6927 31.564 82.1327 31.796C81.5727 32.028 80.9687 32.144 80.3207 32.144ZM80.3207 30.848C80.7847 30.848 81.2087 30.764 81.5927 30.596C81.9847 30.428 82.3247 30.196 82.6127 29.9C82.9007 29.596 83.1247 29.244 83.2847 28.844C83.4447 28.436 83.5247 27.996 83.5247 27.524C83.5247 27.052 83.4447 26.616 83.2847 26.216C83.1247 25.816 82.9007 25.464 82.6127 25.16C82.3247 24.856 81.9847 24.62 81.5927 24.452C81.2087 24.284 80.7847 24.2 80.3207 24.2C79.8567 24.2 79.4287 24.284 79.0367 24.452C78.6527 24.62 78.3167 24.856 78.0287 25.16C77.7407 25.464 77.5167 25.816 77.3567 26.216C77.2047 26.616 77.1287 27.052 77.1287 27.524C77.1287 27.996 77.2047 28.436 77.3567 28.844C77.5167 29.244 77.7407 29.596 78.0287 29.9C78.3167 30.196 78.6567 30.428 79.0487 30.596C79.4407 30.764 79.8647 30.848 80.3207 30.848ZM86.5119 32V23.06H87.9279V27.908L87.5559 27.764L91.5999 23.06H93.3639L89.7879 27.248L89.8599 26.24L93.5079 32H91.8399L89.2239 27.908L87.9279 29.42V32H86.5119ZM94.5627 32V23.06H100.455V24.32H95.9787V26.888H100.215V28.148H95.9787V30.74H100.455V32H94.5627ZM101.77 32V23.06H105.022C105.622 23.06 106.15 23.172 106.606 23.396C107.062 23.612 107.418 23.932 107.674 24.356C107.938 24.772 108.07 25.272 108.07 25.856C108.07 26.472 107.914 27 107.602 27.44C107.298 27.88 106.886 28.2 106.366 28.4L108.43 32H106.822L104.626 28.1L105.55 28.64H103.186V32H101.77ZM103.186 27.38H105.046C105.374 27.38 105.658 27.316 105.898 27.188C106.138 27.06 106.322 26.884 106.45 26.66C106.586 26.428 106.654 26.156 106.654 25.844C106.654 25.532 106.586 25.264 106.45 25.04C106.322 24.808 106.138 24.632 105.898 24.512C105.658 24.384 105.374 24.32 105.046 24.32H103.186V27.38ZM111.395 32V30.98L113.843 28.364C114.323 27.852 114.699 27.44 114.971 27.128C115.251 26.808 115.451 26.528 115.571 26.288C115.699 26.048 115.763 25.796 115.763 25.532C115.763 25.1 115.631 24.768 115.367 24.536C115.103 24.296 114.763 24.176 114.347 24.176C113.915 24.176 113.543 24.3 113.231 24.548C112.919 24.788 112.703 25.14 112.583 25.604L111.335 25.244C111.431 24.772 111.623 24.364 111.911 24.02C112.199 23.668 112.551 23.396 112.967 23.204C113.391 23.012 113.847 22.916 114.335 22.916C114.903 22.916 115.399 23.024 115.823 23.24C116.247 23.448 116.575 23.74 116.807 24.116C117.047 24.492 117.167 24.928 117.167 25.424C117.167 25.752 117.103 26.072 116.975 26.384C116.855 26.688 116.667 27.012 116.411 27.356C116.155 27.692 115.827 28.072 115.427 28.496L113.267 30.8H117.335V32H111.395ZM122.275 32.144C121.563 32.144 120.939 31.952 120.403 31.568C119.867 31.176 119.447 30.636 119.143 29.948C118.847 29.252 118.699 28.444 118.699 27.524C118.699 26.596 118.847 25.788 119.143 25.1C119.447 24.412 119.863 23.876 120.391 23.492C120.927 23.108 121.551 22.916 122.263 22.916C122.975 22.916 123.595 23.108 124.123 23.492C124.659 23.876 125.075 24.416 125.371 25.112C125.675 25.8 125.827 26.604 125.827 27.524C125.827 28.444 125.679 29.252 125.383 29.948C125.087 30.636 124.671 31.176 124.135 31.568C123.607 31.952 122.987 32.144 122.275 32.144ZM122.275 30.848C122.715 30.848 123.095 30.712 123.415 30.44C123.735 30.168 123.983 29.784 124.159 29.288C124.335 28.792 124.423 28.204 124.423 27.524C124.423 26.844 124.335 26.256 124.159 25.76C123.983 25.264 123.735 24.88 123.415 24.608C123.095 24.336 122.711 24.2 122.263 24.2C121.823 24.2 121.443 24.336 121.123 24.608C120.803 24.88 120.555 25.264 120.379 25.76C120.203 26.256 120.115 26.844 120.115 27.524C120.115 28.196 120.203 28.784 120.379 29.288C120.555 29.784 120.803 30.168 121.123 30.44C121.451 30.712 121.835 30.848 122.275 30.848ZM127.157 32V30.98L129.605 28.364C130.085 27.852 130.461 27.44 130.733 27.128C131.013 26.808 131.213 26.528 131.333 26.288C131.461 26.048 131.525 25.796 131.525 25.532C131.525 25.1 131.393 24.768 131.129 24.536C130.865 24.296 130.525 24.176 130.109 24.176C129.677 24.176 129.305 24.3 128.993 24.548C128.681 24.788 128.465 25.14 128.345 25.604L127.097 25.244C127.193 24.772 127.385 24.364 127.673 24.02C127.961 23.668 128.313 23.396 128.729 23.204C129.153 23.012 129.609 22.916 130.097 22.916C130.665 22.916 131.161 23.024 131.585 23.24C132.009 23.448 132.337 23.74 132.569 24.116C132.809 24.492 132.929 24.928 132.929 25.424C132.929 25.752 132.865 26.072 132.737 26.384C132.617 26.688 132.429 27.012 132.173 27.356C131.917 27.692 131.589 28.072 131.189 28.496L129.029 30.8H133.097V32H127.157ZM137.317 32.144C136.845 32.144 136.401 32.06 135.985 31.892C135.569 31.716 135.209 31.472 134.905 31.16C134.601 30.848 134.385 30.472 134.257 30.032L135.445 29.576C135.597 30 135.845 30.324 136.189 30.548C136.533 30.772 136.909 30.884 137.317 30.884C137.653 30.884 137.949 30.808 138.205 30.656C138.461 30.504 138.661 30.296 138.805 30.032C138.957 29.768 139.033 29.468 139.033 29.132C139.033 28.788 138.957 28.488 138.805 28.232C138.661 27.968 138.461 27.764 138.205 27.62C137.949 27.468 137.653 27.392 137.317 27.392C136.981 27.392 136.673 27.468 136.393 27.62C136.113 27.772 135.909 27.976 135.781 28.232L134.641 27.98L135.337 23.06H140.101V24.26H135.889L136.429 23.672L135.913 27.44L135.469 27.14C135.709 26.804 136.001 26.56 136.345 26.408C136.689 26.256 137.081 26.18 137.521 26.18C138.105 26.18 138.613 26.312 139.045 26.576C139.485 26.832 139.825 27.184 140.065 27.632C140.313 28.072 140.437 28.572 140.437 29.132C140.437 29.7 140.301 30.212 140.029 30.668C139.757 31.124 139.385 31.484 138.913 31.748C138.449 32.012 137.917 32.144 137.317 32.144Z" fill="#0D0D4B"/>
<path d="M40.7898 50V44.04H44.6698V44.88H41.7338V46.672H44.3498V47.512H41.7338V50H40.7898ZM48.2796 50.096C47.8476 50.096 47.4449 50.0187 47.0716 49.864C46.7036 49.7093 46.3782 49.4933 46.0956 49.216C45.8182 48.9387 45.5996 48.6133 45.4396 48.24C45.2849 47.8667 45.2076 47.4587 45.2076 47.016C45.2076 46.5733 45.2849 46.1653 45.4396 45.792C45.5996 45.4133 45.8182 45.088 46.0956 44.816C46.3729 44.5387 46.6982 44.3253 47.0716 44.176C47.4449 44.0213 47.8476 43.944 48.2796 43.944C48.7169 43.944 49.1196 44.0213 49.4876 44.176C49.8609 44.3253 50.1862 44.5387 50.4636 44.816C50.7462 45.0933 50.9649 45.4187 51.1196 45.792C51.2742 46.1653 51.3516 46.5733 51.3516 47.016C51.3516 47.4587 51.2716 47.8667 51.1116 48.24C50.9569 48.6133 50.7409 48.9387 50.4636 49.216C50.1862 49.4933 49.8609 49.7093 49.4876 49.864C49.1142 50.0187 48.7116 50.096 48.2796 50.096ZM48.2796 49.232C48.5889 49.232 48.8716 49.176 49.1276 49.064C49.3889 48.952 49.6156 48.7973 49.8076 48.6C49.9996 48.3973 50.1489 48.1627 50.2556 47.896C50.3622 47.624 50.4156 47.3307 50.4156 47.016C50.4156 46.7013 50.3622 46.4107 50.2556 46.144C50.1489 45.8773 49.9996 45.6427 49.8076 45.44C49.6156 45.2373 49.3889 45.08 49.1276 44.968C48.8716 44.856 48.5889 44.8 48.2796 44.8C47.9702 44.8 47.6849 44.856 47.4236 44.968C47.1676 45.08 46.9436 45.2373 46.7516 45.44C46.5596 45.6427 46.4102 45.8773 46.3036 46.144C46.2022 46.4107 46.1516 46.7013 46.1516 47.016C46.1516 47.3307 46.2022 47.624 46.3036 47.896C46.4102 48.1627 46.5596 48.3973 46.7516 48.6C46.9436 48.7973 47.1702 48.952 47.4316 49.064C47.6929 49.176 47.9756 49.232 48.2796 49.232ZM52.407 50V44.04H54.575C54.975 44.04 55.327 44.1147 55.631 44.264C55.935 44.408 56.1723 44.6213 56.343 44.904C56.519 45.1813 56.607 45.5147 56.607 45.904C56.607 46.3147 56.503 46.6667 56.295 46.96C56.0923 47.2533 55.8177 47.4667 55.471 47.6L56.847 50H55.775L54.311 47.4L54.927 47.76H53.351V50H52.407ZM53.351 46.92H54.591C54.8097 46.92 54.999 46.8773 55.159 46.792C55.319 46.7067 55.4417 46.5893 55.527 46.44C55.6177 46.2853 55.663 46.104 55.663 45.896C55.663 45.688 55.6177 45.5093 55.527 45.36C55.4417 45.2053 55.319 45.088 55.159 45.008C54.999 44.9227 54.8097 44.88 54.591 44.88H53.351V46.92ZM57.6414 50V44.04H61.5694V44.88H58.5854V46.592H61.4094V47.432H58.5854V49.16H61.5694V50H57.6414ZM61.9181 50L63.8621 46.984L61.9501 44.04H63.0221L64.6221 46.504H64.1661L65.7501 44.04H66.8221L64.9181 46.984L66.8621 50H65.7901L64.1661 47.472L64.6221 47.48L62.9821 50H61.9181ZM70.0177 50V44.88H68.4337V44.04H72.5137V44.88H70.9537V50H70.0177ZM73.2195 50V44.04H75.3875C75.7875 44.04 76.1395 44.1147 76.4435 44.264C76.7475 44.408 76.9848 44.6213 77.1555 44.904C77.3315 45.1813 77.4195 45.5147 77.4195 45.904C77.4195 46.3147 77.3155 46.6667 77.1075 46.96C76.9048 47.2533 76.6302 47.4667 76.2835 47.6L77.6595 50H76.5875L75.1235 47.4L75.7395 47.76H74.1635V50H73.2195ZM74.1635 46.92H75.4035C75.6222 46.92 75.8115 46.8773 75.9715 46.792C76.1315 46.7067 76.2542 46.5893 76.3395 46.44C76.4302 46.2853 76.4755 46.104 76.4755 45.896C76.4755 45.688 76.4302 45.5093 76.3395 45.36C76.2542 45.2053 76.1315 45.088 75.9715 45.008C75.8115 44.9227 75.6222 44.88 75.4035 44.88H74.1635V46.92ZM77.9259 50L80.0219 44.04H81.1899L83.2859 50H82.2779L81.8219 48.664H79.3979L78.9339 50H77.9259ZM79.6699 47.824H81.5339L80.4779 44.704H80.7419L79.6699 47.824ZM83.993 50V44.04H85.945C86.5636 44.04 87.0996 44.1653 87.553 44.416C88.0116 44.6613 88.3663 45.008 88.617 45.456C88.8676 45.904 88.993 46.424 88.993 47.016C88.993 47.6027 88.8676 48.1227 88.617 48.576C88.3663 49.024 88.0116 49.3733 87.553 49.624C87.0996 49.8747 86.5636 50 85.945 50H83.993ZM84.937 49.16H85.961C86.3823 49.16 86.7476 49.072 87.057 48.896C87.3716 48.72 87.6143 48.472 87.785 48.152C87.9556 47.832 88.041 47.4533 88.041 47.016C88.041 46.5787 87.953 46.2027 87.777 45.888C87.6063 45.568 87.3663 45.32 87.057 45.144C86.7476 44.968 86.3823 44.88 85.961 44.88H84.937V49.16ZM89.9226 50V44.04H93.8506V44.88H90.8666V46.592H93.6906V47.432H90.8666V49.16H93.8506V50H89.9226ZM94.7273 50V44.04H96.8953C97.2953 44.04 97.6473 44.1147 97.9513 44.264C98.2553 44.408 98.4927 44.6213 98.6633 44.904C98.8393 45.1813 98.9273 45.5147 98.9273 45.904C98.9273 46.3147 98.8233 46.6667 98.6153 46.96C98.4127 47.2533 98.138 47.4667 97.7913 47.6L99.1673 50H98.0953L96.6313 47.4L97.2473 47.76H95.6713V50H94.7273ZM95.6713 46.92H96.9113C97.13 46.92 97.3193 46.8773 97.4793 46.792C97.6393 46.7067 97.762 46.5893 97.8473 46.44C97.938 46.2853 97.9833 46.104 97.9833 45.896C97.9833 45.688 97.938 45.5093 97.8473 45.36C97.762 45.2053 97.6393 45.088 97.4793 45.008C97.3193 44.9227 97.13 44.88 96.9113 44.88H95.6713V46.92ZM102.05 50.096C101.676 50.096 101.33 50.0267 101.01 49.888C100.69 49.744 100.418 49.5493 100.194 49.304C99.9697 49.0587 99.8044 48.776 99.6977 48.456L100.498 48.12C100.642 48.488 100.852 48.7707 101.13 48.968C101.407 49.1653 101.727 49.264 102.09 49.264C102.303 49.264 102.49 49.232 102.65 49.168C102.81 49.0987 102.932 49.0027 103.018 48.88C103.108 48.7573 103.154 48.616 103.154 48.456C103.154 48.2373 103.092 48.064 102.97 47.936C102.847 47.808 102.666 47.7067 102.426 47.632L101.306 47.28C100.858 47.1413 100.516 46.9307 100.282 46.648C100.047 46.36 99.9297 46.024 99.9297 45.64C99.9297 45.304 100.012 45.0107 100.178 44.76C100.343 44.504 100.57 44.304 100.858 44.16C101.151 44.016 101.484 43.944 101.858 43.944C102.215 43.944 102.54 44.008 102.834 44.136C103.127 44.2587 103.378 44.4293 103.586 44.648C103.799 44.8667 103.954 45.12 104.05 45.408L103.266 45.752C103.148 45.4373 102.964 45.1947 102.714 45.024C102.468 44.8533 102.183 44.768 101.858 44.768C101.66 44.768 101.487 44.8027 101.338 44.872C101.188 44.936 101.071 45.032 100.986 45.16C100.906 45.2827 100.866 45.4267 100.866 45.592C100.866 45.784 100.927 45.9547 101.05 46.104C101.172 46.2533 101.359 46.3653 101.61 46.44L102.65 46.768C103.124 46.912 103.482 47.12 103.722 47.392C103.962 47.6587 104.082 47.992 104.082 48.392C104.082 48.7227 103.994 49.016 103.818 49.272C103.647 49.528 103.41 49.7307 103.106 49.88C102.802 50.024 102.45 50.096 102.05 50.096ZM108.628 50.096C108.254 50.096 107.908 50.0267 107.588 49.888C107.268 49.744 106.996 49.5493 106.772 49.304C106.548 49.0587 106.382 48.776 106.276 48.456L107.076 48.12C107.22 48.488 107.43 48.7707 107.708 48.968C107.985 49.1653 108.305 49.264 108.668 49.264C108.881 49.264 109.068 49.232 109.228 49.168C109.388 49.0987 109.51 49.0027 109.596 48.88C109.686 48.7573 109.732 48.616 109.732 48.456C109.732 48.2373 109.67 48.064 109.548 47.936C109.425 47.808 109.244 47.7067 109.004 47.632L107.884 47.28C107.436 47.1413 107.094 46.9307 106.86 46.648C106.625 46.36 106.508 46.024 106.508 45.64C106.508 45.304 106.59 45.0107 106.756 44.76C106.921 44.504 107.148 44.304 107.436 44.16C107.729 44.016 108.062 43.944 108.436 43.944C108.793 43.944 109.118 44.008 109.412 44.136C109.705 44.2587 109.956 44.4293 110.164 44.648C110.377 44.8667 110.532 45.12 110.628 45.408L109.844 45.752C109.726 45.4373 109.542 45.1947 109.292 45.024C109.046 44.8533 108.761 44.768 108.436 44.768C108.238 44.768 108.065 44.8027 107.916 44.872C107.766 44.936 107.649 45.032 107.564 45.16C107.484 45.2827 107.444 45.4267 107.444 45.592C107.444 45.784 107.505 45.9547 107.628 46.104C107.75 46.2533 107.937 46.3653 108.188 46.44L109.228 46.768C109.702 46.912 110.06 47.12 110.3 47.392C110.54 47.6587 110.66 47.992 110.66 48.392C110.66 48.7227 110.572 49.016 110.396 49.272C110.225 49.528 109.988 49.7307 109.684 49.88C109.38 50.024 109.028 50.096 108.628 50.096ZM113.952 50.096C113.509 50.096 113.114 50.0027 112.768 49.816C112.426 49.6293 112.157 49.3733 111.96 49.048C111.768 48.7227 111.672 48.352 111.672 47.936V44.04H112.616V47.896C112.616 48.1573 112.672 48.3893 112.784 48.592C112.901 48.7947 113.058 48.952 113.256 49.064C113.458 49.176 113.69 49.232 113.952 49.232C114.218 49.232 114.45 49.176 114.648 49.064C114.85 48.952 115.008 48.7947 115.12 48.592C115.237 48.3893 115.296 48.1573 115.296 47.896V44.04H116.232V47.936C116.232 48.352 116.136 48.7227 115.944 49.048C115.752 49.3733 115.482 49.6293 115.136 49.816C114.794 50.0027 114.4 50.096 113.952 50.096ZM117.415 50V44.04H118.295L120.535 47.144H120.095L122.295 44.04H123.175V50H122.239V45.152L122.591 45.248L120.343 48.32H120.247L118.047 45.248L118.359 45.152V50H117.415ZM124.407 50V44.04H125.287L127.527 47.144H127.087L129.287 44.04H130.167V50H129.231V45.152L129.583 45.248L127.335 48.32H127.239L125.039 45.248L125.351 45.152V50H124.407ZM131.399 50V44.04H132.343V50H131.399ZM134.635 50V44.88H133.051V44.04H137.131V44.88H135.571V50H134.635ZM139.019 50V49.32L140.651 47.576C140.971 47.2347 141.222 46.96 141.403 46.752C141.59 46.5387 141.723 46.352 141.803 46.192C141.888 46.032 141.931 45.864 141.931 45.688C141.931 45.4 141.843 45.1787 141.667 45.024C141.491 44.864 141.264 44.784 140.987 44.784C140.699 44.784 140.451 44.8667 140.243 45.032C140.035 45.192 139.891 45.4267 139.811 45.736L138.979 45.496C139.043 45.1813 139.171 44.9093 139.363 44.68C139.555 44.4453 139.79 44.264 140.067 44.136C140.35 44.008 140.654 43.944 140.979 43.944C141.358 43.944 141.688 44.016 141.971 44.16C142.254 44.2987 142.472 44.4933 142.627 44.744C142.787 44.9947 142.867 45.2853 142.867 45.616C142.867 45.8347 142.824 46.048 142.739 46.256C142.659 46.4587 142.534 46.6747 142.363 46.904C142.192 47.128 141.974 47.3813 141.707 47.664L140.267 49.2H142.979V50H139.019ZM146.272 50.096C145.798 50.096 145.382 49.968 145.024 49.712C144.667 49.4507 144.387 49.0907 144.184 48.632C143.987 48.168 143.888 47.6293 143.888 47.016C143.888 46.3973 143.987 45.8587 144.184 45.4C144.387 44.9413 144.664 44.584 145.016 44.328C145.374 44.072 145.79 43.944 146.264 43.944C146.739 43.944 147.152 44.072 147.504 44.328C147.862 44.584 148.139 44.944 148.336 45.408C148.539 45.8667 148.64 46.4027 148.64 47.016C148.64 47.6293 148.542 48.168 148.344 48.632C148.147 49.0907 147.87 49.4507 147.512 49.712C147.16 49.968 146.747 50.096 146.272 50.096ZM146.272 49.232C146.566 49.232 146.819 49.1413 147.032 48.96C147.246 48.7787 147.411 48.5227 147.528 48.192C147.646 47.8613 147.704 47.4693 147.704 47.016C147.704 46.5627 147.646 46.1707 147.528 45.84C147.411 45.5093 147.246 45.2533 147.032 45.072C146.819 44.8907 146.563 44.8 146.264 44.8C145.971 44.8 145.718 44.8907 145.504 45.072C145.291 45.2533 145.126 45.5093 145.008 45.84C144.891 46.1707 144.832 46.5627 144.832 47.016C144.832 47.464 144.891 47.856 145.008 48.192C145.126 48.5227 145.291 48.7787 145.504 48.96C145.723 49.1413 145.979 49.232 146.272 49.232ZM149.527 50V49.32L151.159 47.576C151.479 47.2347 151.73 46.96 151.911 46.752C152.098 46.5387 152.231 46.352 152.311 46.192C152.396 46.032 152.439 45.864 152.439 45.688C152.439 45.4 152.351 45.1787 152.175 45.024C151.999 44.864 151.772 44.784 151.495 44.784C151.207 44.784 150.959 44.8667 150.751 45.032C150.543 45.192 150.399 45.4267 150.319 45.736L149.487 45.496C149.551 45.1813 149.679 44.9093 149.871 44.68C150.063 44.4453 150.298 44.264 150.575 44.136C150.858 44.008 151.162 43.944 151.487 43.944C151.866 43.944 152.196 44.016 152.479 44.16C152.762 44.2987 152.98 44.4933 153.135 44.744C153.295 44.9947 153.375 45.2853 153.375 45.616C153.375 45.8347 153.332 46.048 153.247 46.256C153.167 46.4587 153.042 46.6747 152.871 46.904C152.7 47.128 152.482 47.3813 152.215 47.664L150.775 49.2H153.487V50H149.527ZM156.3 50.096C155.986 50.096 155.69 50.04 155.412 49.928C155.135 49.8107 154.895 49.648 154.692 49.44C154.49 49.232 154.346 48.9813 154.26 48.688L155.052 48.384C155.154 48.6667 155.319 48.8827 155.548 49.032C155.778 49.1813 156.028 49.256 156.3 49.256C156.524 49.256 156.722 49.2053 156.892 49.104C157.063 49.0027 157.196 48.864 157.292 48.688C157.394 48.512 157.444 48.312 157.444 48.088C157.444 47.8587 157.394 47.6587 157.292 47.488C157.196 47.312 157.063 47.176 156.892 47.08C156.722 46.9787 156.524 46.928 156.3 46.928C156.076 46.928 155.871 46.9787 155.684 47.08C155.498 47.1813 155.362 47.3173 155.276 47.488L154.516 47.32L154.98 44.04H158.156V44.84H155.348L155.708 44.448L155.364 46.96L155.068 46.76C155.228 46.536 155.423 46.3733 155.652 46.272C155.882 46.1707 156.143 46.12 156.436 46.12C156.826 46.12 157.164 46.208 157.452 46.384C157.746 46.5547 157.972 46.7893 158.132 47.088C158.298 47.3813 158.38 47.7147 158.38 48.088C158.38 48.4667 158.29 48.808 158.108 49.112C157.927 49.416 157.679 49.656 157.364 49.832C157.055 50.008 156.7 50.096 156.3 50.096Z" fill="#0047BB"/>
<g clip-path="url(#clip0_8215_2700)">
<path d="M4.4833 32.3503C7.40747 34.6016 7.47599 37.19 7.24842 38.5492C7.68154 39.2536 8.86345 39.9801 9.53882 40.353C8.19296 37.6154 7.19214 34.6237 6.53634 31.3917C5.85118 30.9663 4.75981 29.8779 4.04773 29.1293C3.57301 29.0878 2.58197 28.9027 1.19941 26.9359C-0.745968 24.1652 0.262203 19.5215 0.262203 19.5215L0.790756 19.7978C1.84297 20.3447 2.79486 21.1182 3.56078 22.0989C5.74106 24.9 5.26879 27.2591 4.78428 28.4276C5.0143 29.1293 5.83405 30.0188 6.37484 30.5519C5.79 27.342 5.53796 23.9027 5.62605 20.2425C5.11463 19.6956 4.40744 18.5906 3.94495 17.8309C3.54364 17.6928 2.7239 17.3171 1.87233 15.3226C0.673298 12.5188 2.33727 8.74528 2.33727 8.74528L2.74592 9.09611C3.55588 9.795 4.24349 10.6679 4.73289 11.679C6.12769 14.563 5.31772 16.4856 4.70108 17.3862C4.77449 18.0105 5.28102 18.9 5.65297 19.4801C5.76308 16.4386 6.09833 13.248 6.66848 9.91931C6.4874 9.64031 5.80468 8.96075 6.19621 6.016C6.67337 2.40826 10.4858 -0.00610352 10.4858 -0.00610352L10.6742 0.637543C11.0511 1.91931 11.2052 3.2729 11.0878 4.61821C10.7012 9.05467 8.06817 9.87788 7.07468 10.0326C7.00861 10.4884 6.91318 11.0712 6.85445 11.7398C6.74923 12.9359 6.53144 14.69 6.38218 16.8309C6.53879 16.69 6.73699 16.5105 6.93275 16.3309C6.78593 15.9442 6.58773 15.0933 7.31938 13.0657C8.39362 10.0961 12.0935 8.9276 12.0935 8.9276L12.1375 9.52152C12.2232 10.7038 12.1057 11.9 11.7583 13.0188C10.733 16.3282 8.70439 16.7453 7.65952 16.7259C7.25087 16.9331 6.73944 17.2259 6.33324 17.5851C6.16195 20.4801 6.14237 23.9939 6.66603 27.7619C6.82264 27.516 7.01595 27.2121 7.19948 26.9221C6.94744 26.469 6.6538 25.5491 6.86669 23.469C7.23129 19.911 10.9018 17.3972 10.9018 17.3972L11.1074 18.0243C11.5136 19.2674 11.7069 20.5933 11.631 21.9165C11.3839 26.2453 8.87323 27.1762 7.87975 27.3751C7.52248 27.7149 7.11139 28.1569 6.79572 28.6265C7.28023 31.6514 8.12689 34.8199 9.53637 37.9442C9.60978 37.7094 9.69543 37.4414 9.77863 37.179C9.42626 36.8337 8.9026 36.0519 8.59183 33.9387C8.07306 30.4027 10.9899 26.8475 10.9899 26.8475L11.3398 27.3862C12.0348 28.4552 12.5413 29.6679 12.7933 30.9635C13.6058 35.1735 11.4499 36.8558 10.5348 37.3668C10.3072 37.7563 10.0649 38.2232 9.88874 38.6983C11.3202 41.6707 13.2754 44.5906 15.928 47.295C15.9206 46.9939 15.9108 46.5795 15.901 46.1707C15.4239 45.9884 14.6041 45.4469 13.525 43.3862C11.7583 40.0132 13.4858 35.0878 13.4858 35.0878L14.0315 35.4801C15.1131 36.2591 16.0577 37.2701 16.7648 38.4801C19.0503 42.3779 17.4843 45.0436 16.7257 45.9939C16.6156 46.5768 16.525 47.2757 16.5446 47.911C18.6099 49.911 21.0716 51.7867 24.0055 53.4663C23.9615 53.1817 23.8905 52.7149 23.8171 52.2508C23.3644 52.1983 22.4395 51.9414 20.9468 49.8641C18.7592 46.8226 19.8261 41.6624 19.8261 41.6624L20.4158 41.9608C21.5879 42.5519 22.6523 43.3945 23.5112 44.4746C26.0464 47.6596 25.2511 50.3558 24.6173 51.6072C24.5684 52.2619 24.5512 53.1099 24.6736 53.8447C27.8278 55.5795 31.5081 57.0933 35.7952 58.3088C36.1623 58.4138 36.4633 58.6928 36.6003 59.0574C36.708 59.3475 36.7838 59.7812 36.1868 60.2177C36.0448 60.3226 35.8564 60.3724 35.6142 60.3724C34.535 60.3724 32.7242 59.3806 30.4289 58.1293C29.1271 57.4166 27.6491 56.6099 26.0733 55.8641L25.9925 55.8254C24.9672 56.1817 23.3816 56.4663 22.2413 56.6403C21.9305 56.9967 21.1841 58.1624 18.167 58.0961C14.45 58.0132 11.445 53.4608 11.445 53.4608L12.069 53.121C13.3072 52.4469 14.6555 52.0464 16.0307 51.9967C19.5667 51.8724 21.1792 53.7094 21.8889 55.0878C21.9525 55.1044 22.0161 55.1265 22.0773 55.1541C22.7355 55.4442 23.8563 55.3779 24.7861 55.248C22.8212 54.284 19.8799 52.6873 16.8872 50.0271C15.9989 50.1182 14.4573 49.9387 13.4173 49.7895C12.9622 50.1016 11.9516 50.6624 9.5584 49.8889C6.18886 48.8005 4.42457 43.8337 4.42457 43.8337L5.06568 43.6956C6.33813 43.4193 7.65217 43.4193 8.91483 43.7508C12.5168 44.6956 13.4491 47.19 13.6841 48.6099C14.2469 49.0381 15.3505 49.248 16.1457 49.3475C14.6873 47.9663 13.2338 46.3254 11.8928 44.3751C11.1832 43.342 10.5348 42.2619 9.94502 41.1375C9.17422 40.9829 7.64239 40.1016 6.65869 39.4994C6.15461 39.5989 5.08281 39.7066 3.18393 38.0823C0.511799 35.795 0.460407 30.6735 0.460407 30.6735L1.07461 30.8005C2.29567 31.0519 3.46779 31.5657 4.49308 32.3558L4.4833 32.3503Z" fill="#0047BB"/>
</g>
<g clip-path="url(#clip1_8215_2700)">
<path d="M195.849 32.3503C192.925 34.6016 192.857 37.19 193.084 38.5492C192.651 39.2536 191.469 39.9801 190.794 40.353C192.14 37.6154 193.14 34.6237 193.796 31.3917C194.481 30.9663 195.573 29.8779 196.285 29.1293C196.76 29.0878 197.751 28.9027 199.133 26.9359C201.078 24.1652 200.07 19.5215 200.07 19.5215L199.542 19.7978C198.49 20.3447 197.538 21.1182 196.772 22.0989C194.591 24.9 195.064 27.2591 195.548 28.4276C195.318 29.1293 194.498 30.0188 193.958 30.5519C194.543 27.342 194.795 23.9027 194.706 20.2425C195.218 19.6956 195.925 18.5906 196.388 17.8309C196.789 17.6928 197.609 17.3171 198.46 15.3226C199.659 12.5188 197.995 8.74528 197.995 8.74528L197.587 9.09611C196.777 9.795 196.089 10.6679 195.6 11.679C194.205 14.563 195.015 16.4856 195.631 17.3862C195.558 18.0105 195.051 18.9 194.68 19.4801C194.569 16.4386 194.234 13.248 193.664 9.91931C193.845 9.64031 194.528 8.96075 194.136 6.016C193.659 2.40826 189.847 -0.00610352 189.847 -0.00610352L189.658 0.637543C189.281 1.91931 189.127 3.2729 189.245 4.61821C189.631 9.05467 192.264 9.87788 193.258 10.0326C193.324 10.4884 193.419 11.0712 193.478 11.7398C193.583 12.9359 193.801 14.69 193.95 16.8309C193.794 16.69 193.596 16.5105 193.4 16.3309C193.547 15.9442 193.745 15.0933 193.013 13.0657C191.939 10.0961 188.239 8.9276 188.239 8.9276L188.195 9.52152C188.109 10.7038 188.227 11.9 188.574 13.0188C189.6 16.3282 191.628 16.7453 192.673 16.7259C193.082 16.9331 193.593 17.2259 193.999 17.5851C194.171 20.4801 194.19 23.9939 193.666 27.7619C193.51 27.516 193.317 27.2121 193.133 26.9221C193.385 26.469 193.679 25.5491 193.466 23.469C193.101 19.911 189.431 17.3972 189.431 17.3972L189.225 18.0243C188.819 19.2674 188.626 20.5933 188.702 21.9165C188.949 26.2453 191.459 27.1762 192.453 27.3751C192.81 27.7149 193.221 28.1569 193.537 28.6265C193.052 31.6514 192.206 34.8199 190.796 37.9442C190.723 37.7094 190.637 37.4414 190.554 37.179C190.906 36.8337 191.43 36.0519 191.741 33.9387C192.259 30.4027 189.343 26.8475 189.343 26.8475L188.993 27.3862C188.298 28.4552 187.791 29.6679 187.539 30.9635C186.727 35.1735 188.883 36.8558 189.798 37.3668C190.025 37.7563 190.268 38.2232 190.444 38.6983C189.012 41.6707 187.057 44.5906 184.405 47.295C184.412 46.9939 184.422 46.5795 184.431 46.1707C184.909 45.9884 185.728 45.4469 186.808 43.3862C188.574 40.0132 186.847 35.0878 186.847 35.0878L186.301 35.4801C185.219 36.2591 184.275 37.2701 183.568 38.4801C181.282 42.3779 182.848 45.0436 183.607 45.9939C183.717 46.5768 183.807 47.2757 183.788 47.911C181.723 49.911 179.261 51.7867 176.327 53.4663C176.371 53.1817 176.442 52.7149 176.515 52.2508C176.968 52.1983 177.893 51.9414 179.386 49.8641C181.573 46.8226 180.506 41.6624 180.506 41.6624L179.917 41.9608C178.745 42.5519 177.68 43.3945 176.821 44.4746C174.286 47.6596 175.081 50.3558 175.715 51.6072C175.764 52.2619 175.781 53.1099 175.659 53.8447C172.505 55.5795 168.824 57.0933 164.537 58.3088C164.17 58.4138 163.869 58.6928 163.732 59.0574C163.625 59.3475 163.549 59.7812 164.146 60.2177C164.288 60.3226 164.476 60.3724 164.718 60.3724C165.797 60.3724 167.608 59.3806 169.904 58.1293C171.205 57.4166 172.683 56.6099 174.259 55.8641L174.34 55.8254C175.365 56.1817 176.951 56.4663 178.091 56.6403C178.402 56.9967 179.148 58.1624 182.166 58.0961C185.883 58.0132 188.887 53.4608 188.887 53.4608L188.263 53.121C187.025 52.4469 185.677 52.0464 184.302 51.9967C180.766 51.8724 179.153 53.7094 178.444 55.0878C178.38 55.1044 178.316 55.1265 178.255 55.1541C177.597 55.4442 176.476 55.3779 175.546 55.248C177.511 54.284 180.453 52.6873 183.445 50.0271C184.334 50.1182 185.875 49.9387 186.915 49.7895C187.37 50.1016 188.381 50.6624 190.774 49.8889C194.144 48.8005 195.908 43.8337 195.908 43.8337L195.267 43.6956C193.994 43.4193 192.68 43.4193 191.418 43.7508C187.816 44.6956 186.883 47.19 186.648 48.6099C186.086 49.0381 184.982 49.248 184.187 49.3475C185.645 47.9663 187.099 46.3254 188.44 44.3751C189.149 43.342 189.798 42.2619 190.387 41.1375C191.158 40.9829 192.69 40.1016 193.674 39.4994C194.178 39.5989 195.25 39.7066 197.149 38.0823C199.821 35.795 199.872 30.6735 199.872 30.6735L199.258 30.8005C198.037 31.0519 196.865 31.5657 195.839 32.3558L195.849 32.3503Z" fill="#0047BB"/>
</g>
<defs>
<clipPath id="clip0_8215_2700">
<rect width="36.666" height="60.3702" fill="white" transform="matrix(-1 0 0 1 36.666 0)"/>
</clipPath>
<clipPath id="clip1_8215_2700">
<rect width="36.666" height="60.3702" fill="white" transform="translate(163.666)"/>
</clipPath>
</defs>
</svg>
