<svg width="221" height="61" viewBox="0 0 221 61" fill="none" xmlns="http://www.w3.org/2000/svg">
<path d="M56.6271 15V6.06H57.9471L61.3071 10.716H60.6471L63.9471 6.06H65.2671V15H63.8631V7.728L64.3911 7.872L61.0191 12.48H60.8751L57.5751 7.872L58.0431 7.728V15H56.6271ZM71.4594 15.144C70.8114 15.144 70.2074 15.028 69.6474 14.796C69.0954 14.564 68.6074 14.24 68.1834 13.824C67.7674 13.408 67.4394 12.92 67.1994 12.36C66.9674 11.8 66.8514 11.188 66.8514 10.524C66.8514 9.86 66.9674 9.248 67.1994 8.688C67.4394 8.12 67.7674 7.632 68.1834 7.224C68.5994 6.808 69.0874 6.488 69.6474 6.264C70.2074 6.032 70.8114 5.916 71.4594 5.916C72.1154 5.916 72.7194 6.032 73.2714 6.264C73.8314 6.488 74.3194 6.808 74.7354 7.224C75.1594 7.64 75.4874 8.128 75.7194 8.688C75.9514 9.248 76.0674 9.86 76.0674 10.524C76.0674 11.188 75.9474 11.8 75.7074 12.36C75.4754 12.92 75.1514 13.408 74.7354 13.824C74.3194 14.24 73.8314 14.564 73.2714 14.796C72.7114 15.028 72.1074 15.144 71.4594 15.144ZM71.4594 13.848C71.9234 13.848 72.3474 13.764 72.7314 13.596C73.1234 13.428 73.4634 13.196 73.7514 12.9C74.0394 12.596 74.2634 12.244 74.4234 11.844C74.5834 11.436 74.6634 10.996 74.6634 10.524C74.6634 10.052 74.5834 9.616 74.4234 9.216C74.2634 8.816 74.0394 8.464 73.7514 8.16C73.4634 7.856 73.1234 7.62 72.7314 7.452C72.3474 7.284 71.9234 7.2 71.4594 7.2C70.9954 7.2 70.5674 7.284 70.1754 7.452C69.7914 7.62 69.4554 7.856 69.1674 8.16C68.8794 8.464 68.6554 8.816 68.4954 9.216C68.3434 9.616 68.2674 10.052 68.2674 10.524C68.2674 10.996 68.3434 11.436 68.4954 11.844C68.6554 12.244 68.8794 12.596 69.1674 12.9C69.4554 13.196 69.7954 13.428 70.1874 13.596C70.5794 13.764 71.0034 13.848 71.4594 13.848ZM80.7826 15.144C80.2226 15.144 79.7026 15.04 79.2226 14.832C78.7426 14.616 78.3346 14.324 77.9986 13.956C77.6626 13.588 77.4146 13.164 77.2546 12.684L78.4546 12.18C78.6706 12.732 78.9866 13.156 79.4026 13.452C79.8186 13.748 80.2986 13.896 80.8426 13.896C81.1626 13.896 81.4426 13.848 81.6826 13.752C81.9226 13.648 82.1066 13.504 82.2346 13.32C82.3706 13.136 82.4386 12.924 82.4386 12.684C82.4386 12.356 82.3466 12.096 82.1626 11.904C81.9786 11.712 81.7066 11.56 81.3466 11.448L79.6666 10.92C78.9946 10.712 78.4826 10.396 78.1306 9.972C77.7786 9.54 77.6026 9.036 77.6026 8.46C77.6026 7.956 77.7266 7.516 77.9746 7.14C78.2226 6.756 78.5626 6.456 78.9946 6.24C79.4346 6.024 79.9346 5.916 80.4946 5.916C81.0306 5.916 81.5186 6.012 81.9586 6.204C82.3986 6.388 82.7746 6.644 83.0866 6.972C83.4066 7.3 83.6386 7.68 83.7826 8.112L82.6066 8.628C82.4306 8.156 82.1546 7.792 81.7786 7.536C81.4106 7.28 80.9826 7.152 80.4946 7.152C80.1986 7.152 79.9386 7.204 79.7146 7.308C79.4906 7.404 79.3146 7.548 79.1866 7.74C79.0666 7.924 79.0066 8.14 79.0066 8.388C79.0066 8.676 79.0986 8.932 79.2826 9.156C79.4666 9.38 79.7466 9.548 80.1226 9.66L81.6826 10.152C82.3946 10.368 82.9306 10.68 83.2906 11.088C83.6506 11.488 83.8306 11.988 83.8306 12.588C83.8306 13.084 83.6986 13.524 83.4346 13.908C83.1786 14.292 82.8226 14.596 82.3666 14.82C81.9106 15.036 81.3826 15.144 80.7826 15.144ZM87.0041 15V7.32H84.6281V6.06H90.7481V7.32H88.4081V15H87.0041ZM93.9045 15V6.06H95.3205V15H93.9045ZM97.174 15V6.06H98.314L103.33 12.984L102.79 13.068V6.06H104.194V15H103.054L98.074 8.028L98.59 7.932V15H97.174ZM106.045 15V6.06H107.185L112.201 12.984L111.661 13.068V6.06H113.065V15H111.925L106.945 8.028L107.461 7.932V15H106.045ZM119.26 15.144C118.612 15.144 118.008 15.028 117.448 14.796C116.896 14.564 116.408 14.24 115.984 13.824C115.568 13.408 115.24 12.92 115 12.36C114.768 11.8 114.652 11.188 114.652 10.524C114.652 9.86 114.768 9.248 115 8.688C115.24 8.12 115.568 7.632 115.984 7.224C116.4 6.808 116.888 6.488 117.448 6.264C118.008 6.032 118.612 5.916 119.26 5.916C119.916 5.916 120.52 6.032 121.072 6.264C121.632 6.488 122.12 6.808 122.536 7.224C122.96 7.64 123.288 8.128 123.52 8.688C123.752 9.248 123.868 9.86 123.868 10.524C123.868 11.188 123.748 11.8 123.508 12.36C123.276 12.92 122.952 13.408 122.536 13.824C122.12 14.24 121.632 14.564 121.072 14.796C120.512 15.028 119.908 15.144 119.26 15.144ZM119.26 13.848C119.724 13.848 120.148 13.764 120.532 13.596C120.924 13.428 121.264 13.196 121.552 12.9C121.84 12.596 122.064 12.244 122.224 11.844C122.384 11.436 122.464 10.996 122.464 10.524C122.464 10.052 122.384 9.616 122.224 9.216C122.064 8.816 121.84 8.464 121.552 8.16C121.264 7.856 120.924 7.62 120.532 7.452C120.148 7.284 119.724 7.2 119.26 7.2C118.796 7.2 118.368 7.284 117.976 7.452C117.592 7.62 117.256 7.856 116.968 8.16C116.68 8.464 116.456 8.816 116.296 9.216C116.144 9.616 116.068 10.052 116.068 10.524C116.068 10.996 116.144 11.436 116.296 11.844C116.456 12.244 116.68 12.596 116.968 12.9C117.256 13.196 117.596 13.428 117.988 13.596C118.38 13.764 118.804 13.848 119.26 13.848ZM127.593 15L124.425 6.06H125.949L128.541 13.692H128.241L130.821 6.06H132.345L129.177 15H127.593ZM132.007 15L135.151 6.06H136.903L140.047 15H138.535L137.851 12.996H134.215L133.519 15H132.007ZM134.623 11.736H137.419L135.835 7.056H136.231L134.623 11.736ZM142.094 15V7.32H139.718V6.06H145.838V7.32H143.498V15H142.094ZM146.897 15V6.06H148.313V15H146.897ZM152.542 15L149.374 6.06H150.898L153.49 13.692H153.19L155.77 6.06H157.294L154.126 15H152.542ZM158.346 15V6.06H164.238V7.32H159.762V9.888H163.998V11.148H159.762V13.74H164.238V15H158.346ZM86.1877 33V24.06H89.9557C90.5157 24.06 90.9997 24.16 91.4077 24.36C91.8157 24.552 92.1277 24.832 92.3437 25.2C92.5597 25.56 92.6677 25.988 92.6677 26.484C92.6677 26.916 92.5557 27.312 92.3317 27.672C92.1157 28.024 91.7757 28.304 91.3117 28.512V27.912C91.7197 28.072 92.0517 28.276 92.3077 28.524C92.5637 28.764 92.7477 29.036 92.8597 29.34C92.9797 29.644 93.0397 29.964 93.0397 30.3C93.0397 31.14 92.7637 31.8 92.2117 32.28C91.6677 32.76 90.9197 33 89.9677 33H86.1877ZM87.6037 31.74H90.0757C90.5477 31.74 90.9237 31.612 91.2037 31.356C91.4837 31.092 91.6237 30.744 91.6237 30.312C91.6237 29.872 91.4837 29.524 91.2037 29.268C90.9237 29.004 90.5477 28.872 90.0757 28.872H87.6037V31.74ZM87.6037 27.624H89.9917C90.3757 27.624 90.6837 27.516 90.9157 27.3C91.1477 27.076 91.2637 26.784 91.2637 26.424C91.2637 26.064 91.1477 25.784 90.9157 25.584C90.6837 25.384 90.3757 25.284 89.9917 25.284H87.6037V27.624ZM94.4963 33V24.06H97.7483C98.3483 24.06 98.8763 24.172 99.3323 24.396C99.7883 24.612 100.144 24.932 100.4 25.356C100.664 25.772 100.796 26.272 100.796 26.856C100.796 27.472 100.64 28 100.328 28.44C100.024 28.88 99.6123 29.2 99.0923 29.4L101.156 33H99.5483L97.3523 29.1L98.2763 29.64H95.9123V33H94.4963ZM95.9123 28.38H97.7723C98.1003 28.38 98.3843 28.316 98.6243 28.188C98.8643 28.06 99.0483 27.884 99.1763 27.66C99.3123 27.428 99.3803 27.156 99.3803 26.844C99.3803 26.532 99.3123 26.264 99.1763 26.04C99.0483 25.808 98.8643 25.632 98.6243 25.512C98.3843 25.384 98.1003 25.32 97.7723 25.32H95.9123V28.38ZM106.692 33.144C106.044 33.144 105.44 33.028 104.88 32.796C104.328 32.564 103.84 32.24 103.416 31.824C103 31.408 102.672 30.92 102.432 30.36C102.2 29.8 102.084 29.188 102.084 28.524C102.084 27.86 102.2 27.248 102.432 26.688C102.672 26.12 103 25.632 103.416 25.224C103.832 24.808 104.32 24.488 104.88 24.264C105.44 24.032 106.044 23.916 106.692 23.916C107.348 23.916 107.952 24.032 108.504 24.264C109.064 24.488 109.552 24.808 109.968 25.224C110.392 25.64 110.72 26.128 110.952 26.688C111.184 27.248 111.3 27.86 111.3 28.524C111.3 29.188 111.18 29.8 110.94 30.36C110.708 30.92 110.384 31.408 109.968 31.824C109.552 32.24 109.064 32.564 108.504 32.796C107.944 33.028 107.34 33.144 106.692 33.144ZM106.692 31.848C107.156 31.848 107.58 31.764 107.964 31.596C108.356 31.428 108.696 31.196 108.984 30.9C109.272 30.596 109.496 30.244 109.656 29.844C109.816 29.436 109.896 28.996 109.896 28.524C109.896 28.052 109.816 27.616 109.656 27.216C109.496 26.816 109.272 26.464 108.984 26.16C108.696 25.856 108.356 25.62 107.964 25.452C107.58 25.284 107.156 25.2 106.692 25.2C106.228 25.2 105.8 25.284 105.408 25.452C105.024 25.62 104.688 25.856 104.4 26.16C104.112 26.464 103.888 26.816 103.728 27.216C103.576 27.616 103.5 28.052 103.5 28.524C103.5 28.996 103.576 29.436 103.728 29.844C103.888 30.244 104.112 30.596 104.4 30.9C104.688 31.196 105.028 31.428 105.42 31.596C105.812 31.764 106.236 31.848 106.692 31.848ZM112.883 33V24.06H114.299V28.908L113.927 28.764L117.971 24.06H119.735L116.159 28.248L116.231 27.24L119.879 33H118.211L115.595 28.908L114.299 30.42V33H112.883ZM120.934 33V24.06H126.826V25.32H122.35V27.888H126.586V29.148H122.35V31.74H126.826V33H120.934ZM128.141 33V24.06H131.393C131.993 24.06 132.521 24.172 132.977 24.396C133.433 24.612 133.789 24.932 134.045 25.356C134.309 25.772 134.441 26.272 134.441 26.856C134.441 27.472 134.285 28 133.973 28.44C133.669 28.88 133.257 29.2 132.737 29.4L134.801 33H133.193L130.997 29.1L131.921 29.64H129.557V33H128.141ZM129.557 28.38H131.417C131.745 28.38 132.029 28.316 132.269 28.188C132.509 28.06 132.693 27.884 132.821 27.66C132.957 27.428 133.025 27.156 133.025 26.844C133.025 26.532 132.957 26.264 132.821 26.04C132.693 25.808 132.509 25.632 132.269 25.512C132.029 25.384 131.745 25.32 131.417 25.32H129.557V28.38Z" fill="#0D0D4B"/>
<path d="M37.7045 51.096C37.2832 51.096 36.8912 51.0187 36.5285 50.864C36.1712 50.7093 35.8592 50.496 35.5925 50.224C35.3312 49.9467 35.1258 49.6213 34.9765 49.248C34.8272 48.8747 34.7525 48.464 34.7525 48.016C34.7525 47.5733 34.8245 47.1653 34.9685 46.792C35.1178 46.4133 35.3258 46.088 35.5925 45.816C35.8592 45.5387 36.1712 45.3253 36.5285 45.176C36.8858 45.0213 37.2778 44.944 37.7045 44.944C38.1258 44.944 38.5018 45.016 38.8325 45.16C39.1685 45.304 39.4512 45.4933 39.6805 45.728C39.9098 45.9573 40.0752 46.208 40.1765 46.48L39.3285 46.88C39.2005 46.56 38.9952 46.3013 38.7125 46.104C38.4352 45.9013 38.0992 45.8 37.7045 45.8C37.3098 45.8 36.9605 45.8933 36.6565 46.08C36.3525 46.2667 36.1152 46.5253 35.9445 46.856C35.7792 47.1867 35.6965 47.5733 35.6965 48.016C35.6965 48.4587 35.7792 48.848 35.9445 49.184C36.1152 49.5147 36.3525 49.7733 36.6565 49.96C36.9605 50.1413 37.3098 50.232 37.7045 50.232C38.0992 50.232 38.4352 50.1333 38.7125 49.936C38.9952 49.7387 39.2005 49.48 39.3285 49.16L40.1765 49.56C40.0752 49.8267 39.9098 50.0773 39.6805 50.312C39.4512 50.5467 39.1685 50.736 38.8325 50.88C38.5018 51.024 38.1258 51.096 37.7045 51.096ZM41.1473 51V45.04H43.3153C43.7153 45.04 44.0673 45.1147 44.3713 45.264C44.6753 45.408 44.9126 45.6213 45.0833 45.904C45.2593 46.1813 45.3473 46.5147 45.3473 46.904C45.3473 47.3147 45.2433 47.6667 45.0353 47.96C44.8326 48.2533 44.5579 48.4667 44.2113 48.6L45.5873 51H44.5153L43.0513 48.4L43.6673 48.76H42.0913V51H41.1473ZM42.0913 47.92H43.3313C43.5499 47.92 43.7393 47.8773 43.8993 47.792C44.0593 47.7067 44.1819 47.5893 44.2673 47.44C44.3579 47.2853 44.4033 47.104 44.4033 46.896C44.4033 46.688 44.3579 46.5093 44.2673 46.36C44.1819 46.2053 44.0593 46.088 43.8993 46.008C43.7393 45.9227 43.5499 45.88 43.3313 45.88H42.0913V47.92ZM47.8155 51V48.312L45.7755 45.04H46.8395L48.4715 47.688H48.0955L49.7195 45.04H50.7835L48.7515 48.312V51H47.8155ZM51.491 51V45.04H53.659C54.059 45.04 54.411 45.1147 54.715 45.264C55.0243 45.408 55.2643 45.6213 55.435 45.904C55.6057 46.1813 55.691 46.5147 55.691 46.904C55.691 47.288 55.603 47.6187 55.427 47.896C55.2563 48.1733 55.019 48.3867 54.715 48.536C54.411 48.6853 54.059 48.76 53.659 48.76H52.435V51H51.491ZM52.435 47.92H53.683C53.8963 47.92 54.083 47.8773 54.243 47.792C54.403 47.7067 54.5283 47.5893 54.619 47.44C54.7097 47.2853 54.755 47.104 54.755 46.896C54.755 46.688 54.7097 46.5093 54.619 46.36C54.5283 46.2053 54.403 46.088 54.243 46.008C54.083 45.9227 53.8963 45.88 53.683 45.88H52.435V47.92ZM57.7189 51V45.88H56.1349V45.04H60.2149V45.88H58.6549V51H57.7189ZM63.5745 51.096C63.1425 51.096 62.7398 51.0187 62.3665 50.864C61.9985 50.7093 61.6732 50.4933 61.3905 50.216C61.1132 49.9387 60.8945 49.6133 60.7345 49.24C60.5798 48.8667 60.5025 48.4587 60.5025 48.016C60.5025 47.5733 60.5798 47.1653 60.7345 46.792C60.8945 46.4133 61.1132 46.088 61.3905 45.816C61.6678 45.5387 61.9932 45.3253 62.3665 45.176C62.7398 45.0213 63.1425 44.944 63.5745 44.944C64.0118 44.944 64.4145 45.0213 64.7825 45.176C65.1558 45.3253 65.4812 45.5387 65.7585 45.816C66.0412 46.0933 66.2598 46.4187 66.4145 46.792C66.5692 47.1653 66.6465 47.5733 66.6465 48.016C66.6465 48.4587 66.5665 48.8667 66.4065 49.24C66.2518 49.6133 66.0358 49.9387 65.7585 50.216C65.4812 50.4933 65.1558 50.7093 64.7825 50.864C64.4092 51.0187 64.0065 51.096 63.5745 51.096ZM63.5745 50.232C63.8838 50.232 64.1665 50.176 64.4225 50.064C64.6838 49.952 64.9105 49.7973 65.1025 49.6C65.2945 49.3973 65.4438 49.1627 65.5505 48.896C65.6572 48.624 65.7105 48.3307 65.7105 48.016C65.7105 47.7013 65.6572 47.4107 65.5505 47.144C65.4438 46.8773 65.2945 46.6427 65.1025 46.44C64.9105 46.2373 64.6838 46.08 64.4225 45.968C64.1665 45.856 63.8838 45.8 63.5745 45.8C63.2652 45.8 62.9798 45.856 62.7185 45.968C62.4625 46.08 62.2385 46.2373 62.0465 46.44C61.8545 46.6427 61.7052 46.8773 61.5985 47.144C61.4972 47.4107 61.4465 47.7013 61.4465 48.016C61.4465 48.3307 61.4972 48.624 61.5985 48.896C61.7052 49.1627 61.8545 49.3973 62.0465 49.6C62.2385 49.7973 62.4652 49.952 62.7265 50.064C62.9878 50.176 63.2705 50.232 63.5745 50.232ZM69.1004 51V45.04H70.0444V50.16H72.6204V51H69.1004ZM72.8849 51L74.9809 45.04H76.1489L78.2449 51H77.2369L76.7809 49.664H74.3569L73.8929 51H72.8849ZM74.6289 48.824H76.4929L75.4369 45.704H75.7009L74.6289 48.824ZM79.6095 51V45.88H78.0255V45.04H82.1055V45.88H80.5455V51H79.6095ZM82.8113 51V45.04H83.7553V51H82.8113ZM84.991 51V45.04H85.751L89.095 49.656L88.735 49.712V45.04H89.671V51H88.911L85.591 46.352L85.935 46.288V51H84.991ZM92.3035 51V45.04H96.1835V45.88H93.2475V47.672H95.8635V48.512H93.2475V51H92.3035ZM96.9754 51V45.04H100.903V45.88H97.9194V47.592H100.743V48.432H97.9194V50.16H100.903V51H96.9754ZM103.868 51.096C103.495 51.096 103.148 51.0267 102.828 50.888C102.508 50.744 102.236 50.5493 102.012 50.304C101.788 50.0587 101.623 49.776 101.516 49.456L102.316 49.12C102.46 49.488 102.671 49.7707 102.948 49.968C103.225 50.1653 103.545 50.264 103.908 50.264C104.121 50.264 104.308 50.232 104.468 50.168C104.628 50.0987 104.751 50.0027 104.836 49.88C104.927 49.7573 104.972 49.616 104.972 49.456C104.972 49.2373 104.911 49.064 104.788 48.936C104.665 48.808 104.484 48.7067 104.244 48.632L103.124 48.28C102.676 48.1413 102.335 47.9307 102.1 47.648C101.865 47.36 101.748 47.024 101.748 46.64C101.748 46.304 101.831 46.0107 101.996 45.76C102.161 45.504 102.388 45.304 102.676 45.16C102.969 45.016 103.303 44.944 103.676 44.944C104.033 44.944 104.359 45.008 104.652 45.136C104.945 45.2587 105.196 45.4293 105.404 45.648C105.617 45.8667 105.772 46.12 105.868 46.408L105.084 46.752C104.967 46.4373 104.783 46.1947 104.532 46.024C104.287 45.8533 104.001 45.768 103.676 45.768C103.479 45.768 103.305 45.8027 103.156 45.872C103.007 45.936 102.889 46.032 102.804 46.16C102.724 46.2827 102.684 46.4267 102.684 46.592C102.684 46.784 102.745 46.9547 102.868 47.104C102.991 47.2533 103.177 47.3653 103.428 47.44L104.468 47.768C104.943 47.912 105.3 48.12 105.54 48.392C105.78 48.6587 105.9 48.992 105.9 49.392C105.9 49.7227 105.812 50.016 105.636 50.272C105.465 50.528 105.228 50.7307 104.924 50.88C104.62 51.024 104.268 51.096 103.868 51.096ZM108.016 51V45.88H106.432V45.04H110.512V45.88H108.952V51H108.016ZM112.4 51V50.32L114.032 48.576C114.352 48.2347 114.603 47.96 114.784 47.752C114.971 47.5387 115.104 47.352 115.184 47.192C115.269 47.032 115.312 46.864 115.312 46.688C115.312 46.4 115.224 46.1787 115.048 46.024C114.872 45.864 114.645 45.784 114.368 45.784C114.08 45.784 113.832 45.8667 113.624 46.032C113.416 46.192 113.272 46.4267 113.192 46.736L112.36 46.496C112.424 46.1813 112.552 45.9093 112.744 45.68C112.936 45.4453 113.171 45.264 113.448 45.136C113.731 45.008 114.035 44.944 114.36 44.944C114.739 44.944 115.069 45.016 115.352 45.16C115.635 45.2987 115.853 45.4933 116.008 45.744C116.168 45.9947 116.248 46.2853 116.248 46.616C116.248 46.8347 116.205 47.048 116.12 47.256C116.04 47.4587 115.915 47.6747 115.744 47.904C115.573 48.128 115.355 48.3813 115.088 48.664L113.648 50.2H116.36V51H112.4ZM119.653 51.096C119.179 51.096 118.763 50.968 118.405 50.712C118.048 50.4507 117.768 50.0907 117.565 49.632C117.368 49.168 117.269 48.6293 117.269 48.016C117.269 47.3973 117.368 46.8587 117.565 46.4C117.768 45.9413 118.045 45.584 118.397 45.328C118.755 45.072 119.171 44.944 119.645 44.944C120.12 44.944 120.533 45.072 120.885 45.328C121.243 45.584 121.52 45.944 121.717 46.408C121.92 46.8667 122.021 47.4027 122.021 48.016C122.021 48.6293 121.923 49.168 121.725 49.632C121.528 50.0907 121.251 50.4507 120.893 50.712C120.541 50.968 120.128 51.096 119.653 51.096ZM119.653 50.232C119.947 50.232 120.2 50.1413 120.413 49.96C120.627 49.7787 120.792 49.5227 120.909 49.192C121.027 48.8613 121.085 48.4693 121.085 48.016C121.085 47.5627 121.027 47.1707 120.909 46.84C120.792 46.5093 120.627 46.2533 120.413 46.072C120.2 45.8907 119.944 45.8 119.645 45.8C119.352 45.8 119.099 45.8907 118.885 46.072C118.672 46.2533 118.507 46.5093 118.389 46.84C118.272 47.1707 118.213 47.5627 118.213 48.016C118.213 48.464 118.272 48.856 118.389 49.192C118.507 49.5227 118.672 49.7787 118.885 49.96C119.104 50.1413 119.36 50.232 119.653 50.232ZM122.908 51V50.32L124.54 48.576C124.86 48.2347 125.11 47.96 125.292 47.752C125.478 47.5387 125.612 47.352 125.692 47.192C125.777 47.032 125.82 46.864 125.82 46.688C125.82 46.4 125.732 46.1787 125.556 46.024C125.38 45.864 125.153 45.784 124.876 45.784C124.588 45.784 124.34 45.8667 124.132 46.032C123.924 46.192 123.78 46.4267 123.7 46.736L122.868 46.496C122.932 46.1813 123.06 45.9093 123.252 45.68C123.444 45.4453 123.678 45.264 123.956 45.136C124.238 45.008 124.542 44.944 124.868 44.944C125.246 44.944 125.577 45.016 125.86 45.16C126.142 45.2987 126.361 45.4933 126.516 45.744C126.676 45.9947 126.756 46.2853 126.756 46.616C126.756 46.8347 126.713 47.048 126.628 47.256C126.548 47.4587 126.422 47.6747 126.252 47.904C126.081 48.128 125.862 48.3813 125.596 48.664L124.156 50.2H126.868V51H122.908ZM129.681 51.096C129.366 51.096 129.07 51.04 128.793 50.928C128.516 50.8107 128.276 50.648 128.073 50.44C127.87 50.232 127.726 49.9813 127.641 49.688L128.433 49.384C128.534 49.6667 128.7 49.8827 128.929 50.032C129.158 50.1813 129.409 50.256 129.681 50.256C129.905 50.256 130.102 50.2053 130.273 50.104C130.444 50.0027 130.577 49.864 130.673 49.688C130.774 49.512 130.825 49.312 130.825 49.088C130.825 48.8587 130.774 48.6587 130.673 48.488C130.577 48.312 130.444 48.176 130.273 48.08C130.102 47.9787 129.905 47.928 129.681 47.928C129.457 47.928 129.252 47.9787 129.065 48.08C128.878 48.1813 128.742 48.3173 128.657 48.488L127.897 48.32L128.361 45.04H131.537V45.84H128.729L129.089 45.448L128.745 47.96L128.449 47.76C128.609 47.536 128.804 47.3733 129.033 47.272C129.262 47.1707 129.524 47.12 129.817 47.12C130.206 47.12 130.545 47.208 130.833 47.384C131.126 47.5547 131.353 47.7893 131.513 48.088C131.678 48.3813 131.761 48.7147 131.761 49.088C131.761 49.4667 131.67 49.808 131.489 50.112C131.308 50.416 131.06 50.656 130.745 50.832C130.436 51.008 130.081 51.096 129.681 51.096ZM134.273 49.232V48.432H137.953V49.232H134.273ZM143.408 51.096C142.986 51.096 142.594 51.0187 142.232 50.864C141.874 50.7093 141.562 50.496 141.296 50.224C141.034 49.9467 140.829 49.6213 140.68 49.248C140.53 48.8747 140.456 48.464 140.456 48.016C140.456 47.5733 140.528 47.1653 140.672 46.792C140.821 46.4133 141.029 46.088 141.296 45.816C141.562 45.5387 141.874 45.3253 142.232 45.176C142.589 45.0213 142.981 44.944 143.408 44.944C143.829 44.944 144.205 45.016 144.536 45.16C144.872 45.304 145.154 45.4933 145.384 45.728C145.613 45.9573 145.778 46.208 145.88 46.48L145.032 46.88C144.904 46.56 144.698 46.3013 144.416 46.104C144.138 45.9013 143.802 45.8 143.408 45.8C143.013 45.8 142.664 45.8933 142.36 46.08C142.056 46.2667 141.818 46.5253 141.648 46.856C141.482 47.1867 141.4 47.5733 141.4 48.016C141.4 48.4587 141.482 48.848 141.648 49.184C141.818 49.5147 142.056 49.7733 142.36 49.96C142.664 50.1413 143.013 50.232 143.408 50.232C143.802 50.232 144.138 50.1333 144.416 49.936C144.698 49.7387 144.904 49.48 145.032 49.16L145.88 49.56C145.778 49.8267 145.613 50.0773 145.384 50.312C145.154 50.5467 144.872 50.736 144.536 50.88C144.205 51.024 143.829 51.096 143.408 51.096ZM149.746 51.096C149.314 51.096 148.912 51.0187 148.538 50.864C148.17 50.7093 147.845 50.4933 147.562 50.216C147.285 49.9387 147.066 49.6133 146.906 49.24C146.752 48.8667 146.674 48.4587 146.674 48.016C146.674 47.5733 146.752 47.1653 146.906 46.792C147.066 46.4133 147.285 46.088 147.562 45.816C147.84 45.5387 148.165 45.3253 148.538 45.176C148.912 45.0213 149.314 44.944 149.746 44.944C150.184 44.944 150.586 45.0213 150.954 45.176C151.328 45.3253 151.653 45.5387 151.93 45.816C152.213 46.0933 152.432 46.4187 152.586 46.792C152.741 47.1653 152.818 47.5733 152.818 48.016C152.818 48.4587 152.738 48.8667 152.578 49.24C152.424 49.6133 152.208 49.9387 151.93 50.216C151.653 50.4933 151.328 50.7093 150.954 50.864C150.581 51.0187 150.178 51.096 149.746 51.096ZM149.746 50.232C150.056 50.232 150.338 50.176 150.594 50.064C150.856 49.952 151.082 49.7973 151.274 49.6C151.466 49.3973 151.616 49.1627 151.722 48.896C151.829 48.624 151.882 48.3307 151.882 48.016C151.882 47.7013 151.829 47.4107 151.722 47.144C151.616 46.8773 151.466 46.6427 151.274 46.44C151.082 46.2373 150.856 46.08 150.594 45.968C150.338 45.856 150.056 45.8 149.746 45.8C149.437 45.8 149.152 45.856 148.89 45.968C148.634 46.08 148.41 46.2373 148.218 46.44C148.026 46.6427 147.877 46.8773 147.77 47.144C147.669 47.4107 147.618 47.7013 147.618 48.016C147.618 48.3307 147.669 48.624 147.77 48.896C147.877 49.1627 148.026 49.3973 148.218 49.6C148.41 49.7973 148.637 49.952 148.898 50.064C149.16 50.176 149.442 50.232 149.746 50.232ZM153.874 51V45.04H154.818V50.16H157.394V51H153.874ZM160.926 51.096C160.494 51.096 160.091 51.0187 159.718 50.864C159.35 50.7093 159.025 50.4933 158.742 50.216C158.465 49.9387 158.246 49.6133 158.086 49.24C157.931 48.8667 157.854 48.4587 157.854 48.016C157.854 47.5733 157.931 47.1653 158.086 46.792C158.246 46.4133 158.465 46.088 158.742 45.816C159.019 45.5387 159.345 45.3253 159.718 45.176C160.091 45.0213 160.494 44.944 160.926 44.944C161.363 44.944 161.766 45.0213 162.134 45.176C162.507 45.3253 162.833 45.5387 163.11 45.816C163.393 46.0933 163.611 46.4187 163.766 46.792C163.921 47.1653 163.998 47.5733 163.998 48.016C163.998 48.4587 163.918 48.8667 163.758 49.24C163.603 49.6133 163.387 49.9387 163.11 50.216C162.833 50.4933 162.507 50.7093 162.134 50.864C161.761 51.0187 161.358 51.096 160.926 51.096ZM160.926 50.232C161.235 50.232 161.518 50.176 161.774 50.064C162.035 49.952 162.262 49.7973 162.454 49.6C162.646 49.3973 162.795 49.1627 162.902 48.896C163.009 48.624 163.062 48.3307 163.062 48.016C163.062 47.7013 163.009 47.4107 162.902 47.144C162.795 46.8773 162.646 46.6427 162.454 46.44C162.262 46.2373 162.035 46.08 161.774 45.968C161.518 45.856 161.235 45.8 160.926 45.8C160.617 45.8 160.331 45.856 160.07 45.968C159.814 46.08 159.59 46.2373 159.398 46.44C159.206 46.6427 159.057 46.8773 158.95 47.144C158.849 47.4107 158.798 47.7013 158.798 48.016C158.798 48.3307 158.849 48.624 158.95 48.896C159.057 49.1627 159.206 49.3973 159.398 49.6C159.59 49.7973 159.817 49.952 160.078 50.064C160.339 50.176 160.622 50.232 160.926 50.232ZM165.054 51V45.04H165.934L168.174 48.144H167.734L169.934 45.04H170.814V51H169.878V46.152L170.23 46.248L167.982 49.32H167.886L165.686 46.248L165.998 46.152V51H165.054ZM172.046 51V45.04H174.558C174.931 45.04 175.254 45.1067 175.526 45.24C175.798 45.368 176.006 45.5547 176.15 45.8C176.294 46.04 176.366 46.3253 176.366 46.656C176.366 46.944 176.291 47.208 176.142 47.448C175.998 47.6827 175.771 47.8693 175.462 48.008V47.608C175.734 47.7147 175.955 47.8507 176.126 48.016C176.296 48.176 176.419 48.3573 176.494 48.56C176.574 48.7627 176.614 48.976 176.614 49.2C176.614 49.76 176.43 50.2 176.062 50.52C175.699 50.84 175.2 51 174.566 51H172.046ZM172.99 50.16H174.638C174.952 50.16 175.203 50.0747 175.39 49.904C175.576 49.728 175.67 49.496 175.67 49.208C175.67 48.9147 175.576 48.6827 175.39 48.512C175.203 48.336 174.952 48.248 174.638 48.248H172.99V50.16ZM172.99 47.416H174.582C174.838 47.416 175.043 47.344 175.198 47.2C175.352 47.0507 175.43 46.856 175.43 46.616C175.43 46.376 175.352 46.1893 175.198 46.056C175.043 45.9227 174.838 45.856 174.582 45.856H172.99V47.416ZM177.585 51V45.04H178.529V51H177.585ZM179.236 51L181.332 45.04H182.5L184.596 51H183.588L183.132 49.664H180.708L180.244 51H179.236ZM180.98 48.824H182.844L181.788 45.704H182.052L180.98 48.824Z" fill="#0047BB"/>
<g clip-path="url(#clip0_8215_2679)">
<path d="M4.4833 32.3503C7.40747 34.6016 7.47599 37.19 7.24842 38.5492C7.68154 39.2536 8.86345 39.9801 9.53882 40.353C8.19296 37.6154 7.19214 34.6237 6.53634 31.3917C5.85118 30.9663 4.75981 29.8779 4.04773 29.1293C3.57301 29.0878 2.58197 28.9027 1.19941 26.9359C-0.745968 24.1652 0.262203 19.5215 0.262203 19.5215L0.790756 19.7978C1.84297 20.3447 2.79486 21.1182 3.56078 22.0989C5.74106 24.9 5.26879 27.2591 4.78428 28.4276C5.0143 29.1293 5.83405 30.0188 6.37484 30.5519C5.79 27.342 5.53796 23.9027 5.62605 20.2425C5.11463 19.6956 4.40744 18.5906 3.94495 17.8309C3.54364 17.6928 2.7239 17.3171 1.87233 15.3226C0.673298 12.5188 2.33727 8.74528 2.33727 8.74528L2.74592 9.09611C3.55588 9.795 4.24349 10.6679 4.73289 11.679C6.12769 14.563 5.31772 16.4856 4.70108 17.3862C4.77449 18.0105 5.28102 18.9 5.65297 19.4801C5.76308 16.4386 6.09833 13.248 6.66848 9.91931C6.4874 9.64031 5.80468 8.96075 6.19621 6.016C6.67337 2.40826 10.4858 -0.00610352 10.4858 -0.00610352L10.6742 0.637543C11.0511 1.91931 11.2052 3.2729 11.0878 4.61821C10.7012 9.05467 8.06817 9.87788 7.07468 10.0326C7.00861 10.4884 6.91318 11.0712 6.85445 11.7398C6.74923 12.9359 6.53144 14.69 6.38218 16.8309C6.53879 16.69 6.73699 16.5105 6.93275 16.3309C6.78593 15.9442 6.58773 15.0933 7.31938 13.0657C8.39362 10.0961 12.0935 8.9276 12.0935 8.9276L12.1375 9.52152C12.2232 10.7038 12.1057 11.9 11.7583 13.0188C10.733 16.3282 8.70439 16.7453 7.65952 16.7259C7.25087 16.9331 6.73944 17.2259 6.33324 17.5851C6.16195 20.4801 6.14237 23.9939 6.66603 27.7619C6.82264 27.516 7.01595 27.2121 7.19948 26.9221C6.94744 26.469 6.6538 25.5491 6.86669 23.469C7.23129 19.911 10.9018 17.3972 10.9018 17.3972L11.1074 18.0243C11.5136 19.2674 11.7069 20.5933 11.631 21.9165C11.3839 26.2453 8.87323 27.1762 7.87975 27.3751C7.52248 27.7149 7.11139 28.1569 6.79572 28.6265C7.28023 31.6514 8.12689 34.8199 9.53637 37.9442C9.60978 37.7094 9.69543 37.4414 9.77863 37.179C9.42626 36.8337 8.9026 36.0519 8.59183 33.9387C8.07306 30.4027 10.9899 26.8475 10.9899 26.8475L11.3398 27.3862C12.0348 28.4552 12.5413 29.6679 12.7933 30.9635C13.6058 35.1735 11.4499 36.8558 10.5348 37.3668C10.3072 37.7563 10.0649 38.2232 9.88874 38.6983C11.3202 41.6707 13.2754 44.5906 15.928 47.295C15.9206 46.9939 15.9108 46.5795 15.901 46.1707C15.4239 45.9884 14.6041 45.4469 13.525 43.3862C11.7583 40.0132 13.4858 35.0878 13.4858 35.0878L14.0315 35.4801C15.1131 36.2591 16.0577 37.2701 16.7648 38.4801C19.0503 42.3779 17.4843 45.0436 16.7257 45.9939C16.6156 46.5768 16.525 47.2757 16.5446 47.911C18.6099 49.911 21.0716 51.7867 24.0055 53.4663C23.9615 53.1817 23.8905 52.7149 23.8171 52.2508C23.3644 52.1983 22.4395 51.9414 20.9468 49.8641C18.7592 46.8226 19.8261 41.6624 19.8261 41.6624L20.4158 41.9608C21.5879 42.5519 22.6523 43.3945 23.5112 44.4746C26.0464 47.6596 25.2511 50.3558 24.6173 51.6072C24.5684 52.2619 24.5512 53.1099 24.6736 53.8447C27.8278 55.5795 31.5081 57.0933 35.7952 58.3088C36.1623 58.4138 36.4633 58.6928 36.6003 59.0574C36.708 59.3475 36.7838 59.7812 36.1868 60.2177C36.0448 60.3226 35.8564 60.3724 35.6142 60.3724C34.535 60.3724 32.7242 59.3806 30.4289 58.1293C29.1271 57.4166 27.6491 56.6099 26.0733 55.8641L25.9925 55.8254C24.9672 56.1817 23.3816 56.4663 22.2413 56.6403C21.9305 56.9967 21.1841 58.1624 18.167 58.0961C14.45 58.0132 11.445 53.4608 11.445 53.4608L12.069 53.121C13.3072 52.4469 14.6555 52.0464 16.0307 51.9967C19.5667 51.8724 21.1792 53.7094 21.8889 55.0878C21.9525 55.1044 22.0161 55.1265 22.0773 55.1541C22.7355 55.4442 23.8563 55.3779 24.7861 55.248C22.8212 54.284 19.8799 52.6873 16.8872 50.0271C15.9989 50.1182 14.4573 49.9387 13.4173 49.7895C12.9622 50.1016 11.9516 50.6624 9.5584 49.8889C6.18886 48.8005 4.42457 43.8337 4.42457 43.8337L5.06568 43.6956C6.33813 43.4193 7.65217 43.4193 8.91483 43.7508C12.5168 44.6956 13.4491 47.19 13.6841 48.6099C14.2469 49.0381 15.3505 49.248 16.1457 49.3475C14.6873 47.9663 13.2338 46.3254 11.8928 44.3751C11.1832 43.342 10.5348 42.2619 9.94502 41.1375C9.17422 40.9829 7.64239 40.1016 6.65869 39.4994C6.15461 39.5989 5.08281 39.7066 3.18393 38.0823C0.511799 35.795 0.460407 30.6735 0.460407 30.6735L1.07461 30.8005C2.29567 31.0519 3.46779 31.5657 4.49308 32.3558L4.4833 32.3503Z" fill="#0047BB"/>
</g>
<g clip-path="url(#clip1_8215_2679)">
<path d="M215.849 32.3503C212.925 34.6016 212.857 37.19 213.084 38.5492C212.651 39.2536 211.469 39.9801 210.794 40.353C212.14 37.6154 213.14 34.6237 213.796 31.3917C214.481 30.9663 215.573 29.8779 216.285 29.1293C216.76 29.0878 217.751 28.9027 219.133 26.9359C221.078 24.1652 220.07 19.5215 220.07 19.5215L219.542 19.7978C218.49 20.3447 217.538 21.1182 216.772 22.0989C214.591 24.9 215.064 27.2591 215.548 28.4276C215.318 29.1293 214.498 30.0188 213.958 30.5519C214.543 27.342 214.795 23.9027 214.706 20.2425C215.218 19.6956 215.925 18.5906 216.388 17.8309C216.789 17.6928 217.609 17.3171 218.46 15.3226C219.659 12.5188 217.995 8.74528 217.995 8.74528L217.587 9.09611C216.777 9.795 216.089 10.6679 215.6 11.679C214.205 14.563 215.015 16.4856 215.631 17.3862C215.558 18.0105 215.051 18.9 214.68 19.4801C214.569 16.4386 214.234 13.248 213.664 9.91931C213.845 9.64031 214.528 8.96075 214.136 6.016C213.659 2.40826 209.847 -0.00610352 209.847 -0.00610352L209.658 0.637543C209.281 1.91931 209.127 3.2729 209.245 4.61821C209.631 9.05467 212.264 9.87788 213.258 10.0326C213.324 10.4884 213.419 11.0712 213.478 11.7398C213.583 12.9359 213.801 14.69 213.95 16.8309C213.794 16.69 213.596 16.5105 213.4 16.3309C213.547 15.9442 213.745 15.0933 213.013 13.0657C211.939 10.0961 208.239 8.9276 208.239 8.9276L208.195 9.52152C208.109 10.7038 208.227 11.9 208.574 13.0188C209.6 16.3282 211.628 16.7453 212.673 16.7259C213.082 16.9331 213.593 17.2259 213.999 17.5851C214.171 20.4801 214.19 23.9939 213.666 27.7619C213.51 27.516 213.317 27.2121 213.133 26.9221C213.385 26.469 213.679 25.5491 213.466 23.469C213.101 19.911 209.431 17.3972 209.431 17.3972L209.225 18.0243C208.819 19.2674 208.626 20.5933 208.702 21.9165C208.949 26.2453 211.459 27.1762 212.453 27.3751C212.81 27.7149 213.221 28.1569 213.537 28.6265C213.052 31.6514 212.206 34.8199 210.796 37.9442C210.723 37.7094 210.637 37.4414 210.554 37.179C210.906 36.8337 211.43 36.0519 211.741 33.9387C212.259 30.4027 209.343 26.8475 209.343 26.8475L208.993 27.3862C208.298 28.4552 207.791 29.6679 207.539 30.9635C206.727 35.1735 208.883 36.8558 209.798 37.3668C210.025 37.7563 210.268 38.2232 210.444 38.6983C209.012 41.6707 207.057 44.5906 204.405 47.295C204.412 46.9939 204.422 46.5795 204.431 46.1707C204.909 45.9884 205.728 45.4469 206.808 43.3862C208.574 40.0132 206.847 35.0878 206.847 35.0878L206.301 35.4801C205.219 36.2591 204.275 37.2701 203.568 38.4801C201.282 42.3779 202.848 45.0436 203.607 45.9939C203.717 46.5768 203.807 47.2757 203.788 47.911C201.723 49.911 199.261 51.7867 196.327 53.4663C196.371 53.1817 196.442 52.7149 196.515 52.2508C196.968 52.1983 197.893 51.9414 199.386 49.8641C201.573 46.8226 200.506 41.6624 200.506 41.6624L199.917 41.9608C198.745 42.5519 197.68 43.3945 196.821 44.4746C194.286 47.6596 195.081 50.3558 195.715 51.6072C195.764 52.2619 195.781 53.1099 195.659 53.8447C192.505 55.5795 188.824 57.0933 184.537 58.3088C184.17 58.4138 183.869 58.6928 183.732 59.0574C183.625 59.3475 183.549 59.7812 184.146 60.2177C184.288 60.3226 184.476 60.3724 184.718 60.3724C185.797 60.3724 187.608 59.3806 189.904 58.1293C191.205 57.4166 192.683 56.6099 194.259 55.8641L194.34 55.8254C195.365 56.1817 196.951 56.4663 198.091 56.6403C198.402 56.9967 199.148 58.1624 202.166 58.0961C205.883 58.0132 208.887 53.4608 208.887 53.4608L208.263 53.121C207.025 52.4469 205.677 52.0464 204.302 51.9967C200.766 51.8724 199.153 53.7094 198.444 55.0878C198.38 55.1044 198.316 55.1265 198.255 55.1541C197.597 55.4442 196.476 55.3779 195.546 55.248C197.511 54.284 200.453 52.6873 203.445 50.0271C204.334 50.1182 205.875 49.9387 206.915 49.7895C207.37 50.1016 208.381 50.6624 210.774 49.8889C214.144 48.8005 215.908 43.8337 215.908 43.8337L215.267 43.6956C213.994 43.4193 212.68 43.4193 211.418 43.7508C207.816 44.6956 206.883 47.19 206.648 48.6099C206.086 49.0381 204.982 49.248 204.187 49.3475C205.645 47.9663 207.099 46.3254 208.44 44.3751C209.149 43.342 209.798 42.2619 210.387 41.1375C211.158 40.9829 212.69 40.1016 213.674 39.4994C214.178 39.5989 215.25 39.7066 217.149 38.0823C219.821 35.795 219.872 30.6735 219.872 30.6735L219.258 30.8005C218.037 31.0519 216.865 31.5657 215.839 32.3558L215.849 32.3503Z" fill="#0047BB"/>
</g>
<defs>
<clipPath id="clip0_8215_2679">
<rect width="36.666" height="60.3702" fill="white" transform="matrix(-1 0 0 1 36.666 0)"/>
</clipPath>
<clipPath id="clip1_8215_2679">
<rect width="36.666" height="60.3702" fill="white" transform="translate(183.666)"/>
</clipPath>
</defs>
</svg>
