<svg width="181" height="61" viewBox="0 0 181 61" fill="none" xmlns="http://www.w3.org/2000/svg">
<path d="M48.5334 15V6.06H52.3014C52.8614 6.06 53.3454 6.16 53.7534 6.36C54.1614 6.552 54.4734 6.832 54.6894 7.2C54.9054 7.56 55.0134 7.988 55.0134 8.484C55.0134 8.916 54.9014 9.312 54.6774 9.672C54.4614 10.024 54.1214 10.304 53.6574 10.512V9.912C54.0654 10.072 54.3974 10.276 54.6534 10.524C54.9094 10.764 55.0934 11.036 55.2054 11.34C55.3254 11.644 55.3854 11.964 55.3854 12.3C55.3854 13.14 55.1094 13.8 54.5574 14.28C54.0134 14.76 53.2654 15 52.3134 15H48.5334ZM49.9494 13.74H52.4214C52.8934 13.74 53.2694 13.612 53.5494 13.356C53.8294 13.092 53.9694 12.744 53.9694 12.312C53.9694 11.872 53.8294 11.524 53.5494 11.268C53.2694 11.004 52.8934 10.872 52.4214 10.872H49.9494V13.74ZM49.9494 9.624H52.3374C52.7214 9.624 53.0294 9.516 53.2614 9.3C53.4934 9.076 53.6094 8.784 53.6094 8.424C53.6094 8.064 53.4934 7.784 53.2614 7.584C53.0294 7.384 52.7214 7.284 52.3374 7.284H49.9494V9.624ZM56.842 15V6.06H62.734V7.32H58.258V9.888H62.494V11.148H58.258V13.74H62.734V15H56.842ZM67.181 15.144C66.621 15.144 66.101 15.04 65.621 14.832C65.141 14.616 64.733 14.324 64.397 13.956C64.061 13.588 63.813 13.164 63.653 12.684L64.853 12.18C65.069 12.732 65.385 13.156 65.801 13.452C66.217 13.748 66.697 13.896 67.241 13.896C67.561 13.896 67.841 13.848 68.081 13.752C68.321 13.648 68.505 13.504 68.633 13.32C68.769 13.136 68.837 12.924 68.837 12.684C68.837 12.356 68.745 12.096 68.561 11.904C68.377 11.712 68.105 11.56 67.745 11.448L66.065 10.92C65.393 10.712 64.881 10.396 64.529 9.972C64.177 9.54 64.001 9.036 64.001 8.46C64.001 7.956 64.125 7.516 64.373 7.14C64.621 6.756 64.961 6.456 65.393 6.24C65.833 6.024 66.333 5.916 66.893 5.916C67.429 5.916 67.917 6.012 68.357 6.204C68.797 6.388 69.173 6.644 69.485 6.972C69.805 7.3 70.037 7.68 70.181 8.112L69.005 8.628C68.829 8.156 68.553 7.792 68.177 7.536C67.809 7.28 67.381 7.152 66.893 7.152C66.597 7.152 66.337 7.204 66.113 7.308C65.889 7.404 65.713 7.548 65.585 7.74C65.465 7.924 65.405 8.14 65.405 8.388C65.405 8.676 65.497 8.932 65.681 9.156C65.865 9.38 66.145 9.548 66.521 9.66L68.081 10.152C68.793 10.368 69.329 10.68 69.689 11.088C70.049 11.488 70.229 11.988 70.229 12.588C70.229 13.084 70.097 13.524 69.833 13.908C69.577 14.292 69.221 14.596 68.765 14.82C68.309 15.036 67.781 15.144 67.181 15.144ZM73.4025 15V7.32H71.0265V6.06H77.1465V7.32H74.8065V15H73.4025ZM81.8869 15V7.32H79.5109V6.06H85.6309V7.32H83.2909V15H81.8869ZM86.6896 15V6.06H89.9416C90.5416 6.06 91.0696 6.172 91.5256 6.396C91.9816 6.612 92.3376 6.932 92.5936 7.356C92.8576 7.772 92.9896 8.272 92.9896 8.856C92.9896 9.472 92.8336 10 92.5216 10.44C92.2176 10.88 91.8056 11.2 91.2856 11.4L93.3496 15H91.7416L89.5456 11.1L90.4696 11.64H88.1056V15H86.6896ZM88.1056 10.38H89.9656C90.2936 10.38 90.5776 10.316 90.8176 10.188C91.0576 10.06 91.2416 9.884 91.3696 9.66C91.5056 9.428 91.5736 9.156 91.5736 8.844C91.5736 8.532 91.5056 8.264 91.3696 8.04C91.2416 7.808 91.0576 7.632 90.8176 7.512C90.5776 7.384 90.2936 7.32 89.9656 7.32H88.1056V10.38ZM93.7492 15L96.8932 6.06H98.6452L101.789 15H100.277L99.5932 12.996H95.9572L95.2612 15H93.7492ZM96.3652 11.736H99.1612L97.5772 7.056H97.9732L96.3652 11.736ZM102.85 15V6.06H105.778C106.706 6.06 107.51 6.248 108.19 6.624C108.878 6.992 109.41 7.512 109.786 8.184C110.162 8.856 110.35 9.636 110.35 10.524C110.35 11.404 110.162 12.184 109.786 12.864C109.41 13.536 108.878 14.06 108.19 14.436C107.51 14.812 106.706 15 105.778 15H102.85ZM104.266 13.74H105.802C106.434 13.74 106.982 13.608 107.446 13.344C107.918 13.08 108.282 12.708 108.538 12.228C108.794 11.748 108.922 11.18 108.922 10.524C108.922 9.868 108.79 9.304 108.526 8.832C108.27 8.352 107.91 7.98 107.446 7.716C106.982 7.452 106.434 7.32 105.802 7.32H104.266V13.74ZM111.744 15V6.06H113.16V15H111.744ZM115.014 15V6.06H116.154L121.17 12.984L120.63 13.068V6.06H122.034V15H120.894L115.914 8.028L116.43 7.932V15H115.014ZM128.073 15.144C127.441 15.144 126.853 15.028 126.309 14.796C125.773 14.564 125.301 14.244 124.893 13.836C124.493 13.42 124.181 12.932 123.957 12.372C123.733 11.812 123.621 11.196 123.621 10.524C123.621 9.86 123.729 9.248 123.945 8.688C124.169 8.12 124.481 7.632 124.881 7.224C125.281 6.808 125.749 6.488 126.285 6.264C126.821 6.032 127.409 5.916 128.049 5.916C128.681 5.916 129.245 6.024 129.741 6.24C130.245 6.456 130.669 6.74 131.013 7.092C131.357 7.436 131.605 7.812 131.757 8.22L130.497 8.832C130.313 8.344 130.009 7.952 129.585 7.656C129.161 7.352 128.649 7.2 128.049 7.2C127.457 7.2 126.933 7.34 126.477 7.62C126.021 7.9 125.665 8.288 125.409 8.784C125.161 9.28 125.037 9.86 125.037 10.524C125.037 11.188 125.165 11.772 125.421 12.276C125.685 12.772 126.045 13.16 126.501 13.44C126.957 13.712 127.481 13.848 128.073 13.848C128.569 13.848 129.021 13.748 129.429 13.548C129.845 13.34 130.177 13.052 130.425 12.684C130.673 12.308 130.797 11.872 130.797 11.376V10.764L131.433 11.34H128.049V10.14H132.201V10.98C132.201 11.636 132.089 12.224 131.865 12.744C131.641 13.256 131.337 13.692 130.953 14.052C130.569 14.412 130.129 14.684 129.633 14.868C129.137 15.052 128.617 15.144 128.073 15.144ZM56.3888 33.144C55.7568 33.144 55.1688 33.028 54.6248 32.796C54.0888 32.564 53.6208 32.244 53.2208 31.836C52.8288 31.42 52.5208 30.932 52.2968 30.372C52.0728 29.812 51.9608 29.196 51.9608 28.524C51.9608 27.86 52.0688 27.248 52.2848 26.688C52.5088 26.12 52.8208 25.632 53.2208 25.224C53.6208 24.808 54.0888 24.488 54.6248 24.264C55.1608 24.032 55.7488 23.916 56.3888 23.916C57.0208 23.916 57.5848 24.024 58.0808 24.24C58.5848 24.456 59.0088 24.74 59.3528 25.092C59.6968 25.436 59.9448 25.812 60.0968 26.22L58.8248 26.82C58.6328 26.34 58.3248 25.952 57.9008 25.656C57.4848 25.352 56.9808 25.2 56.3888 25.2C55.7968 25.2 55.2728 25.34 54.8168 25.62C54.3608 25.9 54.0048 26.288 53.7488 26.784C53.5008 27.28 53.3768 27.86 53.3768 28.524C53.3768 29.188 53.5008 29.772 53.7488 30.276C54.0048 30.772 54.3608 31.16 54.8168 31.44C55.2728 31.712 55.7968 31.848 56.3888 31.848C56.9808 31.848 57.4848 31.7 57.9008 31.404C58.3248 31.108 58.6328 30.72 58.8248 30.24L60.0968 30.84C59.9448 31.24 59.6968 31.616 59.3528 31.968C59.0088 32.32 58.5848 32.604 58.0808 32.82C57.5848 33.036 57.0208 33.144 56.3888 33.144ZM65.8969 33.144C65.2489 33.144 64.6449 33.028 64.0849 32.796C63.5329 32.564 63.0449 32.24 62.6209 31.824C62.2049 31.408 61.8769 30.92 61.6369 30.36C61.4049 29.8 61.2889 29.188 61.2889 28.524C61.2889 27.86 61.4049 27.248 61.6369 26.688C61.8769 26.12 62.2049 25.632 62.6209 25.224C63.0369 24.808 63.5249 24.488 64.0849 24.264C64.6449 24.032 65.2489 23.916 65.8969 23.916C66.5529 23.916 67.1569 24.032 67.7089 24.264C68.2689 24.488 68.7569 24.808 69.1729 25.224C69.5969 25.64 69.9249 26.128 70.1569 26.688C70.3889 27.248 70.5049 27.86 70.5049 28.524C70.5049 29.188 70.3849 29.8 70.1449 30.36C69.9129 30.92 69.5889 31.408 69.1729 31.824C68.7569 32.24 68.2689 32.564 67.7089 32.796C67.1489 33.028 66.5449 33.144 65.8969 33.144ZM65.8969 31.848C66.3609 31.848 66.7849 31.764 67.1689 31.596C67.5609 31.428 67.9009 31.196 68.1889 30.9C68.4769 30.596 68.7009 30.244 68.8609 29.844C69.0209 29.436 69.1009 28.996 69.1009 28.524C69.1009 28.052 69.0209 27.616 68.8609 27.216C68.7009 26.816 68.4769 26.464 68.1889 26.16C67.9009 25.856 67.5609 25.62 67.1689 25.452C66.7849 25.284 66.3609 25.2 65.8969 25.2C65.4329 25.2 65.0049 25.284 64.6129 25.452C64.2289 25.62 63.8929 25.856 63.6049 26.16C63.3169 26.464 63.0929 26.816 62.9329 27.216C62.7809 27.616 62.7049 28.052 62.7049 28.524C62.7049 28.996 62.7809 29.436 62.9329 29.844C63.0929 30.244 63.3169 30.596 63.6049 30.9C63.8929 31.196 64.2329 31.428 64.6249 31.596C65.0169 31.764 65.4409 31.848 65.8969 31.848ZM72.0881 33V24.06H73.2281L78.2441 30.984L77.7041 31.068V24.06H79.1081V33H77.9681L72.9881 26.028L73.5041 25.932V33H72.0881ZM80.9592 33V24.06H83.8872C84.8152 24.06 85.6192 24.248 86.2992 24.624C86.9872 24.992 87.5192 25.512 87.8952 26.184C88.2712 26.856 88.4592 27.636 88.4592 28.524C88.4592 29.404 88.2712 30.184 87.8952 30.864C87.5192 31.536 86.9872 32.06 86.2992 32.436C85.6192 32.812 84.8152 33 83.8872 33H80.9592ZM82.3752 31.74H83.9112C84.5432 31.74 85.0912 31.608 85.5552 31.344C86.0272 31.08 86.3912 30.708 86.6472 30.228C86.9032 29.748 87.0312 29.18 87.0312 28.524C87.0312 27.868 86.8992 27.304 86.6352 26.832C86.3792 26.352 86.0192 25.98 85.5552 25.716C85.0912 25.452 84.5432 25.32 83.9112 25.32H82.3752V31.74ZM89.8537 33V24.06H91.2697V33H89.8537ZM94.7072 33V25.32H92.3312V24.06H98.4512V25.32H96.1112V33H94.7072ZM99.5099 33V24.06H100.926V33H99.5099ZM107.123 33.144C106.475 33.144 105.871 33.028 105.311 32.796C104.759 32.564 104.271 32.24 103.847 31.824C103.431 31.408 103.103 30.92 102.863 30.36C102.631 29.8 102.515 29.188 102.515 28.524C102.515 27.86 102.631 27.248 102.863 26.688C103.103 26.12 103.431 25.632 103.847 25.224C104.263 24.808 104.751 24.488 105.311 24.264C105.871 24.032 106.475 23.916 107.123 23.916C107.779 23.916 108.383 24.032 108.935 24.264C109.495 24.488 109.983 24.808 110.399 25.224C110.823 25.64 111.151 26.128 111.383 26.688C111.615 27.248 111.731 27.86 111.731 28.524C111.731 29.188 111.611 29.8 111.371 30.36C111.139 30.92 110.815 31.408 110.399 31.824C109.983 32.24 109.495 32.564 108.935 32.796C108.375 33.028 107.771 33.144 107.123 33.144ZM107.123 31.848C107.587 31.848 108.011 31.764 108.395 31.596C108.787 31.428 109.127 31.196 109.415 30.9C109.703 30.596 109.927 30.244 110.087 29.844C110.247 29.436 110.327 28.996 110.327 28.524C110.327 28.052 110.247 27.616 110.087 27.216C109.927 26.816 109.703 26.464 109.415 26.16C109.127 25.856 108.787 25.62 108.395 25.452C108.011 25.284 107.587 25.2 107.123 25.2C106.659 25.2 106.231 25.284 105.839 25.452C105.455 25.62 105.119 25.856 104.831 26.16C104.543 26.464 104.319 26.816 104.159 27.216C104.007 27.616 103.931 28.052 103.931 28.524C103.931 28.996 104.007 29.436 104.159 29.844C104.319 30.244 104.543 30.596 104.831 30.9C105.119 31.196 105.459 31.428 105.851 31.596C106.243 31.764 106.667 31.848 107.123 31.848ZM113.315 33V24.06H114.455L119.471 30.984L118.931 31.068V24.06H120.335V33H119.195L114.215 26.028L114.731 25.932V33H113.315ZM125.318 33.144C124.758 33.144 124.238 33.04 123.758 32.832C123.278 32.616 122.87 32.324 122.534 31.956C122.198 31.588 121.95 31.164 121.79 30.684L122.99 30.18C123.206 30.732 123.522 31.156 123.938 31.452C124.354 31.748 124.834 31.896 125.378 31.896C125.698 31.896 125.978 31.848 126.218 31.752C126.458 31.648 126.642 31.504 126.77 31.32C126.906 31.136 126.974 30.924 126.974 30.684C126.974 30.356 126.882 30.096 126.698 29.904C126.514 29.712 126.242 29.56 125.882 29.448L124.202 28.92C123.53 28.712 123.018 28.396 122.666 27.972C122.314 27.54 122.138 27.036 122.138 26.46C122.138 25.956 122.262 25.516 122.51 25.14C122.758 24.756 123.098 24.456 123.53 24.24C123.97 24.024 124.47 23.916 125.03 23.916C125.566 23.916 126.054 24.012 126.494 24.204C126.934 24.388 127.31 24.644 127.622 24.972C127.942 25.3 128.174 25.68 128.318 26.112L127.142 26.628C126.966 26.156 126.69 25.792 126.314 25.536C125.946 25.28 125.518 25.152 125.03 25.152C124.734 25.152 124.474 25.204 124.25 25.308C124.026 25.404 123.85 25.548 123.722 25.74C123.602 25.924 123.542 26.14 123.542 26.388C123.542 26.676 123.634 26.932 123.818 27.156C124.002 27.38 124.282 27.548 124.658 27.66L126.218 28.152C126.93 28.368 127.466 28.68 127.826 29.088C128.186 29.488 128.366 29.988 128.366 30.588C128.366 31.084 128.234 31.524 127.97 31.908C127.714 32.292 127.358 32.596 126.902 32.82C126.446 33.036 125.918 33.144 125.318 33.144Z" fill="#0D0D4B"/>
<path d="M40.1922 51V45.04H41.0722L43.3122 48.144H42.8722L45.0722 45.04H45.9522V51H45.0162V46.152L45.3682 46.248L43.1202 49.32H43.0242L40.8242 46.248L41.1362 46.152V51H40.1922ZM50.0804 51.096C49.6484 51.096 49.2457 51.0187 48.8724 50.864C48.5044 50.7093 48.179 50.4933 47.8964 50.216C47.619 49.9387 47.4004 49.6133 47.2404 49.24C47.0857 48.8667 47.0084 48.4587 47.0084 48.016C47.0084 47.5733 47.0857 47.1653 47.2404 46.792C47.4004 46.4133 47.619 46.088 47.8964 45.816C48.1737 45.5387 48.499 45.3253 48.8724 45.176C49.2457 45.0213 49.6484 44.944 50.0804 44.944C50.5177 44.944 50.9204 45.0213 51.2884 45.176C51.6617 45.3253 51.987 45.5387 52.2644 45.816C52.547 46.0933 52.7657 46.4187 52.9204 46.792C53.075 47.1653 53.1524 47.5733 53.1524 48.016C53.1524 48.4587 53.0724 48.8667 52.9124 49.24C52.7577 49.6133 52.5417 49.9387 52.2644 50.216C51.987 50.4933 51.6617 50.7093 51.2884 50.864C50.915 51.0187 50.5124 51.096 50.0804 51.096ZM50.0804 50.232C50.3897 50.232 50.6724 50.176 50.9284 50.064C51.1897 49.952 51.4164 49.7973 51.6084 49.6C51.8004 49.3973 51.9497 49.1627 52.0564 48.896C52.163 48.624 52.2164 48.3307 52.2164 48.016C52.2164 47.7013 52.163 47.4107 52.0564 47.144C51.9497 46.8773 51.8004 46.6427 51.6084 46.44C51.4164 46.2373 51.1897 46.08 50.9284 45.968C50.6724 45.856 50.3897 45.8 50.0804 45.8C49.771 45.8 49.4857 45.856 49.2244 45.968C48.9684 46.08 48.7444 46.2373 48.5524 46.44C48.3604 46.6427 48.211 46.8773 48.1044 47.144C48.003 47.4107 47.9524 47.7013 47.9524 48.016C47.9524 48.3307 48.003 48.624 48.1044 48.896C48.211 49.1627 48.3604 49.3973 48.5524 49.6C48.7444 49.7973 48.971 49.952 49.2324 50.064C49.4937 50.176 49.7764 50.232 50.0804 50.232ZM54.2078 51V45.04H54.9678L58.3118 49.656L57.9518 49.712V45.04H58.8878V51H58.1278L54.8078 46.352L55.1518 46.288V51H54.2078ZM60.1219 51V45.04H64.0499V45.88H61.0659V47.592H63.8899V48.432H61.0659V50.16H64.0499V51H60.1219ZM66.4385 51V48.312L64.3985 45.04H65.4625L67.0945 47.688H66.7185L68.3425 45.04H69.4065L67.3745 48.312V51H66.4385ZM71.5125 51V45.04H75.4405V45.88H72.4565V47.592H75.2805V48.432H72.4565V50.16H75.4405V51H71.5125ZM75.7892 51L77.7332 47.984L75.8212 45.04H76.8932L78.4932 47.504H78.0372L79.6212 45.04H80.6932L78.7892 47.984L80.7332 51H79.6612L78.0372 48.472L78.4932 48.48L76.8532 51H75.7892ZM81.4344 51V45.04H83.6024C84.0024 45.04 84.3544 45.1147 84.6584 45.264C84.9677 45.408 85.2077 45.6213 85.3784 45.904C85.549 46.1813 85.6344 46.5147 85.6344 46.904C85.6344 47.288 85.5464 47.6187 85.3704 47.896C85.1997 48.1733 84.9624 48.3867 84.6584 48.536C84.3544 48.6853 84.0024 48.76 83.6024 48.76H82.3784V51H81.4344ZM82.3784 47.92H83.6264C83.8397 47.92 84.0264 47.8773 84.1864 47.792C84.3464 47.7067 84.4717 47.5893 84.5624 47.44C84.653 47.2853 84.6984 47.104 84.6984 46.896C84.6984 46.688 84.653 46.5093 84.5624 46.36C84.4717 46.2053 84.3464 46.088 84.1864 46.008C84.0264 45.9227 83.8397 45.88 83.6264 45.88H82.3784V47.92ZM89.5022 51.096C89.0702 51.096 88.6676 51.0187 88.2942 50.864C87.9262 50.7093 87.6009 50.4933 87.3182 50.216C87.0409 49.9387 86.8222 49.6133 86.6622 49.24C86.5076 48.8667 86.4302 48.4587 86.4302 48.016C86.4302 47.5733 86.5076 47.1653 86.6622 46.792C86.8222 46.4133 87.0409 46.088 87.3182 45.816C87.5956 45.5387 87.9209 45.3253 88.2942 45.176C88.6676 45.0213 89.0702 44.944 89.5022 44.944C89.9396 44.944 90.3422 45.0213 90.7102 45.176C91.0836 45.3253 91.4089 45.5387 91.6862 45.816C91.9689 46.0933 92.1876 46.4187 92.3422 46.792C92.4969 47.1653 92.5742 47.5733 92.5742 48.016C92.5742 48.4587 92.4942 48.8667 92.3342 49.24C92.1796 49.6133 91.9636 49.9387 91.6862 50.216C91.4089 50.4933 91.0836 50.7093 90.7102 50.864C90.3369 51.0187 89.9342 51.096 89.5022 51.096ZM89.5022 50.232C89.8116 50.232 90.0942 50.176 90.3502 50.064C90.6116 49.952 90.8382 49.7973 91.0302 49.6C91.2222 49.3973 91.3716 49.1627 91.4782 48.896C91.5849 48.624 91.6382 48.3307 91.6382 48.016C91.6382 47.7013 91.5849 47.4107 91.4782 47.144C91.3716 46.8773 91.2222 46.6427 91.0302 46.44C90.8382 46.2373 90.6116 46.08 90.3502 45.968C90.0942 45.856 89.8116 45.8 89.5022 45.8C89.1929 45.8 88.9076 45.856 88.6462 45.968C88.3902 46.08 88.1662 46.2373 87.9742 46.44C87.7822 46.6427 87.6329 46.8773 87.5262 47.144C87.4249 47.4107 87.3742 47.7013 87.3742 48.016C87.3742 48.3307 87.4249 48.624 87.5262 48.896C87.6329 49.1627 87.7822 49.3973 87.9742 49.6C88.1662 49.7973 88.3929 49.952 88.6542 50.064C88.9156 50.176 89.1982 50.232 89.5022 50.232ZM97.8041 51.096C97.3828 51.096 96.9908 51.0187 96.6281 50.864C96.2708 50.7093 95.9588 50.496 95.6921 50.224C95.4308 49.9467 95.2254 49.6213 95.0761 49.248C94.9268 48.8747 94.8521 48.464 94.8521 48.016C94.8521 47.5733 94.9241 47.1653 95.0681 46.792C95.2174 46.4133 95.4254 46.088 95.6921 45.816C95.9588 45.5387 96.2708 45.3253 96.6281 45.176C96.9854 45.0213 97.3774 44.944 97.8041 44.944C98.2254 44.944 98.6014 45.016 98.9321 45.16C99.2681 45.304 99.5508 45.4933 99.7801 45.728C100.009 45.9573 100.175 46.208 100.276 46.48L99.4281 46.88C99.3001 46.56 99.0948 46.3013 98.8121 46.104C98.5348 45.9013 98.1988 45.8 97.8041 45.8C97.4094 45.8 97.0601 45.8933 96.7561 46.08C96.4521 46.2667 96.2148 46.5253 96.0441 46.856C95.8788 47.1867 95.7961 47.5733 95.7961 48.016C95.7961 48.4587 95.8788 48.848 96.0441 49.184C96.2148 49.5147 96.4521 49.7733 96.7561 49.96C97.0601 50.1413 97.4094 50.232 97.8041 50.232C98.1988 50.232 98.5348 50.1333 98.8121 49.936C99.0948 49.7387 99.3001 49.48 99.4281 49.16L100.276 49.56C100.175 49.8267 100.009 50.0773 99.7801 50.312C99.5508 50.5467 99.2681 50.736 98.9321 50.88C98.6014 51.024 98.2254 51.096 97.8041 51.096ZM101.247 51V45.04H102.191V47.664H104.951V45.04H105.887V51H104.951V48.504H102.191V51H101.247ZM107.122 51V45.04H108.066V51H107.122ZM109.302 51V45.04H110.246V50.16H112.822V51H109.302ZM113.614 51V45.04H117.542V45.88H114.558V47.592H117.382V48.432H114.558V50.16H117.542V51H113.614ZM119.601 51V50.32L121.233 48.576C121.553 48.2347 121.804 47.96 121.985 47.752C122.172 47.5387 122.305 47.352 122.385 47.192C122.471 47.032 122.513 46.864 122.513 46.688C122.513 46.4 122.425 46.1787 122.249 46.024C122.073 45.864 121.847 45.784 121.569 45.784C121.281 45.784 121.033 45.8667 120.825 46.032C120.617 46.192 120.473 46.4267 120.393 46.736L119.561 46.496C119.625 46.1813 119.753 45.9093 119.945 45.68C120.137 45.4453 120.372 45.264 120.649 45.136C120.932 45.008 121.236 44.944 121.561 44.944C121.94 44.944 122.271 45.016 122.553 45.16C122.836 45.2987 123.055 45.4933 123.209 45.744C123.369 45.9947 123.449 46.2853 123.449 46.616C123.449 46.8347 123.407 47.048 123.321 47.256C123.241 47.4587 123.116 47.6747 122.945 47.904C122.775 48.128 122.556 48.3813 122.289 48.664L120.849 50.2H123.561V51H119.601ZM126.854 51.096C126.38 51.096 125.964 50.968 125.606 50.712C125.249 50.4507 124.969 50.0907 124.766 49.632C124.569 49.168 124.47 48.6293 124.47 48.016C124.47 47.3973 124.569 46.8587 124.766 46.4C124.969 45.9413 125.246 45.584 125.598 45.328C125.956 45.072 126.372 44.944 126.846 44.944C127.321 44.944 127.734 45.072 128.086 45.328C128.444 45.584 128.721 45.944 128.918 46.408C129.121 46.8667 129.222 47.4027 129.222 48.016C129.222 48.6293 129.124 49.168 128.926 49.632C128.729 50.0907 128.452 50.4507 128.094 50.712C127.742 50.968 127.329 51.096 126.854 51.096ZM126.854 50.232C127.148 50.232 127.401 50.1413 127.614 49.96C127.828 49.7787 127.993 49.5227 128.11 49.192C128.228 48.8613 128.286 48.4693 128.286 48.016C128.286 47.5627 128.228 47.1707 128.11 46.84C127.993 46.5093 127.828 46.2533 127.614 46.072C127.401 45.8907 127.145 45.8 126.846 45.8C126.553 45.8 126.3 45.8907 126.086 46.072C125.873 46.2533 125.708 46.5093 125.59 46.84C125.473 47.1707 125.414 47.5627 125.414 48.016C125.414 48.464 125.473 48.856 125.59 49.192C125.708 49.5227 125.873 49.7787 126.086 49.96C126.305 50.1413 126.561 50.232 126.854 50.232ZM130.109 51V50.32L131.741 48.576C132.061 48.2347 132.312 47.96 132.493 47.752C132.68 47.5387 132.813 47.352 132.893 47.192C132.978 47.032 133.021 46.864 133.021 46.688C133.021 46.4 132.933 46.1787 132.757 46.024C132.581 45.864 132.354 45.784 132.077 45.784C131.789 45.784 131.541 45.8667 131.333 46.032C131.125 46.192 130.981 46.4267 130.901 46.736L130.069 46.496C130.133 46.1813 130.261 45.9093 130.453 45.68C130.645 45.4453 130.88 45.264 131.157 45.136C131.44 45.008 131.744 44.944 132.069 44.944C132.448 44.944 132.778 45.016 133.061 45.16C133.344 45.2987 133.562 45.4933 133.717 45.744C133.877 45.9947 133.957 46.2853 133.957 46.616C133.957 46.8347 133.914 47.048 133.829 47.256C133.749 47.4587 133.624 47.6747 133.453 47.904C133.282 48.128 133.064 48.3813 132.797 48.664L131.357 50.2H134.069V51H130.109ZM136.882 51.096C136.568 51.096 136.272 51.04 135.994 50.928C135.717 50.8107 135.477 50.648 135.274 50.44C135.072 50.232 134.928 49.9813 134.842 49.688L135.634 49.384C135.736 49.6667 135.901 49.8827 136.13 50.032C136.36 50.1813 136.61 50.256 136.882 50.256C137.106 50.256 137.304 50.2053 137.474 50.104C137.645 50.0027 137.778 49.864 137.874 49.688C137.976 49.512 138.026 49.312 138.026 49.088C138.026 48.8587 137.976 48.6587 137.874 48.488C137.778 48.312 137.645 48.176 137.474 48.08C137.304 47.9787 137.106 47.928 136.882 47.928C136.658 47.928 136.453 47.9787 136.266 48.08C136.08 48.1813 135.944 48.3173 135.858 48.488L135.098 48.32L135.562 45.04H138.738V45.84H135.93L136.29 45.448L135.946 47.96L135.65 47.76C135.81 47.536 136.005 47.3733 136.234 47.272C136.464 47.1707 136.725 47.12 137.018 47.12C137.408 47.12 137.746 47.208 138.034 47.384C138.328 47.5547 138.554 47.7893 138.714 48.088C138.88 48.3813 138.962 48.7147 138.962 49.088C138.962 49.4667 138.872 49.808 138.69 50.112C138.509 50.416 138.261 50.656 137.946 50.832C137.637 51.008 137.282 51.096 136.882 51.096Z" fill="#0047BB"/>
<g clip-path="url(#clip0_8215_2672)">
<path d="M4.4833 32.3503C7.40747 34.6016 7.47599 37.19 7.24842 38.5492C7.68154 39.2536 8.86345 39.9801 9.53882 40.353C8.19296 37.6154 7.19214 34.6237 6.53634 31.3917C5.85118 30.9663 4.75981 29.8779 4.04773 29.1293C3.57301 29.0878 2.58197 28.9027 1.19941 26.9359C-0.745968 24.1652 0.262203 19.5215 0.262203 19.5215L0.790756 19.7978C1.84297 20.3447 2.79486 21.1182 3.56078 22.0989C5.74106 24.9 5.26879 27.2591 4.78428 28.4276C5.0143 29.1293 5.83405 30.0188 6.37484 30.5519C5.79 27.342 5.53796 23.9027 5.62605 20.2425C5.11463 19.6956 4.40744 18.5906 3.94495 17.8309C3.54364 17.6928 2.7239 17.3171 1.87233 15.3226C0.673298 12.5188 2.33727 8.74528 2.33727 8.74528L2.74592 9.09611C3.55588 9.795 4.24349 10.6679 4.73289 11.679C6.12769 14.563 5.31772 16.4856 4.70108 17.3862C4.77449 18.0105 5.28102 18.9 5.65297 19.4801C5.76308 16.4386 6.09833 13.248 6.66848 9.91931C6.4874 9.64031 5.80468 8.96075 6.19621 6.016C6.67337 2.40826 10.4858 -0.00610352 10.4858 -0.00610352L10.6742 0.637543C11.0511 1.91931 11.2052 3.2729 11.0878 4.61821C10.7012 9.05467 8.06817 9.87788 7.07468 10.0326C7.00861 10.4884 6.91318 11.0712 6.85445 11.7398C6.74923 12.9359 6.53144 14.69 6.38218 16.8309C6.53879 16.69 6.73699 16.5105 6.93275 16.3309C6.78593 15.9442 6.58773 15.0933 7.31938 13.0657C8.39362 10.0961 12.0935 8.9276 12.0935 8.9276L12.1375 9.52152C12.2232 10.7038 12.1057 11.9 11.7583 13.0188C10.733 16.3282 8.70439 16.7453 7.65952 16.7259C7.25087 16.9331 6.73944 17.2259 6.33324 17.5851C6.16195 20.4801 6.14237 23.9939 6.66603 27.7619C6.82264 27.516 7.01595 27.2121 7.19948 26.9221C6.94744 26.469 6.6538 25.5491 6.86669 23.469C7.23129 19.911 10.9018 17.3972 10.9018 17.3972L11.1074 18.0243C11.5136 19.2674 11.7069 20.5933 11.631 21.9165C11.3839 26.2453 8.87323 27.1762 7.87975 27.3751C7.52248 27.7149 7.11139 28.1569 6.79572 28.6265C7.28023 31.6514 8.12689 34.8199 9.53637 37.9442C9.60978 37.7094 9.69543 37.4414 9.77863 37.179C9.42626 36.8337 8.9026 36.0519 8.59183 33.9387C8.07306 30.4027 10.9899 26.8475 10.9899 26.8475L11.3398 27.3862C12.0348 28.4552 12.5413 29.6679 12.7933 30.9635C13.6058 35.1735 11.4499 36.8558 10.5348 37.3668C10.3072 37.7563 10.0649 38.2232 9.88874 38.6983C11.3202 41.6707 13.2754 44.5906 15.928 47.295C15.9206 46.9939 15.9108 46.5795 15.901 46.1707C15.4239 45.9884 14.6041 45.4469 13.525 43.3862C11.7583 40.0132 13.4858 35.0878 13.4858 35.0878L14.0315 35.4801C15.1131 36.2591 16.0577 37.2701 16.7648 38.4801C19.0503 42.3779 17.4843 45.0436 16.7257 45.9939C16.6156 46.5768 16.525 47.2757 16.5446 47.911C18.6099 49.911 21.0716 51.7867 24.0055 53.4663C23.9615 53.1817 23.8905 52.7149 23.8171 52.2508C23.3644 52.1983 22.4395 51.9414 20.9468 49.8641C18.7592 46.8226 19.8261 41.6624 19.8261 41.6624L20.4158 41.9608C21.5879 42.5519 22.6523 43.3945 23.5112 44.4746C26.0464 47.6596 25.2511 50.3558 24.6173 51.6072C24.5684 52.2619 24.5512 53.1099 24.6736 53.8447C27.8278 55.5795 31.5081 57.0933 35.7952 58.3088C36.1623 58.4138 36.4633 58.6928 36.6003 59.0574C36.708 59.3475 36.7838 59.7812 36.1868 60.2177C36.0448 60.3226 35.8564 60.3724 35.6142 60.3724C34.535 60.3724 32.7242 59.3806 30.4289 58.1293C29.1271 57.4166 27.6491 56.6099 26.0733 55.8641L25.9925 55.8254C24.9672 56.1817 23.3816 56.4663 22.2413 56.6403C21.9305 56.9967 21.1841 58.1624 18.167 58.0961C14.45 58.0132 11.445 53.4608 11.445 53.4608L12.069 53.121C13.3072 52.4469 14.6555 52.0464 16.0307 51.9967C19.5667 51.8724 21.1792 53.7094 21.8889 55.0878C21.9525 55.1044 22.0161 55.1265 22.0773 55.1541C22.7355 55.4442 23.8563 55.3779 24.7861 55.248C22.8212 54.284 19.8799 52.6873 16.8872 50.0271C15.9989 50.1182 14.4573 49.9387 13.4173 49.7895C12.9622 50.1016 11.9516 50.6624 9.5584 49.8889C6.18886 48.8005 4.42457 43.8337 4.42457 43.8337L5.06568 43.6956C6.33813 43.4193 7.65217 43.4193 8.91483 43.7508C12.5168 44.6956 13.4491 47.19 13.6841 48.6099C14.2469 49.0381 15.3505 49.248 16.1457 49.3475C14.6873 47.9663 13.2338 46.3254 11.8928 44.3751C11.1832 43.342 10.5348 42.2619 9.94502 41.1375C9.17422 40.9829 7.64239 40.1016 6.65869 39.4994C6.15461 39.5989 5.08281 39.7066 3.18393 38.0823C0.511799 35.795 0.460407 30.6735 0.460407 30.6735L1.07461 30.8005C2.29567 31.0519 3.46779 31.5657 4.49308 32.3558L4.4833 32.3503Z" fill="#0047BB"/>
</g>
<g clip-path="url(#clip1_8215_2672)">
<path d="M175.849 32.3503C172.925 34.6016 172.857 37.19 173.084 38.5492C172.651 39.2536 171.469 39.9801 170.794 40.353C172.14 37.6154 173.14 34.6237 173.796 31.3917C174.481 30.9663 175.573 29.8779 176.285 29.1293C176.76 29.0878 177.751 28.9027 179.133 26.9359C181.078 24.1652 180.07 19.5215 180.07 19.5215L179.542 19.7978C178.49 20.3447 177.538 21.1182 176.772 22.0989C174.591 24.9 175.064 27.2591 175.548 28.4276C175.318 29.1293 174.498 30.0188 173.958 30.5519C174.543 27.342 174.795 23.9027 174.706 20.2425C175.218 19.6956 175.925 18.5906 176.388 17.8309C176.789 17.6928 177.609 17.3171 178.46 15.3226C179.659 12.5188 177.995 8.74528 177.995 8.74528L177.587 9.09611C176.777 9.795 176.089 10.6679 175.6 11.679C174.205 14.563 175.015 16.4856 175.631 17.3862C175.558 18.0105 175.051 18.9 174.68 19.4801C174.569 16.4386 174.234 13.248 173.664 9.91931C173.845 9.64031 174.528 8.96075 174.136 6.016C173.659 2.40826 169.847 -0.00610352 169.847 -0.00610352L169.658 0.637543C169.281 1.91931 169.127 3.2729 169.245 4.61821C169.631 9.05467 172.264 9.87788 173.258 10.0326C173.324 10.4884 173.419 11.0712 173.478 11.7398C173.583 12.9359 173.801 14.69 173.95 16.8309C173.794 16.69 173.596 16.5105 173.4 16.3309C173.547 15.9442 173.745 15.0933 173.013 13.0657C171.939 10.0961 168.239 8.9276 168.239 8.9276L168.195 9.52152C168.109 10.7038 168.227 11.9 168.574 13.0188C169.6 16.3282 171.628 16.7453 172.673 16.7259C173.082 16.9331 173.593 17.2259 173.999 17.5851C174.171 20.4801 174.19 23.9939 173.666 27.7619C173.51 27.516 173.317 27.2121 173.133 26.9221C173.385 26.469 173.679 25.5491 173.466 23.469C173.101 19.911 169.431 17.3972 169.431 17.3972L169.225 18.0243C168.819 19.2674 168.626 20.5933 168.702 21.9165C168.949 26.2453 171.459 27.1762 172.453 27.3751C172.81 27.7149 173.221 28.1569 173.537 28.6265C173.052 31.6514 172.206 34.8199 170.796 37.9442C170.723 37.7094 170.637 37.4414 170.554 37.179C170.906 36.8337 171.43 36.0519 171.741 33.9387C172.259 30.4027 169.343 26.8475 169.343 26.8475L168.993 27.3862C168.298 28.4552 167.791 29.6679 167.539 30.9635C166.727 35.1735 168.883 36.8558 169.798 37.3668C170.025 37.7563 170.268 38.2232 170.444 38.6983C169.012 41.6707 167.057 44.5906 164.405 47.295C164.412 46.9939 164.422 46.5795 164.431 46.1707C164.909 45.9884 165.728 45.4469 166.808 43.3862C168.574 40.0132 166.847 35.0878 166.847 35.0878L166.301 35.4801C165.219 36.2591 164.275 37.2701 163.568 38.4801C161.282 42.3779 162.848 45.0436 163.607 45.9939C163.717 46.5768 163.807 47.2757 163.788 47.911C161.723 49.911 159.261 51.7867 156.327 53.4663C156.371 53.1817 156.442 52.7149 156.515 52.2508C156.968 52.1983 157.893 51.9414 159.386 49.8641C161.573 46.8226 160.506 41.6624 160.506 41.6624L159.917 41.9608C158.745 42.5519 157.68 43.3945 156.821 44.4746C154.286 47.6596 155.081 50.3558 155.715 51.6072C155.764 52.2619 155.781 53.1099 155.659 53.8447C152.505 55.5795 148.824 57.0933 144.537 58.3088C144.17 58.4138 143.869 58.6928 143.732 59.0574C143.625 59.3475 143.549 59.7812 144.146 60.2177C144.288 60.3226 144.476 60.3724 144.718 60.3724C145.797 60.3724 147.608 59.3806 149.904 58.1293C151.205 57.4166 152.683 56.6099 154.259 55.8641L154.34 55.8254C155.365 56.1817 156.951 56.4663 158.091 56.6403C158.402 56.9967 159.148 58.1624 162.166 58.0961C165.883 58.0132 168.887 53.4608 168.887 53.4608L168.263 53.121C167.025 52.4469 165.677 52.0464 164.302 51.9967C160.766 51.8724 159.153 53.7094 158.444 55.0878C158.38 55.1044 158.316 55.1265 158.255 55.1541C157.597 55.4442 156.476 55.3779 155.546 55.248C157.511 54.284 160.453 52.6873 163.445 50.0271C164.334 50.1182 165.875 49.9387 166.915 49.7895C167.37 50.1016 168.381 50.6624 170.774 49.8889C174.144 48.8005 175.908 43.8337 175.908 43.8337L175.267 43.6956C173.994 43.4193 172.68 43.4193 171.418 43.7508C167.816 44.6956 166.883 47.19 166.648 48.6099C166.086 49.0381 164.982 49.248 164.187 49.3475C165.645 47.9663 167.099 46.3254 168.44 44.3751C169.149 43.342 169.798 42.2619 170.387 41.1375C171.158 40.9829 172.69 40.1016 173.674 39.4994C174.178 39.5989 175.25 39.7066 177.149 38.0823C179.821 35.795 179.872 30.6735 179.872 30.6735L179.258 30.8005C178.037 31.0519 176.865 31.5657 175.839 32.3558L175.849 32.3503Z" fill="#0047BB"/>
</g>
<defs>
<clipPath id="clip0_8215_2672">
<rect width="36.666" height="60.3702" fill="white" transform="matrix(-1 0 0 1 36.666 0)"/>
</clipPath>
<clipPath id="clip1_8215_2672">
<rect width="36.666" height="60.3702" fill="white" transform="translate(143.666)"/>
</clipPath>
</defs>
</svg>
