<svg width="201" height="61" viewBox="0 0 201 61" fill="none" xmlns="http://www.w3.org/2000/svg">
<path d="M48.7306 15V6.06H50.0506L53.4106 10.716H52.7506L56.0506 6.06H57.3706V15H55.9666V7.728L56.4946 7.872L53.1226 12.48H52.9786L49.6786 7.872L50.1466 7.728V15H48.7306ZM63.5629 15.144C62.9149 15.144 62.3109 15.028 61.7509 14.796C61.1989 14.564 60.7109 14.24 60.2869 13.824C59.8709 13.408 59.5429 12.92 59.3029 12.36C59.0709 11.8 58.9549 11.188 58.9549 10.524C58.9549 9.86 59.0709 9.248 59.3029 8.688C59.5429 8.12 59.8709 7.632 60.2869 7.224C60.7029 6.808 61.1909 6.488 61.7509 6.264C62.3109 6.032 62.9149 5.916 63.5629 5.916C64.2189 5.916 64.8229 6.032 65.3749 6.264C65.9349 6.488 66.4229 6.808 66.8389 7.224C67.2629 7.64 67.5909 8.128 67.8229 8.688C68.0549 9.248 68.1709 9.86 68.1709 10.524C68.1709 11.188 68.0509 11.8 67.8109 12.36C67.5789 12.92 67.2549 13.408 66.8389 13.824C66.4229 14.24 65.9349 14.564 65.3749 14.796C64.8149 15.028 64.2109 15.144 63.5629 15.144ZM63.5629 13.848C64.0269 13.848 64.4509 13.764 64.8349 13.596C65.2269 13.428 65.5669 13.196 65.8549 12.9C66.1429 12.596 66.3669 12.244 66.5269 11.844C66.6869 11.436 66.7669 10.996 66.7669 10.524C66.7669 10.052 66.6869 9.616 66.5269 9.216C66.3669 8.816 66.1429 8.464 65.8549 8.16C65.5669 7.856 65.2269 7.62 64.8349 7.452C64.4509 7.284 64.0269 7.2 63.5629 7.2C63.0989 7.2 62.6709 7.284 62.2789 7.452C61.8949 7.62 61.5589 7.856 61.2709 8.16C60.9829 8.464 60.7589 8.816 60.5989 9.216C60.4469 9.616 60.3709 10.052 60.3709 10.524C60.3709 10.996 60.4469 11.436 60.5989 11.844C60.7589 12.244 60.9829 12.596 61.2709 12.9C61.5589 13.196 61.8989 13.428 62.2909 13.596C62.6829 13.764 63.1069 13.848 63.5629 13.848ZM72.8861 15.144C72.3261 15.144 71.8061 15.04 71.3261 14.832C70.8461 14.616 70.4381 14.324 70.1021 13.956C69.7661 13.588 69.5181 13.164 69.3581 12.684L70.5581 12.18C70.7741 12.732 71.0901 13.156 71.5061 13.452C71.9221 13.748 72.4021 13.896 72.9461 13.896C73.2661 13.896 73.5461 13.848 73.7861 13.752C74.0261 13.648 74.2101 13.504 74.3381 13.32C74.4741 13.136 74.5421 12.924 74.5421 12.684C74.5421 12.356 74.4501 12.096 74.2661 11.904C74.0821 11.712 73.8101 11.56 73.4501 11.448L71.7701 10.92C71.0981 10.712 70.5861 10.396 70.2341 9.972C69.8821 9.54 69.7061 9.036 69.7061 8.46C69.7061 7.956 69.8301 7.516 70.0781 7.14C70.3261 6.756 70.6661 6.456 71.0981 6.24C71.5381 6.024 72.0381 5.916 72.5981 5.916C73.1341 5.916 73.6221 6.012 74.0621 6.204C74.5021 6.388 74.8781 6.644 75.1901 6.972C75.5101 7.3 75.7421 7.68 75.8861 8.112L74.7101 8.628C74.5341 8.156 74.2581 7.792 73.8821 7.536C73.5141 7.28 73.0861 7.152 72.5981 7.152C72.3021 7.152 72.0421 7.204 71.8181 7.308C71.5941 7.404 71.4181 7.548 71.2901 7.74C71.1701 7.924 71.1101 8.14 71.1101 8.388C71.1101 8.676 71.2021 8.932 71.3861 9.156C71.5701 9.38 71.8501 9.548 72.2261 9.66L73.7861 10.152C74.4981 10.368 75.0341 10.68 75.3941 11.088C75.7541 11.488 75.9341 11.988 75.9341 12.588C75.9341 13.084 75.8021 13.524 75.5381 13.908C75.2821 14.292 74.9261 14.596 74.4701 14.82C74.0141 15.036 73.4861 15.144 72.8861 15.144ZM79.1076 15V7.32H76.7316V6.06H82.8516V7.32H80.5116V15H79.1076ZM86.008 15V6.06H89.26C89.86 6.06 90.388 6.172 90.844 6.396C91.3 6.612 91.656 6.932 91.912 7.356C92.176 7.772 92.308 8.272 92.308 8.856C92.308 9.472 92.152 10 91.84 10.44C91.536 10.88 91.124 11.2 90.604 11.4L92.668 15H91.06L88.864 11.1L89.788 11.64H87.424V15H86.008ZM87.424 10.38H89.284C89.612 10.38 89.896 10.316 90.136 10.188C90.376 10.06 90.56 9.884 90.688 9.66C90.824 9.428 90.892 9.156 90.892 8.844C90.892 8.532 90.824 8.264 90.688 8.04C90.56 7.808 90.376 7.632 90.136 7.512C89.896 7.384 89.612 7.32 89.284 7.32H87.424V10.38ZM93.8595 15V6.06H99.7515V7.32H95.2755V9.888H99.5115V11.148H95.2755V13.74H99.7515V15H93.8595ZM101.067 15V6.06H104.319C104.919 6.06 105.447 6.172 105.903 6.396C106.367 6.612 106.727 6.932 106.983 7.356C107.239 7.772 107.367 8.272 107.367 8.856C107.367 9.432 107.235 9.928 106.971 10.344C106.715 10.76 106.359 11.08 105.903 11.304C105.447 11.528 104.919 11.64 104.319 11.64H102.483V15H101.067ZM102.483 10.38H104.355C104.675 10.38 104.955 10.316 105.195 10.188C105.435 10.06 105.623 9.884 105.759 9.66C105.895 9.428 105.963 9.156 105.963 8.844C105.963 8.532 105.895 8.264 105.759 8.04C105.623 7.808 105.435 7.632 105.195 7.512C104.955 7.384 104.675 7.32 104.355 7.32H102.483V10.38ZM112.172 15.144C111.508 15.144 110.916 15.004 110.396 14.724C109.884 14.444 109.48 14.06 109.184 13.572C108.896 13.084 108.752 12.528 108.752 11.904V6.06H110.168V11.844C110.168 12.236 110.252 12.584 110.42 12.888C110.596 13.192 110.832 13.428 111.128 13.596C111.432 13.764 111.78 13.848 112.172 13.848C112.572 13.848 112.92 13.764 113.216 13.596C113.52 13.428 113.756 13.192 113.924 12.888C114.1 12.584 114.188 12.236 114.188 11.844V6.06H115.592V11.904C115.592 12.528 115.448 13.084 115.16 13.572C114.872 14.06 114.468 14.444 113.948 14.724C113.436 15.004 112.844 15.144 112.172 15.144ZM118.951 15V7.32H116.575V6.06H122.695V7.32H120.355V15H118.951ZM122.364 15L125.508 6.06H127.26L130.404 15H128.892L128.208 12.996H124.572L123.876 15H122.364ZM124.98 11.736H127.776L126.192 7.056H126.588L124.98 11.736ZM131.465 15V6.06H135.233C135.793 6.06 136.277 6.16 136.685 6.36C137.093 6.552 137.405 6.832 137.621 7.2C137.837 7.56 137.945 7.988 137.945 8.484C137.945 8.916 137.833 9.312 137.609 9.672C137.393 10.024 137.053 10.304 136.589 10.512V9.912C136.997 10.072 137.329 10.276 137.585 10.524C137.841 10.764 138.025 11.036 138.137 11.34C138.257 11.644 138.317 11.964 138.317 12.3C138.317 13.14 138.041 13.8 137.489 14.28C136.945 14.76 136.197 15 135.245 15H131.465ZM132.881 13.74H135.353C135.825 13.74 136.201 13.612 136.481 13.356C136.761 13.092 136.901 12.744 136.901 12.312C136.901 11.872 136.761 11.524 136.481 11.268C136.201 11.004 135.825 10.872 135.353 10.872H132.881V13.74ZM132.881 9.624H135.269C135.653 9.624 135.961 9.516 136.193 9.3C136.425 9.076 136.541 8.784 136.541 8.424C136.541 8.064 136.425 7.784 136.193 7.584C135.961 7.384 135.653 7.284 135.269 7.284H132.881V9.624ZM139.774 15V6.06H141.19V13.74H145.054V15H139.774ZM146.242 15V6.06H152.134V7.32H147.658V9.888H151.894V11.148H147.658V13.74H152.134V15H146.242ZM55.0588 33V24.06H60.8788V25.32H56.4748V28.008H60.3988V29.268H56.4748V33H55.0588ZM66.2934 33.144C65.6454 33.144 65.0414 33.028 64.4814 32.796C63.9294 32.564 63.4414 32.24 63.0174 31.824C62.6014 31.408 62.2734 30.92 62.0334 30.36C61.8014 29.8 61.6854 29.188 61.6854 28.524C61.6854 27.86 61.8014 27.248 62.0334 26.688C62.2734 26.12 62.6014 25.632 63.0174 25.224C63.4334 24.808 63.9214 24.488 64.4814 24.264C65.0414 24.032 65.6454 23.916 66.2934 23.916C66.9494 23.916 67.5534 24.032 68.1054 24.264C68.6654 24.488 69.1534 24.808 69.5694 25.224C69.9934 25.64 70.3214 26.128 70.5534 26.688C70.7854 27.248 70.9014 27.86 70.9014 28.524C70.9014 29.188 70.7814 29.8 70.5414 30.36C70.3094 30.92 69.9854 31.408 69.5694 31.824C69.1534 32.24 68.6654 32.564 68.1054 32.796C67.5454 33.028 66.9414 33.144 66.2934 33.144ZM66.2934 31.848C66.7574 31.848 67.1814 31.764 67.5654 31.596C67.9574 31.428 68.2974 31.196 68.5854 30.9C68.8734 30.596 69.0974 30.244 69.2574 29.844C69.4174 29.436 69.4974 28.996 69.4974 28.524C69.4974 28.052 69.4174 27.616 69.2574 27.216C69.0974 26.816 68.8734 26.464 68.5854 26.16C68.2974 25.856 67.9574 25.62 67.5654 25.452C67.1814 25.284 66.7574 25.2 66.2934 25.2C65.8294 25.2 65.4014 25.284 65.0094 25.452C64.6254 25.62 64.2894 25.856 64.0014 26.16C63.7134 26.464 63.4894 26.816 63.3294 27.216C63.1774 27.616 63.1014 28.052 63.1014 28.524C63.1014 28.996 63.1774 29.436 63.3294 29.844C63.4894 30.244 63.7134 30.596 64.0014 30.9C64.2894 31.196 64.6294 31.428 65.0214 31.596C65.4134 31.764 65.8374 31.848 66.2934 31.848ZM72.4845 33V24.06H75.7365C76.3365 24.06 76.8645 24.172 77.3205 24.396C77.7765 24.612 78.1325 24.932 78.3885 25.356C78.6525 25.772 78.7845 26.272 78.7845 26.856C78.7845 27.472 78.6285 28 78.3165 28.44C78.0125 28.88 77.6005 29.2 77.0805 29.4L79.1445 33H77.5365L75.3405 29.1L76.2645 29.64H73.9005V33H72.4845ZM73.9005 28.38H75.7605C76.0885 28.38 76.3725 28.316 76.6125 28.188C76.8525 28.06 77.0365 27.884 77.1645 27.66C77.3005 27.428 77.3685 27.156 77.3685 26.844C77.3685 26.532 77.3005 26.264 77.1645 26.04C77.0365 25.808 76.8525 25.632 76.6125 25.512C76.3725 25.384 76.0885 25.32 75.7605 25.32H73.9005V28.38ZM80.3361 33V24.06H86.2281V25.32H81.7521V27.888H85.9881V29.148H81.7521V31.74H86.2281V33H80.3361ZM86.7511 33L89.6671 28.476L86.7991 24.06H88.4071L90.8071 27.756H90.1231L92.4991 24.06H94.1071L91.2511 28.476L94.1671 33H92.5591L90.1231 29.208L90.8071 29.22L88.3471 33H86.7511ZM97.3166 33V24.06H101.085C101.645 24.06 102.129 24.16 102.537 24.36C102.945 24.552 103.257 24.832 103.473 25.2C103.689 25.56 103.797 25.988 103.797 26.484C103.797 26.916 103.685 27.312 103.461 27.672C103.245 28.024 102.905 28.304 102.441 28.512V27.912C102.849 28.072 103.181 28.276 103.437 28.524C103.693 28.764 103.877 29.036 103.989 29.34C104.109 29.644 104.169 29.964 104.169 30.3C104.169 31.14 103.893 31.8 103.341 32.28C102.797 32.76 102.049 33 101.097 33H97.3166ZM98.7326 31.74H101.205C101.677 31.74 102.053 31.612 102.333 31.356C102.613 31.092 102.753 30.744 102.753 30.312C102.753 29.872 102.613 29.524 102.333 29.268C102.053 29.004 101.677 28.872 101.205 28.872H98.7326V31.74ZM98.7326 27.624H101.121C101.505 27.624 101.813 27.516 102.045 27.3C102.277 27.076 102.393 26.784 102.393 26.424C102.393 26.064 102.277 25.784 102.045 25.584C101.813 25.384 101.505 25.284 101.121 25.284H98.7326V27.624ZM105.625 33V24.06H108.877C109.477 24.06 110.005 24.172 110.461 24.396C110.917 24.612 111.273 24.932 111.529 25.356C111.793 25.772 111.925 26.272 111.925 26.856C111.925 27.472 111.769 28 111.457 28.44C111.153 28.88 110.741 29.2 110.221 29.4L112.285 33H110.677L108.481 29.1L109.405 29.64H107.041V33H105.625ZM107.041 28.38H108.901C109.229 28.38 109.513 28.316 109.753 28.188C109.993 28.06 110.177 27.884 110.305 27.66C110.441 27.428 110.509 27.156 110.509 26.844C110.509 26.532 110.441 26.264 110.305 26.04C110.177 25.808 109.993 25.632 109.753 25.512C109.513 25.384 109.229 25.32 108.901 25.32H107.041V28.38ZM117.821 33.144C117.173 33.144 116.569 33.028 116.009 32.796C115.457 32.564 114.969 32.24 114.545 31.824C114.129 31.408 113.801 30.92 113.561 30.36C113.329 29.8 113.213 29.188 113.213 28.524C113.213 27.86 113.329 27.248 113.561 26.688C113.801 26.12 114.129 25.632 114.545 25.224C114.961 24.808 115.449 24.488 116.009 24.264C116.569 24.032 117.173 23.916 117.821 23.916C118.477 23.916 119.081 24.032 119.633 24.264C120.193 24.488 120.681 24.808 121.097 25.224C121.521 25.64 121.849 26.128 122.081 26.688C122.313 27.248 122.429 27.86 122.429 28.524C122.429 29.188 122.309 29.8 122.069 30.36C121.837 30.92 121.513 31.408 121.097 31.824C120.681 32.24 120.193 32.564 119.633 32.796C119.073 33.028 118.469 33.144 117.821 33.144ZM117.821 31.848C118.285 31.848 118.709 31.764 119.093 31.596C119.485 31.428 119.825 31.196 120.113 30.9C120.401 30.596 120.625 30.244 120.785 29.844C120.945 29.436 121.025 28.996 121.025 28.524C121.025 28.052 120.945 27.616 120.785 27.216C120.625 26.816 120.401 26.464 120.113 26.16C119.825 25.856 119.485 25.62 119.093 25.452C118.709 25.284 118.285 25.2 117.821 25.2C117.357 25.2 116.929 25.284 116.537 25.452C116.153 25.62 115.817 25.856 115.529 26.16C115.241 26.464 115.017 26.816 114.857 27.216C114.705 27.616 114.629 28.052 114.629 28.524C114.629 28.996 114.705 29.436 114.857 29.844C115.017 30.244 115.241 30.596 115.529 30.9C115.817 31.196 116.157 31.428 116.549 31.596C116.941 31.764 117.365 31.848 117.821 31.848ZM124.012 33V24.06H125.428V28.908L125.056 28.764L129.1 24.06H130.864L127.288 28.248L127.36 27.24L131.008 33H129.34L126.724 28.908L125.428 30.42V33H124.012ZM132.063 33V24.06H137.955V25.32H133.479V27.888H137.715V29.148H133.479V31.74H137.955V33H132.063ZM139.27 33V24.06H142.522C143.122 24.06 143.65 24.172 144.106 24.396C144.562 24.612 144.918 24.932 145.174 25.356C145.438 25.772 145.57 26.272 145.57 26.856C145.57 27.472 145.414 28 145.102 28.44C144.798 28.88 144.386 29.2 143.866 29.4L145.93 33H144.322L142.126 29.1L143.05 29.64H140.686V33H139.27ZM140.686 28.38H142.546C142.874 28.38 143.158 28.316 143.398 28.188C143.638 28.06 143.822 27.884 143.95 27.66C144.086 27.428 144.154 27.156 144.154 26.844C144.154 26.532 144.086 26.264 143.95 26.04C143.822 25.808 143.638 25.632 143.398 25.512C143.158 25.384 142.874 25.32 142.546 25.32H140.686V28.38Z" fill="#0D0D4B"/>
<path d="M51.0203 51V45.04H54.9003V45.88H51.9643V47.672H54.5803V48.512H51.9643V51H51.0203ZM58.51 51.096C58.078 51.096 57.6754 51.0187 57.302 50.864C56.934 50.7093 56.6087 50.4933 56.326 50.216C56.0487 49.9387 55.83 49.6133 55.67 49.24C55.5154 48.8667 55.438 48.4587 55.438 48.016C55.438 47.5733 55.5154 47.1653 55.67 46.792C55.83 46.4133 56.0487 46.088 56.326 45.816C56.6034 45.5387 56.9287 45.3253 57.302 45.176C57.6754 45.0213 58.078 44.944 58.51 44.944C58.9474 44.944 59.35 45.0213 59.718 45.176C60.0914 45.3253 60.4167 45.5387 60.694 45.816C60.9767 46.0933 61.1954 46.4187 61.35 46.792C61.5047 47.1653 61.582 47.5733 61.582 48.016C61.582 48.4587 61.502 48.8667 61.342 49.24C61.1874 49.6133 60.9714 49.9387 60.694 50.216C60.4167 50.4933 60.0914 50.7093 59.718 50.864C59.3447 51.0187 58.942 51.096 58.51 51.096ZM58.51 50.232C58.8194 50.232 59.102 50.176 59.358 50.064C59.6194 49.952 59.846 49.7973 60.038 49.6C60.23 49.3973 60.3794 49.1627 60.486 48.896C60.5927 48.624 60.646 48.3307 60.646 48.016C60.646 47.7013 60.5927 47.4107 60.486 47.144C60.3794 46.8773 60.23 46.6427 60.038 46.44C59.846 46.2373 59.6194 46.08 59.358 45.968C59.102 45.856 58.8194 45.8 58.51 45.8C58.2007 45.8 57.9154 45.856 57.654 45.968C57.398 46.08 57.174 46.2373 56.982 46.44C56.79 46.6427 56.6407 46.8773 56.534 47.144C56.4327 47.4107 56.382 47.7013 56.382 48.016C56.382 48.3307 56.4327 48.624 56.534 48.896C56.6407 49.1627 56.79 49.3973 56.982 49.6C57.174 49.7973 57.4007 49.952 57.662 50.064C57.9234 50.176 58.206 50.232 58.51 50.232ZM62.6375 51V45.04H64.8055C65.2055 45.04 65.5575 45.1147 65.8615 45.264C66.1655 45.408 66.4028 45.6213 66.5735 45.904C66.7495 46.1813 66.8375 46.5147 66.8375 46.904C66.8375 47.3147 66.7335 47.6667 66.5255 47.96C66.3228 48.2533 66.0482 48.4667 65.7015 48.6L67.0775 51H66.0055L64.5415 48.4L65.1575 48.76H63.5815V51H62.6375ZM63.5815 47.92H64.8215C65.0402 47.92 65.2295 47.8773 65.3895 47.792C65.5495 47.7067 65.6722 47.5893 65.7575 47.44C65.8482 47.2853 65.8935 47.104 65.8935 46.896C65.8935 46.688 65.8482 46.5093 65.7575 46.36C65.6722 46.2053 65.5495 46.088 65.3895 46.008C65.2295 45.9227 65.0402 45.88 64.8215 45.88H63.5815V47.92ZM67.8719 51V45.04H71.7999V45.88H68.8159V47.592H71.6399V48.432H68.8159V50.16H71.7999V51H67.8719ZM72.1485 51L74.0925 47.984L72.1805 45.04H73.2525L74.8525 47.504H74.3965L75.9805 45.04H77.0525L75.1485 47.984L77.0925 51H76.0205L74.3965 48.472L74.8525 48.48L73.2125 51H72.1485ZM79.1922 51V45.04H83.1202V45.88H80.1362V47.592H82.9602V48.432H80.1362V50.16H83.1202V51H79.1922ZM83.4689 51L85.4129 47.984L83.5009 45.04H84.5729L86.1729 47.504H85.7169L87.3009 45.04H88.3729L86.4689 47.984L88.4129 51H87.3409L85.7169 48.472L86.1729 48.48L84.5329 51H83.4689ZM89.114 51V45.04H91.282C91.682 45.04 92.034 45.1147 92.338 45.264C92.6474 45.408 92.8874 45.6213 93.058 45.904C93.2287 46.1813 93.314 46.5147 93.314 46.904C93.314 47.288 93.226 47.6187 93.05 47.896C92.8794 48.1733 92.642 48.3867 92.338 48.536C92.034 48.6853 91.682 48.76 91.282 48.76H90.058V51H89.114ZM90.058 47.92H91.306C91.5194 47.92 91.706 47.8773 91.866 47.792C92.026 47.7067 92.1514 47.5893 92.242 47.44C92.3327 47.2853 92.378 47.104 92.378 46.896C92.378 46.688 92.3327 46.5093 92.242 46.36C92.1514 46.2053 92.026 46.088 91.866 46.008C91.706 45.9227 91.5194 45.88 91.306 45.88H90.058V47.92ZM97.1819 51.096C96.7499 51.096 96.3473 51.0187 95.9739 50.864C95.6059 50.7093 95.2806 50.4933 94.9979 50.216C94.7206 49.9387 94.5019 49.6133 94.3419 49.24C94.1873 48.8667 94.1099 48.4587 94.1099 48.016C94.1099 47.5733 94.1873 47.1653 94.3419 46.792C94.5019 46.4133 94.7206 46.088 94.9979 45.816C95.2753 45.5387 95.6006 45.3253 95.9739 45.176C96.3473 45.0213 96.7499 44.944 97.1819 44.944C97.6193 44.944 98.0219 45.0213 98.3899 45.176C98.7633 45.3253 99.0886 45.5387 99.3659 45.816C99.6486 46.0933 99.8673 46.4187 100.022 46.792C100.177 47.1653 100.254 47.5733 100.254 48.016C100.254 48.4587 100.174 48.8667 100.014 49.24C99.8593 49.6133 99.6433 49.9387 99.3659 50.216C99.0886 50.4933 98.7633 50.7093 98.3899 50.864C98.0166 51.0187 97.6139 51.096 97.1819 51.096ZM97.1819 50.232C97.4913 50.232 97.7739 50.176 98.0299 50.064C98.2913 49.952 98.5179 49.7973 98.7099 49.6C98.9019 49.3973 99.0513 49.1627 99.1579 48.896C99.2646 48.624 99.3179 48.3307 99.3179 48.016C99.3179 47.7013 99.2646 47.4107 99.1579 47.144C99.0513 46.8773 98.9019 46.6427 98.7099 46.44C98.5179 46.2373 98.2913 46.08 98.0299 45.968C97.7739 45.856 97.4913 45.8 97.1819 45.8C96.8726 45.8 96.5873 45.856 96.3259 45.968C96.0699 46.08 95.8459 46.2373 95.6539 46.44C95.4619 46.6427 95.3126 46.8773 95.2059 47.144C95.1046 47.4107 95.0539 47.7013 95.0539 48.016C95.0539 48.3307 95.1046 48.624 95.2059 48.896C95.3126 49.1627 95.4619 49.3973 95.6539 49.6C95.8459 49.7973 96.0726 49.952 96.3339 50.064C96.5953 50.176 96.8779 50.232 97.1819 50.232ZM102.708 51V45.04H104.66C105.278 45.04 105.814 45.1653 106.268 45.416C106.726 45.6613 107.081 46.008 107.332 46.456C107.582 46.904 107.708 47.424 107.708 48.016C107.708 48.6027 107.582 49.1227 107.332 49.576C107.081 50.024 106.726 50.3733 106.268 50.624C105.814 50.8747 105.278 51 104.66 51H102.708ZM103.652 50.16H104.676C105.097 50.16 105.462 50.072 105.772 49.896C106.086 49.72 106.329 49.472 106.5 49.152C106.67 48.832 106.756 48.4533 106.756 48.016C106.756 47.5787 106.668 47.2027 106.492 46.888C106.321 46.568 106.081 46.32 105.772 46.144C105.462 45.968 105.097 45.88 104.676 45.88H103.652V50.16ZM110.869 51.096C110.427 51.096 110.032 51.0027 109.685 50.816C109.344 50.6293 109.075 50.3733 108.877 50.048C108.685 49.7227 108.589 49.352 108.589 48.936V45.04H109.533V48.896C109.533 49.1573 109.589 49.3893 109.701 49.592C109.819 49.7947 109.976 49.952 110.173 50.064C110.376 50.176 110.608 50.232 110.869 50.232C111.136 50.232 111.368 50.176 111.565 50.064C111.768 49.952 111.925 49.7947 112.037 49.592C112.155 49.3893 112.213 49.1573 112.213 48.896V45.04H113.149V48.936C113.149 49.352 113.053 49.7227 112.861 50.048C112.669 50.3733 112.4 50.6293 112.053 50.816C111.712 51.0027 111.317 51.096 110.869 51.096ZM114.333 51V45.04H116.845C117.218 45.04 117.541 45.1067 117.813 45.24C118.085 45.368 118.293 45.5547 118.437 45.8C118.581 46.04 118.653 46.3253 118.653 46.656C118.653 46.944 118.578 47.208 118.429 47.448C118.285 47.6827 118.058 47.8693 117.749 48.008V47.608C118.021 47.7147 118.242 47.8507 118.413 48.016C118.583 48.176 118.706 48.3573 118.781 48.56C118.861 48.7627 118.901 48.976 118.901 49.2C118.901 49.76 118.717 50.2 118.349 50.52C117.986 50.84 117.487 51 116.853 51H114.333ZM115.277 50.16H116.925C117.239 50.16 117.49 50.0747 117.677 49.904C117.863 49.728 117.957 49.496 117.957 49.208C117.957 48.9147 117.863 48.6827 117.677 48.512C117.49 48.336 117.239 48.248 116.925 48.248H115.277V50.16ZM115.277 47.416H116.869C117.125 47.416 117.33 47.344 117.485 47.2C117.639 47.0507 117.717 46.856 117.717 46.616C117.717 46.376 117.639 46.1893 117.485 46.056C117.33 45.9227 117.125 45.856 116.869 45.856H115.277V47.416ZM119.344 51L121.44 45.04H122.608L124.704 51H123.696L123.24 49.664H120.816L120.352 51H119.344ZM121.088 48.824H122.952L121.896 45.704H122.16L121.088 48.824ZM125.411 51V45.04H126.355V51H125.411ZM128.773 51V50.32L130.405 48.576C130.725 48.2347 130.976 47.96 131.157 47.752C131.344 47.5387 131.477 47.352 131.557 47.192C131.642 47.032 131.685 46.864 131.685 46.688C131.685 46.4 131.597 46.1787 131.421 46.024C131.245 45.864 131.018 45.784 130.741 45.784C130.453 45.784 130.205 45.8667 129.997 46.032C129.789 46.192 129.645 46.4267 129.565 46.736L128.733 46.496C128.797 46.1813 128.925 45.9093 129.117 45.68C129.309 45.4453 129.544 45.264 129.821 45.136C130.104 45.008 130.408 44.944 130.733 44.944C131.112 44.944 131.442 45.016 131.725 45.16C132.008 45.2987 132.226 45.4933 132.381 45.744C132.541 45.9947 132.621 46.2853 132.621 46.616C132.621 46.8347 132.578 47.048 132.493 47.256C132.413 47.4587 132.288 47.6747 132.117 47.904C131.946 48.128 131.728 48.3813 131.461 48.664L130.021 50.2H132.733V51H128.773ZM136.026 51.096C135.552 51.096 135.136 50.968 134.778 50.712C134.421 50.4507 134.141 50.0907 133.938 49.632C133.741 49.168 133.642 48.6293 133.642 48.016C133.642 47.3973 133.741 46.8587 133.938 46.4C134.141 45.9413 134.418 45.584 134.77 45.328C135.128 45.072 135.544 44.944 136.018 44.944C136.493 44.944 136.906 45.072 137.258 45.328C137.616 45.584 137.893 45.944 138.09 46.408C138.293 46.8667 138.394 47.4027 138.394 48.016C138.394 48.6293 138.296 49.168 138.098 49.632C137.901 50.0907 137.624 50.4507 137.266 50.712C136.914 50.968 136.501 51.096 136.026 51.096ZM136.026 50.232C136.32 50.232 136.573 50.1413 136.786 49.96C137 49.7787 137.165 49.5227 137.282 49.192C137.4 48.8613 137.458 48.4693 137.458 48.016C137.458 47.5627 137.4 47.1707 137.282 46.84C137.165 46.5093 137 46.2533 136.786 46.072C136.573 45.8907 136.317 45.8 136.018 45.8C135.725 45.8 135.472 45.8907 135.258 46.072C135.045 46.2533 134.88 46.5093 134.762 46.84C134.645 47.1707 134.586 47.5627 134.586 48.016C134.586 48.464 134.645 48.856 134.762 49.192C134.88 49.5227 135.045 49.7787 135.258 49.96C135.477 50.1413 135.733 50.232 136.026 50.232ZM139.281 51V50.32L140.913 48.576C141.233 48.2347 141.484 47.96 141.665 47.752C141.852 47.5387 141.985 47.352 142.065 47.192C142.15 47.032 142.193 46.864 142.193 46.688C142.193 46.4 142.105 46.1787 141.929 46.024C141.753 45.864 141.526 45.784 141.249 45.784C140.961 45.784 140.713 45.8667 140.505 46.032C140.297 46.192 140.153 46.4267 140.073 46.736L139.241 46.496C139.305 46.1813 139.433 45.9093 139.625 45.68C139.817 45.4453 140.052 45.264 140.329 45.136C140.612 45.008 140.916 44.944 141.241 44.944C141.62 44.944 141.95 45.016 142.233 45.16C142.516 45.2987 142.734 45.4933 142.889 45.744C143.049 45.9947 143.129 46.2853 143.129 46.616C143.129 46.8347 143.086 47.048 143.001 47.256C142.921 47.4587 142.796 47.6747 142.625 47.904C142.454 48.128 142.236 48.3813 141.969 48.664L140.529 50.2H143.241V51H139.281ZM146.054 51.096C145.739 51.096 145.443 51.04 145.166 50.928C144.889 50.8107 144.649 50.648 144.446 50.44C144.243 50.232 144.099 49.9813 144.014 49.688L144.806 49.384C144.907 49.6667 145.073 49.8827 145.302 50.032C145.531 50.1813 145.782 50.256 146.054 50.256C146.278 50.256 146.475 50.2053 146.646 50.104C146.817 50.0027 146.95 49.864 147.046 49.688C147.147 49.512 147.198 49.312 147.198 49.088C147.198 48.8587 147.147 48.6587 147.046 48.488C146.95 48.312 146.817 48.176 146.646 48.08C146.475 47.9787 146.278 47.928 146.054 47.928C145.83 47.928 145.625 47.9787 145.438 48.08C145.251 48.1813 145.115 48.3173 145.03 48.488L144.27 48.32L144.734 45.04H147.91V45.84H145.102L145.462 45.448L145.118 47.96L144.822 47.76C144.982 47.536 145.177 47.3733 145.406 47.272C145.635 47.1707 145.897 47.12 146.19 47.12C146.579 47.12 146.918 47.208 147.206 47.384C147.499 47.5547 147.726 47.7893 147.886 48.088C148.051 48.3813 148.134 48.7147 148.134 49.088C148.134 49.4667 148.043 49.808 147.862 50.112C147.681 50.416 147.433 50.656 147.118 50.832C146.809 51.008 146.454 51.096 146.054 51.096Z" fill="#0047BB"/>
<g clip-path="url(#clip0_8215_2651)">
<path d="M4.4833 32.3503C7.40747 34.6016 7.47599 37.19 7.24842 38.5492C7.68154 39.2536 8.86345 39.9801 9.53882 40.353C8.19296 37.6154 7.19214 34.6237 6.53634 31.3917C5.85118 30.9663 4.75981 29.8779 4.04773 29.1293C3.57301 29.0878 2.58197 28.9027 1.19941 26.9359C-0.745968 24.1652 0.262203 19.5215 0.262203 19.5215L0.790756 19.7978C1.84297 20.3447 2.79486 21.1182 3.56078 22.0989C5.74106 24.9 5.26879 27.2591 4.78428 28.4276C5.0143 29.1293 5.83405 30.0188 6.37484 30.5519C5.79 27.342 5.53796 23.9027 5.62605 20.2425C5.11463 19.6956 4.40744 18.5906 3.94495 17.8309C3.54364 17.6928 2.7239 17.3171 1.87233 15.3226C0.673298 12.5188 2.33727 8.74528 2.33727 8.74528L2.74592 9.09611C3.55588 9.795 4.24349 10.6679 4.73289 11.679C6.12769 14.563 5.31772 16.4856 4.70108 17.3862C4.77449 18.0105 5.28102 18.9 5.65297 19.4801C5.76308 16.4386 6.09833 13.248 6.66848 9.91931C6.4874 9.64031 5.80468 8.96075 6.19621 6.016C6.67337 2.40826 10.4858 -0.00610352 10.4858 -0.00610352L10.6742 0.637543C11.0511 1.91931 11.2052 3.2729 11.0878 4.61821C10.7012 9.05467 8.06817 9.87788 7.07468 10.0326C7.00861 10.4884 6.91318 11.0712 6.85445 11.7398C6.74923 12.9359 6.53144 14.69 6.38218 16.8309C6.53879 16.69 6.73699 16.5105 6.93275 16.3309C6.78593 15.9442 6.58773 15.0933 7.31938 13.0657C8.39362 10.0961 12.0935 8.9276 12.0935 8.9276L12.1375 9.52152C12.2232 10.7038 12.1057 11.9 11.7583 13.0188C10.733 16.3282 8.70439 16.7453 7.65952 16.7259C7.25087 16.9331 6.73944 17.2259 6.33324 17.5851C6.16195 20.4801 6.14237 23.9939 6.66603 27.7619C6.82264 27.516 7.01595 27.2121 7.19948 26.9221C6.94744 26.469 6.6538 25.5491 6.86669 23.469C7.23129 19.911 10.9018 17.3972 10.9018 17.3972L11.1074 18.0243C11.5136 19.2674 11.7069 20.5933 11.631 21.9165C11.3839 26.2453 8.87323 27.1762 7.87975 27.3751C7.52248 27.7149 7.11139 28.1569 6.79572 28.6265C7.28023 31.6514 8.12689 34.8199 9.53637 37.9442C9.60978 37.7094 9.69543 37.4414 9.77863 37.179C9.42626 36.8337 8.9026 36.0519 8.59183 33.9387C8.07306 30.4027 10.9899 26.8475 10.9899 26.8475L11.3398 27.3862C12.0348 28.4552 12.5413 29.6679 12.7933 30.9635C13.6058 35.1735 11.4499 36.8558 10.5348 37.3668C10.3072 37.7563 10.0649 38.2232 9.88874 38.6983C11.3202 41.6707 13.2754 44.5906 15.928 47.295C15.9206 46.9939 15.9108 46.5795 15.901 46.1707C15.4239 45.9884 14.6041 45.4469 13.525 43.3862C11.7583 40.0132 13.4858 35.0878 13.4858 35.0878L14.0315 35.4801C15.1131 36.2591 16.0577 37.2701 16.7648 38.4801C19.0503 42.3779 17.4843 45.0436 16.7257 45.9939C16.6156 46.5768 16.525 47.2757 16.5446 47.911C18.6099 49.911 21.0716 51.7867 24.0055 53.4663C23.9615 53.1817 23.8905 52.7149 23.8171 52.2508C23.3644 52.1983 22.4395 51.9414 20.9468 49.8641C18.7592 46.8226 19.8261 41.6624 19.8261 41.6624L20.4158 41.9608C21.5879 42.5519 22.6523 43.3945 23.5112 44.4746C26.0464 47.6596 25.2511 50.3558 24.6173 51.6072C24.5684 52.2619 24.5512 53.1099 24.6736 53.8447C27.8278 55.5795 31.5081 57.0933 35.7952 58.3088C36.1623 58.4138 36.4633 58.6928 36.6003 59.0574C36.708 59.3475 36.7838 59.7812 36.1868 60.2177C36.0448 60.3226 35.8564 60.3724 35.6142 60.3724C34.535 60.3724 32.7242 59.3806 30.4289 58.1293C29.1271 57.4166 27.6491 56.6099 26.0733 55.8641L25.9925 55.8254C24.9672 56.1817 23.3816 56.4663 22.2413 56.6403C21.9305 56.9967 21.1841 58.1624 18.167 58.0961C14.45 58.0132 11.445 53.4608 11.445 53.4608L12.069 53.121C13.3072 52.4469 14.6555 52.0464 16.0307 51.9967C19.5667 51.8724 21.1792 53.7094 21.8889 55.0878C21.9525 55.1044 22.0161 55.1265 22.0773 55.1541C22.7355 55.4442 23.8563 55.3779 24.7861 55.248C22.8212 54.284 19.8799 52.6873 16.8872 50.0271C15.9989 50.1182 14.4573 49.9387 13.4173 49.7895C12.9622 50.1016 11.9516 50.6624 9.5584 49.8889C6.18886 48.8005 4.42457 43.8337 4.42457 43.8337L5.06568 43.6956C6.33813 43.4193 7.65217 43.4193 8.91483 43.7508C12.5168 44.6956 13.4491 47.19 13.6841 48.6099C14.2469 49.0381 15.3505 49.248 16.1457 49.3475C14.6873 47.9663 13.2338 46.3254 11.8928 44.3751C11.1832 43.342 10.5348 42.2619 9.94502 41.1375C9.17422 40.9829 7.64239 40.1016 6.65869 39.4994C6.15461 39.5989 5.08281 39.7066 3.18393 38.0823C0.511799 35.795 0.460407 30.6735 0.460407 30.6735L1.07461 30.8005C2.29567 31.0519 3.46779 31.5657 4.49308 32.3558L4.4833 32.3503Z" fill="#0047BB"/>
</g>
<g clip-path="url(#clip1_8215_2651)">
<path d="M195.849 32.3503C192.925 34.6016 192.857 37.19 193.084 38.5492C192.651 39.2536 191.469 39.9801 190.794 40.353C192.14 37.6154 193.14 34.6237 193.796 31.3917C194.481 30.9663 195.573 29.8779 196.285 29.1293C196.76 29.0878 197.751 28.9027 199.133 26.9359C201.078 24.1652 200.07 19.5215 200.07 19.5215L199.542 19.7978C198.49 20.3447 197.538 21.1182 196.772 22.0989C194.591 24.9 195.064 27.2591 195.548 28.4276C195.318 29.1293 194.498 30.0188 193.958 30.5519C194.543 27.342 194.795 23.9027 194.706 20.2425C195.218 19.6956 195.925 18.5906 196.388 17.8309C196.789 17.6928 197.609 17.3171 198.46 15.3226C199.659 12.5188 197.995 8.74528 197.995 8.74528L197.587 9.09611C196.777 9.795 196.089 10.6679 195.6 11.679C194.205 14.563 195.015 16.4856 195.631 17.3862C195.558 18.0105 195.051 18.9 194.68 19.4801C194.569 16.4386 194.234 13.248 193.664 9.91931C193.845 9.64031 194.528 8.96075 194.136 6.016C193.659 2.40826 189.847 -0.00610352 189.847 -0.00610352L189.658 0.637543C189.281 1.91931 189.127 3.2729 189.245 4.61821C189.631 9.05467 192.264 9.87788 193.258 10.0326C193.324 10.4884 193.419 11.0712 193.478 11.7398C193.583 12.9359 193.801 14.69 193.95 16.8309C193.794 16.69 193.596 16.5105 193.4 16.3309C193.547 15.9442 193.745 15.0933 193.013 13.0657C191.939 10.0961 188.239 8.9276 188.239 8.9276L188.195 9.52152C188.109 10.7038 188.227 11.9 188.574 13.0188C189.6 16.3282 191.628 16.7453 192.673 16.7259C193.082 16.9331 193.593 17.2259 193.999 17.5851C194.171 20.4801 194.19 23.9939 193.666 27.7619C193.51 27.516 193.317 27.2121 193.133 26.9221C193.385 26.469 193.679 25.5491 193.466 23.469C193.101 19.911 189.431 17.3972 189.431 17.3972L189.225 18.0243C188.819 19.2674 188.626 20.5933 188.702 21.9165C188.949 26.2453 191.459 27.1762 192.453 27.3751C192.81 27.7149 193.221 28.1569 193.537 28.6265C193.052 31.6514 192.206 34.8199 190.796 37.9442C190.723 37.7094 190.637 37.4414 190.554 37.179C190.906 36.8337 191.43 36.0519 191.741 33.9387C192.259 30.4027 189.343 26.8475 189.343 26.8475L188.993 27.3862C188.298 28.4552 187.791 29.6679 187.539 30.9635C186.727 35.1735 188.883 36.8558 189.798 37.3668C190.025 37.7563 190.268 38.2232 190.444 38.6983C189.012 41.6707 187.057 44.5906 184.405 47.295C184.412 46.9939 184.422 46.5795 184.431 46.1707C184.909 45.9884 185.728 45.4469 186.808 43.3862C188.574 40.0132 186.847 35.0878 186.847 35.0878L186.301 35.4801C185.219 36.2591 184.275 37.2701 183.568 38.4801C181.282 42.3779 182.848 45.0436 183.607 45.9939C183.717 46.5768 183.807 47.2757 183.788 47.911C181.723 49.911 179.261 51.7867 176.327 53.4663C176.371 53.1817 176.442 52.7149 176.515 52.2508C176.968 52.1983 177.893 51.9414 179.386 49.8641C181.573 46.8226 180.506 41.6624 180.506 41.6624L179.917 41.9608C178.745 42.5519 177.68 43.3945 176.821 44.4746C174.286 47.6596 175.081 50.3558 175.715 51.6072C175.764 52.2619 175.781 53.1099 175.659 53.8447C172.505 55.5795 168.824 57.0933 164.537 58.3088C164.17 58.4138 163.869 58.6928 163.732 59.0574C163.625 59.3475 163.549 59.7812 164.146 60.2177C164.288 60.3226 164.476 60.3724 164.718 60.3724C165.797 60.3724 167.608 59.3806 169.904 58.1293C171.205 57.4166 172.683 56.6099 174.259 55.8641L174.34 55.8254C175.365 56.1817 176.951 56.4663 178.091 56.6403C178.402 56.9967 179.148 58.1624 182.166 58.0961C185.883 58.0132 188.887 53.4608 188.887 53.4608L188.263 53.121C187.025 52.4469 185.677 52.0464 184.302 51.9967C180.766 51.8724 179.153 53.7094 178.444 55.0878C178.38 55.1044 178.316 55.1265 178.255 55.1541C177.597 55.4442 176.476 55.3779 175.546 55.248C177.511 54.284 180.453 52.6873 183.445 50.0271C184.334 50.1182 185.875 49.9387 186.915 49.7895C187.37 50.1016 188.381 50.6624 190.774 49.8889C194.144 48.8005 195.908 43.8337 195.908 43.8337L195.267 43.6956C193.994 43.4193 192.68 43.4193 191.418 43.7508C187.816 44.6956 186.883 47.19 186.648 48.6099C186.086 49.0381 184.982 49.248 184.187 49.3475C185.645 47.9663 187.099 46.3254 188.44 44.3751C189.149 43.342 189.798 42.2619 190.387 41.1375C191.158 40.9829 192.69 40.1016 193.674 39.4994C194.178 39.5989 195.25 39.7066 197.149 38.0823C199.821 35.795 199.872 30.6735 199.872 30.6735L199.258 30.8005C198.037 31.0519 196.865 31.5657 195.839 32.3558L195.849 32.3503Z" fill="#0047BB"/>
</g>
<defs>
<clipPath id="clip0_8215_2651">
<rect width="36.666" height="60.3702" fill="white" transform="matrix(-1 0 0 1 36.666 0)"/>
</clipPath>
<clipPath id="clip1_8215_2651">
<rect width="36.666" height="60.3702" fill="white" transform="translate(163.666)"/>
</clipPath>
</defs>
</svg>
