<svg width="64" height="41" viewBox="0 0 64 41" fill="none" xmlns="http://www.w3.org/2000/svg">
<g clip-path="url(#clip0_4_430)">
<path d="M7.63594 27.6451L14.1265 0H4.33047C1.94055 0 0 1.90494 0 4.24392V36.751C0 39.0938 1.94055 41.0006 4.33047 41.0006H14.1193C16.5086 41.0006 18.4595 39.0932 18.4595 36.751V4.24392C18.4595 1.90494 16.5144 0 14.1265 0" fill="white"/>
<path d="M11.6964 7.51633L11.7068 7.6553C12.0053 7.82599 12.1568 7.96496 12.4579 8.15469C13.2569 8.64711 14.2411 9.52343 14.1168 12.5414C14.3408 13.1994 14.4399 14.4933 14.6464 14.9083C15.0621 15.7167 15.3405 16.2428 15.4616 17.0061C15.4616 17.0061 15.5814 18.194 15.7381 18.2797C16.5643 18.4624 16.3254 18.5424 16.4465 18.6807C16.5747 18.8432 17.0512 18.8356 17.0512 19.2715C17.217 19.4885 17.3394 19.7138 17.4326 19.9486V4.24328C17.4326 2.4532 15.9472 1.00006 14.1265 1.00006H10.9615C11.4698 1.1771 11.7566 1.38587 11.9243 1.71775C12.3329 1.75201 12.8192 2.64991 12.0622 3.9755C12.3976 4.19442 12.1361 4.52122 11.8952 4.90068C11.8246 5.02252 11.7476 5.23827 11.5235 5.22431C11.236 5.81698 10.889 6.39126 10.6267 6.42743C10.5471 6.52325 10.4895 6.77834 10.6093 6.89827C10.9945 7.0677 11.464 7.29994 11.6964 7.51569" fill="#C8102E"/>
<path d="M17.4326 22.0762C17.0033 23.1442 15.9343 23.8987 14.6853 23.8987C13.051 23.8987 11.734 22.6042 11.734 21.0076C11.734 19.6433 12.691 18.4992 13.9892 18.194C13.6486 17.3596 12.9305 16.0073 12.7175 15.5631C12.5155 15.1228 12.0292 12.3726 11.9243 11.8281C11.9004 11.7095 10.6513 12.5388 10.6487 12.5902C10.5756 12.6594 9.71117 14.8721 9.67491 14.9914C9.65743 15.0669 9.65549 15.3626 9.65549 15.3626C9.65549 15.3626 10.0802 15.414 10.325 16.1406C10.5672 16.8665 11.3053 19.5158 11.3053 19.5158C11.3053 19.5158 11.1052 19.7182 11.0968 19.7062C12.0292 22.7647 11.7035 24.0814 12.1218 24.9781C12.6476 26.2421 12.7894 26.0765 13.2407 27.1387C13.5644 27.9129 13.9251 30.9581 14.0455 31.0933C14.5486 31.7183 14.8199 32.2076 14.8199 32.5597C14.8199 32.9119 14.3939 33.9634 14.5493 34.5745C14.6438 34.9336 14.693 35.7395 14.8633 35.8924C14.8633 35.8924 15.02 36.1951 14.943 36.329C14.9209 36.3753 14.8763 36.4458 14.8963 36.501C15.1741 37.4617 16.0696 39.0995 14.6186 39.9568H14.6496C16.2334 39.7163 17.4332 38.385 17.4332 36.7497V22.0756L17.4326 22.0762Z" fill="#C8102E"/>
<path d="M13.7049 36.1279C13.1727 35.6628 13.5282 35.4661 13.5068 35.2827C13.1559 33.8625 12.0053 33.004 12.6003 32.535C12.4533 32.0661 12.1542 31.4772 12.1652 31.4785C10.3716 30.4689 8.84416 28.8299 8.58517 28.5894C8.27048 28.2543 7.735 27.918 7.63399 27.6458C7.20276 27.2574 5.08868 24.3188 4.59658 23.2369L3.73864 23.1182C3.3482 21.5553 2.04544 20.2462 2.01306 18.6795C2.00076 18.0874 2.28695 16.8183 2.39379 16.5651C2.49804 16.3088 2.99726 15.8868 2.99726 15.8868V15.4674C1.12534 15.5194 1.66406 15.3322 1.34096 14.619C1.11433 14.1253 1.27686 14.0168 1.35844 13.6741C1.60967 12.6632 2.44365 11.1041 2.78876 10.396C2.89431 10.0387 3.25496 9.17699 3.25496 9.17699C4.64967 6.39319 5.17091 6.59751 6.82786 6.44078L6.90944 6.32592C8.56963 6.25549 8.29768 6.13302 8.53207 4.56566C8.28991 4.66719 8.21803 4.07515 8.21803 4.07515C8.08594 3.18296 8.46991 3.35239 8.65186 3.33462C8.69071 1.86816 8.84416 1.40684 9.92354 1.00262H4.33175C2.50192 1.00262 1.02045 2.45576 1.02045 4.24775V36.7529C1.02045 38.5468 2.50257 40 4.33175 40H14.1258C13.0043 39.406 13.6661 38.2759 13.7043 36.1298L13.7049 36.1279Z" fill="#1D428A"/>
<path d="M6.18491 37.9548V32.0699H7.34976C8.0238 32.0699 8.44015 32.4246 8.44015 33.2489V34.1227C8.44015 34.6576 8.27374 34.9305 8.03999 35.0625C8.27374 35.2192 8.44015 35.4832 8.44015 35.928V36.7853C8.44015 37.5931 7.99855 37.9554 7.34976 37.9554H6.18491V37.9548ZM6.98392 35.3994V37.213H7.29148C7.56602 37.213 7.64113 37.0727 7.64113 36.7929V35.7954C7.64113 35.5066 7.54983 35.3994 7.28307 35.3994H6.98327H6.98392ZM6.98392 32.811V34.7566H7.28371C7.56667 34.7566 7.64178 34.657 7.64178 34.3365V33.2076C7.64178 32.9354 7.55825 32.8117 7.29213 32.8117H6.98457L6.98392 32.811ZM10.3211 36.7593H9.59722L9.49686 37.9548H8.69008L9.41398 32.0699H10.5626L11.2613 37.9548H10.4208L10.3211 36.7593ZM9.96306 32.7292H9.92162C9.87176 33.438 9.77205 34.6824 9.73838 35.0783L9.64708 36.0917H10.2713L10.1793 35.0783C10.1457 34.6747 10.0298 33.4462 9.96306 32.7292ZM3.80471 37.9548H3.10541V32.0699H4.21263L5.10294 36.8919C5.02783 35.7383 4.92747 34.3448 4.92747 33.1581V32.0699H5.62677V37.9548H4.61149L3.72118 33.2394C3.77945 34.3276 3.80406 35.1938 3.80406 36.1V37.9541L3.80471 37.9548Z" fill="white"/>
<path d="M28.8616 12.8986V13.1321C28.8616 13.5725 28.7988 13.9672 28.6738 14.3168C28.5489 14.6665 28.3714 14.9641 28.1429 15.2109C27.9143 15.4578 27.6437 15.6462 27.3316 15.7763C27.0195 15.9064 26.675 15.9724 26.2982 15.9724C25.9213 15.9724 25.5723 15.907 25.2589 15.7763C24.9455 15.6456 24.6736 15.4571 24.4437 15.2109C24.2139 14.9647 24.0358 14.6665 23.9108 14.3168C23.7859 13.9672 23.7231 13.5725 23.7231 13.1321V12.8986C23.7231 12.4582 23.7859 12.0629 23.9108 11.712C24.0358 11.3611 24.2119 11.0628 24.4392 10.816C24.6665 10.5691 24.9371 10.3807 25.2505 10.2506C25.5639 10.1205 25.9103 10.0545 26.2897 10.0545C26.6692 10.0545 27.0117 10.1199 27.3251 10.2506C27.6385 10.3813 27.9098 10.5698 28.1383 10.816C28.3669 11.0622 28.5443 11.3611 28.6712 11.712C28.7981 12.0629 28.8609 12.4582 28.8609 12.8986H28.8616ZM27.4248 13.1321V12.891C27.4248 12.6061 27.4002 12.3548 27.3503 12.1378C27.3005 11.9207 27.2273 11.738 27.1302 11.5901C27.0331 11.4423 26.9146 11.3312 26.7728 11.2557C26.631 11.1802 26.4704 11.1428 26.2904 11.1428C26.1104 11.1428 25.9381 11.1802 25.7983 11.2557C25.6584 11.3312 25.5412 11.4423 25.4473 11.5901C25.3535 11.738 25.2822 11.9201 25.2356 12.1378C25.189 12.3554 25.165 12.6067 25.165 12.891V13.1321C25.165 13.4145 25.189 13.6639 25.2356 13.8815C25.2822 14.0992 25.3541 14.2832 25.4493 14.4329C25.5445 14.5827 25.663 14.6963 25.8041 14.7731C25.9453 14.8499 26.1104 14.8879 26.2988 14.8879C26.4872 14.8879 26.6394 14.8499 26.7792 14.7731C26.9191 14.6963 27.0369 14.5833 27.1321 14.4329C27.2273 14.2826 27.3005 14.0985 27.3503 13.8815C27.4002 13.6645 27.4248 13.4145 27.4248 13.1321Z" fill="white"/>
<path d="M32.046 11.6136V12.5388H29.2009V11.6136H32.046ZM31.1984 15.8925H29.8302V11.2653C29.8302 10.9328 29.8989 10.6536 30.0361 10.427C30.1734 10.2005 30.367 10.0279 30.6176 9.91112C30.8682 9.79437 31.1641 9.73535 31.5053 9.73535C31.6238 9.73535 31.7352 9.74297 31.8401 9.75883C31.945 9.77469 32.0473 9.79437 32.147 9.81784L32.1509 10.7989C32.1023 10.7855 32.0524 10.7767 32.0013 10.7709C31.9501 10.7652 31.8867 10.7633 31.8116 10.7633C31.6801 10.7633 31.5681 10.7824 31.4768 10.8204C31.3855 10.8585 31.3162 10.9156 31.269 10.9905C31.2217 11.0654 31.1984 11.1574 31.1984 11.2653V15.8925Z" fill="white"/>
<path d="M35.0445 11.6136V12.5388H32.1994V11.6136H35.0445ZM34.197 15.8925H32.8288V11.2653C32.8288 10.9328 32.8974 10.6536 33.0347 10.427C33.172 10.2005 33.3656 10.0279 33.6162 9.91112C33.8667 9.79437 34.1626 9.73535 34.5039 9.73535C34.6224 9.73535 34.7337 9.74297 34.8386 9.75883C34.9435 9.77469 35.0458 9.79437 35.1455 9.81784L35.1494 10.7989C35.1009 10.7855 35.051 10.7767 34.9999 10.7709C34.9487 10.7652 34.8853 10.7633 34.8101 10.7633C34.6787 10.7633 34.5667 10.7824 34.4754 10.8204C34.3841 10.8585 34.3148 10.9156 34.2675 10.9905C34.2203 11.0654 34.197 11.1574 34.197 11.2653V15.8925Z" fill="white"/>
<path d="M35.5204 10.5102C35.5204 10.3204 35.5904 10.165 35.7302 10.0438C35.8701 9.92255 36.0514 9.86163 36.2748 9.86163C36.4982 9.86163 36.6795 9.92255 36.8193 10.0438C36.9592 10.165 37.0291 10.3204 37.0291 10.5102C37.0291 10.6999 36.9592 10.8553 36.8193 10.9765C36.6795 11.0977 36.4982 11.1587 36.2748 11.1587C36.0514 11.1587 35.8701 11.0977 35.7302 10.9765C35.5904 10.8553 35.5204 10.6999 35.5204 10.5102ZM36.965 11.6136V15.8931H35.6007V11.6136H36.965Z" fill="white"/>
<path d="M39.645 14.9438C39.7713 14.9438 39.8794 14.9203 39.9701 14.8746C40.0607 14.8289 40.1287 14.7623 40.176 14.6766C40.2232 14.591 40.2453 14.4875 40.2427 14.3663H41.5221C41.5247 14.688 41.4451 14.9692 41.2819 15.2109C41.1187 15.4527 40.8986 15.6393 40.6202 15.7725C40.3417 15.9058 40.0277 15.9724 39.6781 15.9724C39.3284 15.9724 39.0377 15.9178 38.7819 15.808C38.5262 15.6983 38.3131 15.5453 38.1422 15.3493C37.9712 15.1532 37.8437 14.9228 37.7589 14.6589C37.674 14.3949 37.632 14.1093 37.632 13.8009V13.7102C37.632 13.4018 37.674 13.115 37.7589 12.8497C37.8437 12.5845 37.9712 12.3541 38.1422 12.1574C38.3131 11.9607 38.5255 11.8078 38.78 11.6987C39.0344 11.5895 39.331 11.5343 39.6696 11.5343C40.0329 11.5343 40.3534 11.6016 40.6318 11.7361C40.9102 11.8706 41.1291 12.0661 41.2877 12.3212C41.4464 12.5762 41.5247 12.8865 41.5215 13.2508H40.242C40.2446 13.122 40.2245 13.0058 40.1818 12.903C40.1391 12.8002 40.0724 12.7178 39.9817 12.6556C39.8911 12.5934 39.7765 12.5629 39.6366 12.5629C39.4968 12.5629 39.3841 12.5934 39.2973 12.6537C39.2106 12.7139 39.1458 12.7977 39.1018 12.9049C39.0577 13.0122 39.028 13.134 39.0131 13.2711C38.9982 13.4081 38.9911 13.5547 38.9911 13.7102V13.8009C38.9911 13.9589 38.9988 14.1074 39.0131 14.2458C39.0273 14.3841 39.0577 14.5053 39.1037 14.6094C39.1497 14.7134 39.2151 14.7953 39.3012 14.8543C39.3873 14.9133 39.5013 14.9431 39.6444 14.9431L39.645 14.9438Z" fill="white"/>
<path d="M42.0906 10.5102C42.0906 10.3204 42.1605 10.165 42.3004 10.0438C42.4403 9.92255 42.6216 9.86163 42.8449 9.86163C43.0683 9.86163 43.2496 9.92255 43.3895 10.0438C43.5293 10.165 43.5993 10.3204 43.5993 10.5102C43.5993 10.6999 43.5293 10.8553 43.3895 10.9765C43.2496 11.0977 43.0683 11.1587 42.8449 11.1587C42.6216 11.1587 42.4403 11.0977 42.3004 10.9765C42.1605 10.8553 42.0906 10.6999 42.0906 10.5102ZM43.5352 11.6136V15.8931H42.1709V11.6136H43.5352Z" fill="white"/>
<path d="M46.8044 13.2787L46.8122 13.9907H46.2107C46.0844 13.9907 45.9769 14.0078 45.8902 14.0421C45.8034 14.0764 45.7328 14.1233 45.6804 14.1823C45.6279 14.2414 45.5904 14.3086 45.567 14.3822C45.5437 14.4558 45.5327 14.5339 45.5327 14.6157C45.5327 14.6976 45.5522 14.7655 45.591 14.8271C45.6299 14.8886 45.683 14.9375 45.7503 14.9711C45.8176 15.0047 45.8927 15.0225 45.9763 15.0225C46.1271 15.0225 46.2553 14.9939 46.3615 14.9375C46.4677 14.881 46.5493 14.8112 46.6056 14.73C46.662 14.6487 46.6905 14.572 46.6905 14.5009L46.989 15.0466C46.9352 15.1519 46.8737 15.2586 46.8051 15.3671C46.7364 15.4756 46.6516 15.5746 46.5506 15.6659C46.4496 15.7573 46.3266 15.8309 46.1815 15.8874C46.0365 15.9439 45.8604 15.9724 45.6532 15.9724C45.3845 15.9724 45.1371 15.9185 44.9124 15.81C44.6877 15.7015 44.5084 15.5511 44.3737 15.3569C44.239 15.1627 44.1717 14.9394 44.1717 14.6868C44.1717 14.4654 44.2125 14.2674 44.2947 14.0935C44.377 13.9196 44.5013 13.7718 44.6683 13.6506C44.8354 13.5294 45.0478 13.4367 45.3061 13.3739C45.5645 13.3111 45.8688 13.2787 46.2184 13.2787H46.8038H46.8044ZM46.6387 14.8169V13.0528C46.6387 12.9316 46.6212 12.8276 46.5862 12.7406C46.5512 12.6537 46.4962 12.5858 46.4205 12.5369C46.3447 12.4881 46.2443 12.464 46.1181 12.464C46.0158 12.464 45.9284 12.4811 45.8558 12.5154C45.7833 12.5496 45.7283 12.601 45.6901 12.6696C45.6519 12.7381 45.6337 12.825 45.6337 12.9304H44.274C44.274 12.7324 44.3187 12.549 44.4093 12.3789C44.5 12.2089 44.6288 12.0604 44.7965 11.9341C44.9642 11.8078 45.1662 11.7095 45.4019 11.6397C45.6376 11.5699 45.9005 11.535 46.1906 11.535C46.5376 11.535 46.8478 11.5914 47.121 11.705C47.3943 11.8186 47.6099 11.988 47.7685 12.2133C47.9272 12.4386 48.0068 12.7216 48.0068 13.0617V14.8137C48.0068 15.0929 48.023 15.3049 48.0554 15.4483C48.0878 15.5917 48.1337 15.718 48.1927 15.8258V15.8931H46.8284C46.7636 15.7611 46.7157 15.5999 46.6853 15.4083C46.6548 15.2167 46.6387 15.02 46.6387 14.8169Z" fill="white"/>
<path d="M50.1979 9.81787V15.8925H48.8336V9.81787H50.1979Z" fill="white"/>
<path d="M26.2347 21.1707H24.7739V20.0989H26.2347C26.4341 20.0989 26.5953 20.0659 26.719 19.9999C26.8427 19.9339 26.9333 19.8426 26.9916 19.7252C27.0499 19.6078 27.0784 19.4751 27.0784 19.3279C27.0784 19.1699 27.0492 19.0233 26.9916 18.8888C26.934 18.7543 26.8427 18.6458 26.719 18.5627C26.5953 18.4795 26.4341 18.4383 26.2347 18.4383H25.3062V23.1251H23.8894V17.3665H26.234C26.7048 17.3665 27.1101 17.4509 27.4507 17.6197C27.7913 17.7885 28.0528 18.0195 28.2354 18.3139C28.418 18.6083 28.51 18.9434 28.51 19.3203C28.51 19.6972 28.4187 20.0164 28.2354 20.2931C28.0522 20.5698 27.7913 20.7855 27.4507 20.9397C27.1101 21.0939 26.7048 21.1713 26.234 21.1713L26.2347 21.1707Z" fill="white"/>
<path d="M31.5979 20.5108L31.6057 21.2228H31.0041C30.8779 21.2228 30.7704 21.2399 30.6836 21.2742C30.5969 21.3084 30.5263 21.3554 30.4739 21.4144C30.4214 21.4734 30.3838 21.5407 30.3605 21.6143C30.3372 21.6879 30.3262 21.7659 30.3262 21.8478C30.3262 21.9297 30.3456 21.9976 30.3845 22.0591C30.4233 22.1207 30.4764 22.1695 30.5438 22.2032C30.6111 22.2368 30.6862 22.2546 30.7698 22.2546C30.9206 22.2546 31.0488 22.226 31.155 22.1695C31.2612 22.113 31.3428 22.0432 31.3991 21.962C31.4555 21.8808 31.4839 21.804 31.4839 21.7329L31.7824 22.2787C31.7287 22.384 31.6672 22.4906 31.5986 22.5991C31.5299 22.7076 31.4451 22.8066 31.3441 22.898C31.2431 22.9894 31.1201 23.063 30.975 23.1195C30.83 23.1759 30.6539 23.2045 30.4467 23.2045C30.1779 23.2045 29.9306 23.1505 29.7059 23.042C29.4812 22.9335 29.3019 22.7831 29.1672 22.589C29.0325 22.3948 28.9652 22.1714 28.9652 21.9189C28.9652 21.6974 29.006 21.4994 29.0882 21.3256C29.1704 21.1517 29.2948 21.0038 29.4618 20.8826C29.6289 20.7614 29.8412 20.6688 30.0996 20.606C30.3579 20.5432 30.6623 20.5108 31.0119 20.5108H31.5973H31.5979ZM31.4321 22.049V20.2849C31.4321 20.1637 31.4147 20.0596 31.3797 19.9727C31.3447 19.8858 31.2897 19.8179 31.2139 19.769C31.1382 19.7201 31.0378 19.696 30.9116 19.696C30.8093 19.696 30.7218 19.7132 30.6493 19.7474C30.5768 19.7817 30.5218 19.8331 30.4836 19.9016C30.4454 19.9701 30.4272 20.0571 30.4272 20.1624H29.0675C29.0675 19.9644 29.1122 19.7811 29.2028 19.611C29.2935 19.4409 29.4223 19.2924 29.59 19.1662C29.7577 19.0399 29.9597 18.9415 30.1954 18.8717C30.4311 18.8019 30.694 18.767 30.9841 18.767C31.3311 18.767 31.6413 18.8235 31.9145 18.9371C32.1878 19.0507 32.4034 19.2201 32.562 19.4454C32.7207 19.6706 32.8003 19.9537 32.8003 20.2938V22.0458C32.8003 22.325 32.8165 22.5369 32.8489 22.6803C32.8812 22.8238 32.9272 22.95 32.9861 23.0579V23.1252H31.6219C31.5571 22.9932 31.5092 22.832 31.4788 22.6404C31.4483 22.4487 31.4321 22.252 31.4321 22.049Z" fill="white"/>
<path d="M34.9273 19.9054V23.1245H33.5676V18.845H34.8386L34.9273 19.9048V19.9054ZM36.2185 18.8139L36.1945 20.052C36.1408 20.0469 36.0682 20.0399 35.9763 20.0323C35.8843 20.0247 35.8079 20.0202 35.7464 20.0202C35.5878 20.0202 35.4512 20.038 35.3366 20.0735C35.222 20.1091 35.1281 20.1617 35.0543 20.2315C34.9804 20.3014 34.9267 20.3889 34.893 20.4943C34.8594 20.5996 34.8438 20.7221 34.8464 20.8623L34.6004 20.7043C34.6004 20.4168 34.6295 20.1554 34.6871 19.9193C34.7448 19.6833 34.8276 19.479 34.9351 19.3064C35.0426 19.1338 35.1734 19.0005 35.3269 18.9066C35.4803 18.8127 35.6525 18.7664 35.8436 18.7664C35.9109 18.7664 35.9776 18.7702 36.0436 18.7784C36.1097 18.7867 36.1679 18.7981 36.2191 18.8139H36.2185Z" fill="white"/>
<path d="M39.1892 18.8457V19.7709H36.5577V18.8457H39.1892ZM37.1107 17.7816H38.4705V21.7285C38.4705 21.8421 38.484 21.9297 38.5106 21.9912C38.5371 22.0528 38.5838 22.0965 38.6498 22.1219C38.7159 22.1473 38.8039 22.1594 38.914 22.1594C38.9923 22.1594 39.0564 22.1575 39.1076 22.1537C39.1587 22.1498 39.2073 22.1435 39.2526 22.1359V23.089C39.1367 23.1258 39.0156 23.1544 38.8894 23.174C38.7631 23.1937 38.6284 23.2038 38.486 23.2038C38.1953 23.2038 37.9473 23.1588 37.7414 23.0693C37.5355 22.9798 37.3788 22.8383 37.2713 22.6461C37.1638 22.4538 37.1101 22.2031 37.1101 21.8948V17.7816H37.1107Z" fill="white"/>
<path d="M41.0656 19.7588V23.1245H39.7059V18.8451H40.9814L41.0663 19.7588H41.0656ZM40.9037 20.8388L40.5852 20.8465C40.5852 20.5197 40.6253 20.2278 40.7063 19.9701C40.7872 19.7125 40.9012 19.4949 41.0494 19.3153C41.1971 19.1357 41.3745 18.9993 41.5804 18.906C41.7863 18.8127 42.0155 18.7657 42.2687 18.7657C42.4707 18.7657 42.6552 18.7949 42.8236 18.8527C42.9919 18.9104 43.137 19.0043 43.2593 19.1338C43.3817 19.2632 43.4756 19.4339 43.5417 19.6459C43.6077 19.8578 43.6407 20.1199 43.6407 20.4308V23.1239H42.2726V20.4264C42.2726 20.2551 42.2486 20.1237 42.2 20.033C42.1515 19.9422 42.0815 19.8794 41.9902 19.8451C41.8989 19.8109 41.7869 19.7937 41.6555 19.7937C41.5156 19.7937 41.3971 19.8197 41.3007 19.873C41.2042 19.9264 41.1265 19.9993 41.0689 20.0926C41.0112 20.1859 40.9691 20.2963 40.9439 20.4226C40.9186 20.5489 40.9057 20.6878 40.9057 20.8376L40.9037 20.8388Z" fill="white"/>
<path d="M46.5098 23.2038C46.1549 23.2038 45.837 23.1493 45.5573 23.0395C45.2776 22.9297 45.0413 22.7793 44.8489 22.5864C44.6566 22.3935 44.5097 22.1727 44.4093 21.922C44.3089 21.6714 44.2578 21.4068 44.2578 21.1269V20.9765C44.2578 20.6624 44.3025 20.3718 44.3912 20.1047C44.4799 19.8375 44.612 19.6027 44.7868 19.4028C44.9616 19.203 45.1811 19.0462 45.4446 18.9339C45.7082 18.8216 46.0151 18.7657 46.3647 18.7657C46.6742 18.7657 46.9514 18.8146 47.1961 18.9123C47.4409 19.0101 47.6487 19.1497 47.8197 19.3318C47.9906 19.5139 48.1208 19.7341 48.2114 19.9923C48.3021 20.2506 48.3467 20.5406 48.3467 20.8623V21.4042H44.779V20.5698H47.0187V20.467C47.0213 20.3249 46.9967 20.2037 46.9443 20.1034C46.8918 20.0031 46.8154 19.927 46.7163 19.8743C46.6173 19.8217 46.4955 19.795 46.3531 19.795C46.2106 19.795 46.0831 19.8267 45.9879 19.8902C45.8927 19.9536 45.8183 20.0399 45.7658 20.1491C45.7134 20.2582 45.6764 20.3845 45.6551 20.5266C45.6337 20.6688 45.6227 20.8192 45.6227 20.9778V21.1282C45.6227 21.2862 45.6447 21.4303 45.6894 21.5591C45.7341 21.6879 45.7982 21.7983 45.883 21.889C45.9678 21.9798 46.0701 22.0508 46.1899 22.1003C46.3097 22.1498 46.4463 22.1752 46.5998 22.1752C46.7856 22.1752 46.9682 22.141 47.1489 22.0724C47.3295 22.0039 47.4836 21.8903 47.6131 21.7323L48.2308 22.4519C48.1421 22.5756 48.0165 22.6956 47.8533 22.8117C47.6902 22.9278 47.4959 23.0217 47.2699 23.0947C47.044 23.1677 46.7914 23.2032 46.5111 23.2032L46.5098 23.2038Z" fill="white"/>
<path d="M50.2711 19.9054V23.1245H48.9113V18.845H50.1824L50.2711 19.9048V19.9054ZM51.5622 18.8139L51.5382 20.052C51.4845 20.0469 51.412 20.0399 51.32 20.0323C51.2281 20.0247 51.1517 20.0202 51.0902 20.0202C50.9315 20.0202 50.7949 20.038 50.6803 20.0735C50.5657 20.1091 50.4718 20.1617 50.398 20.2315C50.3242 20.3014 50.2704 20.3889 50.2368 20.4943C50.2031 20.5996 50.1876 20.7221 50.1902 20.8623L49.9441 20.7043C49.9441 20.4168 49.9732 20.1554 50.0309 19.9193C50.0885 19.6833 50.1714 19.479 50.2789 19.3064C50.3863 19.1338 50.5171 19.0005 50.6706 18.9066C50.8241 18.8127 50.9963 18.7664 51.1873 18.7664C51.2546 18.7664 51.3213 18.7702 51.3874 18.7784C51.4534 18.7867 51.5117 18.7981 51.5629 18.8139H51.5622Z" fill="white"/>
<path d="M23.6557 28.2606V28.1775C23.6557 27.8634 23.7017 27.5747 23.793 27.3094C23.8843 27.0442 24.0189 26.8145 24.1964 26.619C24.3738 26.4236 24.5933 26.2713 24.8542 26.1622C25.1152 26.053 25.4169 25.9978 25.7581 25.9978C26.0994 25.9978 26.4056 26.0524 26.6679 26.1622C26.9301 26.2719 27.1502 26.4236 27.3277 26.619C27.5051 26.8145 27.6398 27.0442 27.7311 27.3094C27.8224 27.5747 27.8683 27.8634 27.8683 28.1775V28.2606C27.8683 28.5716 27.8224 28.8597 27.7311 29.1249C27.6398 29.3901 27.5051 29.6205 27.3277 29.8172C27.1502 30.0139 26.9307 30.1656 26.6698 30.2741C26.4089 30.3826 26.1071 30.4365 25.7659 30.4365C25.4247 30.4365 25.1216 30.3826 24.8581 30.2741C24.5946 30.1656 24.3738 30.0139 24.1964 29.8172C24.0189 29.6205 23.8843 29.3901 23.793 29.1249C23.7017 28.8597 23.6557 28.5716 23.6557 28.2606ZM25.0154 28.1775V28.2606C25.0154 28.4212 25.0277 28.5716 25.0517 28.7118C25.0757 28.852 25.1165 28.9732 25.1728 29.0779C25.2291 29.1826 25.3062 29.2632 25.4027 29.321C25.4991 29.3787 25.6209 29.4079 25.7659 29.4079C25.9109 29.4079 26.0275 29.3787 26.1233 29.321C26.2191 29.2632 26.2949 29.182 26.3512 29.0779C26.4076 28.9739 26.4484 28.852 26.4723 28.7118C26.4963 28.5716 26.5086 28.4218 26.5086 28.2606V28.1775C26.5086 28.022 26.4963 27.8748 26.4723 27.7365C26.4484 27.5982 26.4076 27.4757 26.3512 27.3684C26.2949 27.2612 26.2179 27.1781 26.1214 27.1172C26.0249 27.0562 25.9032 27.0264 25.7581 27.0264C25.6131 27.0264 25.4965 27.0569 25.4007 27.1172C25.3049 27.1774 25.2291 27.2612 25.1728 27.3684C25.1165 27.4757 25.0757 27.5975 25.0517 27.7365C25.0277 27.8755 25.0154 28.022 25.0154 28.1775Z" fill="white"/>
<path d="M30.9847 26.0771V27.0023H28.1396V26.0771H30.9847ZM30.1371 30.3566H28.769V25.7294C28.769 25.3969 28.8376 25.1177 28.9749 24.8911C29.1122 24.6646 29.3058 24.492 29.5563 24.3752C29.8069 24.2585 30.1028 24.1995 30.4441 24.1995C30.5626 24.1995 30.6739 24.2071 30.7788 24.2229C30.8837 24.2388 30.986 24.2585 31.0857 24.282L31.0896 25.263C31.0411 25.2497 30.9912 25.2408 30.94 25.2351C30.8889 25.2293 30.8254 25.2274 30.7503 25.2274C30.6189 25.2274 30.5069 25.2465 30.4156 25.2846C30.3243 25.3226 30.255 25.3797 30.2077 25.4546C30.1605 25.5295 30.1371 25.6215 30.1371 25.7294V30.3566Z" fill="white"/>
<path d="M35.8274 26.0771V27.0023H33.1959V26.0771H35.8274ZM33.7489 25.0135H35.1086V28.9605C35.1086 29.0741 35.1222 29.1616 35.1488 29.2232C35.1753 29.2848 35.2219 29.3285 35.288 29.3539C35.354 29.3793 35.4421 29.3914 35.5522 29.3914C35.6305 29.3914 35.6946 29.3895 35.7458 29.3856C35.7969 29.3818 35.8455 29.3755 35.8908 29.3679V30.321C35.7749 30.3578 35.6538 30.3863 35.5276 30.406C35.4013 30.4257 35.2666 30.4358 35.1242 30.4358C34.8334 30.4358 34.5855 30.3908 34.3796 30.3013C34.1736 30.2118 34.017 30.0703 33.9095 29.8781C33.802 29.6858 33.7482 29.4351 33.7482 29.1267V25.0135H33.7489Z" fill="white"/>
<path d="M37.6999 24.2819V30.3565H36.3402V24.2819H37.6999ZM37.5381 28.0709L37.2195 28.0785C37.2195 27.7777 37.257 27.501 37.3328 27.2478C37.4086 26.9947 37.516 26.7745 37.6559 26.5873C37.7958 26.4001 37.9641 26.2548 38.1603 26.152C38.3565 26.0492 38.5747 25.9978 38.8143 25.9978C39.0299 25.9978 39.2267 26.0282 39.4054 26.0885C39.5841 26.1488 39.7389 26.2465 39.8697 26.381C40.0005 26.5156 40.1008 26.6907 40.1721 26.9071C40.2433 27.1235 40.2789 27.3868 40.2789 27.6984V30.3559H38.9107V27.6901C38.9107 27.5163 38.8861 27.3811 38.8363 27.2846C38.7864 27.1882 38.7159 27.1209 38.6246 27.0829C38.5333 27.0448 38.4212 27.0257 38.2898 27.0257C38.1312 27.0257 38.0017 27.0518 37.9026 27.1051C37.8035 27.1584 37.7271 27.2313 37.6747 27.3246C37.6222 27.4179 37.5866 27.5283 37.5678 27.6546C37.5491 27.7809 37.5393 27.9198 37.5393 28.0696L37.5381 28.0709Z" fill="white"/>
<path d="M43.148 30.4359C42.7931 30.4359 42.4752 30.3813 42.1955 30.2715C41.9158 30.1618 41.6794 30.0114 41.4871 29.8185C41.2948 29.6262 41.1478 29.4047 41.0475 29.1541C40.9471 28.9034 40.896 28.6388 40.896 28.359V28.2086C40.896 27.8945 40.9406 27.6039 41.0294 27.3367C41.1181 27.0696 41.2501 26.8348 41.425 26.6349C41.5998 26.435 41.8193 26.2783 42.0828 26.166C42.3464 26.0536 42.6533 25.9978 43.0029 25.9978C43.3124 25.9978 43.5896 26.0467 43.8343 26.1444C44.0791 26.2421 44.2869 26.3817 44.4579 26.5638C44.6288 26.7459 44.7589 26.9661 44.8496 27.2244C44.9402 27.4827 44.9849 27.7727 44.9849 28.0944V28.6363H41.4172V27.8018H43.6569V27.699C43.6595 27.5569 43.6349 27.4357 43.5824 27.3354C43.53 27.2352 43.4536 27.159 43.3545 27.1064C43.2555 27.0537 43.1337 27.0271 42.9913 27.0271C42.8488 27.0271 42.7213 27.0588 42.6261 27.1222C42.5309 27.1857 42.4564 27.272 42.404 27.3811C42.3515 27.4903 42.3146 27.6166 42.2933 27.7587C42.2719 27.9008 42.2609 28.0512 42.2609 28.2099V28.3603C42.2609 28.5183 42.2829 28.6623 42.3276 28.7911C42.3723 28.9199 42.4364 29.0304 42.5212 29.1211C42.606 29.2118 42.7083 29.2829 42.8281 29.3324C42.9479 29.3819 43.0845 29.4073 43.238 29.4073C43.4238 29.4073 43.6064 29.373 43.787 29.3045C43.9677 29.2359 44.1218 29.1224 44.2513 28.9644L44.869 29.6839C44.7803 29.8077 44.6547 29.9276 44.4915 30.0437C44.3284 30.1599 44.1341 30.2538 43.9081 30.3268C43.6822 30.3997 43.4296 30.4353 43.1493 30.4353L43.148 30.4359Z" fill="white"/>
<path d="M52.5671 24.598V30.3566H51.155L49.0765 26.7732V30.3566H47.6598V24.598H49.0765L51.155 28.1813V24.598H52.5671Z" fill="white"/>
<path d="M55.8603 27.9084H54.3471L54.3393 26.9985H55.5663C55.7871 26.9985 55.9632 26.9744 56.0947 26.9255C56.2261 26.8767 56.3226 26.805 56.3835 26.7098C56.4443 26.6146 56.4741 26.4959 56.4741 26.3538C56.4741 26.1901 56.443 26.0587 56.3815 25.9585C56.32 25.8582 56.2222 25.7852 56.0889 25.7389C55.9555 25.6926 55.7839 25.6697 55.5741 25.6697H54.88V30.3566H53.4633V24.598H55.5741C55.9373 24.598 56.2617 24.6303 56.5466 24.695C56.8315 24.7598 57.075 24.8575 57.2751 24.9895C57.4752 25.1215 57.628 25.2865 57.7329 25.4857C57.8378 25.685 57.8902 25.9185 57.8902 26.1875C57.8902 26.4223 57.839 26.6425 57.7367 26.8481C57.6344 27.0537 57.4641 27.2206 57.2265 27.3481C56.9889 27.4757 56.6638 27.5423 56.252 27.548L55.8603 27.9078V27.9084ZM55.804 30.3566H54.0039L54.4882 29.2886H55.804C55.9976 29.2886 56.153 29.2588 56.2702 29.1998C56.3874 29.1408 56.4722 29.0614 56.5246 28.9624C56.5771 28.8635 56.6036 28.7537 56.6036 28.6325C56.6036 28.4846 56.579 28.3571 56.5292 28.2486C56.4793 28.1401 56.4003 28.0569 56.2928 27.9973C56.1853 27.9376 56.0409 27.9084 55.8609 27.9084H54.6702L54.678 26.9985H56.1025L56.4333 27.3621C56.8264 27.3462 57.1378 27.4002 57.3677 27.5245C57.5975 27.6489 57.7626 27.812 57.8624 28.015C57.9621 28.2181 58.0119 28.4301 58.0119 28.6515C58.0119 29.0284 57.929 29.3438 57.7639 29.597C57.5988 29.8502 57.3515 30.0399 57.0232 30.1668C56.6949 30.2937 56.2889 30.3566 55.8046 30.3566H55.804Z" fill="white"/>
<path d="M61.2883 25.8087L59.8554 30.3572H58.3337L60.4925 24.5986H61.4573L61.2876 25.8087H61.2883ZM62.4182 28.2092V29.281H59.4034V28.2092H62.4182ZM62.4745 30.3566L61.0377 25.8081L60.8519 24.598H61.8283L63.9993 30.3566H62.4738H62.4745Z" fill="white"/>
</g>
<defs>
<clipPath id="clip0_4_430">
<rect width="64" height="41" fill="white"/>
</clipPath>
</defs>
</svg>
