<svg width="221" height="61" viewBox="0 0 221 61" fill="none" xmlns="http://www.w3.org/2000/svg">
<path d="M41.4558 14.144C40.8238 14.144 40.2358 14.028 39.6918 13.796C39.1558 13.564 38.6838 13.244 38.2758 12.836C37.8758 12.42 37.5638 11.932 37.3398 11.372C37.1158 10.812 37.0038 10.196 37.0038 9.524C37.0038 8.86 37.1118 8.248 37.3278 7.688C37.5518 7.12 37.8638 6.632 38.2638 6.224C38.6638 5.808 39.1318 5.488 39.6678 5.264C40.2038 5.032 40.7918 4.916 41.4318 4.916C42.0638 4.916 42.6278 5.024 43.1237 5.24C43.6278 5.456 44.0518 5.74 44.3958 6.092C44.7398 6.436 44.9878 6.812 45.1398 7.22L43.8798 7.832C43.6958 7.344 43.3918 6.952 42.9678 6.656C42.5438 6.352 42.0318 6.2 41.4318 6.2C40.8398 6.2 40.3158 6.34 39.8598 6.62C39.4038 6.9 39.0478 7.288 38.7918 7.784C38.5438 8.28 38.4198 8.86 38.4198 9.524C38.4198 10.188 38.5478 10.772 38.8038 11.276C39.0678 11.772 39.4278 12.16 39.8838 12.44C40.3398 12.712 40.8638 12.848 41.4558 12.848C41.9518 12.848 42.4038 12.748 42.8118 12.548C43.2278 12.34 43.5598 12.052 43.8078 11.684C44.0558 11.308 44.1798 10.872 44.1798 10.376V9.764L44.8158 10.34H41.4318V9.14H45.5838V9.98C45.5838 10.636 45.4718 11.224 45.2478 11.744C45.0238 12.256 44.7198 12.692 44.3358 13.052C43.9518 13.412 43.5118 13.684 43.0158 13.868C42.5198 14.052 41.9998 14.144 41.4558 14.144ZM47.0295 14V5.06H48.4455V12.74H52.3095V14H47.0295ZM57.6078 14.144C56.9598 14.144 56.3558 14.028 55.7958 13.796C55.2438 13.564 54.7558 13.24 54.3318 12.824C53.9158 12.408 53.5878 11.92 53.3478 11.36C53.1158 10.8 52.9998 10.188 52.9998 9.524C52.9998 8.86 53.1158 8.248 53.3478 7.688C53.5878 7.12 53.9158 6.632 54.3318 6.224C54.7478 5.808 55.2358 5.488 55.7958 5.264C56.3558 5.032 56.9598 4.916 57.6078 4.916C58.2638 4.916 58.8678 5.032 59.4198 5.264C59.9798 5.488 60.4678 5.808 60.8838 6.224C61.3078 6.64 61.6358 7.128 61.8678 7.688C62.0998 8.248 62.2158 8.86 62.2158 9.524C62.2158 10.188 62.0958 10.8 61.8558 11.36C61.6238 11.92 61.2998 12.408 60.8838 12.824C60.4678 13.24 59.9798 13.564 59.4198 13.796C58.8598 14.028 58.2558 14.144 57.6078 14.144ZM57.6078 12.848C58.0718 12.848 58.4958 12.764 58.8798 12.596C59.2718 12.428 59.6118 12.196 59.8998 11.9C60.1878 11.596 60.4118 11.244 60.5718 10.844C60.7318 10.436 60.8118 9.996 60.8118 9.524C60.8118 9.052 60.7318 8.616 60.5718 8.216C60.4118 7.816 60.1878 7.464 59.8998 7.16C59.6118 6.856 59.2718 6.62 58.8798 6.452C58.4958 6.284 58.0718 6.2 57.6078 6.2C57.1438 6.2 56.7158 6.284 56.3238 6.452C55.9398 6.62 55.6038 6.856 55.3158 7.16C55.0278 7.464 54.8038 7.816 54.6438 8.216C54.4918 8.616 54.4158 9.052 54.4158 9.524C54.4158 9.996 54.4918 10.436 54.6438 10.844C54.8038 11.244 55.0278 11.596 55.3158 11.9C55.6038 12.196 55.9438 12.428 56.3358 12.596C56.7278 12.764 57.1518 12.848 57.6078 12.848ZM63.799 14V5.06H67.567C68.127 5.06 68.611 5.16 69.019 5.36C69.427 5.552 69.739 5.832 69.955 6.2C70.171 6.56 70.279 6.988 70.279 7.484C70.279 7.916 70.167 8.312 69.943 8.672C69.727 9.024 69.387 9.304 68.923 9.512V8.912C69.331 9.072 69.663 9.276 69.919 9.524C70.175 9.764 70.359 10.036 70.471 10.34C70.591 10.644 70.651 10.964 70.651 11.3C70.651 12.14 70.375 12.8 69.823 13.28C69.279 13.76 68.531 14 67.579 14H63.799ZM65.215 12.74H67.687C68.159 12.74 68.535 12.612 68.815 12.356C69.095 12.092 69.235 11.744 69.235 11.312C69.235 10.872 69.095 10.524 68.815 10.268C68.535 10.004 68.159 9.872 67.687 9.872H65.215V12.74ZM65.215 8.624H67.603C67.987 8.624 68.295 8.516 68.527 8.3C68.759 8.076 68.875 7.784 68.875 7.424C68.875 7.064 68.759 6.784 68.527 6.584C68.295 6.384 67.987 6.284 67.603 6.284H65.215V8.624ZM71.3156 14L74.4596 5.06H76.2116L79.3556 14H77.8436L77.1596 11.996H73.5236L72.8276 14H71.3156ZM73.9316 10.736H76.7276L75.1436 6.056H75.5396L73.9316 10.736ZM80.4162 14V5.06H81.8322V12.74H85.6962V14H80.4162ZM88.9826 14V5.06H94.8026V6.32H90.3986V9.008H94.3226V10.268H90.3986V14H88.9826ZM100.217 14.144C99.5692 14.144 98.9652 14.028 98.4052 13.796C97.8532 13.564 97.3652 13.24 96.9412 12.824C96.5252 12.408 96.1972 11.92 95.9572 11.36C95.7252 10.8 95.6092 10.188 95.6092 9.524C95.6092 8.86 95.7252 8.248 95.9572 7.688C96.1972 7.12 96.5252 6.632 96.9412 6.224C97.3572 5.808 97.8452 5.488 98.4052 5.264C98.9652 5.032 99.5692 4.916 100.217 4.916C100.873 4.916 101.477 5.032 102.029 5.264C102.589 5.488 103.077 5.808 103.493 6.224C103.917 6.64 104.245 7.128 104.477 7.688C104.709 8.248 104.825 8.86 104.825 9.524C104.825 10.188 104.705 10.8 104.465 11.36C104.233 11.92 103.909 12.408 103.493 12.824C103.077 13.24 102.589 13.564 102.029 13.796C101.469 14.028 100.865 14.144 100.217 14.144ZM100.217 12.848C100.681 12.848 101.105 12.764 101.489 12.596C101.881 12.428 102.221 12.196 102.509 11.9C102.797 11.596 103.021 11.244 103.181 10.844C103.341 10.436 103.421 9.996 103.421 9.524C103.421 9.052 103.341 8.616 103.181 8.216C103.021 7.816 102.797 7.464 102.509 7.16C102.221 6.856 101.881 6.62 101.489 6.452C101.105 6.284 100.681 6.2 100.217 6.2C99.7532 6.2 99.3252 6.284 98.9332 6.452C98.5492 6.62 98.2132 6.856 97.9252 7.16C97.6372 7.464 97.4132 7.816 97.2532 8.216C97.1012 8.616 97.0252 9.052 97.0252 9.524C97.0252 9.996 97.1012 10.436 97.2532 10.844C97.4132 11.244 97.6372 11.596 97.9252 11.9C98.2132 12.196 98.5532 12.428 98.9452 12.596C99.3372 12.764 99.7612 12.848 100.217 12.848ZM106.408 14V5.06H109.66C110.26 5.06 110.788 5.172 111.244 5.396C111.7 5.612 112.056 5.932 112.312 6.356C112.576 6.772 112.708 7.272 112.708 7.856C112.708 8.472 112.552 9 112.24 9.44C111.936 9.88 111.524 10.2 111.004 10.4L113.068 14H111.46L109.264 10.1L110.188 10.64H107.824V14H106.408ZM107.824 9.38H109.684C110.012 9.38 110.296 9.316 110.536 9.188C110.776 9.06 110.96 8.884 111.088 8.66C111.224 8.428 111.292 8.156 111.292 7.844C111.292 7.532 111.224 7.264 111.088 7.04C110.96 6.808 110.776 6.632 110.536 6.512C110.296 6.384 110.012 6.32 109.684 6.32H107.824V9.38ZM114.26 14V5.06H120.152V6.32H115.676V8.888H119.912V10.148H115.676V12.74H120.152V14H114.26ZM120.675 14L123.591 9.476L120.723 5.06H122.331L124.731 8.756H124.047L126.423 5.06H128.031L125.175 9.476L128.091 14H126.483L124.047 10.208L124.731 10.22L122.271 14H120.675ZM132.824 14V6.32H130.448V5.06H136.568V6.32H134.228V14H132.824ZM137.627 14V5.06H140.879C141.479 5.06 142.007 5.172 142.463 5.396C142.919 5.612 143.275 5.932 143.531 6.356C143.795 6.772 143.927 7.272 143.927 7.856C143.927 8.472 143.771 9 143.459 9.44C143.155 9.88 142.743 10.2 142.223 10.4L144.287 14H142.679L140.483 10.1L141.407 10.64H139.043V14H137.627ZM139.043 9.38H140.903C141.231 9.38 141.515 9.316 141.755 9.188C141.995 9.06 142.179 8.884 142.307 8.66C142.443 8.428 142.511 8.156 142.511 7.844C142.511 7.532 142.443 7.264 142.307 7.04C142.179 6.808 141.995 6.632 141.755 6.512C141.515 6.384 141.231 6.32 140.903 6.32H139.043V9.38ZM144.687 14L147.831 5.06H149.583L152.727 14H151.215L150.531 11.996H146.895L146.199 14H144.687ZM147.303 10.736H150.099L148.515 6.056H148.911L147.303 10.736ZM153.787 14V5.06H156.715C157.643 5.06 158.447 5.248 159.127 5.624C159.815 5.992 160.347 6.512 160.723 7.184C161.099 7.856 161.287 8.636 161.287 9.524C161.287 10.404 161.099 11.184 160.723 11.864C160.347 12.536 159.815 13.06 159.127 13.436C158.447 13.812 157.643 14 156.715 14H153.787ZM155.203 12.74H156.739C157.371 12.74 157.919 12.608 158.383 12.344C158.855 12.08 159.219 11.708 159.475 11.228C159.731 10.748 159.859 10.18 159.859 9.524C159.859 8.868 159.727 8.304 159.463 7.832C159.207 7.352 158.847 6.98 158.383 6.716C157.919 6.452 157.371 6.32 156.739 6.32H155.203V12.74ZM162.682 14V5.06H164.098V14H162.682ZM165.951 14V5.06H167.091L172.107 11.984L171.567 12.068V5.06H172.971V14H171.831L166.851 7.028L167.367 6.932V14H165.951ZM179.01 14.144C178.378 14.144 177.79 14.028 177.246 13.796C176.71 13.564 176.238 13.244 175.83 12.836C175.43 12.42 175.118 11.932 174.894 11.372C174.67 10.812 174.558 10.196 174.558 9.524C174.558 8.86 174.666 8.248 174.882 7.688C175.106 7.12 175.418 6.632 175.818 6.224C176.218 5.808 176.686 5.488 177.222 5.264C177.758 5.032 178.346 4.916 178.986 4.916C179.618 4.916 180.182 5.024 180.678 5.24C181.182 5.456 181.606 5.74 181.95 6.092C182.294 6.436 182.542 6.812 182.694 7.22L181.434 7.832C181.25 7.344 180.946 6.952 180.522 6.656C180.098 6.352 179.586 6.2 178.986 6.2C178.394 6.2 177.87 6.34 177.414 6.62C176.958 6.9 176.602 7.288 176.346 7.784C176.098 8.28 175.974 8.86 175.974 9.524C175.974 10.188 176.102 10.772 176.358 11.276C176.622 11.772 176.982 12.16 177.438 12.44C177.894 12.712 178.418 12.848 179.01 12.848C179.506 12.848 179.958 12.748 180.366 12.548C180.782 12.34 181.114 12.052 181.362 11.684C181.61 11.308 181.734 10.872 181.734 10.376V9.764L182.37 10.34H178.986V9.14H183.138V9.98C183.138 10.636 183.026 11.224 182.802 11.744C182.578 12.256 182.274 12.692 181.89 13.052C181.506 13.412 181.066 13.684 180.57 13.868C180.074 14.052 179.554 14.144 179.01 14.144ZM59.5265 32L62.6705 23.06H64.4225L67.5665 32H66.0545L65.3705 29.996H61.7345L61.0385 32H59.5265ZM62.1425 28.736H64.9385L63.3545 24.056H63.7505L62.1425 28.736ZM68.6271 32V23.06H71.8791C72.4791 23.06 73.0071 23.172 73.4631 23.396C73.9271 23.612 74.2871 23.932 74.5431 24.356C74.7991 24.772 74.9271 25.272 74.9271 25.856C74.9271 26.432 74.7951 26.928 74.5311 27.344C74.2751 27.76 73.9191 28.08 73.4631 28.304C73.0071 28.528 72.4791 28.64 71.8791 28.64H70.0431V32H68.6271ZM70.0431 27.38H71.9151C72.2351 27.38 72.5151 27.316 72.7551 27.188C72.9951 27.06 73.1831 26.884 73.3191 26.66C73.4551 26.428 73.5231 26.156 73.5231 25.844C73.5231 25.532 73.4551 25.264 73.3191 25.04C73.1831 24.808 72.9951 24.632 72.7551 24.512C72.5151 24.384 72.2351 24.32 71.9151 24.32H70.0431V27.38ZM76.3849 32V23.06H79.6369C80.2369 23.06 80.7649 23.172 81.2209 23.396C81.6849 23.612 82.0449 23.932 82.3009 24.356C82.5569 24.772 82.6849 25.272 82.6849 25.856C82.6849 26.432 82.5529 26.928 82.2889 27.344C82.0329 27.76 81.6769 28.08 81.2209 28.304C80.7649 28.528 80.2369 28.64 79.6369 28.64H77.8009V32H76.3849ZM77.8009 27.38H79.6729C79.9929 27.38 80.2729 27.316 80.5129 27.188C80.7529 27.06 80.9409 26.884 81.0769 26.66C81.2129 26.428 81.2809 26.156 81.2809 25.844C81.2809 25.532 81.2129 25.264 81.0769 25.04C80.9409 24.808 80.7529 24.632 80.5129 24.512C80.2729 24.384 79.9929 24.32 79.6729 24.32H77.8009V27.38ZM90.5844 32.144C89.9364 32.144 89.3324 32.028 88.7724 31.796C88.2204 31.564 87.7324 31.24 87.3084 30.824C86.8924 30.408 86.5644 29.92 86.3244 29.36C86.0924 28.8 85.9764 28.188 85.9764 27.524C85.9764 26.86 86.0924 26.248 86.3244 25.688C86.5644 25.12 86.8924 24.632 87.3084 24.224C87.7244 23.808 88.2124 23.488 88.7724 23.264C89.3324 23.032 89.9364 22.916 90.5844 22.916C91.2404 22.916 91.8444 23.032 92.3964 23.264C92.9564 23.488 93.4444 23.808 93.8604 24.224C94.2844 24.64 94.6124 25.128 94.8444 25.688C95.0764 26.248 95.1924 26.86 95.1924 27.524C95.1924 28.188 95.0724 28.8 94.8324 29.36C94.6004 29.92 94.2764 30.408 93.8604 30.824C93.4444 31.24 92.9564 31.564 92.3964 31.796C91.8364 32.028 91.2324 32.144 90.5844 32.144ZM90.5844 30.848C91.0484 30.848 91.4724 30.764 91.8564 30.596C92.2484 30.428 92.5884 30.196 92.8764 29.9C93.1644 29.596 93.3884 29.244 93.5484 28.844C93.7084 28.436 93.7884 27.996 93.7884 27.524C93.7884 27.052 93.7084 26.616 93.5484 26.216C93.3884 25.816 93.1644 25.464 92.8764 25.16C92.5884 24.856 92.2484 24.62 91.8564 24.452C91.4724 24.284 91.0484 24.2 90.5844 24.2C90.1204 24.2 89.6924 24.284 89.3004 24.452C88.9164 24.62 88.5804 24.856 88.2924 25.16C88.0044 25.464 87.7804 25.816 87.6204 26.216C87.4684 26.616 87.3924 27.052 87.3924 27.524C87.3924 27.996 87.4684 28.436 87.6204 28.844C87.7804 29.244 88.0044 29.596 88.2924 29.9C88.5804 30.196 88.9204 30.428 89.3124 30.596C89.7044 30.764 90.1284 30.848 90.5844 30.848ZM96.7756 32V23.06H102.596V24.32H98.1916V27.008H102.116V28.268H98.1916V32H96.7756ZM107.465 32V24.32H105.089V23.06H111.209V24.32H108.869V32H107.465ZM112.268 32V23.06H113.684V26.996H117.824V23.06H119.228V32H117.824V28.256H113.684V32H112.268ZM121.08 32V23.06H126.972V24.32H122.496V26.888H126.732V28.148H122.496V30.74H126.972V32H121.08ZM132.653 32V27.968L129.593 23.06H131.189L133.637 27.032H133.073L135.509 23.06H137.105L134.057 27.968V32H132.653ZM138.166 32V23.06H144.058V24.32H139.582V26.888H143.818V28.148H139.582V30.74H144.058V32H138.166ZM144.581 32L147.725 23.06H149.477L152.621 32H151.109L150.425 29.996H146.789L146.093 32H144.581ZM147.197 28.736H149.993L148.409 24.056H148.805L147.197 28.736ZM153.682 32V23.06H156.934C157.534 23.06 158.062 23.172 158.518 23.396C158.974 23.612 159.33 23.932 159.586 24.356C159.85 24.772 159.982 25.272 159.982 25.856C159.982 26.472 159.826 27 159.514 27.44C159.21 27.88 158.798 28.2 158.278 28.4L160.342 32H158.734L156.538 28.1L157.462 28.64H155.098V32H153.682ZM155.098 27.38H156.958C157.286 27.38 157.57 27.316 157.81 27.188C158.05 27.06 158.234 26.884 158.362 26.66C158.498 26.428 158.566 26.156 158.566 25.844C158.566 25.532 158.498 25.264 158.362 25.04C158.234 24.808 158.05 24.632 157.81 24.512C157.57 24.384 157.286 24.32 156.958 24.32H155.098V27.38Z" fill="#0D0D4B"/>
<path d="M35.0536 50.096C34.6803 50.096 34.3336 50.0267 34.0136 49.888C33.6936 49.744 33.4216 49.5493 33.1976 49.304C32.9736 49.0587 32.8083 48.776 32.7016 48.456L33.5016 48.12C33.6456 48.488 33.8563 48.7707 34.1336 48.968C34.4109 49.1653 34.7309 49.264 35.0936 49.264C35.3069 49.264 35.4936 49.232 35.6536 49.168C35.8136 49.0987 35.9363 49.0027 36.0216 48.88C36.1123 48.7573 36.1576 48.616 36.1576 48.456C36.1576 48.2373 36.0963 48.064 35.9736 47.936C35.8509 47.808 35.6696 47.7067 35.4296 47.632L34.3096 47.28C33.8616 47.1413 33.5203 46.9307 33.2856 46.648C33.0509 46.36 32.9336 46.024 32.9336 45.64C32.9336 45.304 33.0163 45.0107 33.1816 44.76C33.3469 44.504 33.5736 44.304 33.8616 44.16C34.1549 44.016 34.4883 43.944 34.8616 43.944C35.2189 43.944 35.5443 44.008 35.8376 44.136C36.1309 44.2587 36.3816 44.4293 36.5896 44.648C36.8029 44.8667 36.9576 45.12 37.0536 45.408L36.2696 45.752C36.1523 45.4373 35.9683 45.1947 35.7176 45.024C35.4723 44.8533 35.1869 44.768 34.8616 44.768C34.6643 44.768 34.4909 44.8027 34.3416 44.872C34.1923 44.936 34.0749 45.032 33.9896 45.16C33.9096 45.2827 33.8696 45.4267 33.8696 45.592C33.8696 45.784 33.9309 45.9547 34.0536 46.104C34.1763 46.2533 34.3629 46.3653 34.6136 46.44L35.6536 46.768C36.1283 46.912 36.4856 47.12 36.7256 47.392C36.9656 47.6587 37.0856 47.992 37.0856 48.392C37.0856 48.7227 36.9976 49.016 36.8216 49.272C36.6509 49.528 36.4136 49.7307 36.1096 49.88C35.8056 50.024 35.4536 50.096 35.0536 50.096ZM38.1453 50V44.04H39.0253L41.2653 47.144H40.8253L43.0253 44.04H43.9053V50H42.9693V45.152L43.3213 45.248L41.0733 48.32H40.9773L38.7773 45.248L39.0893 45.152V50H38.1453ZM44.6095 50L46.7055 44.04H47.8735L49.9695 50H48.9615L48.5055 48.664H46.0815L45.6175 50H44.6095ZM46.3535 47.824H48.2175L47.1615 44.704H47.4255L46.3535 47.824ZM50.6765 50V44.04H52.8445C53.2445 44.04 53.5965 44.1147 53.9005 44.264C54.2045 44.408 54.4419 44.6213 54.6125 44.904C54.7885 45.1813 54.8765 45.5147 54.8765 45.904C54.8765 46.3147 54.7725 46.6667 54.5645 46.96C54.3619 47.2533 54.0872 47.4667 53.7405 47.6L55.1165 50H54.0445L52.5805 47.4L53.1965 47.76H51.6205V50H50.6765ZM51.6205 46.92H52.8605C53.0792 46.92 53.2685 46.8773 53.4285 46.792C53.5885 46.7067 53.7112 46.5893 53.7965 46.44C53.8872 46.2853 53.9325 46.104 53.9325 45.896C53.9325 45.688 53.8872 45.5093 53.7965 45.36C53.7112 45.2053 53.5885 45.088 53.4285 45.008C53.2685 44.9227 53.0792 44.88 52.8605 44.88H51.6205V46.92ZM56.8107 50V44.88H55.2267V44.04H59.3067V44.88H57.7467V50H56.8107ZM62.9949 50L60.8829 44.04H61.8989L63.6269 49.128H63.4269L65.1469 44.04H66.1629L64.0509 50H62.9949ZM66.864 50V44.04H67.808V50H66.864ZM71.1317 50.096C70.7584 50.096 70.4117 50.0267 70.0917 49.888C69.7717 49.744 69.4997 49.5493 69.2757 49.304C69.0517 49.0587 68.8864 48.776 68.7797 48.456L69.5797 48.12C69.7237 48.488 69.9344 48.7707 70.2117 48.968C70.4891 49.1653 70.8091 49.264 71.1717 49.264C71.3851 49.264 71.5717 49.232 71.7317 49.168C71.8917 49.0987 72.0144 49.0027 72.0997 48.88C72.1904 48.7573 72.2357 48.616 72.2357 48.456C72.2357 48.2373 72.1744 48.064 72.0517 47.936C71.9291 47.808 71.7477 47.7067 71.5077 47.632L70.3877 47.28C69.9397 47.1413 69.5984 46.9307 69.3637 46.648C69.1291 46.36 69.0117 46.024 69.0117 45.64C69.0117 45.304 69.0944 45.0107 69.2597 44.76C69.4251 44.504 69.6517 44.304 69.9397 44.16C70.2331 44.016 70.5664 43.944 70.9397 43.944C71.2971 43.944 71.6224 44.008 71.9157 44.136C72.2091 44.2587 72.4597 44.4293 72.6677 44.648C72.8811 44.8667 73.0357 45.12 73.1317 45.408L72.3477 45.752C72.2304 45.4373 72.0464 45.1947 71.7957 45.024C71.5504 44.8533 71.2651 44.768 70.9397 44.768C70.7424 44.768 70.5691 44.8027 70.4197 44.872C70.2704 44.936 70.1531 45.032 70.0677 45.16C69.9877 45.2827 69.9477 45.4267 69.9477 45.592C69.9477 45.784 70.0091 45.9547 70.1317 46.104C70.2544 46.2533 70.4411 46.3653 70.6917 46.44L71.7317 46.768C72.2064 46.912 72.5637 47.12 72.8037 47.392C73.0437 47.6587 73.1637 47.992 73.1637 48.392C73.1637 48.7227 73.0757 49.016 72.8997 49.272C72.7291 49.528 72.4917 49.7307 72.1877 49.88C71.8837 50.024 71.5317 50.096 71.1317 50.096ZM74.2234 50V44.04H75.1674V50H74.2234ZM79.2991 50.096C78.8671 50.096 78.4644 50.0187 78.0911 49.864C77.7231 49.7093 77.3978 49.4933 77.1151 49.216C76.8378 48.9387 76.6191 48.6133 76.4591 48.24C76.3044 47.8667 76.2271 47.4587 76.2271 47.016C76.2271 46.5733 76.3044 46.1653 76.4591 45.792C76.6191 45.4133 76.8378 45.088 77.1151 44.816C77.3924 44.5387 77.7178 44.3253 78.0911 44.176C78.4644 44.0213 78.8671 43.944 79.2991 43.944C79.7364 43.944 80.1391 44.0213 80.5071 44.176C80.8804 44.3253 81.2058 44.5387 81.4831 44.816C81.7658 45.0933 81.9844 45.4187 82.1391 45.792C82.2938 46.1653 82.3711 46.5733 82.3711 47.016C82.3711 47.4587 82.2911 47.8667 82.1311 48.24C81.9764 48.6133 81.7604 48.9387 81.4831 49.216C81.2058 49.4933 80.8804 49.7093 80.5071 49.864C80.1338 50.0187 79.7311 50.096 79.2991 50.096ZM79.2991 49.232C79.6084 49.232 79.8911 49.176 80.1471 49.064C80.4084 48.952 80.6351 48.7973 80.8271 48.6C81.0191 48.3973 81.1684 48.1627 81.2751 47.896C81.3818 47.624 81.4351 47.3307 81.4351 47.016C81.4351 46.7013 81.3818 46.4107 81.2751 46.144C81.1684 45.8773 81.0191 45.6427 80.8271 45.44C80.6351 45.2373 80.4084 45.08 80.1471 44.968C79.8911 44.856 79.6084 44.8 79.2991 44.8C78.9898 44.8 78.7044 44.856 78.4431 44.968C78.1871 45.08 77.9631 45.2373 77.7711 45.44C77.5791 45.6427 77.4298 45.8773 77.3231 46.144C77.2218 46.4107 77.1711 46.7013 77.1711 47.016C77.1711 47.3307 77.2218 47.624 77.3231 47.896C77.4298 48.1627 77.5791 48.3973 77.7711 48.6C77.9631 48.7973 78.1898 48.952 78.4511 49.064C78.7124 49.176 78.9951 49.232 79.2991 49.232ZM83.4265 50V44.04H84.1865L87.5305 48.656L87.1705 48.712V44.04H88.1065V50H87.3465L84.0265 45.352L84.3705 45.288V50H83.4265ZM92.827 50.096C92.4537 50.096 92.107 50.0267 91.787 49.888C91.467 49.744 91.195 49.5493 90.971 49.304C90.747 49.0587 90.5817 48.776 90.475 48.456L91.275 48.12C91.419 48.488 91.6297 48.7707 91.907 48.968C92.1844 49.1653 92.5044 49.264 92.867 49.264C93.0804 49.264 93.267 49.232 93.427 49.168C93.587 49.0987 93.7097 49.0027 93.795 48.88C93.8857 48.7573 93.931 48.616 93.931 48.456C93.931 48.2373 93.8697 48.064 93.747 47.936C93.6244 47.808 93.443 47.7067 93.203 47.632L92.083 47.28C91.635 47.1413 91.2937 46.9307 91.059 46.648C90.8244 46.36 90.707 46.024 90.707 45.64C90.707 45.304 90.7897 45.0107 90.955 44.76C91.1204 44.504 91.347 44.304 91.635 44.16C91.9284 44.016 92.2617 43.944 92.635 43.944C92.9924 43.944 93.3177 44.008 93.611 44.136C93.9044 44.2587 94.155 44.4293 94.363 44.648C94.5764 44.8667 94.731 45.12 94.827 45.408L94.043 45.752C93.9257 45.4373 93.7417 45.1947 93.491 45.024C93.2457 44.8533 92.9604 44.768 92.635 44.768C92.4377 44.768 92.2644 44.8027 92.115 44.872C91.9657 44.936 91.8484 45.032 91.763 45.16C91.683 45.2827 91.643 45.4267 91.643 45.592C91.643 45.784 91.7044 45.9547 91.827 46.104C91.9497 46.2533 92.1364 46.3653 92.387 46.44L93.427 46.768C93.9017 46.912 94.259 47.12 94.499 47.392C94.739 47.6587 94.859 47.992 94.859 48.392C94.859 48.7227 94.771 49.016 94.595 49.272C94.4244 49.528 94.187 49.7307 93.883 49.88C93.579 50.024 93.227 50.096 92.827 50.096ZM98.1507 50.096C97.7081 50.096 97.3134 50.0027 96.9667 49.816C96.6254 49.6293 96.3561 49.3733 96.1587 49.048C95.9667 48.7227 95.8707 48.352 95.8707 47.936V44.04H96.8147V47.896C96.8147 48.1573 96.8707 48.3893 96.9827 48.592C97.1001 48.7947 97.2574 48.952 97.4547 49.064C97.6574 49.176 97.8894 49.232 98.1507 49.232C98.4174 49.232 98.6494 49.176 98.8467 49.064C99.0494 48.952 99.2067 48.7947 99.3187 48.592C99.4361 48.3893 99.4947 48.1573 99.4947 47.896V44.04H100.431V47.936C100.431 48.352 100.335 48.7227 100.143 49.048C99.9507 49.3733 99.6814 49.6293 99.3347 49.816C98.9934 50.0027 98.5987 50.096 98.1507 50.096ZM101.614 50V44.04H102.494L104.734 47.144H104.294L106.494 44.04H107.374V50H106.438V45.152L106.79 45.248L104.542 48.32H104.446L102.246 45.248L102.558 45.152V50H101.614ZM108.606 50V44.04H109.486L111.726 47.144H111.286L113.486 44.04H114.366V50H113.43V45.152L113.782 45.248L111.534 48.32H111.438L109.238 45.248L109.55 45.152V50H108.606ZM115.598 50V44.04H116.542V50H115.598ZM118.834 50V44.88H117.25V44.04H121.33V44.88H119.77V50H118.834ZM123.482 48.232V47.432H127.162V48.232H123.482ZM129.841 50V44.04H132.353C132.726 44.04 133.049 44.1067 133.321 44.24C133.593 44.368 133.801 44.5547 133.945 44.8C134.089 45.04 134.161 45.3253 134.161 45.656C134.161 45.944 134.086 46.208 133.937 46.448C133.793 46.6827 133.566 46.8693 133.257 47.008V46.608C133.529 46.7147 133.75 46.8507 133.921 47.016C134.091 47.176 134.214 47.3573 134.289 47.56C134.369 47.7627 134.409 47.976 134.409 48.2C134.409 48.76 134.225 49.2 133.857 49.52C133.494 49.84 132.995 50 132.361 50H129.841ZM130.785 49.16H132.433C132.747 49.16 132.998 49.0747 133.185 48.904C133.371 48.728 133.465 48.496 133.465 48.208C133.465 47.9147 133.371 47.6827 133.185 47.512C132.998 47.336 132.747 47.248 132.433 47.248H130.785V49.16ZM130.785 46.416H132.377C132.633 46.416 132.838 46.344 132.993 46.2C133.147 46.0507 133.225 45.856 133.225 45.616C133.225 45.376 133.147 45.1893 132.993 45.056C132.838 44.9227 132.633 44.856 132.377 44.856H130.785V46.416ZM134.852 50L136.948 44.04H138.116L140.212 50H139.204L138.748 48.664H136.324L135.86 50H134.852ZM136.596 47.824H138.46L137.404 44.704H137.668L136.596 47.824ZM140.919 50V44.04H141.863V46.664H144.623V44.04H145.559V50H144.623V47.504H141.863V50H140.919ZM146.794 50V44.04H148.962C149.362 44.04 149.714 44.1147 150.018 44.264C150.322 44.408 150.559 44.6213 150.73 44.904C150.906 45.1813 150.994 45.5147 150.994 45.904C150.994 46.3147 150.89 46.6667 150.682 46.96C150.479 47.2533 150.204 47.4667 149.858 47.6L151.234 50H150.162L148.698 47.4L149.314 47.76H147.738V50H146.794ZM147.738 46.92H148.978C149.196 46.92 149.386 46.8773 149.546 46.792C149.706 46.7067 149.828 46.5893 149.914 46.44C150.004 46.2853 150.05 46.104 150.05 45.896C150.05 45.688 150.004 45.5093 149.914 45.36C149.828 45.2053 149.706 45.088 149.546 45.008C149.386 44.9227 149.196 44.88 148.978 44.88H147.738V46.92ZM151.5 50L153.596 44.04H154.764L156.86 50H155.852L155.396 48.664H152.972L152.508 50H151.5ZM153.244 47.824H155.108L154.052 44.704H154.316L153.244 47.824ZM157.567 50V44.04H158.511V50H157.567ZM159.747 50V44.04H160.507L163.851 48.656L163.491 48.712V44.04H164.427V50H163.667L160.347 45.352L160.691 45.288V50H159.747ZM166.843 50V49.32L168.475 47.576C168.795 47.2347 169.046 46.96 169.227 46.752C169.414 46.5387 169.547 46.352 169.627 46.192C169.713 46.032 169.755 45.864 169.755 45.688C169.755 45.4 169.667 45.1787 169.491 45.024C169.315 44.864 169.089 44.784 168.811 44.784C168.523 44.784 168.275 44.8667 168.067 45.032C167.859 45.192 167.715 45.4267 167.635 45.736L166.803 45.496C166.867 45.1813 166.995 44.9093 167.187 44.68C167.379 44.4453 167.614 44.264 167.891 44.136C168.174 44.008 168.478 43.944 168.803 43.944C169.182 43.944 169.513 44.016 169.795 44.16C170.078 44.2987 170.297 44.4933 170.451 44.744C170.611 44.9947 170.691 45.2853 170.691 45.616C170.691 45.8347 170.649 46.048 170.563 46.256C170.483 46.4587 170.358 46.6747 170.187 46.904C170.017 47.128 169.798 47.3813 169.531 47.664L168.091 49.2H170.803V50H166.843ZM174.097 50.096C173.622 50.096 173.206 49.968 172.849 49.712C172.491 49.4507 172.211 49.0907 172.009 48.632C171.811 48.168 171.713 47.6293 171.713 47.016C171.713 46.3973 171.811 45.8587 172.009 45.4C172.211 44.9413 172.489 44.584 172.841 44.328C173.198 44.072 173.614 43.944 174.089 43.944C174.563 43.944 174.977 44.072 175.329 44.328C175.686 44.584 175.963 44.944 176.161 45.408C176.363 45.8667 176.465 46.4027 176.465 47.016C176.465 47.6293 176.366 48.168 176.169 48.632C175.971 49.0907 175.694 49.4507 175.337 49.712C174.985 49.968 174.571 50.096 174.097 50.096ZM174.097 49.232C174.39 49.232 174.643 49.1413 174.857 48.96C175.07 48.7787 175.235 48.5227 175.353 48.192C175.47 47.8613 175.529 47.4693 175.529 47.016C175.529 46.5627 175.47 46.1707 175.353 45.84C175.235 45.5093 175.07 45.2533 174.857 45.072C174.643 44.8907 174.387 44.8 174.089 44.8C173.795 44.8 173.542 44.8907 173.329 45.072C173.115 45.2533 172.95 45.5093 172.833 45.84C172.715 46.1707 172.657 46.5627 172.657 47.016C172.657 47.464 172.715 47.856 172.833 48.192C172.95 48.5227 173.115 48.7787 173.329 48.96C173.547 49.1413 173.803 49.232 174.097 49.232ZM177.351 50V49.32L178.983 47.576C179.303 47.2347 179.554 46.96 179.735 46.752C179.922 46.5387 180.055 46.352 180.135 46.192C180.221 46.032 180.263 45.864 180.263 45.688C180.263 45.4 180.175 45.1787 179.999 45.024C179.823 44.864 179.597 44.784 179.319 44.784C179.031 44.784 178.783 44.8667 178.575 45.032C178.367 45.192 178.223 45.4267 178.143 45.736L177.311 45.496C177.375 45.1813 177.503 44.9093 177.695 44.68C177.887 44.4453 178.122 44.264 178.399 44.136C178.682 44.008 178.986 43.944 179.311 43.944C179.69 43.944 180.021 44.016 180.303 44.16C180.586 44.2987 180.805 44.4933 180.959 44.744C181.119 44.9947 181.199 45.2853 181.199 45.616C181.199 45.8347 181.157 46.048 181.071 46.256C180.991 46.4587 180.866 46.6747 180.695 46.904C180.525 47.128 180.306 47.3813 180.039 47.664L178.599 49.2H181.311V50H177.351ZM184.124 50.096C183.81 50.096 183.514 50.04 183.236 49.928C182.959 49.8107 182.719 49.648 182.516 49.44C182.314 49.232 182.17 48.9813 182.084 48.688L182.876 48.384C182.978 48.6667 183.143 48.8827 183.372 49.032C183.602 49.1813 183.852 49.256 184.124 49.256C184.348 49.256 184.546 49.2053 184.716 49.104C184.887 49.0027 185.02 48.864 185.116 48.688C185.218 48.512 185.268 48.312 185.268 48.088C185.268 47.8587 185.218 47.6587 185.116 47.488C185.02 47.312 184.887 47.176 184.716 47.08C184.546 46.9787 184.348 46.928 184.124 46.928C183.9 46.928 183.695 46.9787 183.508 47.08C183.322 47.1813 183.186 47.3173 183.1 47.488L182.34 47.32L182.804 44.04H185.98V44.84H183.172L183.532 44.448L183.188 46.96L182.892 46.76C183.052 46.536 183.247 46.3733 183.476 46.272C183.706 46.1707 183.967 46.12 184.26 46.12C184.65 46.12 184.988 46.208 185.276 46.384C185.57 46.5547 185.796 46.7893 185.956 47.088C186.122 47.3813 186.204 47.7147 186.204 48.088C186.204 48.4667 186.114 48.808 185.932 49.112C185.751 49.416 185.503 49.656 185.188 49.832C184.879 50.008 184.524 50.096 184.124 50.096Z" fill="#0047BB"/>
<g clip-path="url(#clip0_8215_2665)">
<path d="M4.4833 32.3503C7.40747 34.6016 7.47599 37.19 7.24842 38.5492C7.68154 39.2536 8.86345 39.9801 9.53882 40.353C8.19296 37.6154 7.19214 34.6237 6.53634 31.3917C5.85118 30.9663 4.75981 29.8779 4.04773 29.1293C3.57301 29.0878 2.58197 28.9027 1.19941 26.9359C-0.745968 24.1652 0.262203 19.5215 0.262203 19.5215L0.790756 19.7978C1.84297 20.3447 2.79486 21.1182 3.56078 22.0989C5.74106 24.9 5.26879 27.2591 4.78428 28.4276C5.0143 29.1293 5.83405 30.0188 6.37484 30.5519C5.79 27.342 5.53796 23.9027 5.62605 20.2425C5.11463 19.6956 4.40744 18.5906 3.94495 17.8309C3.54364 17.6928 2.7239 17.3171 1.87233 15.3226C0.673298 12.5188 2.33727 8.74528 2.33727 8.74528L2.74592 9.09611C3.55588 9.795 4.24349 10.6679 4.73289 11.679C6.12769 14.563 5.31772 16.4856 4.70108 17.3862C4.77449 18.0105 5.28102 18.9 5.65297 19.4801C5.76308 16.4386 6.09833 13.248 6.66848 9.91931C6.4874 9.64031 5.80468 8.96075 6.19621 6.016C6.67337 2.40826 10.4858 -0.00610352 10.4858 -0.00610352L10.6742 0.637543C11.0511 1.91931 11.2052 3.2729 11.0878 4.61821C10.7012 9.05467 8.06817 9.87788 7.07468 10.0326C7.00861 10.4884 6.91318 11.0712 6.85445 11.7398C6.74923 12.9359 6.53144 14.69 6.38218 16.8309C6.53879 16.69 6.73699 16.5105 6.93275 16.3309C6.78593 15.9442 6.58773 15.0933 7.31938 13.0657C8.39362 10.0961 12.0935 8.9276 12.0935 8.9276L12.1375 9.52152C12.2232 10.7038 12.1057 11.9 11.7583 13.0188C10.733 16.3282 8.70439 16.7453 7.65952 16.7259C7.25087 16.9331 6.73944 17.2259 6.33324 17.5851C6.16195 20.4801 6.14237 23.9939 6.66603 27.7619C6.82264 27.516 7.01595 27.2121 7.19948 26.9221C6.94744 26.469 6.6538 25.5491 6.86669 23.469C7.23129 19.911 10.9018 17.3972 10.9018 17.3972L11.1074 18.0243C11.5136 19.2674 11.7069 20.5933 11.631 21.9165C11.3839 26.2453 8.87323 27.1762 7.87975 27.3751C7.52248 27.7149 7.11139 28.1569 6.79572 28.6265C7.28023 31.6514 8.12689 34.8199 9.53637 37.9442C9.60978 37.7094 9.69543 37.4414 9.77863 37.179C9.42626 36.8337 8.9026 36.0519 8.59183 33.9387C8.07306 30.4027 10.9899 26.8475 10.9899 26.8475L11.3398 27.3862C12.0348 28.4552 12.5413 29.6679 12.7933 30.9635C13.6058 35.1735 11.4499 36.8558 10.5348 37.3668C10.3072 37.7563 10.0649 38.2232 9.88874 38.6983C11.3202 41.6707 13.2754 44.5906 15.928 47.295C15.9206 46.9939 15.9108 46.5795 15.901 46.1707C15.4239 45.9884 14.6041 45.4469 13.525 43.3862C11.7583 40.0132 13.4858 35.0878 13.4858 35.0878L14.0315 35.4801C15.1131 36.2591 16.0577 37.2701 16.7648 38.4801C19.0503 42.3779 17.4843 45.0436 16.7257 45.9939C16.6156 46.5768 16.525 47.2757 16.5446 47.911C18.6099 49.911 21.0716 51.7867 24.0055 53.4663C23.9615 53.1817 23.8905 52.7149 23.8171 52.2508C23.3644 52.1983 22.4395 51.9414 20.9468 49.8641C18.7592 46.8226 19.8261 41.6624 19.8261 41.6624L20.4158 41.9608C21.5879 42.5519 22.6523 43.3945 23.5112 44.4746C26.0464 47.6596 25.2511 50.3558 24.6173 51.6072C24.5684 52.2619 24.5512 53.1099 24.6736 53.8447C27.8278 55.5795 31.5081 57.0933 35.7952 58.3088C36.1623 58.4138 36.4633 58.6928 36.6003 59.0574C36.708 59.3475 36.7838 59.7812 36.1868 60.2177C36.0448 60.3226 35.8564 60.3724 35.6142 60.3724C34.535 60.3724 32.7242 59.3806 30.4289 58.1293C29.1271 57.4166 27.6491 56.6099 26.0733 55.8641L25.9925 55.8254C24.9672 56.1817 23.3816 56.4663 22.2413 56.6403C21.9305 56.9967 21.1841 58.1624 18.167 58.0961C14.45 58.0132 11.445 53.4608 11.445 53.4608L12.069 53.121C13.3072 52.4469 14.6555 52.0464 16.0307 51.9967C19.5667 51.8724 21.1792 53.7094 21.8889 55.0878C21.9525 55.1044 22.0161 55.1265 22.0773 55.1541C22.7355 55.4442 23.8563 55.3779 24.7861 55.248C22.8212 54.284 19.8799 52.6873 16.8872 50.0271C15.9989 50.1182 14.4573 49.9387 13.4173 49.7895C12.9622 50.1016 11.9516 50.6624 9.5584 49.8889C6.18886 48.8005 4.42457 43.8337 4.42457 43.8337L5.06568 43.6956C6.33813 43.4193 7.65217 43.4193 8.91483 43.7508C12.5168 44.6956 13.4491 47.19 13.6841 48.6099C14.2469 49.0381 15.3505 49.248 16.1457 49.3475C14.6873 47.9663 13.2338 46.3254 11.8928 44.3751C11.1832 43.342 10.5348 42.2619 9.94502 41.1375C9.17422 40.9829 7.64239 40.1016 6.65869 39.4994C6.15461 39.5989 5.08281 39.7066 3.18393 38.0823C0.511799 35.795 0.460407 30.6735 0.460407 30.6735L1.07461 30.8005C2.29567 31.0519 3.46779 31.5657 4.49308 32.3558L4.4833 32.3503Z" fill="#0047BB"/>
</g>
<g clip-path="url(#clip1_8215_2665)">
<path d="M215.849 32.3503C212.925 34.6016 212.857 37.19 213.084 38.5492C212.651 39.2536 211.469 39.9801 210.794 40.353C212.14 37.6154 213.14 34.6237 213.796 31.3917C214.481 30.9663 215.573 29.8779 216.285 29.1293C216.76 29.0878 217.751 28.9027 219.133 26.9359C221.078 24.1652 220.07 19.5215 220.07 19.5215L219.542 19.7978C218.49 20.3447 217.538 21.1182 216.772 22.0989C214.591 24.9 215.064 27.2591 215.548 28.4276C215.318 29.1293 214.498 30.0188 213.958 30.5519C214.543 27.342 214.795 23.9027 214.706 20.2425C215.218 19.6956 215.925 18.5906 216.388 17.8309C216.789 17.6928 217.609 17.3171 218.46 15.3226C219.659 12.5188 217.995 8.74528 217.995 8.74528L217.587 9.09611C216.777 9.795 216.089 10.6679 215.6 11.679C214.205 14.563 215.015 16.4856 215.631 17.3862C215.558 18.0105 215.051 18.9 214.68 19.4801C214.569 16.4386 214.234 13.248 213.664 9.91931C213.845 9.64031 214.528 8.96075 214.136 6.016C213.659 2.40826 209.847 -0.00610352 209.847 -0.00610352L209.658 0.637543C209.281 1.91931 209.127 3.2729 209.245 4.61821C209.631 9.05467 212.264 9.87788 213.258 10.0326C213.324 10.4884 213.419 11.0712 213.478 11.7398C213.583 12.9359 213.801 14.69 213.95 16.8309C213.794 16.69 213.596 16.5105 213.4 16.3309C213.547 15.9442 213.745 15.0933 213.013 13.0657C211.939 10.0961 208.239 8.9276 208.239 8.9276L208.195 9.52152C208.109 10.7038 208.227 11.9 208.574 13.0188C209.6 16.3282 211.628 16.7453 212.673 16.7259C213.082 16.9331 213.593 17.2259 213.999 17.5851C214.171 20.4801 214.19 23.9939 213.666 27.7619C213.51 27.516 213.317 27.2121 213.133 26.9221C213.385 26.469 213.679 25.5491 213.466 23.469C213.101 19.911 209.431 17.3972 209.431 17.3972L209.225 18.0243C208.819 19.2674 208.626 20.5933 208.702 21.9165C208.949 26.2453 211.459 27.1762 212.453 27.3751C212.81 27.7149 213.221 28.1569 213.537 28.6265C213.052 31.6514 212.206 34.8199 210.796 37.9442C210.723 37.7094 210.637 37.4414 210.554 37.179C210.906 36.8337 211.43 36.0519 211.741 33.9387C212.259 30.4027 209.343 26.8475 209.343 26.8475L208.993 27.3862C208.298 28.4552 207.791 29.6679 207.539 30.9635C206.727 35.1735 208.883 36.8558 209.798 37.3668C210.025 37.7563 210.268 38.2232 210.444 38.6983C209.012 41.6707 207.057 44.5906 204.405 47.295C204.412 46.9939 204.422 46.5795 204.431 46.1707C204.909 45.9884 205.728 45.4469 206.808 43.3862C208.574 40.0132 206.847 35.0878 206.847 35.0878L206.301 35.4801C205.219 36.2591 204.275 37.2701 203.568 38.4801C201.282 42.3779 202.848 45.0436 203.607 45.9939C203.717 46.5768 203.807 47.2757 203.788 47.911C201.723 49.911 199.261 51.7867 196.327 53.4663C196.371 53.1817 196.442 52.7149 196.515 52.2508C196.968 52.1983 197.893 51.9414 199.386 49.8641C201.573 46.8226 200.506 41.6624 200.506 41.6624L199.917 41.9608C198.745 42.5519 197.68 43.3945 196.821 44.4746C194.286 47.6596 195.081 50.3558 195.715 51.6072C195.764 52.2619 195.781 53.1099 195.659 53.8447C192.505 55.5795 188.824 57.0933 184.537 58.3088C184.17 58.4138 183.869 58.6928 183.732 59.0574C183.625 59.3475 183.549 59.7812 184.146 60.2177C184.288 60.3226 184.476 60.3724 184.718 60.3724C185.797 60.3724 187.608 59.3806 189.904 58.1293C191.205 57.4166 192.683 56.6099 194.259 55.8641L194.34 55.8254C195.365 56.1817 196.951 56.4663 198.091 56.6403C198.402 56.9967 199.148 58.1624 202.166 58.0961C205.883 58.0132 208.887 53.4608 208.887 53.4608L208.263 53.121C207.025 52.4469 205.677 52.0464 204.302 51.9967C200.766 51.8724 199.153 53.7094 198.444 55.0878C198.38 55.1044 198.316 55.1265 198.255 55.1541C197.597 55.4442 196.476 55.3779 195.546 55.248C197.511 54.284 200.453 52.6873 203.445 50.0271C204.334 50.1182 205.875 49.9387 206.915 49.7895C207.37 50.1016 208.381 50.6624 210.774 49.8889C214.144 48.8005 215.908 43.8337 215.908 43.8337L215.267 43.6956C213.994 43.4193 212.68 43.4193 211.418 43.7508C207.816 44.6956 206.883 47.19 206.648 48.6099C206.086 49.0381 204.982 49.248 204.187 49.3475C205.645 47.9663 207.099 46.3254 208.44 44.3751C209.149 43.342 209.798 42.2619 210.387 41.1375C211.158 40.9829 212.69 40.1016 213.674 39.4994C214.178 39.5989 215.25 39.7066 217.149 38.0823C219.821 35.795 219.872 30.6735 219.872 30.6735L219.258 30.8005C218.037 31.0519 216.865 31.5657 215.839 32.3558L215.849 32.3503Z" fill="#0047BB"/>
</g>
<defs>
<clipPath id="clip0_8215_2665">
<rect width="36.666" height="60.3702" fill="white" transform="matrix(-1 0 0 1 36.666 0)"/>
</clipPath>
<clipPath id="clip1_8215_2665">
<rect width="36.666" height="60.3702" fill="white" transform="translate(183.666)"/>
</clipPath>
</defs>
</svg>
