<svg width="150" height="30" viewBox="0 0 150 30" fill="none" xmlns="http://www.w3.org/2000/svg">
<path d="M22.7235 16.4498V12.7885L15.7382 11.0632L19.1947 5.81945L16.6721 3.18329L5.76165 14.5852L16.6997 26.0157L19.2222 23.376L15.8037 18.1751L22.7235 16.4498Z" fill="white"/>
<path d="M0 12.7457V16.407L6.98531 18.1359L3.52539 23.3761L6.04796 26.0158L16.9584 14.6103L6.02384 3.18335L3.49782 5.81951L6.91983 11.0204L0 12.7457Z" fill="white"/>
<path d="M12.8728 6.10352e-05H9.84362V3.13988H12.8728V6.10352e-05Z" fill="#16E9D7"/>
<path d="M12.8728 26.0284H9.84362V29.1682H12.8728V26.0284Z" fill="#16E9D7"/>
<path d="M33.9265 20.1909C33.2166 20.1909 32.5515 20.1337 31.9312 20.0159C31.3109 19.9016 30.7664 19.7087 30.2943 19.4408C29.8222 19.1729 29.4534 18.8085 29.1915 18.3441C28.9262 17.8798 28.7952 17.3118 28.7952 16.6403C28.7952 16.6153 28.7952 16.5688 28.7952 16.5117C28.7952 16.476 28.8021 16.4331 28.809 16.3902H31.6417C31.6314 16.4331 31.6245 16.476 31.6176 16.5153C31.6142 16.5581 31.6107 16.601 31.6107 16.6403C31.6107 16.9653 31.7003 17.2225 31.8761 17.4118C32.0518 17.6012 32.3034 17.7405 32.6308 17.8298C32.9547 17.9191 33.3269 17.9619 33.7439 17.9619C33.9472 17.9619 34.1436 17.9548 34.3366 17.9369C34.5296 17.9226 34.7088 17.8905 34.8776 17.8441C35.0465 17.7976 35.1912 17.7369 35.3187 17.6619C35.4463 17.5869 35.5427 17.4976 35.6082 17.394C35.6737 17.2904 35.7082 17.1582 35.7082 17.0011C35.7082 16.7796 35.6151 16.5974 35.4256 16.4474C35.236 16.3009 34.9845 16.1795 34.664 16.0831C34.3435 15.9866 33.9851 15.9009 33.5922 15.8223C33.1959 15.7437 32.7858 15.6473 32.3585 15.5401C31.9312 15.4294 31.5177 15.2972 31.1179 15.1365C30.7182 14.9757 30.3563 14.7793 30.0358 14.5364C29.7153 14.2935 29.4638 13.9898 29.2742 13.6219C29.0847 13.254 28.9917 12.8075 28.9917 12.2824C28.9917 11.693 29.1157 11.1894 29.3638 10.7679C29.612 10.3464 29.9566 10.0034 30.3908 9.73555C30.8284 9.46764 31.3316 9.27118 31.9071 9.1533C32.4791 9.03186 33.096 8.97113 33.7577 8.97113C34.4193 8.97113 34.9983 9.03543 35.5634 9.16045C36.1286 9.28547 36.6179 9.4855 37.0418 9.75341C37.4622 10.0213 37.7965 10.3607 38.0377 10.7714C38.2824 11.1822 38.403 11.6716 38.403 12.2395V12.4289H35.6013V12.3324C35.6013 12.1002 35.5359 11.8931 35.4049 11.7109C35.2739 11.5287 35.0775 11.3823 34.8191 11.2751C34.5606 11.1715 34.2332 11.1179 33.8369 11.1179C33.4406 11.1179 33.0926 11.1536 32.8169 11.2287C32.5446 11.3037 32.3344 11.4037 32.1931 11.5359C32.0518 11.668 31.9794 11.8216 31.9794 12.0002C31.9794 12.211 32.0759 12.386 32.2689 12.5289C32.4619 12.6718 32.7169 12.7896 33.0305 12.8825C33.3441 12.979 33.7025 13.0647 34.1023 13.1433C34.502 13.2219 34.9156 13.3076 35.3429 13.404C35.7702 13.4969 36.1837 13.6219 36.5835 13.7755C36.9832 13.9291 37.3451 14.1256 37.6656 14.3685C37.9861 14.6114 38.2376 14.9079 38.4272 15.2615C38.6133 15.6151 38.7097 16.0473 38.7097 16.5617C38.7097 17.4226 38.503 18.1227 38.086 18.6585C37.669 19.1943 37.1038 19.5836 36.3871 19.8265C35.6703 20.0694 34.8501 20.1909 33.9265 20.1909Z" fill="white"/>
<path d="M44.0178 19.9949V11.6006H40.4097V9.15375H50.593V11.6006H46.9711V19.9949H44.0178Z" fill="white"/>
<path d="M50.6309 19.9913L54.7869 9.15375H58.2296L62.3857 19.9913H59.2497L58.6397 18.2089H54.2562L53.6463 19.9913H50.6309ZM55.0144 15.9835H57.8781L57.1475 13.8224C57.1062 13.6974 57.0579 13.5473 56.9959 13.3795C56.9339 13.2116 56.8787 13.0258 56.8305 12.8258C56.7788 12.6258 56.7237 12.4293 56.6616 12.2328C56.5996 12.04 56.5445 11.8721 56.4928 11.7363H56.4032C56.3515 11.9364 56.286 12.1614 56.2067 12.415C56.124 12.6686 56.0482 12.9187 55.9793 13.1723C55.9069 13.4259 55.8311 13.6366 55.7519 13.8045L55.0213 15.9835H55.0144Z" fill="white"/>
<path d="M64.4003 19.9913V9.15375H71.0996C71.8715 9.15375 72.5159 9.30734 73.0329 9.61097C73.5498 9.91459 73.9392 10.3325 74.1977 10.8576C74.4561 11.3827 74.5871 11.9614 74.5871 12.5936C74.5871 13.2973 74.4285 13.926 74.1149 14.4725C73.8013 15.019 73.3637 15.4512 72.8054 15.7656L74.8903 19.9949H71.6165L69.8969 16.255H67.3398V19.9949H64.4003V19.9913ZM67.3398 14.0439H70.4138C70.7687 14.0439 71.0548 13.9188 71.265 13.6724C71.4752 13.4259 71.5855 13.0973 71.5855 12.6865C71.5855 12.4329 71.5407 12.2114 71.4476 12.0149C71.358 11.8221 71.2202 11.672 71.0375 11.5649C70.8549 11.4613 70.6481 11.4077 70.4138 11.4077H67.3398V14.0439Z" fill="white"/>
<path d="M80.085 19.9949V11.6006H76.4769V9.15375H86.6602V11.6006H83.0384V19.9949H80.085Z" fill="white"/>
<path d="M88.8075 19.9913V9.15375H95.5068C96.2787 9.15375 96.9232 9.30734 97.4401 9.61097C97.957 9.91459 98.3464 10.3325 98.6049 10.8576C98.8633 11.3827 98.9943 11.9614 98.9943 12.5936C98.9943 13.2973 98.8358 13.926 98.5222 14.4725C98.2086 15.019 97.7709 15.4512 97.2126 15.7656L99.2975 19.9949H96.0237L94.3041 16.255H91.7471V19.9949H88.8075V19.9913ZM91.7471 14.0439H94.821C95.176 14.0439 95.462 13.9188 95.6722 13.6724C95.8824 13.4259 95.9927 13.0973 95.9927 12.6865C95.9927 12.4329 95.9479 12.2114 95.8549 12.0149C95.7653 11.8221 95.6274 11.672 95.4448 11.5649C95.2621 11.4613 95.0554 11.4077 94.821 11.4077H91.7471V14.0439Z" fill="white"/>
<path d="M100.962 19.9913L105.118 9.15375H108.561L112.717 19.9913H109.581L108.971 18.2089H104.588L103.978 19.9913H100.962ZM105.346 15.9835H108.21L107.479 13.8224C107.438 13.6974 107.389 13.5473 107.327 13.3795C107.265 13.2116 107.21 13.0258 107.162 12.8258C107.11 12.6258 107.055 12.4293 106.993 12.2328C106.931 12.04 106.876 11.8721 106.824 11.7363H106.735C106.683 11.9364 106.617 12.1614 106.538 12.415C106.455 12.6686 106.38 12.9187 106.311 13.1723C106.238 13.4259 106.163 13.6366 106.083 13.8045L105.353 15.9835H105.346Z" fill="white"/>
<path d="M114.732 19.9913V9.15375H119.436C120.614 9.15375 121.61 9.35021 122.427 9.7467C123.244 10.1396 123.871 10.7362 124.309 11.5292C124.746 12.3221 124.963 13.3366 124.963 14.5654C124.963 15.7942 124.746 16.7979 124.309 17.6016C123.871 18.4053 123.244 19.0054 122.427 19.4019C121.61 19.7948 120.614 19.9949 119.436 19.9949H114.732V19.9913ZM117.671 17.673H119.377C119.794 17.673 120.163 17.6123 120.49 17.4909C120.814 17.3694 121.086 17.1908 121.303 16.9551C121.521 16.7193 121.683 16.4264 121.789 16.0799C121.896 15.7334 121.948 15.3369 121.948 14.8976V14.251C121.948 13.8081 121.896 13.4152 121.789 13.0687C121.683 12.7222 121.521 12.4293 121.303 12.1935C121.086 11.9578 120.814 11.7792 120.49 11.6577C120.166 11.5363 119.794 11.4756 119.377 11.4756H117.671V17.6766V17.673Z" fill="white"/>
<path d="M127.564 19.9913V9.15375H136.837V11.472H130.503V13.3652H135.924V15.6048H130.503V17.673H136.837V19.9913H127.564Z" fill="white"/>
<path d="M139.51 19.9913V9.15375H146.209C146.981 9.15375 147.626 9.30734 148.143 9.61097C148.659 9.91459 149.049 10.3325 149.307 10.8576C149.566 11.3827 149.697 11.9614 149.697 12.5936C149.697 13.2973 149.538 13.926 149.225 14.4725C148.911 15.019 148.473 15.4512 147.915 15.7656L150 19.9949H146.726L145.007 16.255H142.45V19.9949H139.51V19.9913ZM142.446 14.0439H145.52C145.875 14.0439 146.161 13.9188 146.371 13.6724C146.581 13.4259 146.692 13.0973 146.692 12.6865C146.692 12.4329 146.647 12.2114 146.554 12.0149C146.464 11.8221 146.326 11.672 146.144 11.5649C145.961 11.4613 145.754 11.4077 145.52 11.4077H142.446V14.0439Z" fill="white"/>
</svg>
