<svg width="201" height="61" viewBox="0 0 201 61" fill="none" xmlns="http://www.w3.org/2000/svg">
<path d="M44.7521 15V6.06H48.5201C49.0801 6.06 49.5641 6.16 49.9721 6.36C50.3801 6.552 50.6921 6.832 50.9081 7.2C51.1241 7.56 51.2321 7.988 51.2321 8.484C51.2321 8.916 51.1201 9.312 50.8961 9.672C50.6801 10.024 50.3401 10.304 49.8761 10.512V9.912C50.2841 10.072 50.6161 10.276 50.8721 10.524C51.1281 10.764 51.3121 11.036 51.4241 11.34C51.5441 11.644 51.6041 11.964 51.6041 12.3C51.6041 13.14 51.3281 13.8 50.7761 14.28C50.2321 14.76 49.4841 15 48.5321 15H44.7521ZM46.1681 13.74H48.6401C49.1121 13.74 49.4881 13.612 49.7681 13.356C50.0481 13.092 50.1881 12.744 50.1881 12.312C50.1881 11.872 50.0481 11.524 49.7681 11.268C49.4881 11.004 49.1121 10.872 48.6401 10.872H46.1681V13.74ZM46.1681 9.624H48.5561C48.9401 9.624 49.2481 9.516 49.4801 9.3C49.7121 9.076 49.8281 8.784 49.8281 8.424C49.8281 8.064 49.7121 7.784 49.4801 7.584C49.2481 7.384 48.9401 7.284 48.5561 7.284H46.1681V9.624ZM53.0607 15V6.06H58.9527V7.32H54.4767V9.888H58.7127V11.148H54.4767V13.74H58.9527V15H53.0607ZM63.3998 15.144C62.8398 15.144 62.3198 15.04 61.8398 14.832C61.3598 14.616 60.9518 14.324 60.6158 13.956C60.2798 13.588 60.0318 13.164 59.8718 12.684L61.0718 12.18C61.2878 12.732 61.6038 13.156 62.0198 13.452C62.4358 13.748 62.9158 13.896 63.4598 13.896C63.7798 13.896 64.0598 13.848 64.2998 13.752C64.5398 13.648 64.7238 13.504 64.8518 13.32C64.9878 13.136 65.0558 12.924 65.0558 12.684C65.0558 12.356 64.9638 12.096 64.7798 11.904C64.5958 11.712 64.3238 11.56 63.9638 11.448L62.2838 10.92C61.6118 10.712 61.0998 10.396 60.7478 9.972C60.3958 9.54 60.2198 9.036 60.2198 8.46C60.2198 7.956 60.3438 7.516 60.5918 7.14C60.8398 6.756 61.1798 6.456 61.6118 6.24C62.0518 6.024 62.5518 5.916 63.1118 5.916C63.6478 5.916 64.1358 6.012 64.5758 6.204C65.0158 6.388 65.3918 6.644 65.7038 6.972C66.0238 7.3 66.2558 7.68 66.3997 8.112L65.2238 8.628C65.0478 8.156 64.7718 7.792 64.3958 7.536C64.0278 7.28 63.5998 7.152 63.1118 7.152C62.8158 7.152 62.5558 7.204 62.3318 7.308C62.1078 7.404 61.9318 7.548 61.8038 7.74C61.6838 7.924 61.6238 8.14 61.6238 8.388C61.6238 8.676 61.7158 8.932 61.8998 9.156C62.0838 9.38 62.3638 9.548 62.7398 9.66L64.2998 10.152C65.0118 10.368 65.5478 10.68 65.9078 11.088C66.2678 11.488 66.4478 11.988 66.4478 12.588C66.4478 13.084 66.3158 13.524 66.0518 13.908C65.7958 14.292 65.4398 14.596 64.9838 14.82C64.5278 15.036 63.9998 15.144 63.3998 15.144ZM69.6213 15V7.32H67.2453V6.06H73.3653V7.32H71.0253V15H69.6213ZM76.5217 15V6.06H82.3417V7.32H77.9377V10.008H81.8617V11.268H77.9377V15H76.5217ZM87.7563 15.144C87.1083 15.144 86.5043 15.028 85.9443 14.796C85.3923 14.564 84.9043 14.24 84.4803 13.824C84.0643 13.408 83.7363 12.92 83.4963 12.36C83.2643 11.8 83.1483 11.188 83.1483 10.524C83.1483 9.86 83.2643 9.248 83.4963 8.688C83.7363 8.12 84.0643 7.632 84.4803 7.224C84.8963 6.808 85.3843 6.488 85.9443 6.264C86.5043 6.032 87.1083 5.916 87.7563 5.916C88.4123 5.916 89.0163 6.032 89.5683 6.264C90.1283 6.488 90.6163 6.808 91.0323 7.224C91.4563 7.64 91.7843 8.128 92.0163 8.688C92.2483 9.248 92.3643 9.86 92.3643 10.524C92.3643 11.188 92.2443 11.8 92.0043 12.36C91.7723 12.92 91.4483 13.408 91.0323 13.824C90.6163 14.24 90.1283 14.564 89.5683 14.796C89.0083 15.028 88.4043 15.144 87.7563 15.144ZM87.7563 13.848C88.2203 13.848 88.6443 13.764 89.0283 13.596C89.4203 13.428 89.7603 13.196 90.0483 12.9C90.3363 12.596 90.5603 12.244 90.7203 11.844C90.8803 11.436 90.9603 10.996 90.9603 10.524C90.9603 10.052 90.8803 9.616 90.7203 9.216C90.5603 8.816 90.3363 8.464 90.0483 8.16C89.7603 7.856 89.4203 7.62 89.0283 7.452C88.6443 7.284 88.2203 7.2 87.7563 7.2C87.2923 7.2 86.8643 7.284 86.4723 7.452C86.0883 7.62 85.7523 7.856 85.4643 8.16C85.1763 8.464 84.9523 8.816 84.7923 9.216C84.6403 9.616 84.5643 10.052 84.5643 10.524C84.5643 10.996 84.6403 11.436 84.7923 11.844C84.9523 12.244 85.1763 12.596 85.4643 12.9C85.7523 13.196 86.0923 13.428 86.4843 13.596C86.8763 13.764 87.3003 13.848 87.7563 13.848ZM93.9474 15V6.06H97.1994C97.7994 6.06 98.3274 6.172 98.7834 6.396C99.2394 6.612 99.5954 6.932 99.8514 7.356C100.115 7.772 100.247 8.272 100.247 8.856C100.247 9.472 100.091 10 99.7794 10.44C99.4754 10.88 99.0634 11.2 98.5434 11.4L100.607 15H98.9994L96.8034 11.1L97.7274 11.64H95.3634V15H93.9474ZM95.3634 10.38H97.2234C97.5514 10.38 97.8354 10.316 98.0754 10.188C98.3154 10.06 98.4994 9.884 98.6274 9.66C98.7634 9.428 98.8314 9.156 98.8314 8.844C98.8314 8.532 98.7634 8.264 98.6274 8.04C98.4994 7.808 98.3154 7.632 98.0754 7.512C97.8354 7.384 97.5514 7.32 97.2234 7.32H95.3634V10.38ZM101.799 15V6.06H107.691V7.32H103.215V9.888H107.451V11.148H103.215V13.74H107.691V15H101.799ZM108.214 15L111.13 10.476L108.262 6.06H109.87L112.27 9.756H111.586L113.962 6.06H115.57L112.714 10.476L115.63 15H114.022L111.586 11.208L112.27 11.22L109.81 15H108.214ZM120.363 15V7.32H117.987V6.06H124.107V7.32H121.767V15H120.363ZM125.166 15V6.06H128.418C129.018 6.06 129.546 6.172 130.002 6.396C130.458 6.612 130.814 6.932 131.07 7.356C131.334 7.772 131.466 8.272 131.466 8.856C131.466 9.472 131.31 10 130.998 10.44C130.694 10.88 130.282 11.2 129.762 11.4L131.826 15H130.218L128.022 11.1L128.946 11.64H126.582V15H125.166ZM126.582 10.38H128.442C128.77 10.38 129.054 10.316 129.294 10.188C129.534 10.06 129.718 9.884 129.846 9.66C129.982 9.428 130.05 9.156 130.05 8.844C130.05 8.532 129.982 8.264 129.846 8.04C129.718 7.808 129.534 7.632 129.294 7.512C129.054 7.384 128.77 7.32 128.442 7.32H126.582V10.38ZM132.226 15L135.37 6.06H137.122L140.266 15H138.754L138.07 12.996H134.434L133.738 15H132.226ZM134.842 11.736H137.638L136.054 7.056H136.45L134.842 11.736ZM141.326 15V6.06H144.254C145.182 6.06 145.986 6.248 146.666 6.624C147.354 6.992 147.886 7.512 148.262 8.184C148.638 8.856 148.826 9.636 148.826 10.524C148.826 11.404 148.638 12.184 148.262 12.864C147.886 13.536 147.354 14.06 146.666 14.436C145.986 14.812 145.182 15 144.254 15H141.326ZM142.742 13.74H144.278C144.91 13.74 145.458 13.608 145.922 13.344C146.394 13.08 146.758 12.708 147.014 12.228C147.27 11.748 147.398 11.18 147.398 10.524C147.398 9.868 147.266 9.304 147.002 8.832C146.746 8.352 146.386 7.98 145.922 7.716C145.458 7.452 144.91 7.32 144.278 7.32H142.742V13.74ZM150.221 15V6.06H156.113V7.32H151.637V9.888H155.873V11.148H151.637V13.74H156.113V15H150.221ZM66.5783 33V24.06H72.4703V25.32H67.9943V27.888H72.2303V29.148H67.9943V31.74H72.4703V33H66.5783ZM72.9933 33L75.9093 28.476L73.0413 24.06H74.6493L77.0493 27.756H76.3653L78.7413 24.06H80.3493L77.4933 28.476L80.4093 33H78.8013L76.3653 29.208L77.0493 29.22L74.5893 33H72.9933ZM81.4611 33V24.06H87.3531V25.32H82.8771V27.888H87.1131V29.148H82.8771V31.74H87.3531V33H81.4611ZM92.8321 33.144C92.2001 33.144 91.6121 33.028 91.0681 32.796C90.5321 32.564 90.0641 32.244 89.6641 31.836C89.2721 31.42 88.9641 30.932 88.7401 30.372C88.5161 29.812 88.4041 29.196 88.4041 28.524C88.4041 27.86 88.5121 27.248 88.7281 26.688C88.9521 26.12 89.2641 25.632 89.6641 25.224C90.0641 24.808 90.5321 24.488 91.0681 24.264C91.6041 24.032 92.1921 23.916 92.8321 23.916C93.4641 23.916 94.0281 24.024 94.5241 24.24C95.0281 24.456 95.4521 24.74 95.7961 25.092C96.1401 25.436 96.3881 25.812 96.5401 26.22L95.2681 26.82C95.0761 26.34 94.7681 25.952 94.3441 25.656C93.9281 25.352 93.4241 25.2 92.8321 25.2C92.2401 25.2 91.7161 25.34 91.2601 25.62C90.8041 25.9 90.4481 26.288 90.1921 26.784C89.9441 27.28 89.8201 27.86 89.8201 28.524C89.8201 29.188 89.9441 29.772 90.1921 30.276C90.4481 30.772 90.8041 31.16 91.2601 31.44C91.7161 31.712 92.2401 31.848 92.8321 31.848C93.4241 31.848 93.9281 31.7 94.3441 31.404C94.7681 31.108 95.0761 30.72 95.2681 30.24L96.5401 30.84C96.3881 31.24 96.1401 31.616 95.7961 31.968C95.4521 32.32 95.0281 32.604 94.5241 32.82C94.0281 33.036 93.4641 33.144 92.8321 33.144ZM101.344 33.144C100.68 33.144 100.088 33.004 99.5683 32.724C99.0563 32.444 98.6523 32.06 98.3563 31.572C98.0683 31.084 97.9243 30.528 97.9243 29.904V24.06H99.3403V29.844C99.3403 30.236 99.4243 30.584 99.5923 30.888C99.7683 31.192 100.004 31.428 100.3 31.596C100.604 31.764 100.952 31.848 101.344 31.848C101.744 31.848 102.092 31.764 102.388 31.596C102.692 31.428 102.928 31.192 103.096 30.888C103.272 30.584 103.36 30.236 103.36 29.844V24.06H104.764V29.904C104.764 30.528 104.62 31.084 104.332 31.572C104.044 32.06 103.64 32.444 103.12 32.724C102.608 33.004 102.016 33.144 101.344 33.144ZM108.123 33V25.32H105.747V24.06H111.867V25.32H109.527V33H108.123ZM112.926 33V24.06H114.342V33H112.926ZM120.539 33.144C119.891 33.144 119.287 33.028 118.727 32.796C118.175 32.564 117.687 32.24 117.263 31.824C116.847 31.408 116.519 30.92 116.279 30.36C116.047 29.8 115.931 29.188 115.931 28.524C115.931 27.86 116.047 27.248 116.279 26.688C116.519 26.12 116.847 25.632 117.263 25.224C117.679 24.808 118.167 24.488 118.727 24.264C119.287 24.032 119.891 23.916 120.539 23.916C121.195 23.916 121.799 24.032 122.351 24.264C122.911 24.488 123.399 24.808 123.815 25.224C124.239 25.64 124.567 26.128 124.799 26.688C125.031 27.248 125.147 27.86 125.147 28.524C125.147 29.188 125.027 29.8 124.787 30.36C124.555 30.92 124.231 31.408 123.815 31.824C123.399 32.24 122.911 32.564 122.351 32.796C121.791 33.028 121.187 33.144 120.539 33.144ZM120.539 31.848C121.003 31.848 121.427 31.764 121.811 31.596C122.203 31.428 122.543 31.196 122.831 30.9C123.119 30.596 123.343 30.244 123.503 29.844C123.663 29.436 123.743 28.996 123.743 28.524C123.743 28.052 123.663 27.616 123.503 27.216C123.343 26.816 123.119 26.464 122.831 26.16C122.543 25.856 122.203 25.62 121.811 25.452C121.427 25.284 121.003 25.2 120.539 25.2C120.075 25.2 119.647 25.284 119.255 25.452C118.871 25.62 118.535 25.856 118.247 26.16C117.959 26.464 117.735 26.816 117.575 27.216C117.423 27.616 117.347 28.052 117.347 28.524C117.347 28.996 117.423 29.436 117.575 29.844C117.735 30.244 117.959 30.596 118.247 30.9C118.535 31.196 118.875 31.428 119.267 31.596C119.659 31.764 120.083 31.848 120.539 31.848ZM126.731 33V24.06H127.871L132.887 30.984L132.347 31.068V24.06H133.751V33H132.611L127.631 26.028L128.147 25.932V33H126.731Z" fill="#0D0D4B"/>
<path d="M34.4487 51L32.8087 45.04H33.8087L35.1367 50.2H34.8887L36.2647 45.04H37.2487L38.6247 50.2H38.3687L39.7047 45.04H40.6967L39.0647 51H38.0007L36.6167 45.92H36.8967L35.5047 51H34.4487ZM41.3992 51V45.04H42.3432V51H41.3992ZM43.5789 51V45.04H44.5229V48.272L44.2749 48.176L46.9709 45.04H48.1469L45.7629 47.832L45.8109 47.16L48.2429 51H47.1309L45.3869 48.272L44.5229 49.28V51H43.5789ZM48.9461 51V45.04H49.8901V51H48.9461ZM52.5242 51V45.04H56.4042V45.88H53.4682V47.672H56.0842V48.512H53.4682V51H52.5242ZM57.1961 51V45.04H58.1401V51H57.1961ZM59.3758 51V45.04H60.1358L63.4798 49.656L63.1198 49.712V45.04H64.0558V51H63.2958L59.9758 46.352L60.3198 46.288V51H59.3758ZM64.7618 51L66.8578 45.04H68.0258L70.1218 51H69.1138L68.6578 49.664H66.2338L65.7698 51H64.7618ZM66.5058 48.824H68.3698L67.3138 45.704H67.5778L66.5058 48.824ZM70.8289 51V45.04H71.5889L74.9329 49.656L74.5729 49.712V45.04H75.5089V51H74.7489L71.4289 46.352L71.7729 46.288V51H70.8289ZM79.519 51.096C79.0976 51.096 78.7056 51.0187 78.343 50.864C77.9856 50.7093 77.6736 50.496 77.407 50.224C77.1456 49.9467 76.9403 49.6213 76.791 49.248C76.6416 48.8747 76.567 48.464 76.567 48.016C76.567 47.5733 76.639 47.1653 76.783 46.792C76.9323 46.4133 77.1403 46.088 77.407 45.816C77.6736 45.5387 77.9856 45.3253 78.343 45.176C78.7003 45.0213 79.0923 44.944 79.519 44.944C79.9403 44.944 80.3163 45.016 80.647 45.16C80.983 45.304 81.2656 45.4933 81.495 45.728C81.7243 45.9573 81.8896 46.208 81.991 46.48L81.143 46.88C81.015 46.56 80.8096 46.3013 80.527 46.104C80.2496 45.9013 79.9136 45.8 79.519 45.8C79.1243 45.8 78.775 45.8933 78.471 46.08C78.167 46.2667 77.9296 46.5253 77.759 46.856C77.5936 47.1867 77.511 47.5733 77.511 48.016C77.511 48.4587 77.5936 48.848 77.759 49.184C77.9296 49.5147 78.167 49.7733 78.471 49.96C78.775 50.1413 79.1243 50.232 79.519 50.232C79.9136 50.232 80.2496 50.1333 80.527 49.936C80.8096 49.7387 81.015 49.48 81.143 49.16L81.991 49.56C81.8896 49.8267 81.7243 50.0773 81.495 50.312C81.2656 50.5467 80.983 50.736 80.647 50.88C80.3163 51.024 79.9403 51.096 79.519 51.096ZM82.9617 51V45.04H86.8897V45.88H83.9057V47.592H86.7297V48.432H83.9057V50.16H86.8897V51H82.9617ZM89.1648 51V45.04H93.0928V45.88H90.1088V47.592H92.9328V48.432H90.1088V50.16H93.0928V51H89.1648ZM93.4415 51L95.3855 47.984L93.4735 45.04H94.5455L96.1455 47.504H95.6895L97.2735 45.04H98.3455L96.4415 47.984L98.3855 51H97.3135L95.6895 48.472L96.1455 48.48L94.5055 51H93.4415ZM99.0867 51V45.04H101.255C101.655 45.04 102.007 45.1147 102.311 45.264C102.62 45.408 102.86 45.6213 103.031 45.904C103.201 46.1813 103.287 46.5147 103.287 46.904C103.287 47.288 103.199 47.6187 103.023 47.896C102.852 48.1733 102.615 48.3867 102.311 48.536C102.007 48.6853 101.655 48.76 101.255 48.76H100.031V51H99.0867ZM100.031 47.92H101.279C101.492 47.92 101.679 47.8773 101.839 47.792C101.999 47.7067 102.124 47.5893 102.215 47.44C102.305 47.2853 102.351 47.104 102.351 46.896C102.351 46.688 102.305 46.5093 102.215 46.36C102.124 46.2053 101.999 46.088 101.839 46.008C101.679 45.9227 101.492 45.88 101.279 45.88H100.031V47.92ZM107.155 51.096C106.723 51.096 106.32 51.0187 105.947 50.864C105.579 50.7093 105.253 50.4933 104.971 50.216C104.693 49.9387 104.475 49.6133 104.315 49.24C104.16 48.8667 104.083 48.4587 104.083 48.016C104.083 47.5733 104.16 47.1653 104.315 46.792C104.475 46.4133 104.693 46.088 104.971 45.816C105.248 45.5387 105.573 45.3253 105.947 45.176C106.32 45.0213 106.723 44.944 107.155 44.944C107.592 44.944 107.995 45.0213 108.363 45.176C108.736 45.3253 109.061 45.5387 109.339 45.816C109.621 46.0933 109.84 46.4187 109.995 46.792C110.149 47.1653 110.227 47.5733 110.227 48.016C110.227 48.4587 110.147 48.8667 109.987 49.24C109.832 49.6133 109.616 49.9387 109.339 50.216C109.061 50.4933 108.736 50.7093 108.363 50.864C107.989 51.0187 107.587 51.096 107.155 51.096ZM107.155 50.232C107.464 50.232 107.747 50.176 108.003 50.064C108.264 49.952 108.491 49.7973 108.683 49.6C108.875 49.3973 109.024 49.1627 109.131 48.896C109.237 48.624 109.291 48.3307 109.291 48.016C109.291 47.7013 109.237 47.4107 109.131 47.144C109.024 46.8773 108.875 46.6427 108.683 46.44C108.491 46.2373 108.264 46.08 108.003 45.968C107.747 45.856 107.464 45.8 107.155 45.8C106.845 45.8 106.56 45.856 106.299 45.968C106.043 46.08 105.819 46.2373 105.627 46.44C105.435 46.6427 105.285 46.8773 105.179 47.144C105.077 47.4107 105.027 47.7013 105.027 48.016C105.027 48.3307 105.077 48.624 105.179 48.896C105.285 49.1627 105.435 49.3973 105.627 49.6C105.819 49.7973 106.045 49.952 106.307 50.064C106.568 50.176 106.851 50.232 107.155 50.232ZM115.456 51.096C115.035 51.096 114.643 51.0187 114.28 50.864C113.923 50.7093 113.611 50.496 113.344 50.224C113.083 49.9467 112.878 49.6213 112.728 49.248C112.579 48.8747 112.504 48.464 112.504 48.016C112.504 47.5733 112.576 47.1653 112.72 46.792C112.87 46.4133 113.078 46.088 113.344 45.816C113.611 45.5387 113.923 45.3253 114.28 45.176C114.638 45.0213 115.03 44.944 115.456 44.944C115.878 44.944 116.254 45.016 116.584 45.16C116.92 45.304 117.203 45.4933 117.432 45.728C117.662 45.9573 117.827 46.208 117.928 46.48L117.08 46.88C116.952 46.56 116.747 46.3013 116.464 46.104C116.187 45.9013 115.851 45.8 115.456 45.8C115.062 45.8 114.712 45.8933 114.408 46.08C114.104 46.2667 113.867 46.5253 113.696 46.856C113.531 47.1867 113.448 47.5733 113.448 48.016C113.448 48.4587 113.531 48.848 113.696 49.184C113.867 49.5147 114.104 49.7733 114.408 49.96C114.712 50.1413 115.062 50.232 115.456 50.232C115.851 50.232 116.187 50.1333 116.464 49.936C116.747 49.7387 116.952 49.48 117.08 49.16L117.928 49.56C117.827 49.8267 117.662 50.0773 117.432 50.312C117.203 50.5467 116.92 50.736 116.584 50.88C116.254 51.024 115.878 51.096 115.456 51.096ZM120.333 51V48.312L118.293 45.04H119.357L120.989 47.688H120.613L122.237 45.04H123.301L121.269 48.312V51H120.333ZM124.009 51V45.04H126.177C126.577 45.04 126.929 45.1147 127.233 45.264C127.542 45.408 127.782 45.6213 127.953 45.904C128.123 46.1813 128.209 46.5147 128.209 46.904C128.209 47.288 128.121 47.6187 127.945 47.896C127.774 48.1733 127.537 48.3867 127.233 48.536C126.929 48.6853 126.577 48.76 126.177 48.76H124.953V51H124.009ZM124.953 47.92H126.201C126.414 47.92 126.601 47.8773 126.761 47.792C126.921 47.7067 127.046 47.5893 127.137 47.44C127.227 47.2853 127.273 47.104 127.273 46.896C127.273 46.688 127.227 46.5093 127.137 46.36C127.046 46.2053 126.921 46.088 126.761 46.008C126.601 45.9227 126.414 45.88 126.201 45.88H124.953V47.92ZM129.18 51V45.04H131.348C131.748 45.04 132.1 45.1147 132.404 45.264C132.708 45.408 132.946 45.6213 133.116 45.904C133.292 46.1813 133.38 46.5147 133.38 46.904C133.38 47.3147 133.276 47.6667 133.068 47.96C132.866 48.2533 132.591 48.4667 132.244 48.6L133.62 51H132.548L131.084 48.4L131.7 48.76H130.124V51H129.18ZM130.124 47.92H131.364C131.583 47.92 131.772 47.8773 131.932 47.792C132.092 47.7067 132.215 47.5893 132.3 47.44C132.391 47.2853 132.436 47.104 132.436 46.896C132.436 46.688 132.391 46.5093 132.3 46.36C132.215 46.2053 132.092 46.088 131.932 46.008C131.772 45.9227 131.583 45.88 131.364 45.88H130.124V47.92ZM136.647 51.096C136.204 51.096 135.809 51.0027 135.463 50.816C135.121 50.6293 134.852 50.3733 134.655 50.048C134.463 49.7227 134.367 49.352 134.367 48.936V45.04H135.311V48.896C135.311 49.1573 135.367 49.3893 135.479 49.592C135.596 49.7947 135.753 49.952 135.951 50.064C136.153 50.176 136.385 50.232 136.647 50.232C136.913 50.232 137.145 50.176 137.343 50.064C137.545 49.952 137.703 49.7947 137.815 49.592C137.932 49.3893 137.991 49.1573 137.991 48.896V45.04H138.927V48.936C138.927 49.352 138.831 49.7227 138.639 50.048C138.447 50.3733 138.177 50.6293 137.831 50.816C137.489 51.0027 137.095 51.096 136.647 51.096ZM142.198 51.096C141.825 51.096 141.478 51.0267 141.158 50.888C140.838 50.744 140.566 50.5493 140.342 50.304C140.118 50.0587 139.953 49.776 139.846 49.456L140.646 49.12C140.79 49.488 141.001 49.7707 141.278 49.968C141.555 50.1653 141.875 50.264 142.238 50.264C142.451 50.264 142.638 50.232 142.798 50.168C142.958 50.0987 143.081 50.0027 143.166 49.88C143.257 49.7573 143.302 49.616 143.302 49.456C143.302 49.2373 143.241 49.064 143.118 48.936C142.995 48.808 142.814 48.7067 142.574 48.632L141.454 48.28C141.006 48.1413 140.665 47.9307 140.43 47.648C140.195 47.36 140.078 47.024 140.078 46.64C140.078 46.304 140.161 46.0107 140.326 45.76C140.491 45.504 140.718 45.304 141.006 45.16C141.299 45.016 141.633 44.944 142.006 44.944C142.363 44.944 142.689 45.008 142.982 45.136C143.275 45.2587 143.526 45.4293 143.734 45.648C143.947 45.8667 144.102 46.12 144.198 46.408L143.414 46.752C143.297 46.4373 143.113 46.1947 142.862 46.024C142.617 45.8533 142.331 45.768 142.006 45.768C141.809 45.768 141.635 45.8027 141.486 45.872C141.337 45.936 141.219 46.032 141.134 46.16C141.054 46.2827 141.014 46.4267 141.014 46.592C141.014 46.784 141.075 46.9547 141.198 47.104C141.321 47.2533 141.507 47.3653 141.758 47.44L142.798 47.768C143.273 47.912 143.63 48.12 143.87 48.392C144.11 48.6587 144.23 48.992 144.23 49.392C144.23 49.7227 144.142 50.016 143.966 50.272C143.795 50.528 143.558 50.7307 143.254 50.88C142.95 51.024 142.598 51.096 142.198 51.096ZM146.472 51V50.32L148.104 48.576C148.424 48.2347 148.675 47.96 148.856 47.752C149.043 47.5387 149.176 47.352 149.256 47.192C149.342 47.032 149.384 46.864 149.384 46.688C149.384 46.4 149.296 46.1787 149.12 46.024C148.944 45.864 148.718 45.784 148.44 45.784C148.152 45.784 147.904 45.8667 147.696 46.032C147.488 46.192 147.344 46.4267 147.264 46.736L146.432 46.496C146.496 46.1813 146.624 45.9093 146.816 45.68C147.008 45.4453 147.243 45.264 147.52 45.136C147.803 45.008 148.107 44.944 148.432 44.944C148.811 44.944 149.142 45.016 149.424 45.16C149.707 45.2987 149.926 45.4933 150.08 45.744C150.24 45.9947 150.32 46.2853 150.32 46.616C150.32 46.8347 150.278 47.048 150.192 47.256C150.112 47.4587 149.987 47.6747 149.816 47.904C149.646 48.128 149.427 48.3813 149.16 48.664L147.72 50.2H150.432V51H146.472ZM153.726 51.096C153.251 51.096 152.835 50.968 152.478 50.712C152.12 50.4507 151.84 50.0907 151.638 49.632C151.44 49.168 151.342 48.6293 151.342 48.016C151.342 47.3973 151.44 46.8587 151.638 46.4C151.84 45.9413 152.118 45.584 152.47 45.328C152.827 45.072 153.243 44.944 153.718 44.944C154.192 44.944 154.606 45.072 154.958 45.328C155.315 45.584 155.592 45.944 155.79 46.408C155.992 46.8667 156.094 47.4027 156.094 48.016C156.094 48.6293 155.995 49.168 155.798 49.632C155.6 50.0907 155.323 50.4507 154.966 50.712C154.614 50.968 154.2 51.096 153.726 51.096ZM153.726 50.232C154.019 50.232 154.272 50.1413 154.486 49.96C154.699 49.7787 154.864 49.5227 154.982 49.192C155.099 48.8613 155.158 48.4693 155.158 48.016C155.158 47.5627 155.099 47.1707 154.982 46.84C154.864 46.5093 154.699 46.2533 154.486 46.072C154.272 45.8907 154.016 45.8 153.718 45.8C153.424 45.8 153.171 45.8907 152.958 46.072C152.744 46.2533 152.579 46.5093 152.462 46.84C152.344 47.1707 152.286 47.5627 152.286 48.016C152.286 48.464 152.344 48.856 152.462 49.192C152.579 49.5227 152.744 49.7787 152.958 49.96C153.176 50.1413 153.432 50.232 153.726 50.232ZM156.98 51V50.32L158.612 48.576C158.932 48.2347 159.183 47.96 159.364 47.752C159.551 47.5387 159.684 47.352 159.764 47.192C159.849 47.032 159.892 46.864 159.892 46.688C159.892 46.4 159.804 46.1787 159.628 46.024C159.452 45.864 159.225 45.784 158.948 45.784C158.66 45.784 158.412 45.8667 158.204 46.032C157.996 46.192 157.852 46.4267 157.772 46.736L156.94 46.496C157.004 46.1813 157.132 45.9093 157.324 45.68C157.516 45.4453 157.751 45.264 158.028 45.136C158.311 45.008 158.615 44.944 158.94 44.944C159.319 44.944 159.649 45.016 159.932 45.16C160.215 45.2987 160.433 45.4933 160.588 45.744C160.748 45.9947 160.828 46.2853 160.828 46.616C160.828 46.8347 160.785 47.048 160.7 47.256C160.62 47.4587 160.495 47.6747 160.324 47.904C160.153 48.128 159.935 48.3813 159.668 48.664L158.228 50.2H160.94V51H156.98ZM163.753 51.096C163.439 51.096 163.143 51.04 162.865 50.928C162.588 50.8107 162.348 50.648 162.145 50.44C161.943 50.232 161.799 49.9813 161.713 49.688L162.505 49.384C162.607 49.6667 162.772 49.8827 163.001 50.032C163.231 50.1813 163.481 50.256 163.753 50.256C163.977 50.256 164.175 50.2053 164.345 50.104C164.516 50.0027 164.649 49.864 164.745 49.688C164.847 49.512 164.897 49.312 164.897 49.088C164.897 48.8587 164.847 48.6587 164.745 48.488C164.649 48.312 164.516 48.176 164.345 48.08C164.175 47.9787 163.977 47.928 163.753 47.928C163.529 47.928 163.324 47.9787 163.137 48.08C162.951 48.1813 162.815 48.3173 162.729 48.488L161.969 48.32L162.433 45.04H165.609V45.84H162.801L163.161 45.448L162.817 47.96L162.521 47.76C162.681 47.536 162.876 47.3733 163.105 47.272C163.335 47.1707 163.596 47.12 163.889 47.12C164.279 47.12 164.617 47.208 164.905 47.384C165.199 47.5547 165.425 47.7893 165.585 48.088C165.751 48.3813 165.833 48.7147 165.833 49.088C165.833 49.4667 165.743 49.808 165.561 50.112C165.38 50.416 165.132 50.656 164.817 50.832C164.508 51.008 164.153 51.096 163.753 51.096Z" fill="#0047BB"/>
<g clip-path="url(#clip0_8215_2658)">
<path d="M4.4833 32.3503C7.40747 34.6016 7.47599 37.19 7.24842 38.5492C7.68154 39.2536 8.86345 39.9801 9.53882 40.353C8.19296 37.6154 7.19214 34.6237 6.53634 31.3917C5.85118 30.9663 4.75981 29.8779 4.04773 29.1293C3.57301 29.0878 2.58197 28.9027 1.19941 26.9359C-0.745968 24.1652 0.262203 19.5215 0.262203 19.5215L0.790756 19.7978C1.84297 20.3447 2.79486 21.1182 3.56078 22.0989C5.74106 24.9 5.26879 27.2591 4.78428 28.4276C5.0143 29.1293 5.83405 30.0188 6.37484 30.5519C5.79 27.342 5.53796 23.9027 5.62605 20.2425C5.11463 19.6956 4.40744 18.5906 3.94495 17.8309C3.54364 17.6928 2.7239 17.3171 1.87233 15.3226C0.673298 12.5188 2.33727 8.74528 2.33727 8.74528L2.74592 9.09611C3.55588 9.795 4.24349 10.6679 4.73289 11.679C6.12769 14.563 5.31772 16.4856 4.70108 17.3862C4.77449 18.0105 5.28102 18.9 5.65297 19.4801C5.76308 16.4386 6.09833 13.248 6.66848 9.91931C6.4874 9.64031 5.80468 8.96075 6.19621 6.016C6.67337 2.40826 10.4858 -0.00610352 10.4858 -0.00610352L10.6742 0.637543C11.0511 1.91931 11.2052 3.2729 11.0878 4.61821C10.7012 9.05467 8.06817 9.87788 7.07468 10.0326C7.00861 10.4884 6.91318 11.0712 6.85445 11.7398C6.74923 12.9359 6.53144 14.69 6.38218 16.8309C6.53879 16.69 6.73699 16.5105 6.93275 16.3309C6.78593 15.9442 6.58773 15.0933 7.31938 13.0657C8.39362 10.0961 12.0935 8.9276 12.0935 8.9276L12.1375 9.52152C12.2232 10.7038 12.1057 11.9 11.7583 13.0188C10.733 16.3282 8.70439 16.7453 7.65952 16.7259C7.25087 16.9331 6.73944 17.2259 6.33324 17.5851C6.16195 20.4801 6.14237 23.9939 6.66603 27.7619C6.82264 27.516 7.01595 27.2121 7.19948 26.9221C6.94744 26.469 6.6538 25.5491 6.86669 23.469C7.23129 19.911 10.9018 17.3972 10.9018 17.3972L11.1074 18.0243C11.5136 19.2674 11.7069 20.5933 11.631 21.9165C11.3839 26.2453 8.87323 27.1762 7.87975 27.3751C7.52248 27.7149 7.11139 28.1569 6.79572 28.6265C7.28023 31.6514 8.12689 34.8199 9.53637 37.9442C9.60978 37.7094 9.69543 37.4414 9.77863 37.179C9.42626 36.8337 8.9026 36.0519 8.59183 33.9387C8.07306 30.4027 10.9899 26.8475 10.9899 26.8475L11.3398 27.3862C12.0348 28.4552 12.5413 29.6679 12.7933 30.9635C13.6058 35.1735 11.4499 36.8558 10.5348 37.3668C10.3072 37.7563 10.0649 38.2232 9.88874 38.6983C11.3202 41.6707 13.2754 44.5906 15.928 47.295C15.9206 46.9939 15.9108 46.5795 15.901 46.1707C15.4239 45.9884 14.6041 45.4469 13.525 43.3862C11.7583 40.0132 13.4858 35.0878 13.4858 35.0878L14.0315 35.4801C15.1131 36.2591 16.0577 37.2701 16.7648 38.4801C19.0503 42.3779 17.4843 45.0436 16.7257 45.9939C16.6156 46.5768 16.525 47.2757 16.5446 47.911C18.6099 49.911 21.0716 51.7867 24.0055 53.4663C23.9615 53.1817 23.8905 52.7149 23.8171 52.2508C23.3644 52.1983 22.4395 51.9414 20.9468 49.8641C18.7592 46.8226 19.8261 41.6624 19.8261 41.6624L20.4158 41.9608C21.5879 42.5519 22.6523 43.3945 23.5112 44.4746C26.0464 47.6596 25.2511 50.3558 24.6173 51.6072C24.5684 52.2619 24.5512 53.1099 24.6736 53.8447C27.8278 55.5795 31.5081 57.0933 35.7952 58.3088C36.1623 58.4138 36.4633 58.6928 36.6003 59.0574C36.708 59.3475 36.7838 59.7812 36.1868 60.2177C36.0448 60.3226 35.8564 60.3724 35.6142 60.3724C34.535 60.3724 32.7242 59.3806 30.4289 58.1293C29.1271 57.4166 27.6491 56.6099 26.0733 55.8641L25.9925 55.8254C24.9672 56.1817 23.3816 56.4663 22.2413 56.6403C21.9305 56.9967 21.1841 58.1624 18.167 58.0961C14.45 58.0132 11.445 53.4608 11.445 53.4608L12.069 53.121C13.3072 52.4469 14.6555 52.0464 16.0307 51.9967C19.5667 51.8724 21.1792 53.7094 21.8889 55.0878C21.9525 55.1044 22.0161 55.1265 22.0773 55.1541C22.7355 55.4442 23.8563 55.3779 24.7861 55.248C22.8212 54.284 19.8799 52.6873 16.8872 50.0271C15.9989 50.1182 14.4573 49.9387 13.4173 49.7895C12.9622 50.1016 11.9516 50.6624 9.5584 49.8889C6.18886 48.8005 4.42457 43.8337 4.42457 43.8337L5.06568 43.6956C6.33813 43.4193 7.65217 43.4193 8.91483 43.7508C12.5168 44.6956 13.4491 47.19 13.6841 48.6099C14.2469 49.0381 15.3505 49.248 16.1457 49.3475C14.6873 47.9663 13.2338 46.3254 11.8928 44.3751C11.1832 43.342 10.5348 42.2619 9.94502 41.1375C9.17422 40.9829 7.64239 40.1016 6.65869 39.4994C6.15461 39.5989 5.08281 39.7066 3.18393 38.0823C0.511799 35.795 0.460407 30.6735 0.460407 30.6735L1.07461 30.8005C2.29567 31.0519 3.46779 31.5657 4.49308 32.3558L4.4833 32.3503Z" fill="#0047BB"/>
</g>
<g clip-path="url(#clip1_8215_2658)">
<path d="M195.849 32.3503C192.925 34.6016 192.857 37.19 193.084 38.5492C192.651 39.2536 191.469 39.9801 190.794 40.353C192.14 37.6154 193.14 34.6237 193.796 31.3917C194.481 30.9663 195.573 29.8779 196.285 29.1293C196.76 29.0878 197.751 28.9027 199.133 26.9359C201.078 24.1652 200.07 19.5215 200.07 19.5215L199.542 19.7978C198.49 20.3447 197.538 21.1182 196.772 22.0989C194.591 24.9 195.064 27.2591 195.548 28.4276C195.318 29.1293 194.498 30.0188 193.958 30.5519C194.543 27.342 194.795 23.9027 194.706 20.2425C195.218 19.6956 195.925 18.5906 196.388 17.8309C196.789 17.6928 197.609 17.3171 198.46 15.3226C199.659 12.5188 197.995 8.74528 197.995 8.74528L197.587 9.09611C196.777 9.795 196.089 10.6679 195.6 11.679C194.205 14.563 195.015 16.4856 195.631 17.3862C195.558 18.0105 195.051 18.9 194.68 19.4801C194.569 16.4386 194.234 13.248 193.664 9.91931C193.845 9.64031 194.528 8.96075 194.136 6.016C193.659 2.40826 189.847 -0.00610352 189.847 -0.00610352L189.658 0.637543C189.281 1.91931 189.127 3.2729 189.245 4.61821C189.631 9.05467 192.264 9.87788 193.258 10.0326C193.324 10.4884 193.419 11.0712 193.478 11.7398C193.583 12.9359 193.801 14.69 193.95 16.8309C193.794 16.69 193.596 16.5105 193.4 16.3309C193.547 15.9442 193.745 15.0933 193.013 13.0657C191.939 10.0961 188.239 8.9276 188.239 8.9276L188.195 9.52152C188.109 10.7038 188.227 11.9 188.574 13.0188C189.6 16.3282 191.628 16.7453 192.673 16.7259C193.082 16.9331 193.593 17.2259 193.999 17.5851C194.171 20.4801 194.19 23.9939 193.666 27.7619C193.51 27.516 193.317 27.2121 193.133 26.9221C193.385 26.469 193.679 25.5491 193.466 23.469C193.101 19.911 189.431 17.3972 189.431 17.3972L189.225 18.0243C188.819 19.2674 188.626 20.5933 188.702 21.9165C188.949 26.2453 191.459 27.1762 192.453 27.3751C192.81 27.7149 193.221 28.1569 193.537 28.6265C193.052 31.6514 192.206 34.8199 190.796 37.9442C190.723 37.7094 190.637 37.4414 190.554 37.179C190.906 36.8337 191.43 36.0519 191.741 33.9387C192.259 30.4027 189.343 26.8475 189.343 26.8475L188.993 27.3862C188.298 28.4552 187.791 29.6679 187.539 30.9635C186.727 35.1735 188.883 36.8558 189.798 37.3668C190.025 37.7563 190.268 38.2232 190.444 38.6983C189.012 41.6707 187.057 44.5906 184.405 47.295C184.412 46.9939 184.422 46.5795 184.431 46.1707C184.909 45.9884 185.728 45.4469 186.808 43.3862C188.574 40.0132 186.847 35.0878 186.847 35.0878L186.301 35.4801C185.219 36.2591 184.275 37.2701 183.568 38.4801C181.282 42.3779 182.848 45.0436 183.607 45.9939C183.717 46.5768 183.807 47.2757 183.788 47.911C181.723 49.911 179.261 51.7867 176.327 53.4663C176.371 53.1817 176.442 52.7149 176.515 52.2508C176.968 52.1983 177.893 51.9414 179.386 49.8641C181.573 46.8226 180.506 41.6624 180.506 41.6624L179.917 41.9608C178.745 42.5519 177.68 43.3945 176.821 44.4746C174.286 47.6596 175.081 50.3558 175.715 51.6072C175.764 52.2619 175.781 53.1099 175.659 53.8447C172.505 55.5795 168.824 57.0933 164.537 58.3088C164.17 58.4138 163.869 58.6928 163.732 59.0574C163.625 59.3475 163.549 59.7812 164.146 60.2177C164.288 60.3226 164.476 60.3724 164.718 60.3724C165.797 60.3724 167.608 59.3806 169.904 58.1293C171.205 57.4166 172.683 56.6099 174.259 55.8641L174.34 55.8254C175.365 56.1817 176.951 56.4663 178.091 56.6403C178.402 56.9967 179.148 58.1624 182.166 58.0961C185.883 58.0132 188.887 53.4608 188.887 53.4608L188.263 53.121C187.025 52.4469 185.677 52.0464 184.302 51.9967C180.766 51.8724 179.153 53.7094 178.444 55.0878C178.38 55.1044 178.316 55.1265 178.255 55.1541C177.597 55.4442 176.476 55.3779 175.546 55.248C177.511 54.284 180.453 52.6873 183.445 50.0271C184.334 50.1182 185.875 49.9387 186.915 49.7895C187.37 50.1016 188.381 50.6624 190.774 49.8889C194.144 48.8005 195.908 43.8337 195.908 43.8337L195.267 43.6956C193.994 43.4193 192.68 43.4193 191.418 43.7508C187.816 44.6956 186.883 47.19 186.648 48.6099C186.086 49.0381 184.982 49.248 184.187 49.3475C185.645 47.9663 187.099 46.3254 188.44 44.3751C189.149 43.342 189.798 42.2619 190.387 41.1375C191.158 40.9829 192.69 40.1016 193.674 39.4994C194.178 39.5989 195.25 39.7066 197.149 38.0823C199.821 35.795 199.872 30.6735 199.872 30.6735L199.258 30.8005C198.037 31.0519 196.865 31.5657 195.839 32.3558L195.849 32.3503Z" fill="#0047BB"/>
</g>
<defs>
<clipPath id="clip0_8215_2658">
<rect width="36.666" height="60.3702" fill="white" transform="matrix(-1 0 0 1 36.666 0)"/>
</clipPath>
<clipPath id="clip1_8215_2658">
<rect width="36.666" height="60.3702" fill="white" transform="translate(163.666)"/>
</clipPath>
</defs>
</svg>
