<svg width="201" height="61" viewBox="0 0 201 61" fill="none" xmlns="http://www.w3.org/2000/svg">
<path d="M25.299 14V5.06H29.067C29.627 5.06 30.111 5.16 30.519 5.36C30.927 5.552 31.239 5.832 31.455 6.2C31.671 6.56 31.779 6.988 31.779 7.484C31.779 7.916 31.667 8.312 31.443 8.672C31.227 9.024 30.887 9.304 30.423 9.512V8.912C30.831 9.072 31.163 9.276 31.419 9.524C31.675 9.764 31.859 10.036 31.971 10.34C32.091 10.644 32.151 10.964 32.151 11.3C32.151 12.14 31.875 12.8 31.323 13.28C30.779 13.76 30.031 14 29.079 14H25.299ZM26.715 12.74H29.187C29.659 12.74 30.035 12.612 30.315 12.356C30.595 12.092 30.735 11.744 30.735 11.312C30.735 10.872 30.595 10.524 30.315 10.268C30.035 10.004 29.659 9.872 29.187 9.872H26.715V12.74ZM26.715 8.624H29.103C29.487 8.624 29.795 8.516 30.027 8.3C30.259 8.076 30.375 7.784 30.375 7.424C30.375 7.064 30.259 6.784 30.027 6.584C29.795 6.384 29.487 6.284 29.103 6.284H26.715V8.624ZM33.6076 14V5.06H39.4996V6.32H35.0236V8.888H39.2596V10.148H35.0236V12.74H39.4996V14H33.6076ZM43.9466 14.144C43.3866 14.144 42.8666 14.04 42.3866 13.832C41.9066 13.616 41.4986 13.324 41.1626 12.956C40.8266 12.588 40.5786 12.164 40.4186 11.684L41.6186 11.18C41.8346 11.732 42.1506 12.156 42.5666 12.452C42.9826 12.748 43.4626 12.896 44.0066 12.896C44.3266 12.896 44.6066 12.848 44.8466 12.752C45.0866 12.648 45.2706 12.504 45.3986 12.32C45.5346 12.136 45.6026 11.924 45.6026 11.684C45.6026 11.356 45.5106 11.096 45.3266 10.904C45.1426 10.712 44.8706 10.56 44.5106 10.448L42.8306 9.92C42.1586 9.712 41.6466 9.396 41.2946 8.972C40.9426 8.54 40.7666 8.036 40.7666 7.46C40.7666 6.956 40.8906 6.516 41.1386 6.14C41.3866 5.756 41.7266 5.456 42.1586 5.24C42.5986 5.024 43.0986 4.916 43.6586 4.916C44.1946 4.916 44.6826 5.012 45.1226 5.204C45.5626 5.388 45.9386 5.644 46.2506 5.972C46.5706 6.3 46.8026 6.68 46.9466 7.112L45.7706 7.628C45.5946 7.156 45.3186 6.792 44.9426 6.536C44.5746 6.28 44.1466 6.152 43.6586 6.152C43.3626 6.152 43.1026 6.204 42.8786 6.308C42.6546 6.404 42.4786 6.548 42.3506 6.74C42.2306 6.924 42.1706 7.14 42.1706 7.388C42.1706 7.676 42.2626 7.932 42.4466 8.156C42.6306 8.38 42.9106 8.548 43.2866 8.66L44.8466 9.152C45.5586 9.368 46.0946 9.68 46.4546 10.088C46.8146 10.488 46.9946 10.988 46.9946 11.588C46.9946 12.084 46.8626 12.524 46.5986 12.908C46.3426 13.292 45.9866 13.596 45.5306 13.82C45.0746 14.036 44.5466 14.144 43.9466 14.144ZM50.1682 14V6.32H47.7922V5.06H53.9122V6.32H51.5722V14H50.1682ZM57.0685 14V5.06H60.8365C61.3965 5.06 61.8805 5.16 62.2885 5.36C62.6965 5.552 63.0085 5.832 63.2245 6.2C63.4405 6.56 63.5485 6.988 63.5485 7.484C63.5485 7.916 63.4365 8.312 63.2125 8.672C62.9965 9.024 62.6565 9.304 62.1925 9.512V8.912C62.6005 9.072 62.9325 9.276 63.1885 9.524C63.4445 9.764 63.6285 10.036 63.7405 10.34C63.8605 10.644 63.9205 10.964 63.9205 11.3C63.9205 12.14 63.6445 12.8 63.0925 13.28C62.5485 13.76 61.8005 14 60.8485 14H57.0685ZM58.4845 12.74H60.9565C61.4285 12.74 61.8045 12.612 62.0845 12.356C62.3645 12.092 62.5045 11.744 62.5045 11.312C62.5045 10.872 62.3645 10.524 62.0845 10.268C61.8045 10.004 61.4285 9.872 60.9565 9.872H58.4845V12.74ZM58.4845 8.624H60.8725C61.2565 8.624 61.5645 8.516 61.7965 8.3C62.0285 8.076 62.1445 7.784 62.1445 7.424C62.1445 7.064 62.0285 6.784 61.7965 6.584C61.5645 6.384 61.2565 6.284 60.8725 6.284H58.4845V8.624ZM65.3771 14V5.06H68.6291C69.2291 5.06 69.7571 5.172 70.2131 5.396C70.6691 5.612 71.0251 5.932 71.2811 6.356C71.5451 6.772 71.6771 7.272 71.6771 7.856C71.6771 8.472 71.5211 9 71.2091 9.44C70.9051 9.88 70.4931 10.2 69.9731 10.4L72.0371 14H70.4291L68.2331 10.1L69.1571 10.64H66.7931V14H65.3771ZM66.7931 9.38H68.6531C68.9811 9.38 69.2651 9.316 69.5051 9.188C69.7451 9.06 69.9291 8.884 70.0571 8.66C70.1931 8.428 70.2611 8.156 70.2611 7.844C70.2611 7.532 70.1931 7.264 70.0571 7.04C69.9291 6.808 69.7451 6.632 69.5051 6.512C69.2651 6.384 68.9811 6.32 68.6531 6.32H66.7931V9.38ZM77.5727 14.144C76.9247 14.144 76.3207 14.028 75.7607 13.796C75.2087 13.564 74.7207 13.24 74.2967 12.824C73.8807 12.408 73.5527 11.92 73.3127 11.36C73.0807 10.8 72.9647 10.188 72.9647 9.524C72.9647 8.86 73.0807 8.248 73.3127 7.688C73.5527 7.12 73.8807 6.632 74.2967 6.224C74.7127 5.808 75.2007 5.488 75.7607 5.264C76.3207 5.032 76.9247 4.916 77.5727 4.916C78.2287 4.916 78.8327 5.032 79.3847 5.264C79.9447 5.488 80.4327 5.808 80.8487 6.224C81.2727 6.64 81.6007 7.128 81.8327 7.688C82.0647 8.248 82.1807 8.86 82.1807 9.524C82.1807 10.188 82.0607 10.8 81.8207 11.36C81.5887 11.92 81.2647 12.408 80.8487 12.824C80.4327 13.24 79.9447 13.564 79.3847 13.796C78.8247 14.028 78.2207 14.144 77.5727 14.144ZM77.5727 12.848C78.0367 12.848 78.4607 12.764 78.8447 12.596C79.2367 12.428 79.5767 12.196 79.8647 11.9C80.1527 11.596 80.3767 11.244 80.5367 10.844C80.6967 10.436 80.7767 9.996 80.7767 9.524C80.7767 9.052 80.6967 8.616 80.5367 8.216C80.3767 7.816 80.1527 7.464 79.8647 7.16C79.5767 6.856 79.2367 6.62 78.8447 6.452C78.4607 6.284 78.0367 6.2 77.5727 6.2C77.1087 6.2 76.6807 6.284 76.2887 6.452C75.9047 6.62 75.5687 6.856 75.2807 7.16C74.9927 7.464 74.7687 7.816 74.6087 8.216C74.4567 8.616 74.3807 9.052 74.3807 9.524C74.3807 9.996 74.4567 10.436 74.6087 10.844C74.7687 11.244 74.9927 11.596 75.2807 11.9C75.5687 12.196 75.9087 12.428 76.3007 12.596C76.6927 12.764 77.1167 12.848 77.5727 12.848ZM83.7638 14V5.06H85.1798V9.908L84.8078 9.764L88.8518 5.06H90.6158L87.0398 9.248L87.1118 8.24L90.7598 14H89.0918L86.4758 9.908L85.1798 11.42V14H83.7638ZM91.8146 14V5.06H97.7066V6.32H93.2306V8.888H97.4666V10.148H93.2306V12.74H97.7066V14H91.8146ZM99.0217 14V5.06H102.274C102.874 5.06 103.402 5.172 103.858 5.396C104.314 5.612 104.67 5.932 104.926 6.356C105.19 6.772 105.322 7.272 105.322 7.856C105.322 8.472 105.166 9 104.854 9.44C104.55 9.88 104.138 10.2 103.618 10.4L105.682 14H104.074L101.878 10.1L102.802 10.64H100.438V14H99.0217ZM100.438 9.38H102.298C102.626 9.38 102.91 9.316 103.15 9.188C103.39 9.06 103.574 8.884 103.702 8.66C103.838 8.428 103.906 8.156 103.906 7.844C103.906 7.532 103.838 7.264 103.702 7.04C103.574 6.808 103.39 6.632 103.15 6.512C102.91 6.384 102.626 6.32 102.298 6.32H100.438V9.38ZM108.971 14V5.06H110.387V14H108.971ZM112.24 14V5.06H113.38L118.396 11.984L117.856 12.068V5.06H119.26V14H118.12L113.14 7.028L113.656 6.932V14H112.24ZM124.793 14V6.32H122.417V5.06H128.537V6.32H126.197V14H124.793ZM129.596 14V5.06H132.848C133.448 5.06 133.976 5.172 134.432 5.396C134.888 5.612 135.244 5.932 135.5 6.356C135.764 6.772 135.896 7.272 135.896 7.856C135.896 8.472 135.74 9 135.428 9.44C135.124 9.88 134.712 10.2 134.192 10.4L136.256 14H134.648L132.452 10.1L133.376 10.64H131.012V14H129.596ZM131.012 9.38H132.872C133.2 9.38 133.484 9.316 133.724 9.188C133.964 9.06 134.148 8.884 134.276 8.66C134.412 8.428 134.48 8.156 134.48 7.844C134.48 7.532 134.412 7.264 134.276 7.04C134.148 6.808 133.964 6.632 133.724 6.512C133.484 6.384 133.2 6.32 132.872 6.32H131.012V9.38ZM136.655 14L139.799 5.06H141.551L144.695 14H143.183L142.499 11.996H138.863L138.167 14H136.655ZM139.271 10.736H142.067L140.483 6.056H140.879L139.271 10.736ZM145.756 14V5.06H148.684C149.612 5.06 150.416 5.248 151.096 5.624C151.784 5.992 152.316 6.512 152.692 7.184C153.068 7.856 153.256 8.636 153.256 9.524C153.256 10.404 153.068 11.184 152.692 11.864C152.316 12.536 151.784 13.06 151.096 13.436C150.416 13.812 149.612 14 148.684 14H145.756ZM147.172 12.74H148.708C149.34 12.74 149.888 12.608 150.352 12.344C150.824 12.08 151.188 11.708 151.444 11.228C151.7 10.748 151.828 10.18 151.828 9.524C151.828 8.868 151.696 8.304 151.432 7.832C151.176 7.352 150.816 6.98 150.352 6.716C149.888 6.452 149.34 6.32 148.708 6.32H147.172V12.74ZM154.651 14V5.06H156.067V14H154.651ZM157.92 14V5.06H159.06L164.076 11.984L163.536 12.068V5.06H164.94V14H163.8L158.82 7.028L159.336 6.932V14H157.92ZM170.979 14.144C170.347 14.144 169.759 14.028 169.215 13.796C168.679 13.564 168.207 13.244 167.799 12.836C167.399 12.42 167.087 11.932 166.863 11.372C166.639 10.812 166.527 10.196 166.527 9.524C166.527 8.86 166.635 8.248 166.851 7.688C167.075 7.12 167.387 6.632 167.787 6.224C168.187 5.808 168.655 5.488 169.191 5.264C169.727 5.032 170.315 4.916 170.955 4.916C171.587 4.916 172.151 5.024 172.647 5.24C173.151 5.456 173.575 5.74 173.919 6.092C174.263 6.436 174.511 6.812 174.663 7.22L173.403 7.832C173.219 7.344 172.915 6.952 172.491 6.656C172.067 6.352 171.555 6.2 170.955 6.2C170.363 6.2 169.839 6.34 169.383 6.62C168.927 6.9 168.571 7.288 168.315 7.784C168.067 8.28 167.943 8.86 167.943 9.524C167.943 10.188 168.071 10.772 168.327 11.276C168.591 11.772 168.951 12.16 169.407 12.44C169.863 12.712 170.387 12.848 170.979 12.848C171.475 12.848 171.927 12.748 172.335 12.548C172.751 12.34 173.083 12.052 173.331 11.684C173.579 11.308 173.703 10.872 173.703 10.376V9.764L174.339 10.34H170.955V9.14H175.107V9.98C175.107 10.636 174.995 11.224 174.771 11.744C174.547 12.256 174.243 12.692 173.859 13.052C173.475 13.412 173.035 13.684 172.539 13.868C172.043 14.052 171.523 14.144 170.979 14.144ZM59.965 32V24.32H57.589V23.06H63.709V24.32H61.369V32H59.965ZM64.7678 32V23.06H70.6598V24.32H66.1838V26.888H70.4198V28.148H66.1838V30.74H70.6598V32H64.7678ZM76.1388 32.144C75.5068 32.144 74.9188 32.028 74.3748 31.796C73.8388 31.564 73.3708 31.244 72.9708 30.836C72.5788 30.42 72.2708 29.932 72.0468 29.372C71.8228 28.812 71.7108 28.196 71.7108 27.524C71.7108 26.86 71.8188 26.248 72.0348 25.688C72.2588 25.12 72.5708 24.632 72.9708 24.224C73.3708 23.808 73.8388 23.488 74.3748 23.264C74.9108 23.032 75.4988 22.916 76.1388 22.916C76.7708 22.916 77.3348 23.024 77.8308 23.24C78.3348 23.456 78.7588 23.74 79.1028 24.092C79.4468 24.436 79.6948 24.812 79.8468 25.22L78.5748 25.82C78.3828 25.34 78.0748 24.952 77.6508 24.656C77.2348 24.352 76.7308 24.2 76.1388 24.2C75.5468 24.2 75.0228 24.34 74.5668 24.62C74.1108 24.9 73.7548 25.288 73.4988 25.784C73.2508 26.28 73.1268 26.86 73.1268 27.524C73.1268 28.188 73.2508 28.772 73.4988 29.276C73.7548 29.772 74.1108 30.16 74.5668 30.44C75.0228 30.712 75.5468 30.848 76.1388 30.848C76.7308 30.848 77.2348 30.7 77.6508 30.404C78.0748 30.108 78.3828 29.72 78.5748 29.24L79.8468 29.84C79.6948 30.24 79.4468 30.616 79.1028 30.968C78.7588 31.32 78.3348 31.604 77.8308 31.82C77.3348 32.036 76.7708 32.144 76.1388 32.144ZM81.3029 32V23.06H82.7189V26.996H86.8589V23.06H88.2629V32H86.8589V28.256H82.7189V32H81.3029ZM90.1154 32V23.06H91.2554L96.2714 29.984L95.7314 30.068V23.06H97.1354V32H95.9954L91.0154 25.028L91.5314 24.932V32H90.1154ZM103.331 32.144C102.683 32.144 102.079 32.028 101.519 31.796C100.967 31.564 100.479 31.24 100.055 30.824C99.6385 30.408 99.3105 29.92 99.0705 29.36C98.8385 28.8 98.7225 28.188 98.7225 27.524C98.7225 26.86 98.8385 26.248 99.0705 25.688C99.3105 25.12 99.6385 24.632 100.055 24.224C100.471 23.808 100.959 23.488 101.519 23.264C102.079 23.032 102.683 22.916 103.331 22.916C103.987 22.916 104.591 23.032 105.143 23.264C105.703 23.488 106.191 23.808 106.607 24.224C107.031 24.64 107.359 25.128 107.591 25.688C107.823 26.248 107.939 26.86 107.939 27.524C107.939 28.188 107.819 28.8 107.579 29.36C107.347 29.92 107.023 30.408 106.607 30.824C106.191 31.24 105.703 31.564 105.143 31.796C104.583 32.028 103.979 32.144 103.331 32.144ZM103.331 30.848C103.795 30.848 104.219 30.764 104.603 30.596C104.995 30.428 105.335 30.196 105.623 29.9C105.911 29.596 106.135 29.244 106.295 28.844C106.455 28.436 106.535 27.996 106.535 27.524C106.535 27.052 106.455 26.616 106.295 26.216C106.135 25.816 105.911 25.464 105.623 25.16C105.335 24.856 104.995 24.62 104.603 24.452C104.219 24.284 103.795 24.2 103.331 24.2C102.867 24.2 102.439 24.284 102.047 24.452C101.663 24.62 101.327 24.856 101.039 25.16C100.751 25.464 100.527 25.816 100.367 26.216C100.215 26.616 100.139 27.052 100.139 27.524C100.139 27.996 100.215 28.436 100.367 28.844C100.527 29.244 100.751 29.596 101.039 29.9C101.327 30.196 101.667 30.428 102.059 30.596C102.451 30.764 102.875 30.848 103.331 30.848ZM109.522 32V23.06H110.938V30.74H114.802V32H109.522ZM120.1 32.144C119.452 32.144 118.848 32.028 118.288 31.796C117.736 31.564 117.248 31.24 116.824 30.824C116.408 30.408 116.08 29.92 115.84 29.36C115.608 28.8 115.492 28.188 115.492 27.524C115.492 26.86 115.608 26.248 115.84 25.688C116.08 25.12 116.408 24.632 116.824 24.224C117.24 23.808 117.728 23.488 118.288 23.264C118.848 23.032 119.452 22.916 120.1 22.916C120.756 22.916 121.36 23.032 121.912 23.264C122.472 23.488 122.96 23.808 123.376 24.224C123.8 24.64 124.128 25.128 124.36 25.688C124.592 26.248 124.708 26.86 124.708 27.524C124.708 28.188 124.588 28.8 124.348 29.36C124.116 29.92 123.792 30.408 123.376 30.824C122.96 31.24 122.472 31.564 121.912 31.796C121.352 32.028 120.748 32.144 120.1 32.144ZM120.1 30.848C120.564 30.848 120.988 30.764 121.372 30.596C121.764 30.428 122.104 30.196 122.392 29.9C122.68 29.596 122.904 29.244 123.064 28.844C123.224 28.436 123.304 27.996 123.304 27.524C123.304 27.052 123.224 26.616 123.064 26.216C122.904 25.816 122.68 25.464 122.392 25.16C122.104 24.856 121.764 24.62 121.372 24.452C120.988 24.284 120.564 24.2 120.1 24.2C119.636 24.2 119.208 24.284 118.816 24.452C118.432 24.62 118.096 24.856 117.808 25.16C117.52 25.464 117.296 25.816 117.136 26.216C116.984 26.616 116.908 27.052 116.908 27.524C116.908 27.996 116.984 28.436 117.136 28.844C117.296 29.244 117.52 29.596 117.808 29.9C118.096 30.196 118.436 30.428 118.828 30.596C119.22 30.764 119.644 30.848 120.1 30.848ZM130.479 32.144C129.847 32.144 129.259 32.028 128.715 31.796C128.179 31.564 127.707 31.244 127.299 30.836C126.899 30.42 126.587 29.932 126.363 29.372C126.139 28.812 126.027 28.196 126.027 27.524C126.027 26.86 126.135 26.248 126.351 25.688C126.575 25.12 126.887 24.632 127.287 24.224C127.687 23.808 128.155 23.488 128.691 23.264C129.227 23.032 129.815 22.916 130.455 22.916C131.087 22.916 131.651 23.024 132.147 23.24C132.651 23.456 133.075 23.74 133.419 24.092C133.763 24.436 134.011 24.812 134.163 25.22L132.903 25.832C132.719 25.344 132.415 24.952 131.991 24.656C131.567 24.352 131.055 24.2 130.455 24.2C129.863 24.2 129.339 24.34 128.883 24.62C128.427 24.9 128.071 25.288 127.815 25.784C127.567 26.28 127.443 26.86 127.443 27.524C127.443 28.188 127.571 28.772 127.827 29.276C128.091 29.772 128.451 30.16 128.907 30.44C129.363 30.712 129.887 30.848 130.479 30.848C130.975 30.848 131.427 30.748 131.835 30.548C132.251 30.34 132.583 30.052 132.831 29.684C133.079 29.308 133.203 28.872 133.203 28.376V27.764L133.839 28.34H130.455V27.14H134.607V27.98C134.607 28.636 134.495 29.224 134.271 29.744C134.047 30.256 133.743 30.692 133.359 31.052C132.975 31.412 132.535 31.684 132.039 31.868C131.543 32.052 131.023 32.144 130.479 32.144ZM137.958 32V27.968L134.898 23.06H136.494L138.942 27.032H138.378L140.814 23.06H142.41L139.362 27.968V32H137.958Z" fill="#0D0D4B"/>
<path d="M51.3276 50L49.6876 44.04H50.6876L52.0156 49.2H51.7676L53.1436 44.04H54.1276L55.5036 49.2H55.2476L56.5836 44.04H57.5756L55.9436 50H54.8796L53.4956 44.92H53.7756L52.3836 50H51.3276ZM58.2781 50V44.04H62.2061V44.88H59.2221V46.592H62.0461V47.432H59.2221V49.16H62.2061V50H58.2781ZM62.5548 50L64.6508 44.04H65.8188L67.9148 50H66.9068L66.4508 48.664H64.0268L63.5628 50H62.5548ZM64.2988 47.824H66.1628L65.1068 44.704H65.3708L64.2988 47.824ZM68.6219 50V44.04H69.5659V49.16H72.1419V50H68.6219ZM73.5138 50V44.88H71.9298V44.04H76.0098V44.88H74.4498V50H73.5138ZM76.7156 50V44.04H77.6596V46.664H80.4196V44.04H81.3556V50H80.4196V47.504H77.6596V50H76.7156ZM83.989 50V44.04H87.917V44.88H84.933V46.592H87.757V47.432H84.933V49.16H87.917V50H83.989ZM88.2657 50L90.2097 46.984L88.2977 44.04H89.3697L90.9697 46.504H90.5137L92.0977 44.04H93.1697L91.2657 46.984L93.2097 50H92.1377L90.5137 47.472L90.9697 47.48L89.3297 50H88.2657ZM93.9109 50V44.04H96.0789C96.4789 44.04 96.8309 44.1147 97.1349 44.264C97.4443 44.408 97.6843 44.6213 97.8549 44.904C98.0256 45.1813 98.1109 45.5147 98.1109 45.904C98.1109 46.288 98.0229 46.6187 97.8469 46.896C97.6763 47.1733 97.4389 47.3867 97.1349 47.536C96.8309 47.6853 96.4789 47.76 96.0789 47.76H94.8549V50H93.9109ZM94.8549 46.92H96.1029C96.3163 46.92 96.5029 46.8773 96.6629 46.792C96.8229 46.7067 96.9483 46.5893 97.0389 46.44C97.1296 46.2853 97.1749 46.104 97.1749 45.896C97.1749 45.688 97.1296 45.5093 97.0389 45.36C96.9483 45.2053 96.8229 45.088 96.6629 45.008C96.5029 44.9227 96.3163 44.88 96.1029 44.88H94.8549V46.92ZM101.979 50.096C101.547 50.096 101.144 50.0187 100.771 49.864C100.403 49.7093 100.077 49.4933 99.7948 49.216C99.5175 48.9387 99.2988 48.6133 99.1388 48.24C98.9841 47.8667 98.9068 47.4587 98.9068 47.016C98.9068 46.5733 98.9841 46.1653 99.1388 45.792C99.2988 45.4133 99.5175 45.088 99.7948 44.816C100.072 44.5387 100.397 44.3253 100.771 44.176C101.144 44.0213 101.547 43.944 101.979 43.944C102.416 43.944 102.819 44.0213 103.187 44.176C103.56 44.3253 103.885 44.5387 104.163 44.816C104.445 45.0933 104.664 45.4187 104.819 45.792C104.973 46.1653 105.051 46.5733 105.051 47.016C105.051 47.4587 104.971 47.8667 104.811 48.24C104.656 48.6133 104.44 48.9387 104.163 49.216C103.885 49.4933 103.56 49.7093 103.187 49.864C102.813 50.0187 102.411 50.096 101.979 50.096ZM101.979 49.232C102.288 49.232 102.571 49.176 102.827 49.064C103.088 48.952 103.315 48.7973 103.507 48.6C103.699 48.3973 103.848 48.1627 103.955 47.896C104.061 47.624 104.115 47.3307 104.115 47.016C104.115 46.7013 104.061 46.4107 103.955 46.144C103.848 45.8773 103.699 45.6427 103.507 45.44C103.315 45.2373 103.088 45.08 102.827 44.968C102.571 44.856 102.288 44.8 101.979 44.8C101.669 44.8 101.384 44.856 101.123 44.968C100.867 45.08 100.643 45.2373 100.451 45.44C100.259 45.6427 100.109 45.8773 100.003 46.144C99.9015 46.4107 99.8508 46.7013 99.8508 47.016C99.8508 47.3307 99.9015 47.624 100.003 47.896C100.109 48.1627 100.259 48.3973 100.451 48.6C100.643 48.7973 100.869 48.952 101.131 49.064C101.392 49.176 101.675 49.232 101.979 49.232ZM107.505 50V44.04H109.673C110.073 44.04 110.425 44.1147 110.729 44.264C111.038 44.408 111.278 44.6213 111.449 44.904C111.619 45.1813 111.705 45.5147 111.705 45.904C111.705 46.288 111.617 46.6187 111.441 46.896C111.27 47.1733 111.033 47.3867 110.729 47.536C110.425 47.6853 110.073 47.76 109.673 47.76H108.449V50H107.505ZM108.449 46.92H109.697C109.91 46.92 110.097 46.8773 110.257 46.792C110.417 46.7067 110.542 46.5893 110.633 46.44C110.723 46.2853 110.769 46.104 110.769 45.896C110.769 45.688 110.723 45.5093 110.633 45.36C110.542 45.2053 110.417 45.088 110.257 45.008C110.097 44.9227 109.91 44.88 109.697 44.88H108.449V46.92ZM112.677 50V44.04H116.605V44.88H113.621V46.592H116.445V47.432H113.621V49.16H116.605V50H112.677ZM117.481 50V44.04H119.649C120.049 44.04 120.401 44.1147 120.705 44.264C121.009 44.408 121.247 44.6213 121.417 44.904C121.593 45.1813 121.681 45.5147 121.681 45.904C121.681 46.3147 121.577 46.6667 121.369 46.96C121.167 47.2533 120.892 47.4667 120.545 47.6L121.921 50H120.849L119.385 47.4L120.001 47.76H118.425V50H117.481ZM118.425 46.92H119.665C119.884 46.92 120.073 46.8773 120.233 46.792C120.393 46.7067 120.516 46.5893 120.601 46.44C120.692 46.2853 120.737 46.104 120.737 45.896C120.737 45.688 120.692 45.5093 120.601 45.36C120.516 45.2053 120.393 45.088 120.233 45.008C120.073 44.9227 119.884 44.88 119.665 44.88H118.425V46.92ZM124.948 50.096C124.505 50.096 124.11 50.0027 123.764 49.816C123.422 49.6293 123.153 49.3733 122.956 49.048C122.764 48.7227 122.668 48.352 122.668 47.936V44.04H123.612V47.896C123.612 48.1573 123.668 48.3893 123.78 48.592C123.897 48.7947 124.054 48.952 124.252 49.064C124.454 49.176 124.686 49.232 124.948 49.232C125.214 49.232 125.446 49.176 125.644 49.064C125.846 48.952 126.004 48.7947 126.116 48.592C126.233 48.3893 126.292 48.1573 126.292 47.896V44.04H127.228V47.936C127.228 48.352 127.132 48.7227 126.94 49.048C126.748 49.3733 126.478 49.6293 126.132 49.816C125.79 50.0027 125.396 50.096 124.948 50.096ZM129.593 50V49.32L131.225 47.576C131.545 47.2347 131.796 46.96 131.977 46.752C132.164 46.5387 132.297 46.352 132.377 46.192C132.463 46.032 132.505 45.864 132.505 45.688C132.505 45.4 132.417 45.1787 132.241 45.024C132.065 44.864 131.839 44.784 131.561 44.784C131.273 44.784 131.025 44.8667 130.817 45.032C130.609 45.192 130.465 45.4267 130.385 45.736L129.553 45.496C129.617 45.1813 129.745 44.9093 129.937 44.68C130.129 44.4453 130.364 44.264 130.641 44.136C130.924 44.008 131.228 43.944 131.553 43.944C131.932 43.944 132.263 44.016 132.545 44.16C132.828 44.2987 133.047 44.4933 133.201 44.744C133.361 44.9947 133.441 45.2853 133.441 45.616C133.441 45.8347 133.399 46.048 133.313 46.256C133.233 46.4587 133.108 46.6747 132.937 46.904C132.767 47.128 132.548 47.3813 132.281 47.664L130.841 49.2H133.553V50H129.593ZM136.847 50.096C136.372 50.096 135.956 49.968 135.599 49.712C135.241 49.4507 134.961 49.0907 134.759 48.632C134.561 48.168 134.463 47.6293 134.463 47.016C134.463 46.3973 134.561 45.8587 134.759 45.4C134.961 44.9413 135.239 44.584 135.591 44.328C135.948 44.072 136.364 43.944 136.839 43.944C137.313 43.944 137.727 44.072 138.079 44.328C138.436 44.584 138.713 44.944 138.911 45.408C139.113 45.8667 139.215 46.4027 139.215 47.016C139.215 47.6293 139.116 48.168 138.919 48.632C138.721 49.0907 138.444 49.4507 138.087 49.712C137.735 49.968 137.321 50.096 136.847 50.096ZM136.847 49.232C137.14 49.232 137.393 49.1413 137.607 48.96C137.82 48.7787 137.985 48.5227 138.103 48.192C138.22 47.8613 138.279 47.4693 138.279 47.016C138.279 46.5627 138.22 46.1707 138.103 45.84C137.985 45.5093 137.82 45.2533 137.607 45.072C137.393 44.8907 137.137 44.8 136.839 44.8C136.545 44.8 136.292 44.8907 136.079 45.072C135.865 45.2533 135.7 45.5093 135.583 45.84C135.465 46.1707 135.407 46.5627 135.407 47.016C135.407 47.464 135.465 47.856 135.583 48.192C135.7 48.5227 135.865 48.7787 136.079 48.96C136.297 49.1413 136.553 49.232 136.847 49.232ZM140.101 50V49.32L141.733 47.576C142.053 47.2347 142.304 46.96 142.485 46.752C142.672 46.5387 142.805 46.352 142.885 46.192C142.971 46.032 143.013 45.864 143.013 45.688C143.013 45.4 142.925 45.1787 142.749 45.024C142.573 44.864 142.347 44.784 142.069 44.784C141.781 44.784 141.533 44.8667 141.325 45.032C141.117 45.192 140.973 45.4267 140.893 45.736L140.061 45.496C140.125 45.1813 140.253 44.9093 140.445 44.68C140.637 44.4453 140.872 44.264 141.149 44.136C141.432 44.008 141.736 43.944 142.061 43.944C142.44 43.944 142.771 44.016 143.053 44.16C143.336 44.2987 143.555 44.4933 143.709 44.744C143.869 44.9947 143.949 45.2853 143.949 45.616C143.949 45.8347 143.907 46.048 143.821 46.256C143.741 46.4587 143.616 46.6747 143.445 46.904C143.275 47.128 143.056 47.3813 142.789 47.664L141.349 49.2H144.061V50H140.101ZM146.874 50.096C146.56 50.096 146.264 50.04 145.986 49.928C145.709 49.8107 145.469 49.648 145.266 49.44C145.064 49.232 144.92 48.9813 144.834 48.688L145.626 48.384C145.728 48.6667 145.893 48.8827 146.122 49.032C146.352 49.1813 146.602 49.256 146.874 49.256C147.098 49.256 147.296 49.2053 147.466 49.104C147.637 49.0027 147.77 48.864 147.866 48.688C147.968 48.512 148.018 48.312 148.018 48.088C148.018 47.8587 147.968 47.6587 147.866 47.488C147.77 47.312 147.637 47.176 147.466 47.08C147.296 46.9787 147.098 46.928 146.874 46.928C146.65 46.928 146.445 46.9787 146.258 47.08C146.072 47.1813 145.936 47.3173 145.85 47.488L145.09 47.32L145.554 44.04H148.73V44.84H145.922L146.282 44.448L145.938 46.96L145.642 46.76C145.802 46.536 145.997 46.3733 146.226 46.272C146.456 46.1707 146.717 46.12 147.01 46.12C147.4 46.12 147.738 46.208 148.026 46.384C148.32 46.5547 148.546 46.7893 148.706 47.088C148.872 47.3813 148.954 47.7147 148.954 48.088C148.954 48.4667 148.864 48.808 148.682 49.112C148.501 49.416 148.253 49.656 147.938 49.832C147.629 50.008 147.274 50.096 146.874 50.096Z" fill="#0047BB"/>
<g clip-path="url(#clip0_8215_2686)">
<path d="M4.4833 32.3503C7.40747 34.6016 7.47599 37.19 7.24842 38.5492C7.68154 39.2536 8.86345 39.9801 9.53882 40.353C8.19296 37.6154 7.19214 34.6237 6.53634 31.3917C5.85118 30.9663 4.75981 29.8779 4.04773 29.1293C3.57301 29.0878 2.58197 28.9027 1.19941 26.9359C-0.745968 24.1652 0.262203 19.5215 0.262203 19.5215L0.790756 19.7978C1.84297 20.3447 2.79486 21.1182 3.56078 22.0989C5.74106 24.9 5.26879 27.2591 4.78428 28.4276C5.0143 29.1293 5.83405 30.0188 6.37484 30.5519C5.79 27.342 5.53796 23.9027 5.62605 20.2425C5.11463 19.6956 4.40744 18.5906 3.94495 17.8309C3.54364 17.6928 2.7239 17.3171 1.87233 15.3226C0.673298 12.5188 2.33727 8.74528 2.33727 8.74528L2.74592 9.09611C3.55588 9.795 4.24349 10.6679 4.73289 11.679C6.12769 14.563 5.31772 16.4856 4.70108 17.3862C4.77449 18.0105 5.28102 18.9 5.65297 19.4801C5.76308 16.4386 6.09833 13.248 6.66848 9.91931C6.4874 9.64031 5.80468 8.96075 6.19621 6.016C6.67337 2.40826 10.4858 -0.00610352 10.4858 -0.00610352L10.6742 0.637543C11.0511 1.91931 11.2052 3.2729 11.0878 4.61821C10.7012 9.05467 8.06817 9.87788 7.07468 10.0326C7.00861 10.4884 6.91318 11.0712 6.85445 11.7398C6.74923 12.9359 6.53144 14.69 6.38218 16.8309C6.53879 16.69 6.73699 16.5105 6.93275 16.3309C6.78593 15.9442 6.58773 15.0933 7.31938 13.0657C8.39362 10.0961 12.0935 8.9276 12.0935 8.9276L12.1375 9.52152C12.2232 10.7038 12.1057 11.9 11.7583 13.0188C10.733 16.3282 8.70439 16.7453 7.65952 16.7259C7.25087 16.9331 6.73944 17.2259 6.33324 17.5851C6.16195 20.4801 6.14237 23.9939 6.66603 27.7619C6.82264 27.516 7.01595 27.2121 7.19948 26.9221C6.94744 26.469 6.6538 25.5491 6.86669 23.469C7.23129 19.911 10.9018 17.3972 10.9018 17.3972L11.1074 18.0243C11.5136 19.2674 11.7069 20.5933 11.631 21.9165C11.3839 26.2453 8.87323 27.1762 7.87975 27.3751C7.52248 27.7149 7.11139 28.1569 6.79572 28.6265C7.28023 31.6514 8.12689 34.8199 9.53637 37.9442C9.60978 37.7094 9.69543 37.4414 9.77863 37.179C9.42626 36.8337 8.9026 36.0519 8.59183 33.9387C8.07306 30.4027 10.9899 26.8475 10.9899 26.8475L11.3398 27.3862C12.0348 28.4552 12.5413 29.6679 12.7933 30.9635C13.6058 35.1735 11.4499 36.8558 10.5348 37.3668C10.3072 37.7563 10.0649 38.2232 9.88874 38.6983C11.3202 41.6707 13.2754 44.5906 15.928 47.295C15.9206 46.9939 15.9108 46.5795 15.901 46.1707C15.4239 45.9884 14.6041 45.4469 13.525 43.3862C11.7583 40.0132 13.4858 35.0878 13.4858 35.0878L14.0315 35.4801C15.1131 36.2591 16.0577 37.2701 16.7648 38.4801C19.0503 42.3779 17.4843 45.0436 16.7257 45.9939C16.6156 46.5768 16.525 47.2757 16.5446 47.911C18.6099 49.911 21.0716 51.7867 24.0055 53.4663C23.9615 53.1817 23.8905 52.7149 23.8171 52.2508C23.3644 52.1983 22.4395 51.9414 20.9468 49.8641C18.7592 46.8226 19.8261 41.6624 19.8261 41.6624L20.4158 41.9608C21.5879 42.5519 22.6523 43.3945 23.5112 44.4746C26.0464 47.6596 25.2511 50.3558 24.6173 51.6072C24.5684 52.2619 24.5512 53.1099 24.6736 53.8447C27.8278 55.5795 31.5081 57.0933 35.7952 58.3088C36.1623 58.4138 36.4633 58.6928 36.6003 59.0574C36.708 59.3475 36.7838 59.7812 36.1868 60.2177C36.0448 60.3226 35.8564 60.3724 35.6142 60.3724C34.535 60.3724 32.7242 59.3806 30.4289 58.1293C29.1271 57.4166 27.6491 56.6099 26.0733 55.8641L25.9925 55.8254C24.9672 56.1817 23.3816 56.4663 22.2413 56.6403C21.9305 56.9967 21.1841 58.1624 18.167 58.0961C14.45 58.0132 11.445 53.4608 11.445 53.4608L12.069 53.121C13.3072 52.4469 14.6555 52.0464 16.0307 51.9967C19.5667 51.8724 21.1792 53.7094 21.8889 55.0878C21.9525 55.1044 22.0161 55.1265 22.0773 55.1541C22.7355 55.4442 23.8563 55.3779 24.7861 55.248C22.8212 54.284 19.8799 52.6873 16.8872 50.0271C15.9989 50.1182 14.4573 49.9387 13.4173 49.7895C12.9622 50.1016 11.9516 50.6624 9.5584 49.8889C6.18886 48.8005 4.42457 43.8337 4.42457 43.8337L5.06568 43.6956C6.33813 43.4193 7.65217 43.4193 8.91483 43.7508C12.5168 44.6956 13.4491 47.19 13.6841 48.6099C14.2469 49.0381 15.3505 49.248 16.1457 49.3475C14.6873 47.9663 13.2338 46.3254 11.8928 44.3751C11.1832 43.342 10.5348 42.2619 9.94502 41.1375C9.17422 40.9829 7.64239 40.1016 6.65869 39.4994C6.15461 39.5989 5.08281 39.7066 3.18393 38.0823C0.511799 35.795 0.460407 30.6735 0.460407 30.6735L1.07461 30.8005C2.29567 31.0519 3.46779 31.5657 4.49308 32.3558L4.4833 32.3503Z" fill="#0047BB"/>
</g>
<g clip-path="url(#clip1_8215_2686)">
<path d="M195.849 32.3503C192.925 34.6016 192.857 37.19 193.084 38.5492C192.651 39.2536 191.469 39.9801 190.794 40.353C192.14 37.6154 193.14 34.6237 193.796 31.3917C194.481 30.9663 195.573 29.8779 196.285 29.1293C196.76 29.0878 197.751 28.9027 199.133 26.9359C201.078 24.1652 200.07 19.5215 200.07 19.5215L199.542 19.7978C198.49 20.3447 197.538 21.1182 196.772 22.0989C194.591 24.9 195.064 27.2591 195.548 28.4276C195.318 29.1293 194.498 30.0188 193.958 30.5519C194.543 27.342 194.795 23.9027 194.706 20.2425C195.218 19.6956 195.925 18.5906 196.388 17.8309C196.789 17.6928 197.609 17.3171 198.46 15.3226C199.659 12.5188 197.995 8.74528 197.995 8.74528L197.587 9.09611C196.777 9.795 196.089 10.6679 195.6 11.679C194.205 14.563 195.015 16.4856 195.631 17.3862C195.558 18.0105 195.051 18.9 194.68 19.4801C194.569 16.4386 194.234 13.248 193.664 9.91931C193.845 9.64031 194.528 8.96075 194.136 6.016C193.659 2.40826 189.847 -0.00610352 189.847 -0.00610352L189.658 0.637543C189.281 1.91931 189.127 3.2729 189.245 4.61821C189.631 9.05467 192.264 9.87788 193.258 10.0326C193.324 10.4884 193.419 11.0712 193.478 11.7398C193.583 12.9359 193.801 14.69 193.95 16.8309C193.794 16.69 193.596 16.5105 193.4 16.3309C193.547 15.9442 193.745 15.0933 193.013 13.0657C191.939 10.0961 188.239 8.9276 188.239 8.9276L188.195 9.52152C188.109 10.7038 188.227 11.9 188.574 13.0188C189.6 16.3282 191.628 16.7453 192.673 16.7259C193.082 16.9331 193.593 17.2259 193.999 17.5851C194.171 20.4801 194.19 23.9939 193.666 27.7619C193.51 27.516 193.317 27.2121 193.133 26.9221C193.385 26.469 193.679 25.5491 193.466 23.469C193.101 19.911 189.431 17.3972 189.431 17.3972L189.225 18.0243C188.819 19.2674 188.626 20.5933 188.702 21.9165C188.949 26.2453 191.459 27.1762 192.453 27.3751C192.81 27.7149 193.221 28.1569 193.537 28.6265C193.052 31.6514 192.206 34.8199 190.796 37.9442C190.723 37.7094 190.637 37.4414 190.554 37.179C190.906 36.8337 191.43 36.0519 191.741 33.9387C192.259 30.4027 189.343 26.8475 189.343 26.8475L188.993 27.3862C188.298 28.4552 187.791 29.6679 187.539 30.9635C186.727 35.1735 188.883 36.8558 189.798 37.3668C190.025 37.7563 190.268 38.2232 190.444 38.6983C189.012 41.6707 187.057 44.5906 184.405 47.295C184.412 46.9939 184.422 46.5795 184.431 46.1707C184.909 45.9884 185.728 45.4469 186.808 43.3862C188.574 40.0132 186.847 35.0878 186.847 35.0878L186.301 35.4801C185.219 36.2591 184.275 37.2701 183.568 38.4801C181.282 42.3779 182.848 45.0436 183.607 45.9939C183.717 46.5768 183.807 47.2757 183.788 47.911C181.723 49.911 179.261 51.7867 176.327 53.4663C176.371 53.1817 176.442 52.7149 176.515 52.2508C176.968 52.1983 177.893 51.9414 179.386 49.8641C181.573 46.8226 180.506 41.6624 180.506 41.6624L179.917 41.9608C178.745 42.5519 177.68 43.3945 176.821 44.4746C174.286 47.6596 175.081 50.3558 175.715 51.6072C175.764 52.2619 175.781 53.1099 175.659 53.8447C172.505 55.5795 168.824 57.0933 164.537 58.3088C164.17 58.4138 163.869 58.6928 163.732 59.0574C163.625 59.3475 163.549 59.7812 164.146 60.2177C164.288 60.3226 164.476 60.3724 164.718 60.3724C165.797 60.3724 167.608 59.3806 169.904 58.1293C171.205 57.4166 172.683 56.6099 174.259 55.8641L174.34 55.8254C175.365 56.1817 176.951 56.4663 178.091 56.6403C178.402 56.9967 179.148 58.1624 182.166 58.0961C185.883 58.0132 188.887 53.4608 188.887 53.4608L188.263 53.121C187.025 52.4469 185.677 52.0464 184.302 51.9967C180.766 51.8724 179.153 53.7094 178.444 55.0878C178.38 55.1044 178.316 55.1265 178.255 55.1541C177.597 55.4442 176.476 55.3779 175.546 55.248C177.511 54.284 180.453 52.6873 183.445 50.0271C184.334 50.1182 185.875 49.9387 186.915 49.7895C187.37 50.1016 188.381 50.6624 190.774 49.8889C194.144 48.8005 195.908 43.8337 195.908 43.8337L195.267 43.6956C193.994 43.4193 192.68 43.4193 191.418 43.7508C187.816 44.6956 186.883 47.19 186.648 48.6099C186.086 49.0381 184.982 49.248 184.187 49.3475C185.645 47.9663 187.099 46.3254 188.44 44.3751C189.149 43.342 189.798 42.2619 190.387 41.1375C191.158 40.9829 192.69 40.1016 193.674 39.4994C194.178 39.5989 195.25 39.7066 197.149 38.0823C199.821 35.795 199.872 30.6735 199.872 30.6735L199.258 30.8005C198.037 31.0519 196.865 31.5657 195.839 32.3558L195.849 32.3503Z" fill="#0047BB"/>
</g>
<defs>
<clipPath id="clip0_8215_2686">
<rect width="36.666" height="60.3702" fill="white" transform="matrix(-1 0 0 1 36.666 0)"/>
</clipPath>
<clipPath id="clip1_8215_2686">
<rect width="36.666" height="60.3702" fill="white" transform="translate(163.666)"/>
</clipPath>
</defs>
</svg>
