<svg preserveAspectRatio="none" width="100%" height="100%" overflow="visible" style="display: block;" viewBox="0 0 24.7768 40.7923" fill="none" xmlns="http://www.w3.org/2000/svg">
<path id="Vector" d="M21.7486 21.8603C19.773 23.3813 19.7267 25.1301 19.8804 26.0483C19.5878 26.5242 18.7893 27.0151 18.333 27.267C19.2423 25.4175 19.9184 23.3963 20.3615 21.2127C20.8244 20.9252 21.5618 20.1899 22.0428 19.6841C22.3636 19.6561 23.0331 19.5311 23.9672 18.2023C25.2815 16.3303 24.6004 13.1931 24.6004 13.1931L24.2433 13.3797C23.5324 13.7492 22.8893 14.2718 22.3718 14.9343C20.8988 16.8268 21.2179 18.4206 21.5452 19.2101C21.3898 19.6841 20.836 20.2851 20.4706 20.6453C20.8657 18.4766 21.036 16.153 20.9765 13.6802C21.322 13.3106 21.7998 12.5641 22.1123 12.0509C22.3834 11.9575 22.9372 11.7037 23.5126 10.3562C24.3226 8.46192 23.1984 5.91252 23.1984 5.91252L22.9224 6.14954C22.3751 6.62172 21.9106 7.21148 21.5799 7.89456C20.6376 9.843 21.1848 11.142 21.6014 11.7504C21.5518 12.1722 21.2096 12.7731 20.9583 13.1651C20.8839 11.1102 20.6574 8.95463 20.2722 6.70571C20.3946 6.51721 20.8558 6.05809 20.5913 4.06859C20.2689 1.63117 17.6932 0 17.6932 0L17.5659 0.434854C17.3113 1.30083 17.2072 2.21533 17.2865 3.12423C17.5477 6.12155 19.3266 6.67771 19.9978 6.78223C20.0424 7.09017 20.1069 7.48396 20.1466 7.93561C20.2177 8.74373 20.3648 9.92885 20.4657 11.3753C20.3599 11.2801 20.2259 11.1588 20.0937 11.0374C20.1929 10.7762 20.3268 10.2013 19.8325 8.83145C19.1067 6.82515 16.607 6.0357 16.607 6.0357L16.5773 6.43696C16.5194 7.23574 16.5988 8.04386 16.8335 8.79972C17.5262 11.0356 18.8968 11.3174 19.6027 11.3043C19.8788 11.4443 20.2243 11.6421 20.4987 11.8848C20.6145 13.8407 20.6277 16.2146 20.2739 18.7603C20.1681 18.5942 20.0375 18.3889 19.9135 18.1929C20.0838 17.8869 20.2822 17.2654 20.1383 15.86C19.892 13.4562 17.4122 11.7578 17.4122 11.7578L17.2733 12.1815C16.9989 13.0213 16.8682 13.9172 16.9195 14.8112C17.0865 17.7357 18.7827 18.3646 19.4539 18.499C19.6953 18.7286 19.973 19.0272 20.1863 19.3445C19.8589 21.3881 19.2869 23.5288 18.3347 25.6396C18.2851 25.4809 18.2272 25.2999 18.171 25.1226C18.4091 24.8893 18.7628 24.3611 18.9728 22.9334C19.3233 20.5445 17.3526 18.1425 17.3526 18.1425L17.1162 18.5065C16.6467 19.2287 16.3045 20.0481 16.1342 20.9234C15.5853 23.7676 17.0418 24.9042 17.6601 25.2495C17.8139 25.5127 17.9776 25.8281 18.0966 26.1491C17.1295 28.1572 15.8085 30.13 14.0164 31.9571C14.0214 31.7537 14.028 31.4737 14.0346 31.1975C14.357 31.0743 14.9108 30.7085 15.6399 29.3162C16.8335 27.0375 15.6664 23.7098 15.6664 23.7098L15.2977 23.9748C14.567 24.5011 13.9288 25.1842 13.451 26.0016C11.9069 28.635 12.965 30.436 13.4775 31.078C13.5519 31.4718 13.6131 31.944 13.5998 32.3733C12.2045 33.7245 10.5414 34.9917 8.55915 36.1265C8.5889 35.9342 8.63685 35.6188 8.68644 35.3053C8.99229 35.2698 9.61721 35.0962 10.6257 33.6928C12.1037 31.6379 11.3829 28.1517 11.3829 28.1517L10.9844 28.3532C10.1925 28.7526 9.47338 29.3218 8.8931 30.0516C7.18036 32.2034 7.71765 34.025 8.14584 34.8704C8.1789 35.3127 8.19048 35.8857 8.10782 36.3821C5.97681 37.5542 3.49036 38.5769 0.593912 39.3981C0.345929 39.469 0.142582 39.6575 0.0500018 39.9039C-0.0227401 40.0999 -0.07399 40.3929 0.329397 40.6878C0.425284 40.7587 0.552582 40.7923 0.716251 40.7923C1.44532 40.7923 2.66871 40.1223 4.21943 39.2768C5.09895 38.7953 6.0975 38.2503 7.16217 37.7464L7.21673 37.7203C7.90943 37.9611 8.98072 38.1533 9.75112 38.2709C9.96108 38.5116 10.4653 39.2992 12.5037 39.2544C15.015 39.1984 17.0451 36.1227 17.0451 36.1227L16.6236 35.8932C15.787 35.4378 14.8761 35.1672 13.947 35.1336C11.5581 35.0496 10.4686 36.2907 9.98918 37.222C9.9462 37.2332 9.90322 37.2481 9.86189 37.2668C9.41717 37.4627 8.65999 37.418 8.03177 37.3302C9.35931 36.6789 11.3465 35.6002 13.3684 33.8029C13.9685 33.8645 15.01 33.7432 15.7126 33.6424C16.0201 33.8533 16.7029 34.2321 18.3198 33.7096C20.5963 32.9742 21.7882 29.6186 21.7882 29.6186L21.3551 29.5253C20.4954 29.3386 19.6076 29.3386 18.7546 29.5626C16.321 30.2009 15.6912 31.8862 15.5324 32.8455C15.1522 33.1347 14.4066 33.2766 13.8693 33.3438C14.8546 32.4106 15.8366 31.302 16.7426 29.9844C17.222 29.2864 17.6601 28.5566 18.0586 27.797C18.5793 27.6925 19.6143 27.0972 20.2788 26.6903C20.6194 26.7575 21.3435 26.8303 22.6264 25.7329C24.4317 24.1876 24.4665 20.7274 24.4665 20.7274L24.0515 20.8133C23.2265 20.9831 22.4347 21.3302 21.742 21.864L21.7486 21.8603Z" fill="var(--fill-0, #0047BB)"/>
</svg>
