<svg preserveAspectRatio="none" width="100%" height="100%" overflow="visible" style="display: block;" viewBox="0 0 24 24" fill="none" xmlns="http://www.w3.org/2000/svg">
<g id="add-to-cart 2">
<path id="Vector" d="M18.375 1.5C15.6862 1.5 13.5 3.68625 13.5 6.375C13.7668 12.8425 22.9842 12.8406 23.25 6.37496C23.25 3.68625 21.0638 1.5 18.375 1.5ZM20.625 6.75H18.75V8.625C18.75 8.83125 18.5813 9 18.375 9C18.1687 9 18 8.83125 18 8.625V6.75H16.125C15.9187 6.75 15.75 6.58125 15.75 6.375C15.75 6.16875 15.9187 6 16.125 6H18V4.125C18 3.91875 18.1687 3.75 18.375 3.75C18.5813 3.75 18.75 3.91875 18.75 4.125V6H20.625C21.1175 6.00937 21.1176 6.74066 20.625 6.75Z" fill="var(--fill-0, #DAE3ED)"/>
<path id="Vector_2" d="M4.61625 17.3588L6.6 16.695L6.6525 16.68C6.73875 16.65 6.825 16.6237 6.91125 16.5975C6.9225 16.5937 6.93375 16.59 6.945 16.5862C6.96 16.5825 6.975 16.575 6.99 16.5712C8.66625 16.05 9.765 15.75 12.4125 15.75H18.2137C19.14 15.75 19.9162 15.0862 20.0625 14.16L20.385 11.6288C16.5046 13.192 12.1661 9.76672 12.8025 5.625H4.36875L3.885 3.8325C3.75375 3.34125 3.3075 3 2.80125 3H1.125C0.6357 3.00356 0.6342 3.74651 1.12504 3.75C1.125 3.75 2.80125 3.75 2.80125 3.75C2.97 3.75 3.11625 3.8625 3.16125 4.0275L6.375 15.9788L4.38 16.6462C2.80088 17.1958 3.18821 19.501 4.88629 19.5C4.88625 19.5 6.375 19.5 6.375 19.5C5.43615 20.6743 6.35501 22.5352 7.87129 22.5C9.38719 22.5353 10.3067 20.674 9.3675 19.5H16.1287C15.1876 20.674 16.1133 22.5353 17.625 22.5C20.1007 22.4236 20.1049 18.8276 17.625 18.75H4.88625C4.0458 18.7623 3.82766 17.6246 4.61625 17.3588Z" fill="var(--fill-0, white)"/>
</g>
</svg>
