<svg preserveAspectRatio="none" width="100%" height="100%" overflow="visible" style="display: block;" viewBox="0 0 18 18" fill="none" xmlns="http://www.w3.org/2000/svg">
<g id="Group">
<path id="Vector" d="M9 0C4.03763 0 0 4.03763 0 9C0 13.9624 4.03763 18 9 18C13.9624 18 18 13.9624 18 9C18 4.03763 13.9624 0 9 0ZM15.372 4.39088C14.4022 4.77563 13.4055 5.0805 12.3829 5.28075C11.9486 3.85087 11.259 2.48175 10.3118 1.24313C12.3863 1.59413 14.184 2.754 15.372 4.39088ZM11.547 11.4525C9.85725 11.2208 8.14163 11.2208 6.45188 11.4525C6.10538 9.83925 6.10425 8.16975 6.44962 6.55538C7.28887 6.67013 8.13712 6.75 9 6.75C9.86288 6.75 10.71 6.67013 11.5492 6.55538C11.8946 8.16975 11.8935 9.83925 11.547 11.4525ZM11.2556 5.45512C9.75825 5.64862 8.24062 5.64862 6.74325 5.45512C7.2045 4.00837 7.95825 2.637 9 1.422C10.0417 2.637 10.7944 4.00837 11.2556 5.45512ZM7.686 1.24313C6.73875 2.48175 6.05025 3.85087 5.616 5.28075C4.5945 5.0805 3.59775 4.77563 2.628 4.39088C3.81487 2.754 5.61262 1.59413 7.686 1.24313ZM1.125 9C1.125 7.68825 1.45238 6.453 2.02163 5.364C3.09713 5.80613 4.20075 6.15375 5.33588 6.38212C4.97475 8.11125 4.97475 9.89663 5.337 11.6269C4.203 11.853 3.09488 12.1984 2.02163 12.6394C1.45238 11.5481 1.125 10.3129 1.125 9ZM2.628 13.6091C3.59775 13.2244 4.5945 12.9195 5.616 12.7192C6.05025 14.1491 6.73988 15.5183 7.68713 16.7569C5.61263 16.4059 3.81487 15.246 2.628 13.6091ZM6.74437 12.5449C8.24062 12.3514 9.75825 12.3514 11.2556 12.5449C10.7944 13.9916 10.0406 15.363 9 16.578C7.95825 15.363 7.20562 13.9916 6.74437 12.5449ZM10.3118 16.7569C11.259 15.5183 11.9486 14.1491 12.3829 12.7192C13.4044 12.9195 14.4022 13.2255 15.372 13.6091C14.184 15.246 12.3863 16.4059 10.3118 16.7569ZM12.6619 11.6246C13.0241 9.8955 13.0252 8.11012 12.663 6.381C13.7981 6.15262 14.9029 5.80613 15.9784 5.36288C16.5476 6.453 16.875 7.68825 16.875 9C16.875 10.3129 16.5476 11.5481 15.9784 12.6371C14.9051 12.1972 13.797 11.8519 12.6619 11.6246Z" fill="var(--fill-0, #0047BB)"/>
</g>
</svg>
