<svg preserveAspectRatio="none" width="100%" height="100%" overflow="visible" style="display: block;" viewBox="0 0 24 24" fill="none" xmlns="http://www.w3.org/2000/svg">
<g id="spread (1) 1" clip-path="url(#clip0_0_101)">
<path id="Vector" d="M16.263 12.0165L5.4 3.1605L7.2795 1.281C7.4955 1.065 7.56 0.744 7.443 0.4635C7.3275 0.183 7.053 0 6.75 0H0.75C0.336 0 0 0.336 0 0.75V6.75C0 7.053 0.183 7.3275 0.4635 7.443C0.5565 7.482 0.654 7.5 0.75 7.5C0.945 7.5 1.137 7.4235 1.281 7.281L3.2685 5.2935L14.367 14.343L16.263 12.0165Z" fill="var(--fill-0, #DAE3ED)"/>
<path id="Vector_2" d="M23.25 0H17.25C16.947 0 16.6725 0.183 16.557 0.4635C16.4415 0.744 16.506 1.0665 16.719 1.281L18.6 3.1605L7.737 12.0165C6.156 13.305 5.25 15.213 5.25 17.25C5.25 20.9715 8.2785 24 12 24C15.7215 24 18.75 20.9715 18.75 17.25C18.75 15.213 17.844 13.3065 16.263 12.0165C15.576 11.457 14.775 11.076 13.932 10.836L20.7315 5.292L22.719 7.2795C22.863 7.4235 23.055 7.5 23.25 7.5C23.346 7.5 23.445 7.482 23.5365 7.443C23.817 7.3275 24 7.053 24 6.75V0.75C24 0.336 23.664 0 23.25 0ZM12 13.5C12.8745 13.5 13.692 13.791 14.367 14.3415V14.343C15.246 15.06 15.75 16.119 15.75 17.25C15.75 19.3185 14.0685 21 12 21C9.933 21 8.25 19.3185 8.25 17.25C8.25 16.1175 8.754 15.06 9.633 14.3415L9.6405 14.3355C10.314 13.7895 11.1285 13.5 12 13.5Z" fill="var(--fill-0, white)"/>
</g>
<defs>
<clipPath id="clip0_0_101">
<rect width="24" height="24" fill="white"/>
</clipPath>
</defs>
</svg>
